<svg width="168" height="40" viewBox="0 0 168 40" fill="none" xmlns="http://www.w3.org/2000/svg">
<g clip-path="url(#clip0_50_26497)">
<path d="M61.1798 29.7996C58.1771 30.4554 52.0967 31.4025 52.7723 27.1038C53.2978 23.898 58.5524 23.898 61.9305 24.3352L61.1798 29.7996ZM50.1449 17.9235C54.4988 16.9763 62.4559 14.4262 62.3809 20.8379C58.5524 20.9107 55.6999 20.4007 52.0967 21.6393C42.8634 24.918 45.6409 37.5228 61.9305 33.7341C66.96 32.5683 66.0591 32.2769 66.8098 27.4681C67.7106 21.8579 69.7374 14.7905 61.7053 12.8962C59.4532 12.3862 53.7482 12.6776 51.5712 13.4062L50.1449 17.9235ZM125.437 21.4208L115.603 21.4936C116.279 15.592 126.413 13.7705 125.437 21.4208ZM127.464 29.1439C124.611 29.6539 122.359 30.7468 119.132 30.2368C116.279 29.7268 114.628 28.2696 114.853 25.0638H130.166C130.617 20.6193 131.443 13.9891 123.786 12.8233C109.898 10.7832 104.644 27.9053 113.502 33.0055C117.03 35.0455 125.287 34.4627 126.188 33.0783C126.488 32.714 127.314 29.7996 127.464 29.1439ZM149.759 28.9253L148.558 32.9326C153.737 35.847 168.826 34.4627 165.598 25.7923C164.997 24.1894 163.721 23.2423 162.22 22.3679C161.244 21.7851 158.467 20.5464 157.866 19.8907C156.065 17.7778 159.142 14.9362 166.424 17.7778C166.874 17.1949 166.949 16.6849 167.249 15.8834C167.55 15.082 167.7 14.6448 167.925 13.8434C164.022 12.969 160.268 11.949 156.064 13.4791C152.912 14.6448 147.507 20.1093 156.365 24.7723C157.716 25.5009 160.043 26.3024 159.968 27.9781C159.893 29.8725 157.416 30.2368 155.389 30.1639C152.762 30.1639 151.936 29.5082 149.759 28.9253ZM149.158 13.7705C145.255 13.0419 141.201 11.8033 137.073 13.5519C135.346 14.2805 134.22 15.082 133.469 16.7577C130.166 24.2623 141.802 24.6994 141.276 28.1239C140.976 29.8725 138.574 30.2368 136.547 30.1639C134.22 30.0911 133.169 29.5811 131.217 28.9253C130.617 29.6539 130.016 31.7668 129.941 32.9326C132.644 34.4627 139.024 34.6812 142.177 33.6612C145.255 32.6412 148.783 29.5082 146.756 25.3552C145.255 22.3679 139.775 21.2022 138.949 19.5264C137.823 17.3406 140.526 16.612 142.252 16.5392C144.654 16.4663 145.93 17.122 147.882 17.7778L149.158 13.7705ZM90.0806 13.8434C85.8018 12.7505 81.598 12.0219 77.2441 13.7705C69.5873 16.7577 67.3353 27.6867 73.5659 32.3497C76.6436 34.6084 81.4479 34.6084 85.9519 33.8798L87.5283 29.2896C84.5256 29.9454 81.7482 30.7468 78.8956 29.071C74.3916 26.3752 75.4425 19.3078 80.6972 17.4135C84.1503 16.1749 85.8018 17.1949 88.7294 17.8506L90.0806 13.8434ZM107.196 29.3625C104.043 29.9454 101.641 30.7468 98.7133 29.2168C94.4345 26.9581 94.8098 19.6721 100.365 17.4863C103.818 16.102 105.469 17.4135 108.397 17.8506L109.823 13.9162C105.319 12.7505 100.215 11.949 96.0109 14.2076C87.0028 19.0164 85.8018 36.1384 103.743 34.1712C105.695 33.9526 105.619 34.1712 106.145 32.5683C106.52 31.4754 106.971 30.4554 107.196 29.3625Z" fill="#9E9E9E"/>
<path d="M16.815 3.20583L35.4316 21.2022L19.3673 36.7942L3.30295 21.2022L11.0349 13.4791H7.88204L0 21.2022L19.3673 40L38.6595 21.2022L16.8901 0L16.815 3.20583Z" fill="#9E9E9E"/>
<path d="M16.8892 13.5519L13.5112 13.4791L5.7793 21.2022L19.3664 34.3898L32.9536 21.2022L16.8892 5.53735L16.8141 8.59746L29.8007 21.2022L19.3664 31.3297L9.00718 21.2022L16.8892 13.5519Z" fill="#9E9E9E"/>
<path d="M19.293 16.6848L24.0223 21.2021L19.293 25.7194L14.5638 21.2021L19.293 16.6848ZM27.2501 21.2021L19.293 13.479L11.3359 21.2021L19.293 28.9253L27.2501 21.2021Z" fill="#9E9E9E"/>
</g>
<defs>
<clipPath id="clip0_50_26497">
<rect width="168" height="40" fill="white"/>
</clipPath>
</defs>
</svg>
