<svg width="419" height="352" viewBox="0 0 419 352" fill="none" xmlns="http://www.w3.org/2000/svg">
<g clip-path="url(#clip0_49_26095)">
<path d="M0.000233173 3.33134C1.84167 3.33134 3.33445 1.8399 3.33445 0.000114441C3.33445 -1.83967 1.84167 -3.33112 0.000233173 -3.33112C-1.8412 -3.33112 -3.33398 -1.83967 -3.33398 0.000114441C-3.33398 1.8399 -1.8412 3.33134 0.000233173 3.33134Z" fill="#0F585B"/>
<path d="M101.304 178.254C100.171 177.788 98.3257 177.788 97.2032 178.254L86.4337 182.762C85.3112 183.229 85.3112 184.006 86.4337 184.473L292.255 270.085C293.389 270.551 295.234 270.551 296.356 270.085L307.126 265.577C308.248 265.11 308.248 264.333 307.126 263.867L101.304 178.254Z" fill="#0F585B"/>
<path d="M200.785 254.961C199.651 254.495 197.806 254.495 196.684 254.961L185.914 259.469C184.792 259.936 184.792 260.713 185.914 261.18L391.735 346.792C392.869 347.259 394.714 347.259 395.837 346.792L406.606 342.284C407.729 341.818 407.729 341.04 406.606 340.574L200.785 254.961Z" fill="#0F585B"/>
<path d="M57.925 289.106C72.2621 289.106 85.6879 286.675 95.7239 282.277C104.815 278.291 110.028 273.094 110.028 268.02C110.028 262.945 104.815 257.748 95.7239 253.762C85.6768 249.354 72.251 246.933 57.925 246.933C43.5989 246.933 30.1621 249.365 20.1261 253.762C11.0348 257.748 5.82227 262.945 5.82227 268.02C5.82227 273.094 11.0348 278.291 20.1261 282.277C30.1621 286.686 43.5878 289.106 57.925 289.106Z" fill="#0F585B"/>
<path d="M151.619 178.099V246.622C151.619 252.729 156.231 259.647 161.877 261.99L250.312 298.778C255.958 301.121 260.57 298.045 260.57 291.938V269.03" stroke="#0F585B" stroke-miterlimit="10" stroke-linejoin="round"/>
<path d="M148.773 219.417L153.275 221.294L154.453 220.794L149.952 218.928L148.773 219.417Z" fill="#0F585B" stroke="#0F585B" stroke-miterlimit="10" stroke-linejoin="round"/>
<path d="M154.452 238.139L153.273 238.627V221.294L154.452 220.794V238.139Z" fill="#0F585B" stroke="#0F585B" stroke-miterlimit="10" stroke-linejoin="round"/>
<path d="M148.773 219.417L153.275 221.294V238.627L148.773 236.762V219.417Z" fill="#0F585B" stroke="#0F585B" stroke-miterlimit="10" stroke-linejoin="round"/>
<path d="M151.619 199.185V211.356" stroke="#00D4DD" stroke-miterlimit="10" stroke-linejoin="round"/>
<path d="M260.568 279.724V292.138" stroke="#00D4DD" stroke-miterlimit="10"/>
<path d="M0.000233173 3.33134C1.84167 3.33134 3.33445 1.8399 3.33445 0.000114441C3.33445 -1.83967 1.84167 -3.33112 0.000233173 -3.33112C-1.8412 -3.33112 -3.33398 -1.83967 -3.33398 0.000114441C-3.33398 1.8399 -1.8412 3.33134 0.000233173 3.33134Z" fill="#0F585B"/>
<path d="M101.949 261.246C104.35 258.748 105.695 256.005 105.695 253.118V256.338C105.695 259.225 104.35 261.968 101.949 264.466V261.246Z" fill="#00D4DD" stroke="#0F585B" stroke-miterlimit="10" stroke-linejoin="round"/>
<path d="M101.949 262.934C104.35 260.436 105.695 257.693 105.695 254.806V256.338C105.695 259.225 104.35 261.968 101.949 264.466V262.934Z" fill="#00D4DD" stroke="#0F585B" stroke-miterlimit="10" stroke-linejoin="round"/>
<path d="M105.695 246.966V262.479C105.695 274.049 84.3112 283.432 57.9264 283.432C31.5417 283.432 10.1582 274.049 10.1582 262.479V246.966H105.695Z" fill="#EAEAEA" stroke="#0F585B" stroke-miterlimit="10" stroke-linejoin="round"/>
<path d="M57.9264 267.92C84.3081 267.92 105.695 258.539 105.695 246.966C105.695 235.394 84.3081 226.013 57.9264 226.013C31.5448 226.013 10.1582 235.394 10.1582 246.966C10.1582 258.539 31.5448 267.92 57.9264 267.92Z" fill="#00D4DD" stroke="#0F585B" stroke-miterlimit="10" stroke-linejoin="round"/>
<path d="M57.9255 265.199C70.3177 265.199 81.9208 263.1 90.612 259.292C98.4696 255.849 102.982 251.352 102.982 246.966C102.982 242.58 98.4696 238.083 90.612 234.641C81.9208 230.832 70.3177 228.733 57.9255 228.733C45.5334 228.733 33.9303 230.832 25.2391 234.641C17.3814 238.094 12.8691 242.58 12.8691 246.966C12.8691 251.352 17.3814 255.849 25.2391 259.292C33.9192 263.112 45.5334 265.199 57.9255 265.199Z" fill="#0F585B" stroke="#0F585B" stroke-miterlimit="10" stroke-linejoin="round"/>
<path d="M89.2578 268.93C99.3271 265.088 105.696 259.436 105.696 253.118V256.338C105.696 262.656 99.3271 268.308 89.2578 272.15V268.93Z" fill="#00D4DD" stroke="#0F585B" stroke-miterlimit="10" stroke-linejoin="round"/>
<path d="M14.4599 255.661L14.4488 255.65V255.639C11.7037 252.996 10.1699 250.064 10.1699 246.966V262.479C10.1699 262.668 10.1922 262.845 10.2033 263.023C10.3589 265.71 11.6592 268.264 13.9154 270.607V270.618C15.727 272.506 18.1498 274.249 21.0728 275.804L25.0405 277.669V262.157L25.0072 262.135C20.5949 260.302 17.0051 258.104 14.4599 255.661Z" fill="#00D4DD"/>
<path d="M57.9264 267.92C31.5417 267.92 10.1582 258.537 10.1582 246.966V262.479C10.1582 274.049 31.5417 283.432 57.9264 283.432C84.3112 283.432 105.695 274.049 105.695 262.479V246.966C105.695 258.548 84.3112 267.92 57.9264 267.92Z" stroke="#0F585B" stroke-miterlimit="10" stroke-linejoin="round"/>
<path d="M105.695 223.015V238.527C105.695 250.098 84.3112 259.481 57.9264 259.481C31.5417 259.481 10.1582 250.098 10.1582 238.527V223.015H105.695Z" fill="#EAEAEA" stroke="#0F585B" stroke-miterlimit="10" stroke-linejoin="round"/>
<path d="M14.4599 231.709L14.4488 231.698V231.687C11.7037 229.044 10.1699 226.113 10.1699 223.015V238.527C10.1699 238.716 10.1922 238.894 10.2033 239.071C10.3589 241.759 11.6592 244.312 13.9154 246.655V246.667C15.727 248.554 18.1498 250.298 21.0728 251.852L25.0405 253.718V238.205L25.0072 238.183C20.5949 236.351 17.0051 234.152 14.4599 231.709Z" fill="#00D4DD"/>
<path d="M57.9264 243.968C84.3081 243.968 105.695 234.586 105.695 223.015C105.695 211.442 84.3081 202.061 57.9264 202.061C31.5448 202.061 10.1582 211.442 10.1582 223.015C10.1582 234.586 31.5448 243.968 57.9264 243.968Z" fill="#00D4DD" stroke="#0F585B" stroke-miterlimit="10" stroke-linejoin="round"/>
<path d="M57.9255 241.259C70.3177 241.259 81.9208 239.16 90.612 235.351C98.4696 231.909 102.982 227.412 102.982 223.026C102.982 218.64 98.4696 214.143 90.612 210.7C81.9208 206.892 70.3177 204.793 57.9255 204.793C45.5334 204.793 33.9303 206.892 25.2391 210.7C17.3814 214.154 12.8691 218.64 12.8691 223.026C12.8691 227.412 17.3814 231.909 25.2391 235.351C33.9192 239.16 45.5334 241.259 57.9255 241.259Z" fill="#0F585B" stroke="#0F585B" stroke-miterlimit="10" stroke-linejoin="round"/>
<path d="M36.7869 247.744V250.964C21.0049 247.544 10.1465 240.415 10.1465 232.165V228.944C10.1465 237.195 21.0049 244.324 36.7869 247.744Z" fill="#00D4DD" stroke="#0F585B" stroke-miterlimit="10" stroke-linejoin="round"/>
<path d="M57.9264 243.968C31.5417 243.968 10.1582 234.585 10.1582 223.015V238.527C10.1582 250.098 31.5417 259.481 57.9264 259.481C84.3112 259.481 105.695 250.098 105.695 238.527V223.015C105.695 234.596 84.3112 243.968 57.9264 243.968Z" stroke="#0F585B" stroke-miterlimit="10" stroke-linejoin="round"/>
<path d="M105.695 199.063V214.576C105.695 226.146 84.3112 235.529 57.9264 235.529C31.5417 235.529 10.1582 226.146 10.1582 214.576V199.063H105.695Z" fill="#EAEAEA" stroke="#0F585B" stroke-miterlimit="10" stroke-linejoin="round"/>
<path d="M57.9264 220.017C84.3081 220.017 105.695 210.636 105.695 199.063C105.695 187.491 84.3081 178.11 57.9264 178.11C31.5448 178.11 10.1582 187.491 10.1582 199.063C10.1582 210.636 31.5448 220.017 57.9264 220.017Z" fill="#00D4DD" stroke="#0F585B" stroke-miterlimit="10" stroke-linejoin="round"/>
<path d="M57.9255 217.307C70.3177 217.307 81.9208 215.209 90.612 211.4C98.4696 207.958 102.982 203.46 102.982 199.074C102.982 194.688 98.4696 190.191 90.612 186.749C81.9208 182.94 70.3177 180.841 57.9255 180.841C45.5334 180.841 33.9303 182.94 25.2391 186.749C17.3814 190.202 12.8691 194.688 12.8691 199.074C12.8691 203.46 17.3814 207.958 25.2391 211.4C33.9192 215.209 45.5334 217.307 57.9255 217.307Z" fill="#EAEAEA" stroke="#0F585B" stroke-miterlimit="10" stroke-linejoin="round"/>
<path d="M57.9276 226.424C67.2745 226.424 75.988 225.247 83.3455 223.204V226.446C75.9768 228.478 67.2745 229.666 57.9276 229.666C48.5807 229.666 39.8673 228.489 32.5098 226.446V223.204C39.8673 225.247 48.5807 226.424 57.9276 226.424Z" fill="#00D4DD" stroke="#0F585B" stroke-miterlimit="10" stroke-linejoin="round"/>
<path d="M14.4599 207.758L14.4488 207.747V207.736C11.7037 205.093 10.1699 202.161 10.1699 199.063V214.576C10.1699 214.764 10.1922 214.942 10.2033 215.12C10.3589 217.807 11.6592 220.361 13.9154 222.704V222.715C15.727 224.603 18.1498 226.346 21.0728 227.901L25.0405 229.766V214.254L25.0072 214.231C20.5949 212.399 17.0051 210.201 14.4599 207.758Z" fill="#00D4DD"/>
<path d="M57.9264 220.028C31.5417 220.028 10.1582 210.645 10.1582 199.074V214.587C10.1582 226.157 31.5417 235.54 57.9264 235.54C84.3112 235.54 105.695 226.157 105.695 214.587V199.074C105.695 210.645 84.3112 220.028 57.9264 220.028Z" stroke="#0F585B" stroke-miterlimit="10" stroke-linejoin="round"/>
<path d="M90.6126 190.069C81.9214 186.26 70.3183 184.161 57.9261 184.161C45.534 184.161 33.9309 186.26 25.2397 190.069C18.3712 193.078 14.0701 196.887 13.092 200.729C12.9475 200.174 12.8809 199.618 12.8809 199.063C12.8809 194.677 17.3932 190.18 25.2508 186.738C33.942 182.929 45.5451 180.83 57.9373 180.83C70.3294 180.83 81.9325 182.929 90.6237 186.738C98.4813 190.191 102.994 194.677 102.994 199.063C102.994 199.618 102.916 200.174 102.782 200.729C101.782 196.887 97.4811 193.078 90.6126 190.069Z" fill="#0F585B" stroke="#0F585B" stroke-miterlimit="10" stroke-linejoin="round"/>
<path d="M299.323 88.0554L103.76 6.70682C101.649 5.82959 99.7816 6.1183 98.1811 6.74013C97.1809 7.12877 90.279 9.9159 88.1562 10.993C89.1676 10.6155 90.4124 10.6599 91.7461 11.215L287.309 92.5637C290.699 93.9739 293.466 98.1268 293.466 101.791V241.847L299.312 244.279C302.702 245.689 305.469 243.846 305.469 240.171V97.2829C305.481 93.6186 302.713 89.4656 299.323 88.0554Z" fill="#EAEAEA" stroke="#0F585B" stroke-miterlimit="10" stroke-linejoin="round"/>
<path d="M299.815 88.8105L288.801 93.3965C291.268 95.0955 293.169 98.1824 293.435 101.092L304.838 96.3391C304.405 93.3854 302.382 90.3429 299.815 88.8105Z" fill="#00D4DD"/>
<path d="M85.5879 158.211C85.5879 161.876 88.3553 166.029 91.7451 167.439L287.308 248.787C290.698 250.198 293.465 248.354 293.465 244.679V101.791C293.465 98.1269 290.698 93.974 287.308 92.5638L91.7451 11.204C88.3553 9.79381 85.5879 11.6371 85.5879 15.3125V158.211Z" fill="#0F585B" stroke="#0F585B" stroke-miterlimit="10" stroke-linejoin="round"/>
<path d="M105.451 42.062C104.362 41.6068 104.206 42.2064 104.206 42.6839C104.206 43.0947 104.273 43.5389 104.329 43.983C104.395 44.4272 104.451 44.8825 104.451 45.2933C104.451 46.8479 103.484 46.9923 102.217 46.4704L101.895 46.3371V45.4932L102.161 45.6042C103.028 45.9485 103.395 45.6376 103.395 44.7825C103.395 44.4161 103.328 44.0386 103.284 43.6277C103.217 43.2391 103.162 42.8282 103.162 42.4063C103.162 41.418 103.595 41.0738 104.273 41.1959V41.1626C103.595 40.6962 103.162 40.0189 103.162 39.0417C103.162 38.6309 103.228 38.2866 103.284 37.9202C103.328 37.576 103.395 37.2318 103.395 36.8764C103.395 36.0436 103.073 35.4329 102.183 35.0442L101.906 34.9332V34.0893L102.217 34.2225C103.528 34.7666 104.462 35.7549 104.462 37.1762C104.462 37.6093 104.395 37.9979 104.34 38.3977C104.273 38.8085 104.217 39.2083 104.217 39.6413C104.217 40.1743 104.373 40.8406 105.462 41.2959V42.062H105.451Z" fill="#00D4DD"/>
<path d="M115.975 52.3441C117.064 51.2782 117.92 49.6236 117.92 46.8587C117.92 44.1049 117.086 41.7841 115.975 39.8076L117.019 40.2407C118.008 41.9174 119.031 44.3159 119.031 47.3473C119.031 50.3676 117.997 51.8889 117.019 52.7883L115.975 52.3441Z" fill="#00D4DD"/>
<path d="M123.566 55.5421C123.911 54.7759 124.322 53.2991 124.489 52.2553L125.978 52.7217C125.611 53.8765 124.933 55.2978 124.5 55.8419L123.566 55.5421ZM124.233 47.7137C124.233 47.1474 124.622 46.9031 125.145 47.1252C125.7 47.3584 126.056 47.9025 126.056 48.4688C126.056 49.0018 125.7 49.2794 125.145 49.0462C124.6 48.813 124.233 48.2467 124.233 47.7137Z" fill="#00D4DD"/>
<path d="M161.143 157.734C161.143 156.512 162.065 155.902 163.199 156.368L194.14 169.204C195.274 169.671 196.196 171.059 196.196 172.28V178.165C196.196 179.387 195.274 179.997 194.14 179.531L163.199 166.695C162.065 166.228 161.143 164.84 161.143 163.619V157.734Z" fill="#EAEAEA"/>
<path d="M145.404 151.571C145.404 150.35 146.327 149.739 147.449 150.216L155.518 153.614C156.641 154.092 157.563 155.48 157.563 156.701V162.586C157.563 163.808 156.641 164.418 155.518 163.941L147.449 160.543C146.327 160.066 145.404 158.678 145.404 157.456V151.571Z" fill="#00D4DD"/>
<path d="M102.249 112.04C101.116 111.574 100.193 112.185 100.193 113.406V119.302C100.193 120.524 101.116 121.912 102.249 122.378L123.833 131.339C124.967 131.806 125.889 131.195 125.889 129.973V124.077C125.889 122.856 124.967 121.468 123.833 121.001L102.249 112.04Z" fill="#EAEAEA"/>
<path d="M136.937 126.376C135.803 125.909 134.881 126.52 134.881 127.742V133.638C134.881 134.859 135.803 136.247 136.937 136.714L176.97 153.336C178.103 153.803 179.026 153.192 179.026 151.971V146.074C179.026 144.853 178.103 143.465 176.97 142.999L136.937 126.376Z" stroke="#00D4DD" stroke-miterlimit="10"/>
<path d="M190.029 152.393V151.164L196.501 153.862V155.09L190.029 152.393ZM190.029 155.759V154.531L196.501 157.227V158.455L190.029 155.759Z" fill="#00D4DD"/>
<path d="M145.016 90.3427C145.016 89.1213 145.938 88.5106 147.072 88.9769L194.529 108.664C195.662 109.131 196.585 110.519 196.585 111.741V117.626C196.585 118.847 195.662 119.458 194.529 118.992L147.072 99.3037C145.938 98.8374 145.016 97.4494 145.016 96.2279V90.3427Z" fill="#EAEAEA"/>
<path d="M140.614 93.596C141.158 93.8292 141.503 94.3733 141.514 94.9396C141.514 95.3394 141.325 95.5948 140.992 95.5948C140.881 95.5948 140.747 95.5615 140.603 95.5059C140.058 95.2839 139.691 94.7176 139.691 94.1846C139.691 93.7626 139.903 93.5183 140.247 93.5183C140.347 93.5183 140.469 93.5405 140.614 93.596Z" fill="#00D4DD"/>
<path d="M140.593 90.076C140.048 89.8539 139.682 89.2876 139.682 88.7546C139.682 88.3327 139.893 88.0884 140.237 88.0884C140.348 88.0884 140.471 88.1106 140.604 88.1661C141.149 88.3993 141.493 88.9434 141.504 89.5097C141.504 89.9095 141.315 90.1648 140.982 90.1648C140.871 90.1648 140.737 90.1426 140.593 90.076Z" fill="#00D4DD"/>
<path d="M102.85 70.4442C101.727 69.9668 100.805 70.5664 100.805 71.7878V77.6841C100.805 78.9056 101.727 80.2936 102.85 80.7822L133.725 94.0071C134.847 94.4846 135.77 93.885 135.77 92.6635V86.7673C135.77 85.5458 134.847 84.1578 133.725 83.6692L102.85 70.4442Z" stroke="#00D4DD" stroke-miterlimit="10"/>
<path d="M108.605 97.3603C108.605 96.1389 109.528 95.5281 110.662 95.9945L131.178 104.522C132.312 104.989 133.234 106.377 133.234 107.598V113.484C133.234 114.705 132.312 115.316 131.178 114.85L110.662 106.321C109.528 105.855 108.605 104.467 108.605 103.245V97.3603Z" fill="#00D4DD"/>
<path d="M102.204 91.2086L103.271 91.6417C102.148 92.6744 101.337 94.3401 101.337 97.1272C101.337 99.8588 102.193 102.191 103.282 104.189L102.215 103.734C101.248 102.057 100.203 99.6478 100.203 96.6496C100.214 93.6293 101.237 92.0969 102.204 91.2086Z" fill="#00D4DD"/>
<path d="M144.195 108.22L145.262 108.675C144.14 109.708 143.328 111.373 143.328 114.149C143.328 116.892 144.173 119.213 145.273 121.211L144.206 120.778C143.239 119.09 142.184 116.681 142.184 113.683C142.195 110.652 143.228 109.108 144.195 108.22Z" fill="#00D4DD"/>
<path d="M149.129 110.286L150.174 110.719C151.152 112.396 152.196 114.794 152.196 117.826C152.196 120.835 151.163 122.356 150.185 123.256L149.14 122.822C150.24 121.756 151.074 120.113 151.074 117.348C151.074 114.583 150.24 112.262 149.129 110.286Z" fill="#00D4DD"/>
<path d="M162.242 116.082C162.565 116.082 162.954 116.182 163.387 116.36L163.709 116.493V117.337L163.432 117.226C163.187 117.126 162.987 117.082 162.831 117.082C162.387 117.082 162.22 117.437 162.22 118.048C162.22 118.403 162.265 118.781 162.32 119.191C162.387 119.591 162.431 119.991 162.431 120.402C162.442 121.279 162.109 121.623 161.564 121.623C161.487 121.623 161.409 121.612 161.331 121.601V121.634C162.02 122.09 162.454 122.789 162.442 123.766C162.442 124.177 162.398 124.555 162.331 124.899C162.276 125.254 162.231 125.587 162.231 125.965C162.231 126.831 162.587 127.453 163.443 127.808L163.721 127.919V128.763L163.398 128.63C162.131 128.097 161.175 127.153 161.175 125.598C161.175 125.188 161.231 124.777 161.298 124.388C161.353 123.999 161.409 123.6 161.409 123.189C161.409 122.711 161.253 121.99 160.164 121.534V120.746C160.453 120.868 160.675 120.913 160.853 120.913C161.331 120.913 161.409 120.524 161.409 120.124C161.409 119.702 161.353 119.236 161.298 118.781C161.231 118.325 161.175 117.892 161.175 117.459C161.153 116.493 161.564 116.082 162.242 116.082Z" fill="#00D4DD"/>
<path d="M85.133 125.721C85.133 125.721 79.0092 123.178 71.5294 120.058C64.0496 116.948 57.9258 121.89 57.9258 131.051V202.106" stroke="#0F585B" stroke-miterlimit="10" stroke-linecap="round" stroke-linejoin="round"/>
<path d="M85.1348 125.721L125.734 142.61C131.38 144.953 135.993 151.871 135.993 157.978V159.921C135.993 166.028 140.605 172.946 146.251 175.289L185.272 191.523" stroke="#00D4DD" stroke-miterlimit="10" stroke-linejoin="round"/>
<path d="M57.9258 180.442V184.661" stroke="#00D4DD" stroke-miterlimit="10" stroke-linejoin="round"/>
<path d="M204.131 53.4885V28.3155C204.131 22.2083 208.743 19.1324 214.389 21.4754L297.078 55.8759C302.724 58.2189 307.336 65.1367 307.336 71.244V71.3328C307.336 77.4401 311.948 84.3579 317.594 86.7009L365.24 106.522C370.886 108.865 375.499 115.783 375.499 121.89V149.783" stroke="#0F585B" stroke-miterlimit="10" stroke-linecap="round" stroke-linejoin="round"/>
<path d="M372.666 121.945L377.167 123.822L378.345 123.322L373.844 121.457L372.666 121.945Z" fill="#0F585B" stroke="#0F585B" stroke-miterlimit="10" stroke-linejoin="round"/>
<path d="M378.344 140.667L377.166 141.166V123.822L378.344 123.322V140.667Z" fill="#0F585B" stroke="#0F585B" stroke-miterlimit="10" stroke-linejoin="round"/>
<path d="M372.666 121.945L377.167 123.822V141.166L372.666 139.29V121.945Z" fill="#0F585B" stroke="#0F585B" stroke-miterlimit="10" stroke-linejoin="round"/>
<path d="M0.000310898 4.44169C2.45556 4.44169 4.44593 2.4531 4.44593 5.10216e-05C4.44593 -2.453 2.45556 -4.44159 0.000310898 -4.44159C-2.45494 -4.44159 -4.44531 -2.453 -4.44531 5.10216e-05C-4.44531 2.4531 -2.45494 4.44169 0.000310898 4.44169Z" fill="#EAEAEA"/>
<path d="M0.000310898 4.44169C2.45556 4.44169 4.44593 2.4531 4.44593 5.10216e-05C4.44593 -2.453 2.45556 -4.44159 0.000310898 -4.44159C-2.45494 -4.44159 -4.44531 -2.453 -4.44531 5.10216e-05C-4.44531 2.4531 -2.45494 4.44169 0.000310898 4.44169Z" fill="#EAEAEA"/>
<path d="M196.297 227.678C196.297 232.142 199.676 237.206 203.799 238.927L390.171 326.894C392.505 327.993 394.139 328.148 397.573 327.282C410.565 324.007 410.565 318.466 410.565 312.58V167.75C410.565 163.286 407.187 158.222 403.063 156.501L203.799 73.6204C201.032 72.4656 198.465 72.9875 196.408 73.9979C195.597 74.3977 185.294 78.8504 185.294 78.8504C185.083 79.5167 186.906 84.4136 186.906 85.2353L196.297 227.678Z" fill="#EAEAEA" stroke="#0F585B" stroke-miterlimit="10" stroke-linejoin="round"/>
<path d="M398.361 172.114L394.404 164.141L407.152 158.844L410.575 167.039L398.361 172.114Z" fill="#00D4DD"/>
<path d="M398.15 306.484V302.098L410.954 296.768L410.943 301.165L398.15 306.484Z" fill="#0F585B"/>
<path d="M398.151 322.285V317.111C398.151 317.111 404.786 318.732 410.965 310.915L410.699 316.589L408.342 321.752L403.863 325.095L396.795 327.571L398.151 322.285Z" fill="#0F585B"/>
<path d="M196.296 227.678C196.296 232.142 199.674 237.206 203.798 238.927L390.169 326.894C392.503 327.993 394.137 328.148 397.571 327.282C410.564 324.007 410.564 318.466 410.564 312.58V167.75C410.564 163.286 407.185 158.222 403.062 156.501L203.798 73.6204C201.03 72.4656 198.463 72.9875 196.407 73.9979C195.595 74.3977 185.359 79.1391 185.359 79.1391C185.148 79.8054 186.904 84.4136 186.904 85.2353L196.296 227.678Z" stroke="#0F585B" stroke-miterlimit="10" stroke-linejoin="round"/>
<path d="M183.873 233.153C183.873 237.616 187.252 242.68 191.375 244.401L390.639 327.293C394.773 329.014 398.141 326.76 398.141 322.296V173.224C398.141 168.76 394.762 163.696 390.639 161.975L191.375 79.0832C187.241 77.3621 183.873 79.6162 183.873 84.0801V233.153Z" fill="#00D4DD" stroke="#0F585B" stroke-miterlimit="10" stroke-linejoin="round"/>
<path d="M196.141 150.427C196.141 152.259 197.53 154.336 199.219 155.035L381.656 230.921C383.346 231.62 384.735 230.699 384.735 228.867V202.794C384.735 200.962 383.346 198.885 381.656 198.186L199.219 122.301C197.53 121.601 196.141 122.523 196.141 124.355V150.427Z" fill="#00D4DD"/>
<path d="M196.141 150.427C196.141 152.259 197.53 154.336 199.219 155.035L381.656 230.921C383.346 231.62 384.735 230.699 384.735 228.867V202.794C384.735 200.962 383.346 198.885 381.656 198.186L199.219 122.301C197.53 121.601 196.141 122.523 196.141 124.355V150.427Z" stroke="#EAEAEA" stroke-miterlimit="10" stroke-linejoin="round"/>
<path d="M199.02 204.993C199.02 206.214 199.942 207.602 201.076 208.069L243.276 225.646C244.409 226.113 245.332 225.502 245.332 224.281V183.284C245.332 182.063 244.409 180.675 243.276 180.208L201.076 162.631C199.942 162.164 199.02 162.775 199.02 163.996V204.993Z" stroke="#CE97FF" stroke-miterlimit="10" stroke-linejoin="round"/>
<path d="M196.141 206.225C196.141 207.447 197.063 208.835 198.197 209.301L240.397 226.879C240.941 227.112 241.442 227.079 241.819 226.846C242.208 226.601 242.453 226.135 242.453 225.513V184.517C242.453 183.906 242.22 183.251 241.853 182.696C241.486 182.141 240.964 181.674 240.408 181.441L198.208 163.863C197.663 163.63 197.163 163.663 196.785 163.897C196.396 164.141 196.152 164.607 196.152 165.229V206.225H196.141Z" fill="#00D4DD" stroke="#EAEAEA" stroke-miterlimit="10" stroke-linejoin="round"/>
<path d="M196.787 163.897L241.821 226.846" stroke="#EAEAEA" stroke-miterlimit="10" stroke-linejoin="round"/>
<path d="M196.787 208.135L241.821 182.651" stroke="#EAEAEA" stroke-miterlimit="10" stroke-linejoin="round"/>
<path d="M196.775 163.897C197.142 163.663 197.642 163.641 198.198 163.863L240.398 181.441C240.965 181.674 241.476 182.141 241.843 182.696L244.699 181.463C244.332 180.908 243.81 180.442 243.254 180.208L201.054 162.631C200.51 162.397 200.01 162.431 199.632 162.664L196.775 163.897Z" fill="#EAEAEA" stroke="#EAEAEA" stroke-miterlimit="10" stroke-linejoin="round"/>
<path d="M244.72 181.463C245.087 182.018 245.321 182.674 245.321 183.284V224.281C245.321 224.902 245.076 225.38 244.687 225.613L241.809 226.846C242.198 226.601 242.442 226.135 242.442 225.513V184.517C242.442 183.906 242.209 183.251 241.842 182.696L244.72 181.463Z" fill="#EAEAEA" stroke="#EAEAEA" stroke-miterlimit="10" stroke-linejoin="round"/>
<path d="M384.335 189.458L381.045 190.935L381.945 178.143L383.757 177.388C384.401 177.121 385.124 177.588 385.124 178.299V188.237C385.124 188.759 384.813 189.236 384.335 189.458Z" fill="#0F585B" stroke="#0F585B" stroke-miterlimit="10" stroke-linejoin="round"/>
<path d="M384.724 176.688L204.288 101.625C203.821 101.436 202.398 100.825 201.365 100.381C200.509 100.015 199.531 100.026 198.686 100.403L196.352 101.458C196.152 101.547 196.019 101.747 196.03 101.969C196.041 102.191 196.163 102.391 196.374 102.469L381.646 178.998C381.713 179.031 381.79 179.042 381.857 179.042C381.935 179.042 382.001 179.031 382.068 178.998C382.224 178.931 382.402 178.843 382.579 178.754C382.946 178.565 383.435 178.354 383.68 178.354C383.791 178.365 383.924 178.41 384.069 178.465C384.158 178.498 384.247 178.532 384.335 178.576C384.424 178.621 384.502 178.698 384.569 178.787C384.691 178.976 384.902 179.065 385.125 179.031C385.347 178.998 385.525 178.843 385.58 178.632C385.791 177.799 385.458 176.999 384.724 176.688Z" fill="#0F585B"/>
<path d="M195.852 112.129C195.852 113.351 196.774 114.739 197.908 115.205L379.8 190.868C380.934 191.335 381.856 190.724 381.856 189.503V180.719C381.856 179.498 380.934 178.11 379.8 177.643L197.908 101.969C196.774 101.503 195.852 102.113 195.852 103.335V112.129Z" fill="#00D4DD"/>
<path d="M195.852 112.129C195.852 113.351 196.774 114.739 197.908 115.205L379.8 190.868C380.934 191.335 381.856 190.724 381.856 189.503V180.719C381.856 179.498 380.934 178.11 379.8 177.643L197.908 101.969C196.774 101.503 195.852 102.113 195.852 103.335V112.129Z" stroke="#0F585B" stroke-miterlimit="10" stroke-linejoin="round"/>
<path d="M195.852 228.045C195.852 229.266 196.774 230.654 197.908 231.121L379.8 306.784C380.934 307.251 381.856 306.64 381.856 305.418V296.635C381.856 295.414 380.934 294.026 379.8 293.559L197.908 217.896C196.774 217.429 195.852 218.04 195.852 219.262V228.045Z" fill="#00D4DD"/>
<path d="M195.852 228.045C195.852 229.266 196.774 230.654 197.908 231.121L379.8 306.784C380.934 307.251 381.856 306.64 381.856 305.418V296.635C381.856 295.414 380.934 294.026 379.8 293.559L197.908 217.896C196.774 217.429 195.852 218.04 195.852 219.262V228.045Z" stroke="#0F585B" stroke-miterlimit="10" stroke-linejoin="round"/>
<path d="M252.578 227.401C252.578 228.622 253.501 230.01 254.634 230.477L382.679 283.743C383.813 284.209 384.735 283.599 384.735 282.377V241.392C384.735 240.171 383.813 238.783 382.679 238.316L254.634 185.05C253.501 184.583 252.578 185.194 252.578 186.416V227.401Z" fill="#0F585B"/>
<path d="M252.578 227.401C252.578 228.622 253.501 230.01 254.634 230.477L382.679 283.743C383.813 284.209 384.735 283.599 384.735 282.377V241.392C384.735 240.171 383.813 238.783 382.679 238.316L254.634 185.05C253.501 184.583 252.578 185.194 252.578 186.416V227.401Z" stroke="#0F585B" stroke-miterlimit="10" stroke-linejoin="round"/>
<path d="M242.142 231.787C242.142 233.008 243.064 234.396 244.198 234.863L372.243 288.129C373.377 288.596 374.299 287.985 374.299 286.763V245.778C374.299 244.557 373.377 243.169 372.243 242.702L244.187 189.436C243.053 188.97 242.131 189.58 242.131 190.802V231.787H242.142Z" fill="#CE97FF" stroke="#0F585B" stroke-miterlimit="10" stroke-linejoin="round"/>
<path d="M236.674 234.174C236.674 235.396 237.596 236.784 238.73 237.25L366.775 290.517C367.397 290.772 367.964 290.705 368.342 290.383C368.642 290.117 368.831 289.695 368.831 289.151V248.166C368.831 247.599 368.631 246.989 368.298 246.456C367.92 245.845 367.375 245.345 366.775 245.09L238.73 191.823C238.163 191.59 237.652 191.623 237.285 191.868C236.918 192.112 236.685 192.578 236.685 193.189V234.174H236.674Z" fill="#EAEAEA" stroke="#0F585B" stroke-miterlimit="10" stroke-linejoin="round"/>
<path d="M368.831 255.172L236.674 200.196" stroke="#0F585B" stroke-miterlimit="10"/>
<path d="M368.831 264.255L236.674 209.279" stroke="#0F585B" stroke-miterlimit="10"/>
<path d="M368.831 273.339L236.674 218.362" stroke="#0F585B" stroke-miterlimit="10"/>
<path d="M368.831 282.422L236.674 227.456" stroke="#0F585B" stroke-miterlimit="10"/>
<path d="M346.936 237.095V282.511" stroke="#0F585B" stroke-miterlimit="10" stroke-linejoin="round"/>
<path d="M290.688 213.721V259.148" stroke="#0F585B" stroke-miterlimit="10" stroke-linejoin="round"/>
<path d="M373.755 244.068C373.377 243.457 372.832 242.958 372.232 242.702L244.187 189.436C243.62 189.203 243.109 189.236 242.742 189.48L237.252 191.868C237.619 191.623 238.141 191.579 238.697 191.823L366.742 245.09C367.342 245.345 367.887 245.845 368.264 246.455L373.755 244.068Z" fill="#EAEAEA" stroke="#0F585B" stroke-miterlimit="10" stroke-linejoin="round"/>
<path d="M368.297 246.455C368.63 246.988 368.83 247.599 368.83 248.166V289.151C368.83 289.695 368.641 290.117 368.341 290.383L373.809 287.996C374.11 287.729 374.298 287.307 374.298 286.763V245.778C374.298 245.212 374.098 244.601 373.765 244.068L368.297 246.455Z" fill="#EAEAEA" stroke="#0F585B" stroke-miterlimit="10" stroke-linejoin="round"/>
</g>
<defs>
<clipPath id="clip0_49_26095">
<rect width="419" height="352" fill="white"/>
</clipPath>
</defs>
</svg>
