<svg width="44" height="42" viewBox="0 0 44 42" fill="none" xmlns="http://www.w3.org/2000/svg">
<g clip-path="url(#clip0_50_26440)">
<path d="M1.04121 40.2199C0.521552 40.2199 0 40.0459 0 38.6775C0 37.309 0.696034 37.092 1.22517 37.092C1.4575 37.0917 1.68694 37.1451 1.89655 37.2484V37.657C1.68322 37.5658 1.45593 37.5142 1.22517 37.5045C0.88569 37.5045 0.479828 37.6785 0.479828 38.656C0.479828 39.6334 0.787069 39.8113 1.06586 39.8113C1.2178 39.8053 1.36889 39.785 1.51724 39.7507V38.7302H1.08672L1.06586 38.3295H1.99707V40.0498C1.68745 40.1511 1.36586 40.2083 1.04121 40.2199Z" fill="#3A474F"/>
<path d="M4.02216 40.1768L3.95958 39.9031C3.78148 40.0872 3.54535 40.1995 3.29389 40.2198C2.93544 40.2198 2.66992 40.0536 2.66992 39.5473V37.8739H3.14975V39.4691C3.14975 39.7154 3.23509 39.7975 3.42475 39.7975C3.60822 39.7783 3.78386 39.711 3.93492 39.602V37.8778H4.41475V40.1807L4.02216 40.1768Z" fill="#3A474F"/>
<path d="M6.27208 40.1769L6.21708 39.9384C6.0714 40.1187 5.85488 40.2221 5.62725 40.2199C5.35415 40.2199 4.98242 40.1105 4.98242 39.4908C4.98242 38.8711 5.47553 38.7518 5.83018 38.7518H6.20949V38.5387C6.20949 38.265 6.06915 38.2396 5.83018 38.2396C5.60873 38.2525 5.38963 38.2932 5.17777 38.3608V37.9562C5.41445 37.8774 5.66116 37.8352 5.90984 37.8311C6.33277 37.8311 6.68173 37.9444 6.68173 38.5778V40.1769H6.27208ZM6.2057 39.0333H5.9819C5.64053 39.0333 5.46415 39.1193 5.46415 39.4575C5.46415 39.7957 5.60259 39.8329 5.77518 39.8329C5.9334 39.8208 6.08397 39.7579 6.2057 39.653V39.0333Z" fill="#3A474F"/>
<path d="M8.16748 38.3157C8.04777 38.3165 7.93295 38.3648 7.84696 38.4506V40.1788H7.36523V37.8739H7.74454L7.80903 38.1437C7.88728 37.9601 8.06032 37.8387 8.25472 37.8309C8.32743 37.832 8.39986 37.8405 8.47092 37.8563V38.3568C8.37143 38.3323 8.26973 38.3185 8.16748 38.3157Z" fill="#3A474F"/>
<path d="M9.94981 40.1769L9.89481 39.9384C9.74913 40.1187 9.53261 40.2221 9.30498 40.2199C9.03188 40.2199 8.66016 40.1105 8.66016 39.4908C8.66016 38.8711 9.15326 38.7518 9.50792 38.7518H9.88723V38.5387C9.88723 38.265 9.74688 38.2396 9.50792 38.2396C9.28644 38.2522 9.06731 38.2929 8.8555 38.3608V37.9562C9.09219 37.8774 9.33889 37.8352 9.58757 37.8311C10.0086 37.8311 10.3595 37.9444 10.3595 38.5778V40.1769H9.94981ZM9.88343 39.0333H9.65964C9.31826 39.0333 9.14188 39.1193 9.14188 39.4575C9.14188 39.7957 9.28033 39.8329 9.45291 39.8329C9.61114 39.8208 9.7617 39.7579 9.88343 39.653V39.0333Z" fill="#3A474F"/>
<path d="M12.4051 40.1768V38.5249C12.4051 38.2864 12.2742 38.2571 12.0978 38.2571C11.8948 38.2694 11.6985 38.3368 11.5289 38.4526V40.1729H11.0566V37.8739H11.436L11.5213 38.1398C11.7261 37.9574 11.9832 37.8489 12.2534 37.8309C12.6327 37.8309 12.8811 37.9912 12.8811 38.5171V40.1768H12.4051Z" fill="#3A474F"/>
<path d="M14.1576 40.2199C13.8447 40.2199 13.6 40.1163 13.6 39.6198V38.2259H13.2207V37.874H13.6L13.6304 37.3579L14.0817 37.1801V37.874H14.5862L14.5369 38.2259H14.0817V39.6256C14.0817 39.7937 14.1519 39.8211 14.2714 39.8211C14.3998 39.8067 14.5268 39.7805 14.6507 39.7429V40.1339C14.4914 40.1877 14.3252 40.2167 14.1576 40.2199Z" fill="#3A474F"/>
<path d="M15.8622 40.4799C15.7238 40.9588 15.4583 41.0449 15.1927 41.0449C15.0455 41.0393 14.8995 41.0143 14.7584 40.9706V40.5796C14.8888 40.6112 15.0213 40.6328 15.1548 40.6441C15.3103 40.6441 15.4033 40.5268 15.4659 40.2531L15.4962 40.128L14.6484 37.8643H15.2022L15.6991 39.6022L16.0993 37.8643H16.6246L15.8622 40.4799Z" fill="#3A474F"/>
<path d="M19.5794 37.5788H18.9194V40.1768H18.4377V37.5788H17.7227V37.1428H19.6344L19.5794 37.5788Z" fill="#3A474F"/>
<path d="M20.5406 38.3159C20.4209 38.3166 20.3061 38.3649 20.2201 38.4508V40.1789H19.7402V37.8741H20.1195L20.184 38.1438C20.2623 37.9603 20.4353 37.8388 20.6297 37.8311C20.7024 37.8321 20.7749 37.8406 20.8459 37.8565V38.3569C20.7458 38.3323 20.6435 38.3185 20.5406 38.3159Z" fill="#3A474F"/>
<path d="M22.5515 40.1769L22.4889 39.9032C22.3108 40.0873 22.0746 40.1996 21.8232 40.2199C21.4647 40.2199 21.1992 40.0537 21.1992 39.5474V37.874H21.679V39.4692C21.679 39.7155 21.7644 39.7976 21.954 39.7976C22.1375 39.7785 22.3132 39.7112 22.4642 39.6021V37.8779H22.9478V40.1808L22.5515 40.1769Z" fill="#3A474F"/>
<path d="M24.0484 40.2198C23.8553 40.2124 23.664 40.1789 23.4794 40.1201V39.7037C23.6549 39.7593 23.8353 39.7967 24.018 39.8151C24.2247 39.8151 24.3973 39.776 24.3973 39.5375C24.3973 39.3421 24.2703 39.2951 24.1015 39.2248L23.9118 39.1427C23.6355 39.0637 23.444 38.8048 23.4434 38.5093C23.4434 38.0166 23.8018 37.8309 24.2304 37.8309C24.4173 37.832 24.6026 37.8657 24.7785 37.9306V38.3216C24.61 38.2696 24.4363 38.2374 24.2608 38.2258C24.0427 38.2258 23.9023 38.2884 23.9023 38.4741C23.9023 38.6598 24.054 38.7126 24.1982 38.7693L24.4125 38.8514C24.6944 38.934 24.8833 39.2066 24.8677 39.5082C24.8734 40.124 24.439 40.2198 24.0484 40.2198Z" fill="#3A474F"/>
<path d="M25.9819 40.2199C25.6689 40.2199 25.4262 40.1163 25.4262 39.6198V38.2259H25.0469V37.874H25.4262L25.4546 37.3579L25.906 37.1801V37.874H26.4105L26.3612 38.2259H25.906V39.6256C25.906 39.7937 25.9781 39.8211 26.0957 39.8211C26.2241 39.8067 26.351 39.7805 26.475 39.7429V40.1339C26.3157 40.1877 26.1495 40.2167 25.9819 40.2199Z" fill="#3A474F"/>
<path d="M28.6381 40.1768H28.0312V37.1428H28.659C29.3588 37.1428 29.7761 37.2543 29.7761 37.9248C29.7967 38.2541 29.5707 38.5455 29.2545 38.5973C29.5485 38.65 29.8614 38.7927 29.8614 39.3088C29.8576 40.0986 29.3968 40.1768 28.6381 40.1768ZM28.6647 37.5142H28.513V38.4311H28.6818C29.1066 38.4311 29.2962 38.3607 29.2962 37.9443C29.2925 37.5651 29.0819 37.5142 28.6609 37.5142H28.6647ZM28.6818 38.7947H28.513V39.7976H28.6894C29.135 39.7976 29.3797 39.7506 29.3797 39.2991C29.3797 38.8475 29.1237 38.7947 28.678 38.7947H28.6818Z" fill="#3A474F"/>
<path d="M31.524 40.1769L31.469 39.9384C31.3234 40.1187 31.1068 40.2221 30.8792 40.2199C30.6061 40.2199 30.2344 40.1105 30.2344 39.4908C30.2344 38.8711 30.7275 38.7518 31.0821 38.7518H31.4614V38.5387C31.4614 38.265 31.323 38.2396 31.0821 38.2396C30.8607 38.2522 30.6415 38.2929 30.4297 38.3608V37.9562C30.6664 37.8774 30.9131 37.8352 31.1618 37.8311C31.5828 37.8311 31.9337 37.9444 31.9337 38.5778V40.1769H31.524ZM31.4558 39.0333H31.2339C30.8925 39.0333 30.7142 39.1193 30.7142 39.4575C30.7142 39.7957 30.8545 39.8329 31.0271 39.8329C31.185 39.8217 31.3352 39.7587 31.4558 39.653V39.0333Z" fill="#3A474F"/>
<path d="M33.981 40.1768V38.5249C33.981 38.2864 33.8502 38.2571 33.6738 38.2571C33.4707 38.2694 33.2744 38.3368 33.1048 38.4526V40.1729H32.625V37.8739H33.0043L33.0897 38.1398C33.2945 37.9574 33.5516 37.8489 33.8217 37.8309C34.201 37.8309 34.4495 37.9912 34.4495 38.5171V40.1768H33.981Z" fill="#3A474F"/>
<path d="M35.1543 40.1769V37.0491H35.6341V40.1769H35.1543ZM36.3927 40.2199L35.7062 38.8515L36.2884 37.874H36.8574L36.1917 38.8515L36.9408 40.1847L36.3927 40.2199Z" fill="#3A474F"/>
<path d="M39.8002 40.1768H38.4727V37.1428H38.9525V39.7428H39.8458L39.8002 40.1768Z" fill="#3A474F"/>
<path d="M40.7768 40.2199C40.4658 40.2199 40.2211 40.1163 40.2211 39.6198V38.2259H39.8418V37.874H40.2211L40.2514 37.3579L40.7009 37.1801V37.874H41.2073L41.1561 38.2259H40.7009V39.6256C40.7009 39.7937 40.773 39.8211 40.8906 39.8211C41.019 39.8067 41.146 39.7805 41.2699 39.7429V40.1339C41.1107 40.188 40.9444 40.217 40.7768 40.2199Z" fill="#3A474F"/>
<path d="M42.9768 40.1769L42.9181 39.9599C42.7598 40.1277 42.542 40.2216 42.315 40.2199C41.9831 40.2199 41.4805 40.0674 41.4805 39.0255C41.4805 37.9835 42.1177 37.831 42.4003 37.831C42.5768 37.8249 42.7476 37.8959 42.8706 38.0265V37.0491H43.3524V40.1769H42.9768ZM42.8706 38.3647C42.7575 38.2773 42.6212 38.2276 42.48 38.222C42.2258 38.222 41.9603 38.3002 41.9603 39.0255C41.9603 39.782 42.2012 39.8387 42.4363 39.8387C42.5961 39.8253 42.7478 39.7611 42.8706 39.6549V38.3647Z" fill="#3A474F"/>
<path d="M43.8285 0H11.2344V33.5986H43.8285V0Z" fill="#9E9E9E"/>
<path d="M38.0401 4.77576H29.8906V13.1759H38.0401V4.77576Z" fill="white"/>
<path d="M19.6721 27.1984C18.3445 27.1984 16.9297 26.8172 16.9297 23.4939C16.9297 20.1706 18.6366 19.5841 20.0723 19.5841C20.6563 19.5759 21.234 19.7098 21.7583 19.9751V21.1597C21.2168 20.9525 20.6488 20.8281 20.0723 20.7903C19.344 20.7903 18.3654 21.193 18.3654 23.4039C18.3654 25.7498 19.124 26.0313 19.6493 26.0313C19.9771 26.0219 20.3037 25.986 20.6261 25.9238V23.6737H19.6493L19.5469 22.5399H22.0637V26.8172C21.2844 27.0435 20.4813 27.1715 19.6721 27.1984Z" fill="white"/>
<path d="M27.6508 20.9526H26.0691V27.0929H24.6296V20.9526H22.8848V19.6819H27.8158L27.6508 20.9526Z" fill="white"/>
<path d="M30.7248 27.1984C29.5224 27.1984 28.1777 26.8074 28.1777 23.3863C28.1777 19.9653 29.8714 19.5763 30.8576 19.5763C31.3132 19.5665 31.7657 19.6565 32.1851 19.8402V21.0366C31.7808 20.8919 31.3589 20.8063 30.9315 20.7824C30.2336 20.7824 29.6172 21.2164 29.6172 23.3863C29.6172 25.3256 30.0591 25.9805 30.8291 25.9805C31.2915 25.9635 31.7486 25.8745 32.1851 25.7166V26.913C31.7241 27.1157 31.2259 27.2131 30.7248 27.1984Z" fill="white"/>
<path d="M35.5191 27.1984C34.4096 27.1984 32.9512 26.9658 32.9512 23.3864C32.9512 19.807 34.5025 19.5763 35.5191 19.5763C36.5357 19.5763 38.087 19.8304 38.087 23.3864C38.087 26.997 36.6039 27.1984 35.5191 27.1984ZM35.5191 20.6339C34.8003 20.6339 34.3812 21.1207 34.3812 23.3864C34.3812 25.6853 34.9046 26.1408 35.5191 26.1408C36.1336 26.1408 36.6475 25.7166 36.6475 23.3864C36.6475 21.1637 36.2246 20.6339 35.5191 20.6339Z" fill="white"/>
</g>
<defs>
<clipPath id="clip0_50_26440">
<rect width="44" height="42" fill="white"/>
</clipPath>
</defs>
</svg>
