<svg width="93" height="42" viewBox="0 0 93 42" fill="none" xmlns="http://www.w3.org/2000/svg">
<g clip-path="url(#clip0_49_26239)">
<path d="M63.8213 9.31118H57.4171V24.7575H58.7701V18.8133H63.8213C67.1587 18.8133 69.2784 16.9909 69.2784 14.0839C69.2784 11.1769 67.1587 9.31118 63.8213 9.31118ZM63.7763 17.6852H58.7701V10.4827H63.7763C66.5273 10.4827 67.8803 11.7843 67.8803 14.0839C67.9254 16.3401 66.5273 17.6852 63.7763 17.6852ZM91.5577 13.8236L87.679 23.1087L83.8456 13.8236H82.3573L87.0025 24.7575L86.0555 27.0137C85.6946 27.838 85.2436 28.1852 84.5671 28.1852C84.2064 28.1852 84.026 28.0983 83.7554 28.0116L83.5299 29.1831C83.8906 29.3133 84.2064 29.4 84.6123 29.4C85.875 29.4 86.6418 28.7926 87.1829 27.4042L93.0008 13.8236H91.5577ZM79.02 15.7761C78.0728 14.6046 76.6747 13.867 75.0511 13.867C72.0294 13.867 69.5489 16.4269 69.5489 19.5508C69.5489 22.6748 72.0294 25.2348 75.0511 25.2348C76.6747 25.2348 78.0728 24.4972 79.02 23.3257V24.931H80.3277V14.1272H79.02V15.7761ZM75.0511 23.9765C72.7511 23.9765 70.8568 21.9806 70.8568 19.5075C70.8568 17.0343 72.7511 15.0384 75.0511 15.0384C77.3512 15.0384 79.2454 17.0343 79.2454 19.5075C79.2454 21.9806 77.3963 23.9765 75.0511 23.9765ZM46.6834 8.40002C42.0382 8.40002 38.2949 12.2182 38.2949 16.8608C38.2949 21.5468 42.0382 25.3215 46.6834 25.3215C51.2836 25.3215 55.072 21.5033 55.072 16.8608C55.072 12.2182 51.2836 8.40002 46.6834 8.40002ZM46.6834 24.0633C42.8049 24.0633 39.6028 20.8525 39.6028 16.8608C39.6028 12.9124 42.7598 9.65829 46.6834 9.65829C50.5621 9.65829 53.7641 12.869 53.7641 16.8608C53.7641 20.8091 50.5621 24.0633 46.6834 24.0633Z" fill="#9E9E9E"/>
<path fill-rule="evenodd" clip-rule="evenodd" d="M19.4094 24.2425C18.1265 25.2939 16.5682 25.9107 14.8874 25.9107C11.5903 25.9107 8.76328 23.539 7.56543 20.1632C7.24599 18.9566 7.07357 17.6771 7.07357 16.3515C7.07357 15.5288 7.14032 14.7241 7.26685 13.9432C8.22528 10.0466 11.2741 7.19796 14.8874 7.19796C17.1109 7.19796 19.1203 8.277 20.5609 10.0147C21.9592 11.7015 22.8215 14.0091 22.8215 16.5544C22.8215 19.7398 21.4714 22.5528 19.4094 24.2425ZM30.1087 15.6219C30.0809 15.0381 30.0178 14.4651 29.9254 13.9039C29.1294 9.66651 26.377 6.07379 22.5886 4.00126C22.576 3.99595 22.5637 3.98997 22.551 3.98469V3.98124C20.3486 2.7843 17.7987 2.09998 15.0806 2.09998C15.0592 2.09998 15.038 2.10069 15.0167 2.10073C15.002 2.10073 14.9876 2.10011 14.9729 2.10011C13.7756 2.10011 12.611 2.23422 11.4947 2.48751C11.4838 2.49008 11.4727 2.49256 11.4616 2.49522C11.413 2.50634 11.3647 2.51825 11.3162 2.52981C10.0109 2.85347 8.77527 3.34183 7.63339 3.96879C7.6016 3.98625 7.56936 4.00312 7.53772 4.0208C7.53262 4.0236 7.52762 4.02652 7.52252 4.02931C3.02489 6.51183 0 11.1415 0 16.4435C0 17.238 0 18.5434 0 18.5434V38.85H2.01531C5.07628 38.85 7.55773 36.477 7.55773 33.5496V28.8752C9.42451 29.8989 11.5431 30.5541 13.8038 30.7344C13.8141 30.7353 13.8244 30.7359 13.8347 30.7367C13.923 30.7437 14.0115 30.7504 14.1003 30.7557C14.2057 30.7624 14.3114 30.768 14.4174 30.7725C14.4466 30.7737 14.4758 30.7746 14.505 30.7757C14.5848 30.7786 14.6647 30.7812 14.7448 30.783C14.8289 30.7848 14.9134 30.7857 14.9978 30.7861C15.0276 30.7863 15.0574 30.787 15.0871 30.787C15.1966 30.7869 15.3057 30.7853 15.4146 30.783C15.5186 30.7806 15.6224 30.7772 15.726 30.7731C15.7308 30.773 15.7354 30.7727 15.7402 30.7726C19.0013 30.6391 21.9943 29.5212 24.398 27.7226C26.6936 26.0046 28.4513 23.6659 29.3929 20.973C29.7841 19.7836 30.0294 18.5127 30.1025 17.1884C30.1062 17.0584 30.1087 16.9283 30.1087 16.7976C30.1087 16.5676 30.1025 16.3391 30.0911 16.1118C30.1025 15.9978 30.1087 15.8823 30.1087 15.7653V15.6219Z" fill="#9E9E9E"/>
<path fill-rule="evenodd" clip-rule="evenodd" d="M18.6045 29.5047C13.402 29.5047 9.00556 25.5674 7.57427 20.1603C7.25484 18.9536 7.08245 17.6742 7.08245 16.3486C7.08245 15.526 7.14921 14.7212 7.27573 13.9403C8.26668 7.82467 12.9615 3.19248 18.6045 3.19248C19.7957 3.19248 20.9446 3.39894 22.0254 3.78214C22.2025 3.87243 22.551 3.98469 22.551 3.98469V3.98124C20.3486 2.7843 17.7987 2.09998 15.0806 2.09998C15.0592 2.09998 15.038 2.10069 15.0167 2.10073C15.002 2.10073 14.9876 2.10011 14.9729 2.10011C13.7756 2.10011 12.611 2.23422 11.4947 2.48751C11.4838 2.49008 11.4727 2.49256 11.4616 2.49522C11.413 2.50634 11.3647 2.51825 11.3162 2.52981C10.0109 2.85347 8.77527 3.34183 7.63339 3.96879C7.6016 3.98625 7.56936 4.00312 7.53772 4.0208C7.53262 4.0236 7.52762 4.02652 7.52252 4.02931C3.02487 6.51183 0 11.1415 0 16.4435C0 17.238 0 18.5434 0 18.5434V38.85H2.01531C5.07628 38.85 7.55773 36.477 7.55773 33.5496V28.8752C9.42451 29.8989 11.5431 30.5541 13.8038 30.7344C13.8141 30.7353 13.8244 30.7359 13.8347 30.7367C13.923 30.7437 14.0115 30.7504 14.1003 30.7557C14.2057 30.7624 14.3114 30.768 14.4174 30.7725C14.4466 30.7737 14.4758 30.7746 14.505 30.7757C14.5848 30.7786 14.6647 30.7812 14.7448 30.783C14.8289 30.7848 14.9134 30.7857 14.9978 30.7861C15.0276 30.7863 15.0574 30.787 15.0871 30.787C15.1966 30.7869 15.3057 30.7853 15.4146 30.783C15.5186 30.7806 15.6224 30.7772 15.726 30.7731C15.7308 30.773 15.7354 30.7727 15.7402 30.7726C19.0013 30.6391 21.9943 29.5212 24.398 27.7226C22.6959 28.8554 20.7167 29.5047 18.6045 29.5047Z" fill="#9E9E9E"/>
<path fill-rule="evenodd" clip-rule="evenodd" d="M29.3964 20.9761C29.7876 19.7868 30.0329 18.516 30.106 17.1915C30.1097 17.0616 30.1123 16.9315 30.1123 16.8008C30.1123 16.5708 30.1061 16.3422 30.0946 16.115C30.106 16.001 30.1123 15.8855 30.1123 15.7685V15.6251C30.0844 15.0412 30.0213 14.4683 29.9289 13.9071C29.133 9.6697 26.3805 6.07698 22.5922 4.00445C22.5795 3.99914 22.5673 3.99316 22.5546 3.98788C22.5546 3.98788 22.2061 3.87562 22.0289 3.78533C20.9481 3.40214 19.7993 3.19568 18.6081 3.19568C12.9651 3.19568 8.27021 7.82786 7.2793 13.9435C8.23772 10.0469 11.2866 7.19825 14.8999 7.19825C17.1234 7.19825 19.1327 8.27729 20.5732 10.015C21.9716 11.7018 22.8339 14.0094 22.8339 16.5547C22.8339 19.74 21.4838 22.5531 19.4219 24.2428C18.1389 25.2942 16.5806 25.911 14.8999 25.911C11.6028 25.911 8.77563 23.5392 7.57784 20.1635C9.00909 25.5706 13.4056 29.5079 18.6081 29.5079C20.7202 29.5079 22.6996 28.8587 24.4015 27.7257C26.6971 26.0077 28.4548 23.6691 29.3964 20.9761Z" fill="url(#paint0_linear_49_26239)"/>
</g>
<defs>
<linearGradient id="paint0_linear_49_26239" x1="7.52496" y1="3.19568" x2="7.52496" y2="28.9417" gradientUnits="userSpaceOnUse">
<stop stop-color="#7D7D7D"/>
<stop offset="0.547327" stop-color="#9E9E9E"/>
</linearGradient>
<clipPath id="clip0_49_26239">
<rect width="93" height="42" fill="white"/>
</clipPath>
</defs>
</svg>
