<svg width="41" height="42" viewBox="0 0 41 42" fill="none" xmlns="http://www.w3.org/2000/svg">
<g clip-path="url(#clip0_49_26222)">
<path fill-rule="evenodd" clip-rule="evenodd" d="M4.11965 11.6619C4.08162 11.7469 4.17059 11.4816 4.19641 11.3922L4.2962 11.0359C5.33491 7.38672 6.37013 3.7352 7.40605 0.0812988L40.7645 0.147351L3.89844 29.2586L20.7457 9.55088L8.09202 9.58374C7.85615 9.58441 7.62378 9.58069 7.38791 9.60033C5.88898 9.72397 4.58719 10.6087 4.11965 11.6619Z" fill="#636463"/>
<path d="M4.11965 11.6619C4.08162 11.7469 4.17059 11.4816 4.19641 11.3922L4.2962 11.0359C5.33491 7.38672 6.37013 3.7352 7.40605 0.0812988L40.7645 0.147351L3.89844 29.2586L20.7457 9.55088L8.09202 9.58374C7.85615 9.58441 7.62378 9.58069 7.38791 9.60033C5.88898 9.72397 4.58719 10.6087 4.11965 11.6619Z" stroke="#FFFCFC" stroke-width="0.48" stroke-miterlimit="22.926"/>
<path fill-rule="evenodd" clip-rule="evenodd" d="M38.9546 20.0401C38.992 19.955 37.947 26.2443 36.1016 32.7452L1.28711 32.9339L38.8873 3.37109L22.0359 23.2638L34.692 23.2282C34.9261 23.2282 35.1595 23.2336 35.3943 23.2126C36.8943 23.0883 38.4878 21.0939 38.9546 20.0401Z" fill="#9E9E9E"/>
<path d="M38.9546 20.0401C38.992 19.955 37.947 26.2443 36.1016 32.7452L1.28711 32.9339L38.8873 3.37109L22.0359 23.2638L34.692 23.2282C34.9261 23.2282 35.1595 23.2336 35.3943 23.2126C36.8943 23.0883 38.4878 21.0939 38.9546 20.0401Z" stroke="#FFFCFC" stroke-width="0.48" stroke-miterlimit="22.926"/>
<path fill-rule="evenodd" clip-rule="evenodd" d="M5.92349 41.9999H0L4.09414 36.6002H1.37786L1.57639 35.1091H7.21865L3.13254 40.498H6.12097L5.92349 41.9999ZM7.0421 41.9999H11.1484L11.3508 40.4553H9.02602L9.17989 39.2938H11.3728L11.5678 37.8146H9.37528L9.53229 36.6192H11.8571L12.0563 35.1091H7.95032L7.0421 41.9999ZM12.3564 41.9999L13.2653 35.1091H15.028L17.0922 38.6529C17.1319 38.7244 17.1909 38.8694 17.276 39.0879C17.3587 39.3074 17.4453 39.5651 17.5402 39.8673C17.5409 39.5828 17.5482 39.3294 17.5604 39.1045C17.5726 38.8819 17.5904 38.6844 17.6148 38.5124L18.0628 35.1095H19.8168L18.9079 42.0003H17.1532L15.0922 38.4409C15.0493 38.3684 14.9868 38.2238 14.9041 38.0066C14.8221 37.7871 14.7349 37.53 14.6432 37.2367C14.64 37.5253 14.6327 37.781 14.6222 38.0043C14.6093 38.2261 14.5905 38.4236 14.5664 38.5974L14.1191 42.0003L12.3564 41.9999ZM20.3908 41.9999L21.299 35.1091H23.1451L22.2369 41.9999H20.3908ZM24.6761 41.9999L25.3694 36.7364H23.866L24.0823 35.1091H28.913L28.6973 36.7364H27.1963L26.5013 41.9999H24.6761ZM28.8966 41.9999H30.7231L31.0926 39.1946H33.5277L33.1582 41.9999H34.9896L35.8979 35.1091H34.0664L33.7133 37.7868H31.279L31.6314 35.1091H29.8037L28.8966 41.9999Z" fill="#B2B3B2"/>
</g>
<defs>
<clipPath id="clip0_49_26222">
<rect width="41" height="42" fill="white"/>
</clipPath>
</defs>
</svg>
