<svg width="200" height="200" viewBox="0 0 200 200" fill="none" xmlns="http://www.w3.org/2000/svg">
<path fill-rule="evenodd" clip-rule="evenodd" d="M100 200C99.5474 200 99.0953 199.888 98.6865 199.663L9.91618 151.022C8.02687 149.987 8.02641 147.261 9.91618 146.226L49.9095 124.312L9.91618 102.398C8.02687 101.362 8.02687 98.6375 9.91618 97.6017L49.9088 75.6876L9.91618 53.7744C8.02687 52.7386 8.02687 50.0138 9.91618 48.978L98.6865 0.336584C99.504 -0.111869 100.496 -0.111869 101.314 0.336584L190.084 48.978C191.974 50.0142 191.974 52.7381 190.084 53.7744L150.091 75.6881L190.084 97.6017C191.974 98.638 191.974 101.362 190.084 102.398L150.09 124.313L190.084 146.226C191.974 147.262 191.974 149.986 190.084 151.022L101.314 199.663C100.904 199.888 100.452 200 100 200ZM56.8531 73.2575L100 96.8994L183.08 51.3764L100 5.85292L16.9203 51.3764L56.8531 73.2575ZM55.5987 78.8059L16.9202 100L99.9999 145.524L183.08 100L144.401 78.8059L101.314 102.416C100.495 102.864 99.505 102.864 98.6865 102.416L55.5987 78.8059ZM55.5996 127.43L16.9202 148.624L99.9999 194.148L183.08 148.624L144.4 127.43L101.313 151.04C100.495 151.488 99.5044 151.488 98.6864 151.04L55.5996 127.43Z" fill="#1A737E"/>
<path fill-rule="evenodd" clip-rule="evenodd" d="M100 96.8993L183.08 51.3763L100 5.85303L16.9207 51.3763L56.8535 73.2571L100 96.8993Z" fill="#37949F"/>
<path fill-rule="evenodd" clip-rule="evenodd" d="M144.401 78.8055L101.314 102.415C100.496 102.864 99.5055 102.864 98.687 102.415L55.5991 78.8055L16.9207 99.9999L100 145.524L183.08 99.9999L144.401 78.8055Z" fill="#50A7AF"/>
<path fill-rule="evenodd" clip-rule="evenodd" d="M144.4 127.43L101.314 151.039C100.495 151.488 99.5045 151.488 98.6865 151.039L55.5998 127.43L16.9204 148.623L100 194.148L183.08 148.624L144.4 127.43Z" fill="#37949F"/>
</svg>
