<svg width="58" height="56" viewBox="0 0 58 56" fill="none" xmlns="http://www.w3.org/2000/svg">
<g clip-path="url(#clip0_342_2559)">
<path d="M10.2177 0.00574493H47.3041C52.9269 0.00574493 57.4729 4.55182 57.4729 10.1746V45.8254C57.4729 51.4482 52.9269 55.9943 47.3041 55.9943H10.2177C4.5949 55.9943 0.0488281 51.4482 0.0488281 45.8254V10.1746C0.0488281 4.55182 4.5949 0.00574493 10.2177 0.00574493Z" fill="#373939"/>
<path d="M30.2444 14.7207L23.0664 26.5644L30.7229 39.1259C30.7708 39.2216 30.7947 39.3173 30.7708 39.4131C30.7468 39.5088 30.6511 39.437 30.5076 39.4609H25.0283C24.6455 39.4609 24.3823 39.437 24.2148 39.1977C23.7124 38.1928 23.186 37.2118 22.6835 36.2069C22.1811 35.2259 21.6308 34.221 21.0565 33.1921C20.4823 32.1633 19.908 31.1344 19.3338 30.0816H19.2859C18.7835 31.1105 18.2332 32.1393 17.6828 33.1682C17.1325 34.197 16.5822 35.2259 16.0558 36.2308C15.5055 37.2357 14.9552 38.2646 14.4049 39.2456C14.3092 39.4848 14.1178 39.5088 13.8546 39.5088H8.59069C8.49499 39.5088 8.4232 39.5566 8.4232 39.437C8.39928 39.3413 8.42321 39.2456 8.47106 39.1738L15.9123 26.9712L8.66247 14.6968C8.59069 14.601 8.56676 14.5053 8.61462 14.4575C8.66247 14.3857 8.75818 14.3618 8.85389 14.3618H14.2852C14.4049 14.3618 14.5245 14.3857 14.6202 14.4096C14.7159 14.4575 14.7877 14.5293 14.8595 14.625C15.3141 15.6538 15.8405 16.6827 16.3908 17.7115C16.965 18.7404 17.5154 19.7453 18.1135 20.7502C18.6878 21.7551 19.2142 22.7601 19.7166 23.7889H19.7645C20.2669 22.7361 20.7933 21.7073 21.3197 20.7024C21.8461 19.6974 22.3964 18.6925 22.9467 17.6876C23.497 16.6827 24.0234 15.6538 24.5498 14.6728C24.5737 14.5771 24.6216 14.4814 24.6934 14.4336C24.7891 14.3857 24.8848 14.3618 25.0044 14.3857H30.053C30.1726 14.3618 30.2922 14.4336 30.3161 14.5532C30.3401 14.5771 30.2922 14.6728 30.2444 14.7207ZM41.2985 39.9634C39.5279 39.9873 37.7574 39.6284 36.1543 38.8867C34.6469 38.1928 33.4027 37.0443 32.5413 35.6326C31.656 34.1731 31.2254 32.3547 31.2254 30.1773C31.2014 28.4068 31.656 26.6601 32.5413 25.1288C33.4505 23.5736 34.7665 22.2815 36.3457 21.4202C38.0205 20.487 40.0304 20.0324 42.3991 20.0324C42.5188 20.0324 42.6863 20.0324 42.9016 20.0563C43.1169 20.0803 43.3562 20.0803 43.6433 20.1042V12.5433C43.6433 12.3759 43.7151 12.2802 43.8826 12.2802H48.7397C48.8594 12.2562 48.9551 12.3519 48.979 12.4476V35.2737C48.979 35.7044 49.0029 36.1829 49.0268 36.7093C49.0747 37.2118 49.0986 37.6903 49.1225 38.0971C49.1225 38.2646 49.0508 38.4081 48.8833 38.4799C47.6391 39.0063 46.3231 39.3891 44.9832 39.6284C43.763 39.8437 42.5427 39.9634 41.2985 39.9634ZM43.6433 35.178V24.6503C43.428 24.6024 43.2126 24.5546 42.9973 24.5306C42.7341 24.5067 42.4709 24.4828 42.2077 24.4828C41.2746 24.4828 40.3414 24.6742 39.504 25.1049C38.6905 25.5116 37.9966 26.1098 37.4702 26.8755C36.9438 27.6411 36.6807 28.67 36.6807 29.9141C36.6567 30.7516 36.8003 31.589 37.0874 32.3786C37.3267 33.0246 37.6856 33.5989 38.1641 34.0774C38.6187 34.5081 39.169 34.843 39.7911 35.0345C40.4371 35.2498 41.1071 35.3455 41.777 35.3455C42.1359 35.3455 42.4709 35.3216 42.782 35.2977C43.093 35.3216 43.3562 35.2737 43.6433 35.178Z" fill="#FDFEFE"/>
</g>
<defs>
<clipPath id="clip0_342_2559">
<rect width="57.4241" height="56" fill="white" transform="translate(0.0488281)"/>
</clipPath>
</defs>
</svg>
