<svg width="80" height="80" viewBox="0 0 80 80" fill="none" xmlns="http://www.w3.org/2000/svg">
<path d="M39.1495 64.5938C39.0324 64.4774 38.874 64.412 38.7088 64.412C38.5437 64.412 38.3853 64.4774 38.2682 64.5938L27.412 75.4438C27.2956 75.5609 27.2302 75.7193 27.2302 75.8844C27.2302 76.0495 27.2956 76.2079 27.412 76.325C27.4699 76.3841 27.5389 76.4311 27.6151 76.4633C27.6912 76.4955 27.773 76.5122 27.8557 76.5125C27.9384 76.5122 28.0202 76.4955 28.0964 76.4633C28.1726 76.4311 28.2416 76.3841 28.2995 76.325L39.1495 65.475C39.2659 65.3579 39.3312 65.1995 39.3312 65.0344C39.3312 64.8693 39.2659 64.7109 39.1495 64.5938Z" fill="#02576C"/>
<path d="M36.6623 72.7063C36.8263 72.7056 36.9834 72.6405 37.0998 72.525L41.6498 67.975C41.7522 67.8555 41.8057 67.7017 41.7996 67.5444C41.7936 67.3871 41.7284 67.2378 41.6171 67.1265C41.5057 67.0152 41.3565 66.95 41.1992 66.9439C41.0419 66.9379 40.8881 66.9914 40.7686 67.0938L36.2498 71.6375C36.1617 71.7249 36.1016 71.8366 36.0772 71.9583C36.0527 72.0801 36.0651 72.2063 36.1127 72.3209C36.1603 72.4356 36.241 72.5335 36.3444 72.6021C36.4479 72.6707 36.5694 72.707 36.6936 72.7063H36.6623Z" fill="#02576C"/>
<path d="M34.4873 73.3688L32.731 75.125C32.6429 75.2124 32.5828 75.3241 32.5584 75.4458C32.5339 75.5676 32.5463 75.6938 32.5939 75.8084C32.6415 75.9231 32.7222 76.021 32.8256 76.0896C32.9291 76.1582 33.0506 76.1945 33.1748 76.1938C33.3396 76.1914 33.4969 76.124 33.6123 76.0063L35.3748 74.25C35.4912 74.1329 35.5565 73.9745 35.5565 73.8094C35.5565 73.6443 35.4912 73.4859 35.3748 73.3688C35.3167 73.3102 35.2476 73.2637 35.1714 73.232C35.0952 73.2002 35.0135 73.1839 34.931 73.1839C34.8485 73.1839 34.7668 73.2002 34.6907 73.232C34.6145 73.2637 34.5454 73.3102 34.4873 73.3688Z" fill="#02576C"/>
<path d="M3.67486 52.5875C3.79128 52.703 3.9484 52.7681 4.11236 52.7688C4.19462 52.7693 4.27616 52.7535 4.35231 52.7224C4.42845 52.6913 4.49771 52.6455 4.55611 52.5875L15.4061 41.7313C15.4715 41.6752 15.5247 41.6063 15.5622 41.5288C15.5997 41.4512 15.6208 41.3668 15.6241 41.2807C15.6274 41.1946 15.6129 41.1088 15.5815 41.0286C15.5501 40.9484 15.5024 40.8755 15.4415 40.8146C15.3806 40.7537 15.3078 40.706 15.2276 40.6746C15.1474 40.6432 15.0615 40.6287 14.9755 40.632C14.8894 40.6354 14.8049 40.6564 14.7274 40.6939C14.6498 40.7315 14.5809 40.7846 14.5249 40.85L3.67486 51.7C3.61628 51.7581 3.56979 51.8273 3.53806 51.9034C3.50633 51.9796 3.48999 52.0613 3.48999 52.1438C3.48999 52.2263 3.50633 52.308 3.53806 52.3841C3.56979 52.4603 3.61628 52.5294 3.67486 52.5875Z" fill="#02576C"/>
<path d="M8.36221 43.7813L12.906 39.2313C12.9714 39.1752 13.0245 39.1063 13.062 39.0288C13.0996 38.9512 13.1206 38.8668 13.124 38.7807C13.1273 38.6946 13.1128 38.6088 13.0814 38.5286C13.0499 38.4484 13.0023 38.3755 12.9414 38.3146C12.8805 38.2537 12.8076 38.206 12.7274 38.1746C12.6472 38.1432 12.5614 38.1287 12.4753 38.132C12.3892 38.1354 12.3048 38.1564 12.2272 38.1939C12.1497 38.2315 12.0807 38.2846 12.0247 38.35L7.49971 42.9C7.41371 42.9878 7.35547 43.0989 7.33228 43.2196C7.30909 43.3402 7.32197 43.465 7.36932 43.5784C7.41667 43.6918 7.49639 43.7887 7.5985 43.857C7.70061 43.9253 7.8206 43.962 7.94346 43.9625C8.1009 43.957 8.25046 43.8923 8.36221 43.7813Z" fill="#02576C"/>
<path d="M4.87467 47.2687L6.63092 45.5125C6.6895 45.4544 6.73599 45.3853 6.76772 45.3091C6.79945 45.2329 6.81579 45.1512 6.81579 45.0687C6.81579 44.9862 6.79945 44.9045 6.76772 44.8284C6.73599 44.7522 6.6895 44.6831 6.63092 44.625C6.51381 44.5086 6.35541 44.4432 6.19029 44.4432C6.02517 44.4432 5.86677 44.5086 5.74967 44.625L3.98717 46.3875C3.87076 46.5046 3.80542 46.663 3.80542 46.8281C3.80542 46.9932 3.87076 47.1516 3.98717 47.2687C4.04557 47.3267 4.11483 47.3725 4.19097 47.4036C4.26712 47.4347 4.34866 47.4505 4.43092 47.45C4.51317 47.4505 4.59471 47.4347 4.67086 47.4036C4.74701 47.3725 4.81627 47.3267 4.87467 47.2687Z" fill="#02576C"/>
<path d="M42.4994 20.9937L16.9494 25.0312C16.8193 25.0518 16.6989 25.1131 16.6057 25.2062L12.5369 29.275C12.4783 29.3331 12.4318 29.4022 12.4001 29.4784C12.3684 29.5545 12.3521 29.6362 12.3521 29.7187C12.3521 29.8012 12.3684 29.8829 12.4001 29.9591C12.4318 30.0352 12.4783 30.1044 12.5369 30.1625L22.9432 40.5687L19.9994 43.5187C19.9408 43.5768 19.8943 43.6459 19.8626 43.7221C19.8309 43.7983 19.8145 43.88 19.8145 43.9625C19.8145 44.045 19.8309 44.1267 19.8626 44.2028C19.8943 44.279 19.9408 44.3481 19.9994 44.4062L27.1619 51.5687L24.3244 54.4125C24.2388 54.4998 24.1806 54.6104 24.1572 54.7305C24.1338 54.8506 24.1462 54.9749 24.1928 55.088C24.2394 55.2011 24.3181 55.2981 24.4193 55.3669C24.5205 55.4357 24.6396 55.4733 24.7619 55.475C24.8442 55.4754 24.9257 55.4597 25.0019 55.4286C25.078 55.3975 25.1473 55.3517 25.2057 55.2937L28.0432 52.4562L35.6244 60C35.6825 60.0586 35.7517 60.1051 35.8278 60.1368C35.904 60.1685 35.9857 60.1848 36.0682 60.1848C36.1507 60.1848 36.2324 60.1685 36.3085 60.1368C36.3847 60.1051 36.4538 60.0586 36.5119 60L39.4619 57.05L49.8682 67.4562C49.9263 67.5148 49.9954 67.5613 50.0716 67.593C50.1477 67.6248 50.2294 67.6411 50.3119 67.6411C50.3944 67.6411 50.4761 67.6248 50.5523 67.593C50.6284 67.5613 50.6976 67.5148 50.7557 67.4562L54.5057 63.7062L54.8432 63.3687C54.9363 63.2755 54.9975 63.1551 55.0182 63.025L59.0057 37.5L71.6869 24.8125C73.4725 23.0253 74.7496 20.7946 75.3869 18.35C75.3898 18.323 75.3898 18.2957 75.3869 18.2687C75.5726 17.5655 75.7022 16.8487 75.7744 16.125L76.4682 9.08122C76.5421 8.33408 76.4493 7.57985 76.1965 6.8729C75.9438 6.16594 75.5373 5.52388 75.0064 4.993C74.4755 4.46211 73.8335 4.05563 73.1265 3.80285C72.4195 3.55007 71.6653 3.4573 70.9182 3.53122L63.8932 4.20622C63.1741 4.27893 62.4616 4.40638 61.7619 4.58747H61.6682C59.2209 5.2319 56.99 6.51782 55.2057 8.31247L42.4994 20.9937ZM27.5619 35.9562L17.7682 26.1687L41.0182 22.5L27.5619 35.9562ZM13.8619 29.7062L16.7057 26.875L26.7057 36.8375L23.8307 39.6875L13.8619 29.7062ZM50.2807 66.125L40.2807 56.1562L43.1244 53.3125L53.1244 63.3125L50.2807 66.125ZM53.8307 62.2125L44.0432 52.4375L57.4994 38.9812L53.8307 62.2125ZM64.0182 5.43747L71.0557 4.74372C71.6191 4.68949 72.1875 4.76056 72.7202 4.95183C73.2528 5.1431 73.7366 5.44983 74.1369 5.85004C74.5371 6.25026 74.8438 6.73405 75.0351 7.26674C75.2263 7.79943 75.2974 8.36783 75.2432 8.93122L74.5494 15.9687C74.5494 16.25 74.4744 16.5312 74.4307 16.8125L63.1807 5.56247C63.4557 5.52497 63.7494 5.47497 64.0182 5.44997V5.43747ZM61.7307 5.87497L74.1119 18.2562C73.5029 20.3805 72.3654 22.3157 70.8057 23.8812L36.0369 58.675L28.9307 51.5687L46.9119 33.5875C47.0283 33.4704 47.0937 33.312 47.0937 33.1468C47.0937 32.9817 47.0283 32.8233 46.9119 32.7062C46.8538 32.6476 46.7847 32.6011 46.7085 32.5694C46.6324 32.5377 46.5507 32.5213 46.4682 32.5213C46.3857 32.5213 46.304 32.5377 46.2278 32.5694C46.1517 32.6011 46.0825 32.6476 46.0244 32.7062L28.0432 50.6875L21.3244 43.9625L27.9994 37.2812L56.0869 9.19372C57.659 7.63302 59.6006 6.49562 61.7307 5.88747V5.87497Z" fill="#02576C"/>
<path d="M6.81225 75.2625C7.11935 75.2634 7.4227 75.195 7.69975 75.0625L19.8997 69.375C20.9244 68.9042 21.82 68.1926 22.5103 67.3009C23.2005 66.4092 23.6649 65.3638 23.8638 64.2538C24.0628 63.1439 23.9904 62.0022 23.6528 60.9263C23.3152 59.8504 22.7225 58.872 21.9251 58.0747C21.1277 57.2773 20.1494 56.6846 19.0734 56.347C17.9975 56.0094 16.8559 55.937 15.7459 56.1359C14.636 56.3349 13.5906 56.7993 12.6989 57.4895C11.8071 58.1797 11.0956 59.0754 10.6247 60.1L4.93725 72.3C4.78937 72.6164 4.72349 72.9649 4.74565 73.3134C4.76782 73.6619 4.87733 73.9992 5.06409 74.2943C5.25085 74.5894 5.50887 74.8328 5.81437 75.002C6.11987 75.1712 6.46303 75.2608 6.81225 75.2625ZM6.0685 72.8313L11.7372 60.625C12.1237 59.7839 12.7093 59.0495 13.4432 58.4855C14.1772 57.9214 15.0375 57.5445 15.9497 57.3875C16.2906 57.3305 16.6354 57.3012 16.981 57.3C17.8173 57.3065 18.6421 57.4952 19.398 57.8528C20.154 58.2105 20.8229 58.7286 21.3583 59.371C21.8937 60.0135 22.2826 60.7649 22.4981 61.5729C22.7136 62.381 22.7504 63.2263 22.606 64.05C22.4496 64.9616 22.0737 65.8215 21.5108 66.5554C20.9478 67.2893 20.2147 67.8752 19.3747 68.2625L7.1685 73.9313C7.01455 74.0048 6.84159 74.0288 6.67344 73.9999C6.50529 73.9711 6.35022 73.8908 6.22959 73.7702C6.10895 73.6495 6.02868 73.4945 5.99983 73.3263C5.97098 73.1582 5.99497 72.9852 6.0685 72.8313Z" fill="#02576C"/>
<path d="M60.1125 26.4188C61.6252 26.4191 63.0912 25.8949 64.2607 24.9355C65.4302 23.976 66.2308 22.6407 66.526 21.1571C66.8212 19.6735 66.5928 18.1334 65.8797 16.7993C65.1665 15.4653 64.0129 14.4198 62.6152 13.8411C61.2176 13.2624 59.6626 13.1862 58.2151 13.6257C56.7676 14.0651 55.5173 14.9929 54.6773 16.2509C53.8373 17.5089 53.4595 19.0193 53.6084 20.5247C53.7573 22.03 54.4236 23.4371 55.4938 24.5063C56.0997 25.1135 56.8197 25.5951 57.6123 25.9233C58.4049 26.2515 59.2546 26.4199 60.1125 26.4188ZM56.3625 16.15C57.1032 15.4137 58.0454 14.9133 59.0702 14.7118C60.095 14.5103 61.1565 14.6169 62.1209 15.018C63.0852 15.4191 63.9091 16.0969 64.4887 16.9657C65.0683 17.8346 65.3776 18.8556 65.3776 19.9C65.3776 20.9444 65.0683 21.9655 64.4887 22.8343C63.9091 23.7031 63.0852 24.3809 62.1209 24.782C61.1565 25.1831 60.095 25.2897 59.0702 25.0882C58.0454 24.8868 57.1032 24.3863 56.3625 23.65C55.8648 23.1599 55.4699 22.5755 55.201 21.9309C54.932 21.2863 54.7944 20.5945 54.7961 19.8961C54.7979 19.1976 54.9389 18.5065 55.2111 17.8633C55.4833 17.22 55.8811 16.6376 56.3813 16.15H56.3625Z" fill="#02576C"/>
</svg>
