<svg width="200" height="200" viewBox="0 0 200 200" fill="none" xmlns="http://www.w3.org/2000/svg">
<path d="M14.2858 113.393V140.143C14.2858 154.907 52.6429 166.879 100 166.879V140.143C52.6429 140.143 14.2858 128.129 14.2858 113.393ZM167.029 130.057L100 113.393V140.143L167.029 156.807C178.714 152.236 185.714 146.45 185.714 140.143V113.393C185.714 119.693 178.714 125.479 167.029 130.057ZM100 86.6643V113.393C52.6643 113.393 14.2858 101.414 14.2858 86.65V59.8572C14.2858 45.1143 52.6429 33.1215 100 33.1215C147.321 33.1215 185.714 45.1215 185.714 59.8643V86.65C185.714 92.9572 178.714 98.7215 167.029 103.321L100 86.6429V86.6643Z" fill="#013E4D"/>
</svg>
