<svg width="28" height="27" viewBox="0 0 28 27" fill="none" xmlns="http://www.w3.org/2000/svg">
<path fill-rule="evenodd" clip-rule="evenodd" d="M14.0724 26.4963C21.3891 26.4963 27.3205 20.5649 27.3205 13.2482C27.3205 5.93141 21.3891 0 14.0724 0C6.75562 0 0.824219 5.93141 0.824219 13.2482C0.824219 20.5649 6.75562 26.4963 14.0724 26.4963Z" fill="#02576C"/>
<path fill-rule="evenodd" clip-rule="evenodd" d="M22.2692 10.4211C22.9159 9.77442 22.9159 8.72589 22.2692 8.07917C21.6225 7.43246 20.574 7.43246 19.9272 8.07917L11.7304 16.276L8.21744 12.7631C7.57072 12.1164 6.52219 12.1164 5.87547 12.7631C5.22875 13.4098 5.22875 14.4584 5.87547 15.1051L10.5534 19.783C10.5554 19.785 10.5574 19.787 10.5594 19.789C10.7211 19.9507 10.9078 20.0719 11.1072 20.1528C11.373 20.2606 11.6611 20.2965 11.9418 20.2606C12.2927 20.2157 12.6319 20.0585 12.9014 19.789C12.9035 19.7869 12.9057 19.7847 12.9078 19.7825L22.2692 10.4211Z" fill="white"/>
</svg>
