<svg width="18" height="14" viewBox="0 0 18 14" fill="none" xmlns="http://www.w3.org/2000/svg">
<path fill-rule="evenodd" clip-rule="evenodd" d="M17.2692 3.42111C17.9159 2.77439 17.9159 1.72586 17.2692 1.07914C16.6225 0.432426 15.574 0.432427 14.9272 1.07914L6.73037 9.27601L3.21744 5.76308C2.57072 5.11636 1.52219 5.11636 0.87547 5.76308C0.228754 6.4098 0.228753 7.45833 0.875469 8.10505L5.55343 12.783C5.5554 12.785 5.55738 12.787 5.55937 12.789C5.72105 12.9507 5.90784 13.0719 6.10719 13.1528C6.373 13.2605 6.66114 13.2965 6.94183 13.2605C7.29268 13.2156 7.63191 13.0584 7.90137 12.789C7.90353 12.7868 7.90568 12.7847 7.90783 12.7825L17.2692 3.42111Z" fill="white"/>
</svg>
