<svg width="600" height="474" viewBox="0 0 600 474" fill="none" xmlns="http://www.w3.org/2000/svg">
<rect width="600" height="473.265" fill="white"/>
<path d="M597.51 420.297H2.49316V420.595H597.51V420.297Z" fill="#EBEBEB"/>
<path d="M537.889 439.445H498.477V439.743H537.889V439.445Z" fill="#EBEBEB"/>
<path d="M396.656 442.682H386.316V442.98H396.656V442.682Z" fill="#EBEBEB"/>
<path d="M497.285 428.398H474.449V428.696H497.285V428.398Z" fill="#EBEBEB"/>
<path d="M116.317 430.401H64.9219V430.699H116.317V430.401Z" fill="#EBEBEB"/>
<path d="M134.454 430.401H126.921V430.699H134.454V430.401Z" fill="#EBEBEB"/>
<path d="M270.428 435.419H158.946V435.717H270.428V435.419Z" fill="#EBEBEB"/>
<path d="M284.531 367.217H54.7487C52.9486 367.215 51.2229 366.499 49.9507 365.225C48.6785 363.952 47.9639 362.226 47.9639 360.425V37.4236C47.9749 35.6314 48.6945 33.9163 49.9657 32.6529C51.2369 31.3895 52.9564 30.6804 54.7487 30.6804H284.531C286.332 30.6804 288.059 31.396 289.333 32.6697C290.607 33.9434 291.322 35.6709 291.322 37.4721V360.425C291.322 362.227 290.607 363.954 289.333 365.228C288.059 366.502 286.332 367.217 284.531 367.217ZM54.7487 30.9161C53.8953 30.917 53.0505 31.0861 52.2625 31.4137C51.4746 31.7413 50.7589 32.221 50.1565 32.8254C49.554 33.4297 49.0766 34.1469 48.7515 34.9359C48.4264 35.7249 48.26 36.5703 48.2619 37.4236V360.425C48.2619 362.147 48.9451 363.797 50.1614 365.015C51.3777 366.232 53.0276 366.917 54.7487 366.919H284.531C286.252 366.917 287.903 366.233 289.12 365.015C290.338 363.798 291.022 362.147 291.024 360.425V37.4236C291.022 35.702 290.338 34.0513 289.12 32.8339C287.903 31.6165 286.252 30.9317 284.531 30.9299L54.7487 30.9161Z" fill="#EBEBEB"/>
<path d="M541.951 367.217H312.148C310.348 367.214 308.623 366.497 307.35 365.224C306.077 363.951 305.36 362.226 305.356 360.426V37.4237C305.376 35.6344 306.1 33.9249 307.372 32.6655C308.643 31.406 310.359 30.6979 312.148 30.6943H541.951C543.737 30.6998 545.449 31.4094 546.716 32.6692C547.982 33.9291 548.7 35.6375 548.715 37.4237V360.426C548.715 362.222 548.003 363.945 546.735 365.218C545.468 366.491 543.747 367.21 541.951 367.217ZM312.148 30.9161C311.292 30.9143 310.445 31.0813 309.654 31.4075C308.862 31.7337 308.143 32.2128 307.538 32.8172C306.932 33.4217 306.451 34.1397 306.123 34.9301C305.796 35.7206 305.627 36.5679 305.627 37.4237V360.426C305.63 362.147 306.316 363.796 307.533 365.013C308.75 366.23 310.399 366.916 312.12 366.919H541.951C543.673 366.917 545.325 366.233 546.543 365.016C547.762 363.798 548.448 362.148 548.452 360.426V37.4237C548.452 35.699 547.767 34.0448 546.548 32.8246C545.329 31.6044 543.676 30.9179 541.951 30.9161H312.148Z" fill="#EBEBEB"/>
<path d="M532.561 104.676H244.238V382.596H532.561V104.676Z" fill="#E0E0E0"/>
<path d="M532.56 109.721H248.867V377.738H532.56V109.721Z" fill="#F5F5F5"/>
<path d="M250.96 312.835V232.208H259.325V221.556L278.176 212.754V201.853H281.315V232.208H284.461V312.835H288.647V270.948H298.073V248.965H301.212V312.835H308.53V288.745H313.77V282.466H325.288V260.483H331.574V245.826H338.899V223.836H342.045V245.826H349.378V260.483H355.65V282.466H367.168V288.745H372.4V312.835H378.686V282.466H390.204V215.464H393.351V208.132H418.466V215.464H423.705V263.63H444.649V268.848H451.967V271.995H444.649V290.845H466.632V228.022H470.818V215.464H481.29V167.305H484.429V215.464H491.761V228.022H532.56V377.738H248.867V312.835H250.96Z" fill="#E6E6E6"/>
<path d="M510.757 231.307H507.791V234.273H510.757V231.307Z" fill="#F0F0F0"/>
<path d="M510.757 236.283H507.791V239.249H510.757V236.283Z" fill="#F0F0F0"/>
<path d="M510.757 256.18H507.791V259.146H510.757V256.18Z" fill="#F0F0F0"/>
<path d="M510.757 261.142H507.791V264.108H510.757V261.142Z" fill="#F0F0F0"/>
<path d="M510.757 266.111H507.791V269.077H510.757V266.111Z" fill="#F0F0F0"/>
<path d="M510.757 281.039H507.791V284.005H510.757V281.039Z" fill="#F0F0F0"/>
<path d="M510.757 286.015H507.791V288.981H510.757V286.015Z" fill="#F0F0F0"/>
<path d="M506.045 251.204H503.079V254.17H506.045V251.204Z" fill="#F0F0F0"/>
<path d="M506.045 256.18H503.079V259.146H506.045V256.18Z" fill="#F0F0F0"/>
<path d="M506.045 261.142H503.079V264.108H506.045V261.142Z" fill="#F0F0F0"/>
<path d="M506.045 266.111H503.079V269.077H506.045V266.111Z" fill="#F0F0F0"/>
<path d="M506.045 271.087H503.079V274.053H506.045V271.087Z" fill="#F0F0F0"/>
<path d="M506.045 281.039H503.079V284.005H506.045V281.039Z" fill="#F0F0F0"/>
<path d="M506.045 286.015H503.079V288.981H506.045V286.015Z" fill="#F0F0F0"/>
<path d="M501.332 231.307H498.366V234.273H501.332V231.307Z" fill="#F0F0F0"/>
<path d="M501.332 236.283H498.366V239.249H501.332V236.283Z" fill="#F0F0F0"/>
<path d="M501.332 241.252H498.366V244.218H501.332V241.252Z" fill="#F0F0F0"/>
<path d="M501.332 246.228H498.366V249.194H501.332V246.228Z" fill="#F0F0F0"/>
<path d="M501.332 251.204H498.366V254.17H501.332V251.204Z" fill="#F0F0F0"/>
<path d="M501.332 256.18H498.366V259.146H501.332V256.18Z" fill="#F0F0F0"/>
<path d="M501.332 261.142H498.366V264.108H501.332V261.142Z" fill="#F0F0F0"/>
<path d="M501.332 266.111H498.366V269.077H501.332V266.111Z" fill="#F0F0F0"/>
<path d="M501.332 271.087H498.366V274.053H501.332V271.087Z" fill="#F0F0F0"/>
<path d="M501.332 276.063H498.366V279.029H501.332V276.063Z" fill="#F0F0F0"/>
<path d="M501.332 286.015H498.366V288.981H501.332V286.015Z" fill="#F0F0F0"/>
<path d="M496.619 231.307H493.653V234.273H496.619V231.307Z" fill="#F0F0F0"/>
<path d="M496.619 236.283H493.653V239.249H496.619V236.283Z" fill="#F0F0F0"/>
<path d="M496.619 241.252H493.653V244.218H496.619V241.252Z" fill="#F0F0F0"/>
<path d="M496.619 246.228H493.653V249.194H496.619V246.228Z" fill="#F0F0F0"/>
<path d="M496.619 251.204H493.653V254.17H496.619V251.204Z" fill="#F0F0F0"/>
<path d="M496.619 256.18H493.653V259.146H496.619V256.18Z" fill="#F0F0F0"/>
<path d="M496.619 261.142H493.653V264.108H496.619V261.142Z" fill="#F0F0F0"/>
<path d="M496.619 305.912H493.653V308.878H496.619V305.912Z" fill="#F0F0F0"/>
<path d="M491.907 231.307H488.94V234.273H491.907V231.307Z" fill="#F0F0F0"/>
<path d="M491.907 236.283H488.94V239.249H491.907V236.283Z" fill="#F0F0F0"/>
<path d="M491.907 241.252H488.94V244.218H491.907V241.252Z" fill="#F0F0F0"/>
<path d="M491.907 246.228H488.94V249.194H491.907V246.228Z" fill="#F0F0F0"/>
<path d="M491.907 251.204H488.94V254.17H491.907V251.204Z" fill="#F0F0F0"/>
<path d="M491.907 256.18H488.94V259.146H491.907V256.18Z" fill="#F0F0F0"/>
<path d="M491.907 261.142H488.94V264.108H491.907V261.142Z" fill="#F0F0F0"/>
<path d="M491.907 266.111H488.94V269.077H491.907V266.111Z" fill="#F0F0F0"/>
<path d="M491.907 295.96H488.94V298.926H491.907V295.96Z" fill="#F0F0F0"/>
<path d="M491.907 300.936H488.94V303.902H491.907V300.936Z" fill="#F0F0F0"/>
<path d="M491.907 305.912H488.94V308.878H491.907V305.912Z" fill="#F0F0F0"/>
<path d="M491.907 310.874H488.94V313.84H491.907V310.874Z" fill="#F0F0F0"/>
<path d="M491.907 330.771H488.94V333.737H491.907V330.771Z" fill="#F0F0F0"/>
<path d="M487.194 231.307H484.228V234.273H487.194V231.307Z" fill="#F0F0F0"/>
<path d="M487.194 236.283H484.228V239.249H487.194V236.283Z" fill="#F0F0F0"/>
<path d="M487.194 241.252H484.228V244.218H487.194V241.252Z" fill="#F0F0F0"/>
<path d="M487.194 246.228H484.228V249.194H487.194V246.228Z" fill="#F0F0F0"/>
<path d="M487.194 251.204H484.228V254.17H487.194V251.204Z" fill="#F0F0F0"/>
<path d="M487.194 256.18H484.228V259.146H487.194V256.18Z" fill="#F0F0F0"/>
<path d="M487.194 261.142H484.228V264.108H487.194V261.142Z" fill="#F0F0F0"/>
<path d="M487.194 266.111H484.228V269.077H487.194V266.111Z" fill="#F0F0F0"/>
<path d="M487.194 271.087H484.228V274.053H487.194V271.087Z" fill="#F0F0F0"/>
<path d="M487.194 276.063H484.228V279.029H487.194V276.063Z" fill="#F0F0F0"/>
<path d="M487.194 290.984H484.228V293.95H487.194V290.984Z" fill="#F0F0F0"/>
<path d="M487.194 295.96H484.228V298.926H487.194V295.96Z" fill="#F0F0F0"/>
<path d="M487.194 300.936H484.228V303.902H487.194V300.936Z" fill="#F0F0F0"/>
<path d="M487.194 305.912H484.228V308.878H487.194V305.912Z" fill="#F0F0F0"/>
<path d="M487.194 310.874H484.228V313.84H487.194V310.874Z" fill="#F0F0F0"/>
<path d="M487.194 330.771H484.228V333.737H487.194V330.771Z" fill="#F0F0F0"/>
<path d="M482.482 231.307H479.516V234.273H482.482V231.307Z" fill="#F0F0F0"/>
<path d="M482.482 236.283H479.516V239.249H482.482V236.283Z" fill="#F0F0F0"/>
<path d="M482.482 241.252H479.516V244.218H482.482V241.252Z" fill="#F0F0F0"/>
<path d="M482.482 246.228H479.516V249.194H482.482V246.228Z" fill="#F0F0F0"/>
<path d="M482.482 251.204H479.516V254.17H482.482V251.204Z" fill="#F0F0F0"/>
<path d="M482.482 256.18H479.516V259.146H482.482V256.18Z" fill="#F0F0F0"/>
<path d="M482.482 261.142H479.516V264.108H482.482V261.142Z" fill="#F0F0F0"/>
<path d="M482.482 266.111H479.516V269.077H482.482V266.111Z" fill="#F0F0F0"/>
<path d="M482.482 271.087H479.516V274.053H482.482V271.087Z" fill="#F0F0F0"/>
<path d="M482.482 276.063H479.516V279.029H482.482V276.063Z" fill="#F0F0F0"/>
<path d="M482.482 281.039H479.516V284.005H482.482V281.039Z" fill="#F0F0F0"/>
<path d="M482.482 286.015H479.516V288.981H482.482V286.015Z" fill="#F0F0F0"/>
<path d="M482.482 290.984H479.516V293.95H482.482V290.984Z" fill="#F0F0F0"/>
<path d="M482.482 295.96H479.516V298.926H482.482V295.96Z" fill="#F0F0F0"/>
<path d="M482.482 300.936H479.516V303.902H482.482V300.936Z" fill="#F0F0F0"/>
<path d="M482.482 305.912H479.516V308.878H482.482V305.912Z" fill="#F0F0F0"/>
<path d="M482.482 310.874H479.516V313.84H482.482V310.874Z" fill="#F0F0F0"/>
<path d="M482.482 315.843H479.516V318.809H482.482V315.843Z" fill="#F0F0F0"/>
<path d="M477.769 231.307H474.803V234.273H477.769V231.307Z" fill="#F0F0F0"/>
<path d="M477.769 236.283H474.803V239.249H477.769V236.283Z" fill="#F0F0F0"/>
<path d="M477.769 241.252H474.803V244.218H477.769V241.252Z" fill="#F0F0F0"/>
<path d="M477.769 246.228H474.803V249.194H477.769V246.228Z" fill="#F0F0F0"/>
<path d="M477.769 251.204H474.803V254.17H477.769V251.204Z" fill="#F0F0F0"/>
<path d="M477.769 256.18H474.803V259.146H477.769V256.18Z" fill="#F0F0F0"/>
<path d="M477.769 261.142H474.803V264.108H477.769V261.142Z" fill="#F0F0F0"/>
<path d="M477.769 266.111H474.803V269.077H477.769V266.111Z" fill="#F0F0F0"/>
<path d="M477.769 271.087H474.803V274.053H477.769V271.087Z" fill="#F0F0F0"/>
<path d="M477.769 276.063H474.803V279.029H477.769V276.063Z" fill="#F0F0F0"/>
<path d="M477.769 290.984H474.803V293.95H477.769V290.984Z" fill="#F0F0F0"/>
<path d="M477.769 295.96H474.803V298.926H477.769V295.96Z" fill="#F0F0F0"/>
<path d="M477.769 300.936H474.803V303.902H477.769V300.936Z" fill="#F0F0F0"/>
<path d="M477.769 305.912H474.803V308.878H477.769V305.912Z" fill="#F0F0F0"/>
<path d="M473.07 231.307H470.104V234.273H473.07V231.307Z" fill="#F0F0F0"/>
<path d="M473.07 236.283H470.104V239.249H473.07V236.283Z" fill="#F0F0F0"/>
<path d="M473.07 241.252H470.104V244.218H473.07V241.252Z" fill="#F0F0F0"/>
<path d="M473.07 246.228H470.104V249.194H473.07V246.228Z" fill="#F0F0F0"/>
<path d="M473.07 251.204H470.104V254.17H473.07V251.204Z" fill="#F0F0F0"/>
<path d="M473.07 256.18H470.104V259.146H473.07V256.18Z" fill="#F0F0F0"/>
<path d="M473.07 261.142H470.104V264.108H473.07V261.142Z" fill="#F0F0F0"/>
<path d="M473.07 266.111H470.104V269.077H473.07V266.111Z" fill="#F0F0F0"/>
<path d="M473.07 271.087H470.104V274.053H473.07V271.087Z" fill="#F0F0F0"/>
<path d="M473.07 276.063H470.104V279.029H473.07V276.063Z" fill="#F0F0F0"/>
<path d="M473.07 290.984H470.104V293.95H473.07V290.984Z" fill="#F0F0F0"/>
<path d="M473.07 295.96H470.104V298.926H473.07V295.96Z" fill="#F0F0F0"/>
<path d="M473.07 300.936H470.104V303.902H473.07V300.936Z" fill="#F0F0F0"/>
<path d="M420.019 218.396H417.053V221.362H420.019V218.396Z" fill="#F0F0F0"/>
<path d="M420.019 223.365H417.053V226.331H420.019V223.365Z" fill="#F0F0F0"/>
<path d="M420.019 228.34H417.053V231.307H420.019V228.34Z" fill="#F0F0F0"/>
<path d="M420.019 233.316H417.053V236.283H420.019V233.316Z" fill="#F0F0F0"/>
<path d="M420.019 238.292H417.053V241.259H420.019V238.292Z" fill="#F0F0F0"/>
<path d="M420.019 243.268H417.053V246.234H420.019V243.268Z" fill="#F0F0F0"/>
<path d="M420.019 248.23H417.053V251.197H420.019V248.23Z" fill="#F0F0F0"/>
<path d="M420.019 253.199H417.053V256.166H420.019V253.199Z" fill="#F0F0F0"/>
<path d="M420.019 268.127H417.053V271.094H420.019V268.127Z" fill="#F0F0F0"/>
<path d="M420.019 273.096H417.053V276.063H420.019V273.096Z" fill="#F0F0F0"/>
<path d="M415.306 218.396H412.34V221.362H415.306V218.396Z" fill="#F0F0F0"/>
<path d="M415.306 223.365H412.34V226.331H415.306V223.365Z" fill="#F0F0F0"/>
<path d="M415.306 228.34H412.34V231.307H415.306V228.34Z" fill="#F0F0F0"/>
<path d="M415.306 233.316H412.34V236.283H415.306V233.316Z" fill="#F0F0F0"/>
<path d="M415.306 238.292H412.34V241.259H415.306V238.292Z" fill="#F0F0F0"/>
<path d="M415.306 243.268H412.34V246.234H415.306V243.268Z" fill="#F0F0F0"/>
<path d="M415.306 248.23H412.34V251.197H415.306V248.23Z" fill="#F0F0F0"/>
<path d="M415.306 253.199H412.34V256.166H415.306V253.199Z" fill="#F0F0F0"/>
<path d="M415.306 273.096H412.34V276.063H415.306V273.096Z" fill="#F0F0F0"/>
<path d="M410.593 218.396H407.627V221.362H410.593V218.396Z" fill="#F0F0F0"/>
<path d="M410.593 223.365H407.627V226.331H410.593V223.365Z" fill="#F0F0F0"/>
<path d="M410.593 228.34H407.627V231.307H410.593V228.34Z" fill="#F0F0F0"/>
<path d="M410.593 233.316H407.627V236.283H410.593V233.316Z" fill="#F0F0F0"/>
<path d="M410.593 238.292H407.627V241.259H410.593V238.292Z" fill="#F0F0F0"/>
<path d="M410.593 243.268H407.627V246.234H410.593V243.268Z" fill="#F0F0F0"/>
<path d="M410.593 248.23H407.627V251.197H410.593V248.23Z" fill="#F0F0F0"/>
<path d="M410.593 253.199H407.627V256.166H410.593V253.199Z" fill="#F0F0F0"/>
<path d="M405.881 218.396H402.915V221.362H405.881V218.396Z" fill="#F0F0F0"/>
<path d="M405.881 223.365H402.915V226.331H405.881V223.365Z" fill="#F0F0F0"/>
<path d="M405.881 228.34H402.915V231.307H405.881V228.34Z" fill="#F0F0F0"/>
<path d="M405.881 233.316H402.915V236.283H405.881V233.316Z" fill="#F0F0F0"/>
<path d="M405.881 238.292H402.915V241.259H405.881V238.292Z" fill="#F0F0F0"/>
<path d="M405.881 243.268H402.915V246.234H405.881V243.268Z" fill="#F0F0F0"/>
<path d="M405.881 253.199H402.915V256.166H405.881V253.199Z" fill="#F0F0F0"/>
<path d="M405.881 258.176H402.915V261.142H405.881V258.176Z" fill="#F0F0F0"/>
<path d="M405.881 273.096H402.915V276.063H405.881V273.096Z" fill="#F0F0F0"/>
<path d="M405.881 278.073H402.915V281.039H405.881V278.073Z" fill="#F0F0F0"/>
<path d="M405.881 283.049H402.915V286.015H405.881V283.049Z" fill="#F0F0F0"/>
<path d="M405.881 288.024H402.915V290.991H405.881V288.024Z" fill="#F0F0F0"/>
<path d="M405.881 292.993H402.915V295.96H405.881V292.993Z" fill="#F0F0F0"/>
<path d="M405.881 297.962H402.915V300.929H405.881V297.962Z" fill="#F0F0F0"/>
<path d="M405.881 302.932H402.915V305.898H405.881V302.932Z" fill="#F0F0F0"/>
<path d="M401.169 218.396H398.203V221.362H401.169V218.396Z" fill="#F0F0F0"/>
<path d="M401.169 223.365H398.203V226.331H401.169V223.365Z" fill="#F0F0F0"/>
<path d="M401.169 228.34H398.203V231.307H401.169V228.34Z" fill="#F0F0F0"/>
<path d="M401.169 233.316H398.203V236.283H401.169V233.316Z" fill="#F0F0F0"/>
<path d="M401.169 238.292H398.203V241.259H401.169V238.292Z" fill="#F0F0F0"/>
<path d="M401.169 243.268H398.203V246.234H401.169V243.268Z" fill="#F0F0F0"/>
<path d="M401.169 258.176H398.203V261.142H401.169V258.176Z" fill="#F0F0F0"/>
<path d="M401.169 263.151H398.203V266.118H401.169V263.151Z" fill="#F0F0F0"/>
<path d="M401.169 268.127H398.203V271.094H401.169V268.127Z" fill="#F0F0F0"/>
<path d="M401.169 273.096H398.203V276.063H401.169V273.096Z" fill="#F0F0F0"/>
<path d="M401.169 278.073H398.203V281.039H401.169V278.073Z" fill="#F0F0F0"/>
<path d="M401.169 283.049H398.203V286.015H401.169V283.049Z" fill="#F0F0F0"/>
<path d="M401.169 288.024H398.203V290.991H401.169V288.024Z" fill="#F0F0F0"/>
<path d="M401.169 292.993H398.203V295.96H401.169V292.993Z" fill="#F0F0F0"/>
<path d="M401.169 297.962H398.203V300.929H401.169V297.962Z" fill="#F0F0F0"/>
<path d="M401.169 302.932H398.203V305.898H401.169V302.932Z" fill="#F0F0F0"/>
<path d="M401.169 307.907H398.203V310.874H401.169V307.907Z" fill="#F0F0F0"/>
<path d="M401.169 317.859H398.203V320.826H401.169V317.859Z" fill="#F0F0F0"/>
<path d="M396.455 218.396H393.489V221.362H396.455V218.396Z" fill="#F0F0F0"/>
<path d="M396.455 223.365H393.489V226.331H396.455V223.365Z" fill="#F0F0F0"/>
<path d="M396.455 228.34H393.489V231.307H396.455V228.34Z" fill="#F0F0F0"/>
<path d="M396.455 233.316H393.489V236.283H396.455V233.316Z" fill="#F0F0F0"/>
<path d="M396.455 238.292H393.489V241.259H396.455V238.292Z" fill="#F0F0F0"/>
<path d="M396.455 243.268H393.489V246.234H396.455V243.268Z" fill="#F0F0F0"/>
<path d="M396.455 258.176H393.489V261.142H396.455V258.176Z" fill="#F0F0F0"/>
<path d="M396.455 263.151H393.489V266.118H396.455V263.151Z" fill="#F0F0F0"/>
<path d="M396.455 268.127H393.489V271.094H396.455V268.127Z" fill="#F0F0F0"/>
<path d="M396.455 273.096H393.489V276.063H396.455V273.096Z" fill="#F0F0F0"/>
<path d="M396.455 288.024H393.489V290.991H396.455V288.024Z" fill="#F0F0F0"/>
<path d="M396.455 292.993H393.489V295.96H396.455V292.993Z" fill="#F0F0F0"/>
<path d="M396.455 297.962H393.489V300.929H396.455V297.962Z" fill="#F0F0F0"/>
<path d="M396.455 302.932H393.489V305.898H396.455V302.932Z" fill="#F0F0F0"/>
<path d="M396.455 307.907H393.489V310.874H396.455V307.907Z" fill="#F0F0F0"/>
<path d="M396.455 317.859H393.489V320.826H396.455V317.859Z" fill="#F0F0F0"/>
<path d="M396.455 322.828H393.489V325.795H396.455V322.828Z" fill="#F0F0F0"/>
<path d="M353.709 264.642H350.743V267.608H353.709V264.642Z" fill="#F0F0F0"/>
<path d="M353.709 269.611H350.743V272.577H353.709V269.611Z" fill="#F0F0F0"/>
<path d="M353.709 274.586H350.743V277.553H353.709V274.586Z" fill="#F0F0F0"/>
<path d="M353.709 279.549H350.743V282.515H353.709V279.549Z" fill="#F0F0F0"/>
<path d="M353.709 284.525H350.743V287.491H353.709V284.525Z" fill="#F0F0F0"/>
<path d="M353.709 289.5H350.743V292.467H353.709V289.5Z" fill="#F0F0F0"/>
<path d="M353.709 294.47H350.743V297.436H353.709V294.47Z" fill="#F0F0F0"/>
<path d="M353.709 309.397H350.743V312.364H353.709V309.397Z" fill="#F0F0F0"/>
<path d="M353.709 314.367H350.743V317.333H353.709V314.367Z" fill="#F0F0F0"/>
<path d="M353.709 319.343H350.743V322.309H353.709V319.343Z" fill="#F0F0F0"/>
<path d="M348.996 264.642H346.03V267.608H348.996V264.642Z" fill="#F0F0F0"/>
<path d="M348.996 269.611H346.03V272.577H348.996V269.611Z" fill="#F0F0F0"/>
<path d="M348.996 274.586H346.03V277.553H348.996V274.586Z" fill="#F0F0F0"/>
<path d="M348.996 279.549H346.03V282.515H348.996V279.549Z" fill="#F0F0F0"/>
<path d="M348.996 284.525H346.03V287.491H348.996V284.525Z" fill="#F0F0F0"/>
<path d="M348.996 289.5H346.03V292.467H348.996V289.5Z" fill="#F0F0F0"/>
<path d="M348.996 294.47H346.03V297.436H348.996V294.47Z" fill="#F0F0F0"/>
<path d="M344.285 264.642H341.318V267.608H344.285V264.642Z" fill="#F0F0F0"/>
<path d="M344.285 269.611H341.318V272.577H344.285V269.611Z" fill="#F0F0F0"/>
<path d="M344.285 274.586H341.318V277.553H344.285V274.586Z" fill="#F0F0F0"/>
<path d="M344.285 279.549H341.318V282.515H344.285V279.549Z" fill="#F0F0F0"/>
<path d="M344.285 284.525H341.318V287.491H344.285V284.525Z" fill="#F0F0F0"/>
<path d="M344.285 289.5H341.318V292.467H344.285V289.5Z" fill="#F0F0F0"/>
<path d="M344.285 294.47H341.318V297.436H344.285V294.47Z" fill="#F0F0F0"/>
<path d="M339.572 264.642H336.606V267.608H339.572V264.642Z" fill="#F0F0F0"/>
<path d="M339.572 269.611H336.606V272.577H339.572V269.611Z" fill="#F0F0F0"/>
<path d="M339.572 274.586H336.606V277.553H339.572V274.586Z" fill="#F0F0F0"/>
<path d="M339.572 279.549H336.606V282.515H339.572V279.549Z" fill="#F0F0F0"/>
<path d="M339.572 284.525H336.606V287.491H339.572V284.525Z" fill="#F0F0F0"/>
<path d="M339.572 289.5H336.606V292.467H339.572V289.5Z" fill="#F0F0F0"/>
<path d="M339.572 294.47H336.606V297.436H339.572V294.47Z" fill="#F0F0F0"/>
<path d="M339.572 299.446H336.606V302.412H339.572V299.446Z" fill="#F0F0F0"/>
<path d="M339.572 304.422H336.606V307.388H339.572V304.422Z" fill="#F0F0F0"/>
<path d="M339.572 309.397H336.606V312.364H339.572V309.397Z" fill="#F0F0F0"/>
<path d="M339.572 314.366H336.606V317.333H339.572V314.366Z" fill="#F0F0F0"/>
<path d="M334.86 264.642H331.894V267.608H334.86V264.642Z" fill="#F0F0F0"/>
<path d="M334.86 269.611H331.894V272.577H334.86V269.611Z" fill="#F0F0F0"/>
<path d="M334.86 274.586H331.894V277.553H334.86V274.586Z" fill="#F0F0F0"/>
<path d="M334.86 279.549H331.894V282.515H334.86V279.549Z" fill="#F0F0F0"/>
<path d="M334.86 284.525H331.894V287.491H334.86V284.525Z" fill="#F0F0F0"/>
<path d="M334.86 289.5H331.894V292.467H334.86V289.5Z" fill="#F0F0F0"/>
<path d="M334.86 294.47H331.894V297.436H334.86V294.47Z" fill="#F0F0F0"/>
<path d="M334.86 299.446H331.894V302.412H334.86V299.446Z" fill="#F0F0F0"/>
<path d="M334.86 304.422H331.894V307.388H334.86V304.422Z" fill="#F0F0F0"/>
<path d="M334.86 309.397H331.894V312.364H334.86V309.397Z" fill="#F0F0F0"/>
<path d="M334.86 314.366H331.894V317.333H334.86V314.366Z" fill="#F0F0F0"/>
<path d="M334.86 319.343H331.894V322.309H334.86V319.343Z" fill="#F0F0F0"/>
<path d="M334.86 334.257H331.894V337.223H334.86V334.257Z" fill="#F0F0F0"/>
<path d="M334.86 339.233H331.894V342.199H334.86V339.233Z" fill="#F0F0F0"/>
<path d="M330.146 264.642H327.18V267.608H330.146V264.642Z" fill="#F0F0F0"/>
<path d="M330.146 269.611H327.18V272.577H330.146V269.611Z" fill="#F0F0F0"/>
<path d="M330.146 274.586H327.18V277.553H330.146V274.586Z" fill="#F0F0F0"/>
<path d="M330.146 289.5H327.18V292.467H330.146V289.5Z" fill="#F0F0F0"/>
<path d="M330.146 294.47H327.18V297.436H330.146V294.47Z" fill="#F0F0F0"/>
<path d="M330.146 299.446H327.18V302.412H330.146V299.446Z" fill="#F0F0F0"/>
<path d="M330.146 304.422H327.18V307.388H330.146V304.422Z" fill="#F0F0F0"/>
<path d="M330.146 309.397H327.18V312.364H330.146V309.397Z" fill="#F0F0F0"/>
<path d="M330.146 314.367H327.18V317.333H330.146V314.367Z" fill="#F0F0F0"/>
<path d="M330.146 319.343H327.18V322.309H330.146V319.343Z" fill="#F0F0F0"/>
<path d="M330.146 334.257H327.18V337.223H330.146V334.257Z" fill="#F0F0F0"/>
<path d="M330.146 339.233H327.18V342.199H330.146V339.233Z" fill="#F0F0F0"/>
<path d="M330.146 344.202H327.18V347.168H330.146V344.202Z" fill="#F0F0F0"/>
<path d="M280.774 234.792H277.808V237.759H280.774V234.792Z" fill="#F0F0F0"/>
<path d="M280.774 239.769H277.808V242.735H280.774V239.769Z" fill="#F0F0F0"/>
<path d="M280.774 244.738H277.808V247.704H280.774V244.738Z" fill="#F0F0F0"/>
<path d="M280.774 249.714H277.808V252.68H280.774V249.714Z" fill="#F0F0F0"/>
<path d="M280.774 254.689H277.808V257.656H280.774V254.689Z" fill="#F0F0F0"/>
<path d="M280.774 259.666H277.808V262.632H280.774V259.666Z" fill="#F0F0F0"/>
<path d="M280.774 264.642H277.808V267.608H280.774V264.642Z" fill="#F0F0F0"/>
<path d="M280.774 269.611H277.808V272.577H280.774V269.611Z" fill="#F0F0F0"/>
<path d="M280.774 274.586H277.808V277.553H280.774V274.586Z" fill="#F0F0F0"/>
<path d="M280.774 279.549H277.808V282.515H280.774V279.549Z" fill="#F0F0F0"/>
<path d="M280.774 284.525H277.808V287.491H280.774V284.525Z" fill="#F0F0F0"/>
<path d="M280.774 289.5H277.808V292.467H280.774V289.5Z" fill="#F0F0F0"/>
<path d="M280.774 294.47H277.808V297.436H280.774V294.47Z" fill="#F0F0F0"/>
<path d="M280.774 299.446H277.808V302.412H280.774V299.446Z" fill="#F0F0F0"/>
<path d="M280.774 304.422H277.808V307.388H280.774V304.422Z" fill="#F0F0F0"/>
<path d="M280.774 309.397H277.808V312.364H280.774V309.397Z" fill="#F0F0F0"/>
<path d="M280.774 314.366H277.808V317.333H280.774V314.366Z" fill="#F0F0F0"/>
<path d="M280.774 319.343H277.808V322.309H280.774V319.343Z" fill="#F0F0F0"/>
<path d="M280.774 324.319H277.808V327.285H280.774V324.319Z" fill="#F0F0F0"/>
<path d="M280.774 329.281H277.808V332.247H280.774V329.281Z" fill="#F0F0F0"/>
<path d="M280.774 334.257H277.808V337.223H280.774V334.257Z" fill="#F0F0F0"/>
<path d="M280.774 339.233H277.808V342.199H280.774V339.233Z" fill="#F0F0F0"/>
<path d="M280.774 344.202H277.808V347.168H280.774V344.202Z" fill="#F0F0F0"/>
<path d="M276.062 234.792H273.096V237.759H276.062V234.792Z" fill="#F0F0F0"/>
<path d="M276.062 239.769H273.096V242.735H276.062V239.769Z" fill="#F0F0F0"/>
<path d="M276.062 244.738H273.096V247.704H276.062V244.738Z" fill="#F0F0F0"/>
<path d="M276.062 249.714H273.096V252.68H276.062V249.714Z" fill="#F0F0F0"/>
<path d="M276.062 254.689H273.096V257.656H276.062V254.689Z" fill="#F0F0F0"/>
<path d="M276.062 259.666H273.096V262.632H276.062V259.666Z" fill="#F0F0F0"/>
<path d="M276.062 264.642H273.096V267.608H276.062V264.642Z" fill="#F0F0F0"/>
<path d="M276.062 269.611H273.096V272.577H276.062V269.611Z" fill="#F0F0F0"/>
<path d="M276.062 274.586H273.096V277.553H276.062V274.586Z" fill="#F0F0F0"/>
<path d="M276.062 279.549H273.096V282.515H276.062V279.549Z" fill="#F0F0F0"/>
<path d="M276.062 284.525H273.096V287.491H276.062V284.525Z" fill="#F0F0F0"/>
<path d="M276.062 289.5H273.096V292.467H276.062V289.5Z" fill="#F0F0F0"/>
<path d="M276.062 294.47H273.096V297.436H276.062V294.47Z" fill="#F0F0F0"/>
<path d="M276.062 299.446H273.096V302.412H276.062V299.446Z" fill="#F0F0F0"/>
<path d="M276.062 304.422H273.096V307.388H276.062V304.422Z" fill="#F0F0F0"/>
<path d="M276.062 309.397H273.096V312.364H276.062V309.397Z" fill="#F0F0F0"/>
<path d="M276.062 314.366H273.096V317.333H276.062V314.366Z" fill="#F0F0F0"/>
<path d="M276.062 319.343H273.096V322.309H276.062V319.343Z" fill="#F0F0F0"/>
<path d="M276.062 324.319H273.096V327.285H276.062V324.319Z" fill="#F0F0F0"/>
<path d="M271.349 234.792H268.383V237.759H271.349V234.792Z" fill="#F0F0F0"/>
<path d="M271.349 239.769H268.383V242.735H271.349V239.769Z" fill="#F0F0F0"/>
<path d="M271.349 244.738H268.383V247.704H271.349V244.738Z" fill="#F0F0F0"/>
<path d="M271.349 249.714H268.383V252.68H271.349V249.714Z" fill="#F0F0F0"/>
<path d="M271.349 254.689H268.383V257.656H271.349V254.689Z" fill="#F0F0F0"/>
<path d="M271.349 259.666H268.383V262.632H271.349V259.666Z" fill="#F0F0F0"/>
<path d="M271.349 264.642H268.383V267.608H271.349V264.642Z" fill="#F0F0F0"/>
<path d="M271.349 269.611H268.383V272.577H271.349V269.611Z" fill="#F0F0F0"/>
<path d="M271.349 274.586H268.383V277.553H271.349V274.586Z" fill="#F0F0F0"/>
<path d="M271.349 279.549H268.383V282.515H271.349V279.549Z" fill="#F0F0F0"/>
<path d="M271.349 284.525H268.383V287.491H271.349V284.525Z" fill="#F0F0F0"/>
<path d="M271.349 289.5H268.383V292.467H271.349V289.5Z" fill="#F0F0F0"/>
<path d="M271.349 294.47H268.383V297.436H271.349V294.47Z" fill="#F0F0F0"/>
<path d="M271.349 299.446H268.383V302.412H271.349V299.446Z" fill="#F0F0F0"/>
<path d="M271.349 304.422H268.383V307.388H271.349V304.422Z" fill="#F0F0F0"/>
<path d="M271.349 309.397H268.383V312.364H271.349V309.397Z" fill="#F0F0F0"/>
<path d="M271.349 314.366H268.383V317.333H271.349V314.366Z" fill="#F0F0F0"/>
<path d="M271.349 319.343H268.383V322.309H271.349V319.343Z" fill="#F0F0F0"/>
<path d="M271.349 324.319H268.383V327.285H271.349V324.319Z" fill="#F0F0F0"/>
<path d="M266.637 234.792H263.671V237.759H266.637V234.792Z" fill="#F0F0F0"/>
<path d="M266.637 239.769H263.671V242.735H266.637V239.769Z" fill="#F0F0F0"/>
<path d="M266.637 244.738H263.671V247.704H266.637V244.738Z" fill="#F0F0F0"/>
<path d="M266.637 249.714H263.671V252.68H266.637V249.714Z" fill="#F0F0F0"/>
<path d="M266.637 254.689H263.671V257.656H266.637V254.689Z" fill="#F0F0F0"/>
<path d="M266.637 259.666H263.671V262.632H266.637V259.666Z" fill="#F0F0F0"/>
<path d="M266.637 264.642H263.671V267.608H266.637V264.642Z" fill="#F0F0F0"/>
<path d="M266.637 269.611H263.671V272.577H266.637V269.611Z" fill="#F0F0F0"/>
<path d="M266.637 274.586H263.671V277.553H266.637V274.586Z" fill="#F0F0F0"/>
<path d="M266.637 279.549H263.671V282.515H266.637V279.549Z" fill="#F0F0F0"/>
<path d="M266.637 284.525H263.671V287.491H266.637V284.525Z" fill="#F0F0F0"/>
<path d="M266.637 289.5H263.671V292.467H266.637V289.5Z" fill="#F0F0F0"/>
<path d="M266.637 294.47H263.671V297.436H266.637V294.47Z" fill="#F0F0F0"/>
<path d="M266.637 299.446H263.671V302.412H266.637V299.446Z" fill="#F0F0F0"/>
<path d="M266.637 304.422H263.671V307.388H266.637V304.422Z" fill="#F0F0F0"/>
<path d="M261.924 234.792H258.958V237.759H261.924V234.792Z" fill="#F0F0F0"/>
<path d="M261.924 239.769H258.958V242.735H261.924V239.769Z" fill="#F0F0F0"/>
<path d="M261.924 244.738H258.958V247.704H261.924V244.738Z" fill="#F0F0F0"/>
<path d="M261.924 249.714H258.958V252.68H261.924V249.714Z" fill="#F0F0F0"/>
<path d="M261.924 254.689H258.958V257.656H261.924V254.689Z" fill="#F0F0F0"/>
<path d="M261.924 259.666H258.958V262.632H261.924V259.666Z" fill="#F0F0F0"/>
<path d="M261.924 264.642H258.958V267.608H261.924V264.642Z" fill="#F0F0F0"/>
<path d="M261.924 269.611H258.958V272.577H261.924V269.611Z" fill="#F0F0F0"/>
<path d="M261.924 274.586H258.958V277.553H261.924V274.586Z" fill="#F0F0F0"/>
<path d="M261.924 279.549H258.958V282.515H261.924V279.549Z" fill="#F0F0F0"/>
<path d="M261.924 284.525H258.958V287.491H261.924V284.525Z" fill="#F0F0F0"/>
<path d="M261.924 289.5H258.958V292.467H261.924V289.5Z" fill="#F0F0F0"/>
<path d="M261.924 294.47H258.958V297.436H261.924V294.47Z" fill="#F0F0F0"/>
<path d="M257.211 234.792H254.245V237.759H257.211V234.792Z" fill="#F0F0F0"/>
<path d="M257.211 239.769H254.245V242.735H257.211V239.769Z" fill="#F0F0F0"/>
<path d="M257.211 244.738H254.245V247.704H257.211V244.738Z" fill="#F0F0F0"/>
<path d="M257.211 249.714H254.245V252.68H257.211V249.714Z" fill="#F0F0F0"/>
<path d="M257.211 254.689H254.245V257.656H257.211V254.689Z" fill="#F0F0F0"/>
<path d="M257.211 259.666H254.245V262.632H257.211V259.666Z" fill="#F0F0F0"/>
<path d="M257.211 264.642H254.245V267.608H257.211V264.642Z" fill="#F0F0F0"/>
<path d="M257.211 269.611H254.245V272.577H257.211V269.611Z" fill="#F0F0F0"/>
<path d="M257.211 274.586H254.245V277.553H257.211V274.586Z" fill="#F0F0F0"/>
<path d="M257.211 279.549H254.245V282.515H257.211V279.549Z" fill="#F0F0F0"/>
<path d="M257.211 284.525H254.245V287.491H257.211V284.525Z" fill="#F0F0F0"/>
<path d="M257.211 289.5H254.245V292.467H257.211V289.5Z" fill="#F0F0F0"/>
<path d="M532.213 233.316H529.247V236.283H532.213V233.316Z" fill="#F0F0F0"/>
<path d="M532.213 238.292H529.247V241.259H532.213V238.292Z" fill="#F0F0F0"/>
<path d="M532.213 243.268H529.247V246.234H532.213V243.268Z" fill="#F0F0F0"/>
<path d="M532.213 248.23H529.247V251.197H532.213V248.23Z" fill="#F0F0F0"/>
<path d="M532.213 253.199H529.247V256.166H532.213V253.199Z" fill="#F0F0F0"/>
<path d="M532.213 258.176H529.247V261.142H532.213V258.176Z" fill="#F0F0F0"/>
<path d="M532.213 263.151H529.247V266.118H532.213V263.151Z" fill="#F0F0F0"/>
<path d="M532.213 268.127H529.247V271.094H532.213V268.127Z" fill="#F0F0F0"/>
<path d="M532.213 273.096H529.247V276.063H532.213V273.096Z" fill="#F0F0F0"/>
<path d="M532.213 278.073H529.247V281.039H532.213V278.073Z" fill="#F0F0F0"/>
<path d="M532.213 283.049H529.247V286.015H532.213V283.049Z" fill="#F0F0F0"/>
<path d="M532.213 288.024H529.247V290.991H532.213V288.024Z" fill="#F0F0F0"/>
<path d="M532.213 292.993H529.247V295.96H532.213V292.993Z" fill="#F0F0F0"/>
<path d="M532.213 297.962H529.247V300.929H532.213V297.962Z" fill="#F0F0F0"/>
<path d="M532.213 302.932H529.247V305.898H532.213V302.932Z" fill="#F0F0F0"/>
<path d="M532.213 307.907H529.247V310.874H532.213V307.907Z" fill="#F0F0F0"/>
<path d="M532.213 312.884H529.247V315.85H532.213V312.884Z" fill="#F0F0F0"/>
<path d="M532.213 322.828H529.247V325.795H532.213V322.828Z" fill="#F0F0F0"/>
<path d="M532.213 327.804H529.247V330.771H532.213V327.804Z" fill="#F0F0F0"/>
<path d="M532.213 332.78H529.247V335.746H532.213V332.78Z" fill="#F0F0F0"/>
<path d="M532.213 337.756H529.247V340.723H532.213V337.756Z" fill="#F0F0F0"/>
<path d="M532.213 342.719H529.247V345.685H532.213V342.719Z" fill="#F0F0F0"/>
<path d="M527.501 233.316H524.535V236.283H527.501V233.316Z" fill="#F0F0F0"/>
<path d="M527.501 238.292H524.535V241.259H527.501V238.292Z" fill="#F0F0F0"/>
<path d="M527.501 243.268H524.535V246.234H527.501V243.268Z" fill="#F0F0F0"/>
<path d="M527.501 248.23H524.535V251.197H527.501V248.23Z" fill="#F0F0F0"/>
<path d="M527.501 253.199H524.535V256.166H527.501V253.199Z" fill="#F0F0F0"/>
<path d="M527.501 258.176H524.535V261.142H527.501V258.176Z" fill="#F0F0F0"/>
<path d="M527.501 263.151H524.535V266.118H527.501V263.151Z" fill="#F0F0F0"/>
<path d="M527.501 268.127H524.535V271.094H527.501V268.127Z" fill="#F0F0F0"/>
<path d="M527.501 273.096H524.535V276.063H527.501V273.096Z" fill="#F0F0F0"/>
<path d="M527.501 278.073H524.535V281.039H527.501V278.073Z" fill="#F0F0F0"/>
<path d="M527.501 283.049H524.535V286.015H527.501V283.049Z" fill="#F0F0F0"/>
<path d="M527.501 288.024H524.535V290.991H527.501V288.024Z" fill="#F0F0F0"/>
<path d="M527.501 292.993H524.535V295.96H527.501V292.993Z" fill="#F0F0F0"/>
<path d="M527.501 297.962H524.535V300.929H527.501V297.962Z" fill="#F0F0F0"/>
<path d="M527.501 302.932H524.535V305.898H527.501V302.932Z" fill="#F0F0F0"/>
<path d="M527.501 307.907H524.535V310.874H527.501V307.907Z" fill="#F0F0F0"/>
<path d="M527.501 337.756H524.535V340.723H527.501V337.756Z" fill="#F0F0F0"/>
<path d="M527.501 342.719H524.535V345.685H527.501V342.719Z" fill="#F0F0F0"/>
<path d="M522.802 233.316H519.835V236.283H522.802V233.316Z" fill="#F0F0F0"/>
<path d="M522.802 238.292H519.835V241.259H522.802V238.292Z" fill="#F0F0F0"/>
<path d="M522.802 243.268H519.835V246.234H522.802V243.268Z" fill="#F0F0F0"/>
<path d="M522.802 248.23H519.835V251.197H522.802V248.23Z" fill="#F0F0F0"/>
<path d="M522.802 253.199H519.835V256.166H522.802V253.199Z" fill="#F0F0F0"/>
<path d="M522.802 258.176H519.835V261.142H522.802V258.176Z" fill="#F0F0F0"/>
<path d="M522.802 263.151H519.835V266.118H522.802V263.151Z" fill="#F0F0F0"/>
<path d="M522.802 268.127H519.835V271.094H522.802V268.127Z" fill="#F0F0F0"/>
<path d="M522.802 273.096H519.835V276.063H522.802V273.096Z" fill="#F0F0F0"/>
<path d="M522.802 278.073H519.835V281.039H522.802V278.073Z" fill="#F0F0F0"/>
<path d="M522.802 283.049H519.835V286.015H522.802V283.049Z" fill="#F0F0F0"/>
<path d="M522.802 288.024H519.835V290.991H522.802V288.024Z" fill="#F0F0F0"/>
<path d="M522.802 292.993H519.835V295.96H522.802V292.993Z" fill="#F0F0F0"/>
<path d="M522.802 297.962H519.835V300.929H522.802V297.962Z" fill="#F0F0F0"/>
<path d="M522.802 302.932H519.835V305.898H522.802V302.932Z" fill="#F0F0F0"/>
<path d="M522.802 307.907H519.835V310.874H522.802V307.907Z" fill="#F0F0F0"/>
<path d="M522.802 317.859H519.835V320.826H522.802V317.859Z" fill="#F0F0F0"/>
<path d="M522.802 322.828H519.835V325.795H522.802V322.828Z" fill="#F0F0F0"/>
<path d="M522.802 327.804H519.835V330.771H522.802V327.804Z" fill="#F0F0F0"/>
<path d="M522.802 332.78H519.835V335.746H522.802V332.78Z" fill="#F0F0F0"/>
<path d="M522.802 342.719H519.835V345.685H522.802V342.719Z" fill="#F0F0F0"/>
<path d="M440.608 268.127H437.642V271.094H440.608V268.127Z" fill="#F0F0F0"/>
<path d="M440.608 273.096H437.642V276.063H440.608V273.096Z" fill="#F0F0F0"/>
<path d="M440.608 278.073H437.642V281.039H440.608V278.073Z" fill="#F0F0F0"/>
<path d="M440.608 283.049H437.642V286.015H440.608V283.049Z" fill="#F0F0F0"/>
<path d="M440.608 288.024H437.642V290.991H440.608V288.024Z" fill="#F0F0F0"/>
<path d="M440.608 292.993H437.642V295.96H440.608V292.993Z" fill="#F0F0F0"/>
<path d="M440.608 297.962H437.642V300.929H440.608V297.962Z" fill="#F0F0F0"/>
<path d="M440.608 302.932H437.642V305.898H440.608V302.932Z" fill="#F0F0F0"/>
<path d="M440.608 307.907H437.642V310.874H440.608V307.907Z" fill="#F0F0F0"/>
<path d="M440.608 312.884H437.642V315.85H440.608V312.884Z" fill="#F0F0F0"/>
<path d="M440.608 317.859H437.642V320.826H440.608V317.859Z" fill="#F0F0F0"/>
<path d="M440.608 322.828H437.642V325.795H440.608V322.828Z" fill="#F0F0F0"/>
<path d="M440.608 327.804H437.642V330.771H440.608V327.804Z" fill="#F0F0F0"/>
<path d="M440.608 337.756H437.642V340.723H440.608V337.756Z" fill="#F0F0F0"/>
<path d="M440.608 342.719H437.642V345.685H440.608V342.719Z" fill="#F0F0F0"/>
<path d="M440.608 347.688H437.642V350.654H440.608V347.688Z" fill="#F0F0F0"/>
<path d="M440.608 352.664H437.642V355.63H440.608V352.664Z" fill="#F0F0F0"/>
<path d="M440.608 362.615H437.642V365.582H440.608V362.615Z" fill="#F0F0F0"/>
<path d="M440.608 367.592H437.642V370.558H440.608V367.592Z" fill="#F0F0F0"/>
<path d="M440.608 372.561H437.642V375.527H440.608V372.561Z" fill="#F0F0F0"/>
<path d="M435.896 268.127H432.93V271.094H435.896V268.127Z" fill="#F0F0F0"/>
<path d="M435.896 273.096H432.93V276.063H435.896V273.096Z" fill="#F0F0F0"/>
<path d="M435.896 278.073H432.93V281.039H435.896V278.073Z" fill="#F0F0F0"/>
<path d="M435.896 283.049H432.93V286.015H435.896V283.049Z" fill="#F0F0F0"/>
<path d="M435.896 288.024H432.93V290.991H435.896V288.024Z" fill="#F0F0F0"/>
<path d="M435.896 292.993H432.93V295.96H435.896V292.993Z" fill="#F0F0F0"/>
<path d="M435.896 297.962H432.93V300.929H435.896V297.962Z" fill="#F0F0F0"/>
<path d="M435.896 302.932H432.93V305.898H435.896V302.932Z" fill="#F0F0F0"/>
<path d="M435.896 307.907H432.93V310.874H435.896V307.907Z" fill="#F0F0F0"/>
<path d="M435.896 312.884H432.93V315.85H435.896V312.884Z" fill="#F0F0F0"/>
<path d="M435.896 317.859H432.93V320.826H435.896V317.859Z" fill="#F0F0F0"/>
<path d="M435.896 322.828H432.93V325.795H435.896V322.828Z" fill="#F0F0F0"/>
<path d="M435.896 327.804H432.93V330.771H435.896V327.804Z" fill="#F0F0F0"/>
<path d="M435.896 342.719H432.93V345.685H435.896V342.719Z" fill="#F0F0F0"/>
<path d="M435.896 347.688H432.93V350.654H435.896V347.688Z" fill="#F0F0F0"/>
<path d="M435.896 357.64H432.93V360.606H435.896V357.64Z" fill="#F0F0F0"/>
<path d="M435.896 362.615H432.93V365.582H435.896V362.615Z" fill="#F0F0F0"/>
<path d="M435.896 367.592H432.93V370.558H435.896V367.592Z" fill="#F0F0F0"/>
<path d="M435.896 372.561H432.93V375.527H435.896V372.561Z" fill="#F0F0F0"/>
<path d="M431.183 268.127H428.217V271.094H431.183V268.127Z" fill="#F0F0F0"/>
<path d="M431.183 273.096H428.217V276.063H431.183V273.096Z" fill="#F0F0F0"/>
<path d="M431.183 278.073H428.217V281.039H431.183V278.073Z" fill="#F0F0F0"/>
<path d="M431.183 283.049H428.217V286.015H431.183V283.049Z" fill="#F0F0F0"/>
<path d="M431.183 288.024H428.217V290.991H431.183V288.024Z" fill="#F0F0F0"/>
<path d="M431.183 292.993H428.217V295.96H431.183V292.993Z" fill="#F0F0F0"/>
<path d="M431.183 297.962H428.217V300.929H431.183V297.962Z" fill="#F0F0F0"/>
<path d="M431.183 302.932H428.217V305.898H431.183V302.932Z" fill="#F0F0F0"/>
<path d="M431.183 307.907H428.217V310.874H431.183V307.907Z" fill="#F0F0F0"/>
<path d="M431.183 312.884H428.217V315.85H431.183V312.884Z" fill="#F0F0F0"/>
<path d="M431.183 317.859H428.217V320.826H431.183V317.859Z" fill="#F0F0F0"/>
<path d="M431.183 322.828H428.217V325.795H431.183V322.828Z" fill="#F0F0F0"/>
<path d="M431.183 327.804H428.217V330.771H431.183V327.804Z" fill="#F0F0F0"/>
<path d="M431.183 332.78H428.217V335.746H431.183V332.78Z" fill="#F0F0F0"/>
<path d="M431.183 342.719H428.217V345.685H431.183V342.719Z" fill="#F0F0F0"/>
<path d="M431.183 352.664H428.217V355.63H431.183V352.664Z" fill="#F0F0F0"/>
<path d="M431.183 357.64H428.217V360.606H431.183V357.64Z" fill="#F0F0F0"/>
<path d="M431.183 362.615H428.217V365.582H431.183V362.615Z" fill="#F0F0F0"/>
<path d="M431.183 367.592H428.217V370.558H431.183V367.592Z" fill="#F0F0F0"/>
<path d="M431.183 372.561H428.217V375.527H431.183V372.561Z" fill="#F0F0F0"/>
<path d="M459.799 296.486H456.833V299.453H459.799V296.486Z" fill="#F0F0F0"/>
<path d="M459.799 301.455H456.833V304.422H459.799V301.455Z" fill="#F0F0F0"/>
<path d="M459.799 306.431H456.833V309.398H459.799V306.431Z" fill="#F0F0F0"/>
<path d="M459.799 311.394H456.833V314.36H459.799V311.394Z" fill="#F0F0F0"/>
<path d="M459.799 316.369H456.833V319.336H459.799V316.369Z" fill="#F0F0F0"/>
<path d="M459.799 321.345H456.833V324.312H459.799V321.345Z" fill="#F0F0F0"/>
<path d="M459.799 336.266H456.833V339.233H459.799V336.266Z" fill="#F0F0F0"/>
<path d="M459.799 341.242H456.833V344.209H459.799V341.242Z" fill="#F0F0F0"/>
<path d="M459.799 346.218H456.833V349.184H459.799V346.218Z" fill="#F0F0F0"/>
<path d="M459.799 351.188H456.833V354.154H459.799V351.188Z" fill="#F0F0F0"/>
<path d="M459.799 356.163H456.833V359.13H459.799V356.163Z" fill="#F0F0F0"/>
<path d="M459.799 361.125H456.833V364.092H459.799V361.125Z" fill="#F0F0F0"/>
<path d="M459.799 366.102H456.833V369.068H459.799V366.102Z" fill="#F0F0F0"/>
<path d="M455.085 296.486H452.119V299.453H455.085V296.486Z" fill="#F0F0F0"/>
<path d="M455.085 301.455H452.119V304.422H455.085V301.455Z" fill="#F0F0F0"/>
<path d="M455.085 306.431H452.119V309.398H455.085V306.431Z" fill="#F0F0F0"/>
<path d="M455.085 311.394H452.119V314.36H455.085V311.394Z" fill="#F0F0F0"/>
<path d="M455.085 316.369H452.119V319.336H455.085V316.369Z" fill="#F0F0F0"/>
<path d="M455.085 321.345H452.119V324.312H455.085V321.345Z" fill="#F0F0F0"/>
<path d="M455.085 336.266H452.119V339.233H455.085V336.266Z" fill="#F0F0F0"/>
<path d="M455.085 341.242H452.119V344.209H455.085V341.242Z" fill="#F0F0F0"/>
<path d="M455.085 346.218H452.119V349.184H455.085V346.218Z" fill="#F0F0F0"/>
<path d="M455.085 351.188H452.119V354.154H455.085V351.188Z" fill="#F0F0F0"/>
<path d="M455.085 356.163H452.119V359.13H455.085V356.163Z" fill="#F0F0F0"/>
<path d="M455.085 361.125H452.119V364.092H455.085V361.125Z" fill="#F0F0F0"/>
<path d="M455.085 371.077H452.119V374.044H455.085V371.077Z" fill="#F0F0F0"/>
<path d="M298.564 274.586H295.598V277.553H298.564V274.586Z" fill="#F0F0F0"/>
<path d="M298.564 279.549H295.598V282.515H298.564V279.549Z" fill="#F0F0F0"/>
<path d="M298.564 284.525H295.598V287.491H298.564V284.525Z" fill="#F0F0F0"/>
<path d="M298.564 289.5H295.598V292.467H298.564V289.5Z" fill="#F0F0F0"/>
<path d="M298.564 294.47H295.598V297.436H298.564V294.47Z" fill="#F0F0F0"/>
<path d="M298.564 299.446H295.598V302.412H298.564V299.446Z" fill="#F0F0F0"/>
<path d="M298.564 304.422H295.598V307.388H298.564V304.422Z" fill="#F0F0F0"/>
<path d="M298.564 309.397H295.598V312.364H298.564V309.397Z" fill="#F0F0F0"/>
<path d="M298.564 314.366H295.598V317.333H298.564V314.366Z" fill="#F0F0F0"/>
<path d="M298.564 319.343H295.598V322.309H298.564V319.343Z" fill="#F0F0F0"/>
<path d="M298.564 324.319H295.598V327.285H298.564V324.319Z" fill="#F0F0F0"/>
<path d="M298.564 334.257H295.598V337.223H298.564V334.257Z" fill="#F0F0F0"/>
<path d="M298.564 339.233H295.598V342.199H298.564V339.233Z" fill="#F0F0F0"/>
<path d="M298.564 344.202H295.598V347.168H298.564V344.202Z" fill="#F0F0F0"/>
<path d="M298.564 349.177H295.598V352.144H298.564V349.177Z" fill="#F0F0F0"/>
<path d="M298.564 354.154H295.598V357.12H298.564V354.154Z" fill="#F0F0F0"/>
<path d="M298.564 359.13H295.598V362.096H298.564V359.13Z" fill="#F0F0F0"/>
<path d="M298.564 364.099H295.598V367.065H298.564V364.099Z" fill="#F0F0F0"/>
<path d="M298.564 369.074H295.598V372.041H298.564V369.074Z" fill="#F0F0F0"/>
<path d="M293.866 274.586H290.9V277.553H293.866V274.586Z" fill="#F0F0F0"/>
<path d="M293.866 279.549H290.9V282.515H293.866V279.549Z" fill="#F0F0F0"/>
<path d="M293.866 284.525H290.9V287.491H293.866V284.525Z" fill="#F0F0F0"/>
<path d="M293.866 289.5H290.9V292.467H293.866V289.5Z" fill="#F0F0F0"/>
<path d="M293.866 294.47H290.9V297.436H293.866V294.47Z" fill="#F0F0F0"/>
<path d="M293.866 299.446H290.9V302.412H293.866V299.446Z" fill="#F0F0F0"/>
<path d="M293.866 304.422H290.9V307.388H293.866V304.422Z" fill="#F0F0F0"/>
<path d="M293.866 309.397H290.9V312.364H293.866V309.397Z" fill="#F0F0F0"/>
<path d="M293.866 314.366H290.9V317.333H293.866V314.366Z" fill="#F0F0F0"/>
<path d="M293.866 319.343H290.9V322.309H293.866V319.343Z" fill="#F0F0F0"/>
<path d="M293.866 324.319H290.9V327.285H293.866V324.319Z" fill="#F0F0F0"/>
<path d="M293.866 329.281H290.9V332.247H293.866V329.281Z" fill="#F0F0F0"/>
<path d="M293.866 334.257H290.9V337.223H293.866V334.257Z" fill="#F0F0F0"/>
<path d="M293.866 339.233H290.9V342.199H293.866V339.233Z" fill="#F0F0F0"/>
<path d="M293.866 344.202H290.9V347.168H293.866V344.202Z" fill="#F0F0F0"/>
<path d="M293.866 349.178H290.9V352.144H293.866V349.178Z" fill="#F0F0F0"/>
<path d="M293.866 354.154H290.9V357.12H293.866V354.154Z" fill="#F0F0F0"/>
<path d="M293.866 359.13H290.9V362.096H293.866V359.13Z" fill="#F0F0F0"/>
<path d="M293.866 364.099H290.9V367.065H293.866V364.099Z" fill="#F0F0F0"/>
<path d="M293.866 369.074H290.9V372.041H293.866V369.074Z" fill="#F0F0F0"/>
<path d="M321.782 293.95H318.816V296.916H321.782V293.95Z" fill="#F0F0F0"/>
<path d="M321.782 298.926H318.816V301.892H321.782V298.926Z" fill="#F0F0F0"/>
<path d="M321.782 303.895H318.816V306.861H321.782V303.895Z" fill="#F0F0F0"/>
<path d="M321.782 308.871H318.816V311.837H321.782V308.871Z" fill="#F0F0F0"/>
<path d="M321.782 313.847H318.816V316.813H321.782V313.847Z" fill="#F0F0F0"/>
<path d="M321.782 318.823H318.816V321.789H321.782V318.823Z" fill="#F0F0F0"/>
<path d="M321.782 323.792H318.816V326.758H321.782V323.792Z" fill="#F0F0F0"/>
<path d="M321.782 328.761H318.816V331.727H321.782V328.761Z" fill="#F0F0F0"/>
<path d="M321.782 333.73H318.816V336.696H321.782V333.73Z" fill="#F0F0F0"/>
<path d="M321.782 338.706H318.816V341.672H321.782V338.706Z" fill="#F0F0F0"/>
<path d="M317.068 293.95H314.102V296.916H317.068V293.95Z" fill="#F0F0F0"/>
<path d="M317.068 298.926H314.102V301.892H317.068V298.926Z" fill="#F0F0F0"/>
<path d="M317.068 303.895H314.102V306.861H317.068V303.895Z" fill="#F0F0F0"/>
<path d="M317.068 308.871H314.102V311.837H317.068V308.871Z" fill="#F0F0F0"/>
<path d="M317.068 313.847H314.102V316.813H317.068V313.847Z" fill="#F0F0F0"/>
<path d="M317.068 318.823H314.102V321.789H317.068V318.823Z" fill="#F0F0F0"/>
<path d="M317.068 323.792H314.102V326.758H317.068V323.792Z" fill="#F0F0F0"/>
<path d="M317.068 328.761H314.102V331.727H317.068V328.761Z" fill="#F0F0F0"/>
<path d="M317.068 333.73H314.102V336.696H317.068V333.73Z" fill="#F0F0F0"/>
<path d="M345.095 105.223H340.119V382.596H345.095V105.223Z" fill="#E0E0E0"/>
<path d="M438.758 105.223H433.782V382.596H438.758V105.223Z" fill="#E0E0E0"/>
<path d="M532.414 105.223H527.438V382.596H532.414V105.223Z" fill="#E0E0E0"/>
<path d="M178.4 355.561H209.08C210.472 355.561 211.806 356.113 212.79 357.097C213.774 358.081 214.327 359.415 214.327 360.807V420.103H173.167V360.855C173.16 360.166 173.289 359.482 173.546 358.843C173.804 358.204 174.185 357.621 174.667 357.129C175.15 356.638 175.725 356.246 176.36 355.977C176.994 355.707 177.676 355.566 178.365 355.561H178.4Z" fill="#F0F0F0"/>
<path d="M214.334 364.341H173.167V368.971H214.334V364.341Z" fill="#E6E6E6"/>
<path d="M196.578 412.355H206.834C207.583 412.355 208.3 412.652 208.829 413.181C209.358 413.71 209.655 414.427 209.655 415.175V420.172H193.715V415.127C193.715 414.379 194.013 413.661 194.541 413.132C195.07 412.603 195.788 412.306 196.536 412.306L196.578 412.355Z" fill="#E0E0E0"/>
<path d="M209.704 420.151H198.297C197.812 420.151 197.346 419.958 197.003 419.615C196.66 419.272 196.467 418.807 196.467 418.321C196.469 417.837 196.663 417.374 197.006 417.032C197.349 416.691 197.813 416.499 198.297 416.499H209.704C210.188 416.499 210.653 416.691 210.996 417.032C211.338 417.374 211.532 417.837 211.534 418.321C211.534 418.807 211.341 419.272 210.998 419.615C210.655 419.958 210.189 420.151 209.704 420.151Z" fill="#E6E6E6"/>
<path d="M392.481 92.2051C407.545 88.6495 416.875 73.5549 413.32 58.4903C409.764 43.4258 394.669 34.0959 379.605 37.6514C364.54 41.207 355.21 56.3016 358.766 71.3662C362.322 86.4307 377.416 95.7606 392.481 92.2051Z" fill="#E0E0E0"/>
<path d="M386.039 88.7291C399.202 88.7291 409.872 78.0585 409.872 64.8957C409.872 51.7328 399.202 41.0623 386.039 41.0623C372.876 41.0623 362.206 51.7328 362.206 64.8957C362.206 78.0585 372.876 88.7291 386.039 88.7291Z" fill="#F0F0F0"/>
<path d="M387.169 48.5608V65.2213L398.202 58.9771" fill="#F0F0F0"/>
<path d="M387.169 66.3787C386.957 66.3804 386.748 66.3228 386.566 66.2124C386.389 66.1066 386.242 65.9564 386.14 65.7766C386.038 65.5968 385.984 65.3935 385.984 65.1867V48.5123C386.007 48.2128 386.142 47.9329 386.363 47.7287C386.583 47.5246 386.872 47.4111 387.173 47.4111C387.473 47.4111 387.763 47.5246 387.983 47.7287C388.203 47.9329 388.339 48.2128 388.361 48.5123V63.1769L397.62 57.9376C397.896 57.7813 398.223 57.741 398.528 57.8255C398.833 57.91 399.093 58.1123 399.249 58.388C399.405 58.6637 399.446 58.9902 399.361 59.2956C399.277 59.6011 399.074 59.8604 398.799 60.0167L387.752 66.254C387.57 66.3404 387.371 66.3831 387.169 66.3787Z" fill="#E0E0E0"/>
<path d="M117.815 338.47C115.673 334.901 112.153 338.006 112.153 338.006C112.652 331.242 106.435 326.626 106.435 326.626C106.435 326.626 113.663 326.626 114.661 319.738C115.659 312.849 112.153 316.051 108.84 316.002C105.527 315.954 102.069 325.615 106.463 331.055C110.857 336.495 109.651 345.775 99.574 354.701C97.1617 356.956 95.3532 359.78 94.3139 362.914C95.0693 354.715 95.4989 343.155 93.1218 335.449C89.026 322.357 96.8365 318.816 99.0681 312.267C101.3 305.718 93.1218 300.173 93.1218 300.173C93.1218 300.173 100.87 296.604 97.086 292.619C93.302 288.634 85.4916 289.154 85.4916 294.4C85.4916 299.647 90.7863 301.684 90.7863 301.684C90.7863 301.684 96.8365 307.977 96.8365 311.206C96.8365 314.436 90.7863 321.567 90.7863 321.567C90.7863 321.567 93.5585 315.538 88.0142 315.288C82.4699 315.039 80.7096 322.33 82.9828 325.601C85.2559 328.872 89.026 326.114 89.026 326.114C89.2778 329.924 89.8669 333.704 90.7863 337.41C91.3615 339.302 91.0982 346.69 90.62 354.382C89.5684 351.607 87.8863 349.113 85.7064 347.099C75.6228 338.172 74.4585 328.886 78.8246 323.452C83.1907 318.019 79.6978 308.351 76.4406 308.4C73.1833 308.448 69.6003 305.239 70.6121 312.128C71.624 319.017 78.8454 319.059 78.8454 319.059C78.8454 319.059 72.6081 323.674 73.1209 330.431C73.1209 330.431 69.5518 327.361 67.4588 330.896C63.6333 337.195 72.5041 341.097 73.9872 338.041C73.9872 338.041 92.7823 351.34 88.2706 370.489L89.3171 372.048C89.1854 373.6 89.1023 374.522 89.1023 374.522L90.5646 373.891L92.2417 376.317C92.1879 379.096 92.3315 381.875 92.6714 384.633L97.1553 377.994C92.6229 358.846 111.439 345.539 111.439 345.539C112.811 348.679 121.661 344.763 117.815 338.47Z" fill="#E0E0E0"/>
<path opacity="0.2" d="M117.815 338.47C115.673 334.901 112.153 338.006 112.153 338.006C112.652 331.242 106.435 326.626 106.435 326.626C106.435 326.626 113.663 326.626 114.661 319.738C115.659 312.849 112.153 316.051 108.84 316.002C105.527 315.954 102.069 325.615 106.463 331.055C110.857 336.495 109.651 345.775 99.574 354.701C97.1617 356.956 95.3532 359.78 94.3139 362.914C95.0693 354.715 95.4989 343.155 93.1218 335.449C89.026 322.357 96.8365 318.816 99.0681 312.267C101.3 305.718 93.1218 300.173 93.1218 300.173C93.1218 300.173 100.87 296.604 97.086 292.619C93.302 288.634 85.4916 289.154 85.4916 294.4C85.4916 299.647 90.7863 301.684 90.7863 301.684C90.7863 301.684 96.8365 307.977 96.8365 311.206C96.8365 314.436 90.7863 321.567 90.7863 321.567C90.7863 321.567 93.5585 315.538 88.0142 315.288C82.4699 315.039 80.7096 322.33 82.9828 325.601C85.2559 328.872 89.026 326.114 89.026 326.114C89.2778 329.924 89.8669 333.704 90.7863 337.41C91.3615 339.302 91.0982 346.69 90.62 354.382C89.5684 351.607 87.8863 349.113 85.7064 347.099C75.6228 338.172 74.4585 328.886 78.8246 323.452C83.1907 318.019 79.6978 308.351 76.4406 308.4C73.1833 308.448 69.6003 305.239 70.6121 312.128C71.624 319.017 78.8454 319.059 78.8454 319.059C78.8454 319.059 72.6081 323.674 73.1209 330.431C73.1209 330.431 69.5518 327.361 67.4588 330.896C63.6333 337.195 72.5041 341.097 73.9872 338.041C73.9872 338.041 92.7823 351.34 88.2706 370.489L89.3171 372.048C89.1854 373.6 89.1023 374.522 89.1023 374.522L90.5646 373.891L92.2417 376.317C92.1879 379.096 92.3315 381.875 92.6714 384.633L97.1553 377.994C92.6229 358.846 111.439 345.539 111.439 345.539C112.811 348.679 121.661 344.763 117.815 338.47Z" fill="#E0E0E0"/>
<path d="M114.163 420.151H71.1183L66.4819 373.025H118.82L114.163 420.151Z" fill="#E6E6E6"/>
<path d="M121.106 367.827H64.1738V378.23H121.106V367.827Z" fill="#F0F0F0"/>
<path d="M328.419 129.827L298.779 145.794C297.98 146.224 297.681 147.22 298.111 148.019L307.57 165.578C308.001 166.377 308.997 166.676 309.795 166.246L339.436 150.279C340.235 149.849 340.533 148.853 340.103 148.054L330.644 130.494C330.214 129.695 329.218 129.397 328.419 129.827Z" fill="#02576C"/>
<path opacity="0.7" d="M328.419 129.827L298.779 145.794C297.98 146.224 297.681 147.22 298.111 148.019L307.57 165.578C308.001 166.377 308.997 166.676 309.795 166.246L339.436 150.279C340.235 149.849 340.533 148.853 340.103 148.054L330.644 130.494C330.214 129.695 329.218 129.397 328.419 129.827Z" fill="white"/>
<path opacity="0.2" d="M323.057 149.938C322.691 150.724 322.082 151.371 321.319 151.783C320.556 152.195 319.68 152.35 318.822 152.225L299.188 149.328L318.476 151.234C319.221 151.31 319.972 151.163 320.633 150.811C321.295 150.459 321.837 149.919 322.19 149.258L331.414 131.933L323.057 149.938Z" fill="black"/>
<path d="M345.24 130.29C342.108 122.743 314.054 104.19 316.063 102.513C318.073 100.836 323.118 104.405 323.118 104.405C323.118 104.405 320.298 101.148 323.118 100.94C325.939 100.732 332.065 104.509 332.065 104.509C332.065 104.509 329.092 101.106 332.065 100.94C335.039 100.774 340.694 106.27 340.694 106.27C340.694 106.27 336.764 100.614 342.731 104.696C348.698 108.778 353.598 122.119 353.917 128.738C354.236 135.356 348.373 137.837 345.24 130.29Z" fill="#02576C"/>
<path opacity="0.4" d="M345.24 130.29C342.108 122.743 314.054 104.19 316.063 102.513C318.073 100.836 323.118 104.405 323.118 104.405C323.118 104.405 320.298 101.148 323.118 100.94C325.939 100.732 332.065 104.509 332.065 104.509C332.065 104.509 329.092 101.106 332.065 100.94C335.039 100.774 340.694 106.27 340.694 106.27C340.694 106.27 336.764 100.614 342.731 104.696C348.698 108.778 353.598 122.119 353.917 128.738C354.236 135.356 348.373 137.837 345.24 130.29Z" fill="white"/>
<path d="M332.689 131.122L330.416 133.672C330.379 133.713 330.332 133.744 330.28 133.764C330.228 133.783 330.173 133.79 330.118 133.783C330.03 133.771 329.95 133.725 329.896 133.655C329.842 133.585 329.817 133.497 329.827 133.409L330.159 130.387L326.223 130.692C326.165 130.699 326.107 130.688 326.056 130.662C326.004 130.637 325.961 130.596 325.932 130.546C325.91 130.512 325.896 130.474 325.89 130.434C325.884 130.393 325.885 130.353 325.895 130.313C325.905 130.274 325.922 130.237 325.946 130.204C325.97 130.172 326.001 130.144 326.036 130.124L329.785 127.747L332.689 131.122Z" fill="#02576C"/>
<path opacity="0.3" d="M332.689 131.122L330.416 133.672C330.379 133.713 330.332 133.744 330.28 133.764C330.228 133.783 330.173 133.79 330.118 133.783C330.03 133.771 329.95 133.725 329.896 133.655C329.842 133.585 329.817 133.497 329.827 133.409L330.159 130.387L326.223 130.692C326.165 130.699 326.107 130.688 326.056 130.662C326.004 130.637 325.961 130.596 325.932 130.546C325.91 130.512 325.896 130.474 325.89 130.434C325.884 130.393 325.885 130.353 325.895 130.313C325.905 130.274 325.922 130.237 325.946 130.204C325.97 130.172 326.001 130.144 326.036 130.124L329.785 127.747L332.689 131.122Z" fill="white"/>
<path d="M371.139 124.434C373.862 133.956 368.124 144.795 357.333 144.664C346.543 144.532 341.789 134.185 335.849 132.764C329.91 131.343 328.316 128.315 329.73 125.397C331.144 122.48 334.955 122.486 342.752 125.009C349.322 127.123 357.611 127.289 361.006 125.397C367.161 121.974 369.385 111.578 369.385 111.578C377.223 109.27 382.414 112.839 382.414 112.839C377.622 115.543 373.708 119.568 371.139 124.434Z" fill="#02576C"/>
<path opacity="0.5" d="M371.139 124.434C373.862 133.956 368.124 144.795 357.333 144.664C346.543 144.532 341.789 134.185 335.849 132.764C329.91 131.343 328.316 128.315 329.73 125.397C331.144 122.48 334.955 122.486 342.752 125.009C349.322 127.123 357.611 127.289 361.006 125.397C367.161 121.974 369.385 111.578 369.385 111.578C377.223 109.27 382.414 112.839 382.414 112.839C377.622 115.543 373.708 119.568 371.139 124.434Z" fill="white"/>
<path d="M333.223 126.825C333.355 126.84 333.477 126.903 333.565 127.002C333.654 127.101 333.703 127.229 333.703 127.362C333.703 127.495 333.654 127.623 333.565 127.722C333.477 127.821 333.355 127.884 333.223 127.899C333.091 127.884 332.969 127.821 332.881 127.722C332.793 127.623 332.744 127.495 332.744 127.362C332.744 127.229 332.793 127.101 332.881 127.002C332.969 126.903 333.091 126.84 333.223 126.825Z" fill="#2F2E41"/>
<path d="M361.069 127.4C369.199 126.707 395.485 105.75 396.497 108.217C397.509 110.684 392.526 114.343 392.526 114.343C392.526 114.343 396.525 112.68 395.811 115.418C395.097 118.155 389.622 122.805 389.622 122.805C389.622 122.805 393.822 121.045 393.046 123.921C392.27 126.797 385.325 130.484 385.325 130.484C385.325 130.484 391.895 128.46 386.185 132.861C380.474 137.262 366.26 137.809 359.85 136.077C353.439 134.344 352.926 128.052 361.069 127.4Z" fill="#02576C"/>
<path opacity="0.4" d="M361.069 127.4C369.199 126.707 395.485 105.75 396.497 108.217C397.509 110.684 392.526 114.343 392.526 114.343C392.526 114.343 396.525 112.68 395.811 115.418C395.097 118.155 389.622 122.805 389.622 122.805C389.622 122.805 393.822 121.045 393.046 123.921C392.27 126.797 385.325 130.484 385.325 130.484C385.325 130.484 391.895 128.46 386.185 132.861C380.474 137.262 366.26 137.809 359.85 136.077C353.439 134.344 352.926 128.052 361.069 127.4Z" fill="white"/>
<path d="M401.73 107.205C401.626 107.205 401.525 107.168 401.446 107.101C401.367 107.034 401.313 106.941 401.295 106.839C401.277 106.737 401.295 106.632 401.347 106.541C401.398 106.451 401.48 106.382 401.577 106.346C402.693 105.885 403.834 105.487 404.994 105.154C405.052 105.132 405.113 105.122 405.175 105.124C405.237 105.127 405.297 105.143 405.353 105.17C405.408 105.197 405.458 105.235 405.498 105.282C405.538 105.329 405.568 105.383 405.586 105.443C405.604 105.502 405.61 105.564 405.603 105.625C405.596 105.686 405.576 105.746 405.546 105.799C405.515 105.853 405.473 105.899 405.424 105.936C405.374 105.973 405.317 105.999 405.257 106.013C404.116 106.36 402.989 106.729 401.875 107.122C401.827 107.129 401.778 107.129 401.73 107.122V107.205Z" fill="#02576C"/>
<path d="M466.446 203.01C466.332 202.985 466.233 202.917 466.17 202.82C466.106 202.722 466.083 202.604 466.106 202.49C466.128 202.374 466.195 202.271 466.292 202.204C466.389 202.136 466.509 202.11 466.626 202.13C468.956 202.558 471.319 202.79 473.688 202.823C473.797 202.837 473.897 202.89 473.97 202.972C474.043 203.054 474.083 203.16 474.083 203.27C474.083 203.38 474.043 203.486 473.97 203.568C473.897 203.651 473.797 203.703 473.688 203.717C471.258 203.684 468.836 203.448 466.446 203.01ZM480.729 203.357C480.635 203.343 480.548 203.299 480.48 203.231C480.413 203.164 480.369 203.077 480.355 202.982C480.345 202.924 480.347 202.864 480.36 202.806C480.374 202.748 480.399 202.693 480.434 202.644C480.468 202.596 480.512 202.555 480.563 202.524C480.614 202.493 480.67 202.472 480.729 202.463C483.089 202.192 485.432 201.796 487.75 201.278C487.807 201.262 487.868 201.259 487.927 201.268C487.986 201.277 488.043 201.298 488.094 201.329C488.145 201.36 488.189 201.402 488.224 201.45C488.258 201.499 488.283 201.555 488.295 201.613C488.308 201.672 488.309 201.732 488.297 201.791C488.286 201.85 488.263 201.905 488.229 201.955C488.196 202.005 488.153 202.047 488.102 202.079C488.052 202.112 487.996 202.134 487.937 202.144C485.583 202.684 483.2 203.082 480.798 203.336L480.729 203.357ZM459.675 200.98C459.599 200.976 459.526 200.955 459.46 200.917C457.219 199.945 455.138 198.642 453.285 197.05C453.193 196.971 453.136 196.859 453.127 196.738C453.118 196.617 453.157 196.497 453.237 196.406C453.316 196.314 453.428 196.257 453.549 196.248C453.67 196.239 453.789 196.278 453.881 196.357C455.663 197.893 457.668 199.15 459.827 200.086C459.933 200.136 460.014 200.227 460.053 200.337C460.091 200.448 460.085 200.569 460.035 200.675C460.002 200.753 459.946 200.819 459.874 200.865C459.802 200.911 459.718 200.934 459.633 200.931L459.675 200.98ZM494.326 199.871C494.291 199.759 494.299 199.637 494.351 199.531C494.403 199.425 494.493 199.343 494.604 199.302C496.856 198.554 499.088 197.681 501.257 196.731C501.355 196.697 501.463 196.698 501.56 196.735C501.658 196.771 501.739 196.841 501.79 196.932C501.82 196.984 501.839 197.04 501.847 197.099C501.855 197.158 501.851 197.218 501.835 197.275C501.82 197.333 501.793 197.386 501.757 197.433C501.721 197.48 501.676 197.52 501.624 197.549C499.42 198.512 497.147 199.393 494.888 200.148H494.749C494.659 200.148 494.571 200.122 494.496 200.073C494.421 200.024 494.362 199.953 494.326 199.871ZM507.917 194.396C507.827 194.413 507.734 194.403 507.65 194.367C507.566 194.332 507.495 194.271 507.446 194.195C507.417 194.144 507.4 194.089 507.393 194.031C507.387 193.974 507.392 193.916 507.408 193.861C507.424 193.805 507.451 193.754 507.487 193.709C507.523 193.664 507.568 193.626 507.619 193.599C509.698 192.421 511.777 191.145 513.676 189.822C513.772 189.755 513.892 189.729 514.007 189.75C514.123 189.77 514.226 189.836 514.293 189.933C514.327 189.98 514.352 190.033 514.365 190.09C514.379 190.147 514.381 190.205 514.371 190.263C514.361 190.32 514.34 190.375 514.309 190.425C514.278 190.474 514.237 190.516 514.189 190.549C512.255 191.894 510.19 193.176 508.055 194.368C507.985 194.389 507.911 194.389 507.841 194.368L507.917 194.396ZM449.085 191.672C448.996 191.692 448.903 191.685 448.817 191.652C448.732 191.619 448.659 191.56 448.607 191.485C448.226 190.792 447.872 190.099 447.547 189.406C446.869 187.897 446.333 186.329 445.946 184.721C445.93 184.664 445.926 184.605 445.934 184.546C445.941 184.488 445.961 184.431 445.99 184.38C446.02 184.329 446.059 184.285 446.107 184.249C446.154 184.214 446.207 184.188 446.265 184.174C446.381 184.146 446.504 184.166 446.606 184.228C446.709 184.29 446.783 184.39 446.812 184.506C447.181 186.063 447.698 187.581 448.358 189.039C448.669 189.732 449.016 190.425 449.383 191.035C449.412 191.085 449.43 191.14 449.437 191.197C449.444 191.254 449.439 191.312 449.424 191.367C449.408 191.422 449.382 191.474 449.347 191.519C449.311 191.565 449.267 191.602 449.217 191.631C449.147 191.651 449.072 191.651 449.002 191.631L449.085 191.672ZM519.657 186.176C519.586 186.164 519.52 186.135 519.463 186.092C519.407 186.048 519.361 185.992 519.331 185.927C519.252 185.841 519.208 185.728 519.208 185.612C519.208 185.495 519.252 185.382 519.331 185.296C521.109 183.727 522.776 182.037 524.321 180.237C524.361 180.196 524.409 180.163 524.462 180.141C524.515 180.118 524.572 180.107 524.629 180.107C524.687 180.107 524.744 180.118 524.797 180.141C524.85 180.163 524.898 180.196 524.938 180.237C525.02 180.321 525.066 180.435 525.066 180.552C525.066 180.67 525.02 180.784 524.938 180.868C523.365 182.704 521.668 184.429 519.858 186.031C519.777 186.097 519.678 186.136 519.574 186.142L519.657 186.176ZM445.572 177.86C445.452 177.86 445.338 177.813 445.253 177.728C445.169 177.644 445.121 177.529 445.121 177.41C445.144 174.989 445.376 172.575 445.814 170.195C445.838 170.078 445.906 169.974 446.004 169.906C446.102 169.837 446.223 169.809 446.341 169.828C446.398 169.839 446.453 169.861 446.502 169.893C446.551 169.925 446.593 169.966 446.626 170.014C446.658 170.063 446.681 170.117 446.693 170.174C446.705 170.231 446.705 170.29 446.694 170.348C446.276 172.679 446.058 175.041 446.043 177.41C446.043 177.468 446.031 177.525 446.009 177.579C445.987 177.633 445.954 177.682 445.913 177.723C445.872 177.764 445.823 177.797 445.769 177.819C445.715 177.842 445.658 177.853 445.599 177.853L445.572 177.86ZM447.824 163.722C447.711 163.685 447.617 163.606 447.562 163.502C447.506 163.397 447.493 163.275 447.526 163.161C448.143 161.082 448.912 158.829 449.82 156.334C449.863 156.225 449.947 156.136 450.055 156.087C450.162 156.038 450.284 156.032 450.395 156.071C450.503 156.116 450.589 156.201 450.635 156.309C450.68 156.416 450.681 156.538 450.638 156.646C449.716 159.12 448.967 161.331 448.365 163.417C448.335 163.509 448.278 163.589 448.201 163.646C448.124 163.703 448.031 163.735 447.935 163.736L447.824 163.722ZM452.675 150.201C452.62 150.177 452.57 150.142 452.529 150.099C452.487 150.056 452.454 150.004 452.432 149.948C452.41 149.892 452.4 149.833 452.401 149.773C452.402 149.712 452.415 149.653 452.44 149.598C453.195 147.727 454.221 145.572 455.316 143.194V143.077C455.373 142.981 455.464 142.911 455.571 142.879C455.677 142.847 455.792 142.855 455.893 142.902C455.993 142.95 456.073 143.033 456.116 143.135C456.159 143.238 456.163 143.353 456.126 143.458V143.576C455.045 145.897 454.006 148.087 453.243 149.986C453.211 150.061 453.156 150.125 453.087 150.17C453.018 150.214 452.937 150.237 452.855 150.236L452.675 150.201ZM458.788 137.221C458.733 137.199 458.683 137.166 458.642 137.124C458.535 137.076 458.451 136.989 458.408 136.88C458.365 136.771 458.367 136.649 458.413 136.541C459.481 134.081 460.326 131.905 460.992 129.888C461.03 129.775 461.11 129.682 461.217 129.627C461.323 129.573 461.446 129.562 461.56 129.597C461.672 129.638 461.763 129.721 461.814 129.829C461.864 129.937 461.87 130.06 461.83 130.172C461.137 132.203 460.299 134.407 459.224 136.895C459.188 136.974 459.129 137.042 459.056 137.088C458.982 137.135 458.896 137.159 458.809 137.158L458.788 137.221ZM463.091 123.526C462.977 123.503 462.875 123.437 462.807 123.342C462.739 123.247 462.71 123.129 462.724 123.013C462.92 121.78 463.02 120.534 463.022 119.285C463.03 118.192 462.93 117.101 462.724 116.028C462.717 115.926 462.744 115.824 462.8 115.739C462.857 115.654 462.939 115.59 463.036 115.556C463.092 115.538 463.152 115.531 463.211 115.536C463.27 115.54 463.328 115.557 463.381 115.584C463.433 115.611 463.48 115.648 463.519 115.693C463.557 115.739 463.586 115.791 463.604 115.847C463.82 116.99 463.925 118.15 463.916 119.313C463.917 120.606 463.812 121.897 463.604 123.173C463.587 123.277 463.534 123.372 463.454 123.441C463.374 123.511 463.273 123.551 463.168 123.554L463.091 123.526ZM460.035 110.068C459.959 110.066 459.884 110.046 459.817 110.009C459.751 109.971 459.695 109.917 459.654 109.853C458.136 108.071 456.286 106.602 454.207 105.528C454.104 105.471 454.027 105.377 453.991 105.265C453.955 105.153 453.963 105.032 454.013 104.925C454.071 104.822 454.167 104.745 454.281 104.712C454.395 104.678 454.517 104.69 454.623 104.745C456.804 105.874 458.748 107.413 460.347 109.277C460.426 109.363 460.471 109.476 460.471 109.593C460.471 109.71 460.426 109.822 460.347 109.908C460.266 109.973 460.166 110.007 460.063 110.005L460.035 110.068ZM412.043 104.184C411.944 104.181 411.848 104.146 411.772 104.083C411.695 104.02 411.642 103.934 411.62 103.837C411.607 103.779 411.605 103.719 411.615 103.661C411.625 103.603 411.646 103.547 411.677 103.496C411.709 103.446 411.75 103.403 411.799 103.368C411.847 103.334 411.902 103.31 411.959 103.297C414.337 102.818 416.721 102.41 419.098 102.105C419.155 102.097 419.214 102.101 419.269 102.116C419.325 102.131 419.378 102.157 419.424 102.192C419.469 102.228 419.508 102.272 419.536 102.322C419.565 102.373 419.583 102.428 419.59 102.486C419.598 102.543 419.594 102.602 419.579 102.657C419.564 102.713 419.538 102.766 419.502 102.812C419.467 102.857 419.423 102.896 419.372 102.924C419.322 102.953 419.266 102.971 419.209 102.978C416.818 103.29 414.447 103.671 412.167 104.17H412.036L412.043 104.184ZM447.699 103.158C445.389 102.637 443.042 102.299 440.679 102.146C440.562 102.136 440.455 102.079 440.379 101.99C440.304 101.9 440.267 101.785 440.277 101.668C440.287 101.55 440.343 101.441 440.432 101.364C440.521 101.286 440.637 101.246 440.755 101.252C443.157 101.418 445.544 101.765 447.893 102.292C447.951 102.297 448.008 102.314 448.059 102.341C448.111 102.368 448.156 102.406 448.193 102.451C448.23 102.496 448.257 102.548 448.274 102.604C448.29 102.66 448.295 102.719 448.288 102.777C448.274 102.894 448.215 103.001 448.123 103.075C448.031 103.149 447.914 103.184 447.796 103.172L447.699 103.158ZM426.284 102.396C426.178 102.372 426.084 102.311 426.02 102.223C425.956 102.134 425.927 102.026 425.938 101.917C425.934 101.86 425.942 101.802 425.961 101.748C425.98 101.693 426.01 101.643 426.049 101.6C426.088 101.558 426.135 101.523 426.187 101.499C426.239 101.475 426.296 101.462 426.354 101.46C428.377 101.315 430.865 101.169 433.492 101.114C433.608 101.114 433.719 101.16 433.801 101.241C433.883 101.323 433.929 101.434 433.929 101.55C433.931 101.668 433.886 101.783 433.804 101.868C433.722 101.954 433.61 102.004 433.492 102.008C430.886 102.056 428.419 102.209 426.354 102.347L426.284 102.396Z" fill="#02576C"/>
<path d="M528.825 175.157C528.732 175.159 528.64 175.132 528.562 175.081C528.515 175.05 528.475 175.009 528.444 174.962C528.412 174.915 528.391 174.862 528.381 174.806C528.37 174.751 528.371 174.694 528.383 174.638C528.395 174.583 528.419 174.531 528.451 174.485C529.028 173.469 529.546 172.421 530.004 171.345C530.054 171.239 530.142 171.155 530.252 171.111C530.361 171.068 530.483 171.067 530.593 171.11C530.7 171.157 530.784 171.245 530.827 171.354C530.87 171.463 530.868 171.584 530.821 171.692C530.351 172.802 529.814 173.883 529.213 174.928C529.175 174.999 529.118 175.058 529.048 175.099C528.978 175.139 528.899 175.159 528.818 175.157H528.825Z" fill="#02576C"/>
<path d="M127.932 191.194L140.351 322.919H146.706L133.712 190.903L127.932 191.194Z" fill="#C2C4C6"/>
<path d="M145.558 191.194L153.929 321.186H159.134L151.906 190.903L145.558 191.194Z" fill="#C2C4C6"/>
<path d="M144.691 443.957H138.329V332.164H147.865L144.691 443.957Z" fill="#C2C4C6"/>
<path d="M180.798 443.375H174.443L171.844 332.164H181.373L180.798 443.375Z" fill="#C2C4C6"/>
<path d="M190.327 443.666H196.682L199.281 332.448H189.751L190.327 443.666Z" fill="#C2C4C6"/>
<path d="M238.57 443.666H244.925L245.216 333.321H235.68L238.57 443.666Z" fill="#C2C4C6"/>
<path d="M187.728 318.871H137.178V333.889H187.728V318.871Z" fill="#2E3135"/>
<path d="M246.948 318.871H187.728V333.889H246.948V318.871Z" fill="#3F4347"/>
<path d="M194.374 419.978V431.822H207.95V418.536L194.374 419.978Z" fill="#F9B499"/>
<path d="M193.792 442.321V430.956L207.985 430.775L223.848 439.147C224.285 439.379 224.651 439.725 224.906 440.149C225.161 440.572 225.296 441.057 225.297 441.552C225.295 442.268 225.011 442.955 224.506 443.464C224.002 443.972 223.317 444.261 222.601 444.269L196.023 444.511C195.732 444.517 195.443 444.464 195.172 444.357C194.902 444.249 194.655 444.089 194.448 443.885C194.24 443.681 194.075 443.438 193.962 443.169C193.849 442.901 193.791 442.612 193.792 442.321Z" fill="#02576C"/>
<path d="M256.768 419.694V431.531H270.345V418.245L256.768 419.694Z" fill="#F9B499"/>
<path d="M256.193 442.03V430.665L270.386 430.484L286.222 438.856C286.659 439.087 287.026 439.433 287.281 439.857C287.536 440.281 287.671 440.766 287.67 441.261C287.67 441.978 287.387 442.666 286.882 443.175C286.377 443.684 285.691 443.972 284.975 443.978L258.397 444.227C258.108 444.228 257.821 444.172 257.554 444.062C257.287 443.952 257.043 443.79 256.839 443.586C256.634 443.382 256.472 443.14 256.361 442.873C256.25 442.606 256.193 442.319 256.193 442.03Z" fill="#02576C"/>
<path d="M99.9131 443.957H104.245L127.641 270.629H123.019L99.9131 443.957Z" fill="#9EA0A3"/>
<path d="M183.971 443.957H179.64L156.243 270.629H160.866L183.971 443.957Z" fill="#9EA0A3"/>
<path d="M171.269 365.672H111.758V370.294H171.269V365.672Z" fill="#9EA0A3"/>
<path d="M326.674 443.957H331.005L354.409 270.629H349.786L326.674 443.957Z" fill="#9EA0A3"/>
<path d="M410.739 443.957H406.4L383.003 270.629H387.626L410.739 443.957Z" fill="#9EA0A3"/>
<path d="M398.029 365.672H338.518V370.294H398.029V365.672Z" fill="#9EA0A3"/>
<path d="M202.461 175.31L203.036 192.926L125.618 194.659L124.751 177.617L202.461 175.31Z" fill="#2E3135"/>
<path d="M407.848 264.856H113.49C110.937 264.856 108.867 266.926 108.867 269.479C108.867 272.032 110.937 274.101 113.49 274.101H407.848C410.401 274.101 412.471 272.032 412.471 269.479C412.471 266.926 410.401 264.856 407.848 264.856Z" fill="#E1E1E2"/>
<path d="M186.286 425.467H222.684L228.748 345.768C228.748 345.768 229.039 334.215 228.173 328.726C228.173 328.726 243.191 338.547 246.656 340.279L245.596 419.569C245.596 419.569 270.06 425.203 281.322 421.738L285.369 335.366C285.369 335.366 288.252 313.701 271.508 299.834L241.015 274.233L161.912 273.963C161.912 273.963 153.596 305.614 170.665 323.813L187.679 340.764C188.347 341.429 188.869 342.227 189.212 343.105C189.554 343.983 189.71 344.923 189.668 345.865L186.286 425.467Z" fill="#2F2E41"/>
<path opacity="0.2" d="M228.174 328.699C228.174 328.699 229.04 318.303 220.952 306.452L205.352 280.741C205.352 280.741 238.209 306.903 251.196 321.456C254.227 324.854 255.878 329.261 255.826 333.813L254.71 421.135C251.642 420.788 248.598 420.251 245.596 419.527L246.657 340.279L228.174 328.699Z" fill="black"/>
<path d="M207.514 179.412L176.723 186.571C176.723 186.571 161.705 186.862 157.082 203.038L150.291 238.715L166.611 250.414L180.008 264.836H265.431L260.788 208.527C260.788 208.527 256.449 192.843 226.552 186.1L207.514 179.412Z" fill="#02576C"/>
<path opacity="0.2" d="M181.664 202.171L180.278 226.954L180.035 264.835H201.325C201.325 264.835 188.019 227.883 181.664 202.171Z" fill="black"/>
<path opacity="0.2" d="M241.438 264.835H254.807C254.807 264.835 246.372 235.68 246.081 212.567L241.438 264.835Z" fill="black"/>
<path d="M339.634 181.083H257.1C253.089 181.083 249.837 184.334 249.837 188.345V240.552C249.837 244.563 253.089 247.815 257.1 247.815H339.634C343.645 247.815 346.897 244.563 346.897 240.552V188.345C346.897 184.334 343.645 181.083 339.634 181.083Z" fill="#2F2E41"/>
<path opacity="0.2" d="M339.731 181.083H257.003C253.046 181.083 249.837 184.291 249.837 188.248V240.649C249.837 244.606 253.046 247.815 257.003 247.815H339.731C343.688 247.815 346.897 244.606 346.897 240.649V188.248C346.897 184.291 343.688 181.083 339.731 181.083Z" fill="black"/>
<path d="M303.679 167.901C303.649 168.202 303.517 168.483 303.305 168.698C303.095 168.914 302.82 169.055 302.522 169.1L293.457 170.396C293.457 170.396 296.347 170.971 296.347 172.704C296.347 172.704 296.922 173.861 295.19 175.019C295.523 175.602 295.673 176.272 295.621 176.941C295.569 177.611 295.318 178.25 294.898 178.775C294.898 178.775 295.64 180.632 294.552 181.145L274.101 181.083C274.101 181.083 281.031 168.081 292.3 166.64L302.002 166.397H302.307C302.498 166.398 302.687 166.439 302.862 166.517C303.036 166.595 303.193 166.708 303.322 166.849C303.451 166.99 303.549 167.157 303.611 167.338C303.672 167.519 303.695 167.711 303.679 167.901Z" fill="#F9B499"/>
<path d="M303.679 167.901C303.649 168.202 303.517 168.483 303.305 168.698C303.095 168.914 302.82 169.055 302.522 169.1L293.457 170.396C290.393 170.204 287.35 171.014 284.787 172.704C286.811 168.663 295.765 168.663 295.765 168.663C299.847 168.372 301.427 167.347 302.002 166.397H302.307C302.498 166.398 302.687 166.439 302.862 166.517C303.036 166.595 303.193 166.708 303.322 166.849C303.451 166.99 303.549 167.157 303.611 167.338C303.672 167.519 303.695 167.711 303.679 167.901Z" fill="#F7A48B"/>
<path d="M294.032 175.594L289.686 179.925C289.686 179.925 288.695 180.916 284.142 181.145" stroke="#F7A48B" stroke-width="0.604782" stroke-miterlimit="10"/>
<path d="M226.44 175.594V187.583C226.44 190.074 225.451 192.462 223.69 194.223C221.929 195.984 219.54 196.974 217.05 196.974C214.559 196.974 212.171 195.984 210.41 194.223C208.649 192.462 207.659 190.074 207.659 187.583V169.239L210.709 167.957L226.44 175.594Z" fill="#F9B499"/>
<path d="M226.441 175.594V184.125C223.87 184.007 216.995 182.843 212.719 173.965L226.441 175.594Z" fill="#F7A48B"/>
<path d="M233.371 164.332C236.242 164.332 238.569 161.034 238.569 156.965C238.569 152.896 236.242 149.598 233.371 149.598C230.5 149.598 228.173 152.896 228.173 156.965C228.173 161.034 230.5 164.332 233.371 164.332Z" fill="#02576C"/>
<path opacity="0.2" d="M232.795 162.863C234.87 162.863 236.552 160.48 236.552 157.54C236.552 154.601 234.87 152.218 232.795 152.218C230.721 152.218 229.039 154.601 229.039 157.54C229.039 160.48 230.721 162.863 232.795 162.863Z" fill="black"/>
<path d="M232.062 150.118C229.467 143.169 221.731 139.638 214.782 142.232C207.832 144.826 204.302 152.563 206.896 159.512L211.038 170.608C213.632 177.557 221.368 181.088 228.318 178.494C235.267 175.9 238.798 168.163 236.204 161.214L232.062 150.118Z" fill="#F9B499"/>
<path d="M201.234 165.358C201.234 165.358 193.902 156.431 199.155 143.957C199.595 142.879 200.355 141.962 201.331 141.33C201.963 140.89 202.711 140.645 203.481 140.625C204.25 140.605 205.009 140.812 205.663 141.219C205.663 141.219 205.663 141.06 205.725 140.796C205.914 139.73 206.314 138.711 206.901 137.801C207.488 136.89 208.25 136.106 209.144 135.493C210.038 134.881 211.044 134.453 212.106 134.234C213.167 134.015 214.261 134.01 215.324 134.22C219.054 134.89 222.866 134.967 226.62 134.448C227.25 134.364 227.873 134.235 228.484 134.06C230.654 133.464 237.778 132.224 238.263 141.767C238.263 141.767 239.961 146.791 232.324 150.492L231.166 148.039C230.551 146.973 229.767 146.013 228.845 145.197C228.845 145.197 220.937 151.878 211.11 150.145L210.001 153.611L201.234 165.358Z" fill="#2F2E41"/>
<path d="M207.215 162.863H211.374V171.241H207.215C206.112 171.241 205.055 170.803 204.275 170.023C203.495 169.244 203.057 168.186 203.057 167.083C203.049 166.532 203.15 165.984 203.356 165.473C203.561 164.961 203.866 164.495 204.253 164.102C204.64 163.71 205.101 163.398 205.609 163.185C206.118 162.972 206.664 162.862 207.215 162.863Z" fill="#F9B499"/>
<path d="M206.219 154.505C206.219 154.505 204.451 139.951 215.297 134.22L217.758 134.642C217.758 134.642 209.441 143.042 211.437 154.262L206.219 154.505Z" fill="#02576C"/>
<path d="M209.107 169.821C212.299 169.821 214.887 166.135 214.887 161.587C214.887 157.04 212.299 153.354 209.107 153.354C205.915 153.354 203.327 157.04 203.327 161.587C203.327 166.135 205.915 169.821 209.107 169.821Z" fill="#3F4347"/>
<path d="M206.218 168.663C209.41 168.663 211.998 165.495 211.998 161.588C211.998 157.68 209.41 154.512 206.218 154.512C203.026 154.512 200.438 157.68 200.438 161.588C200.438 165.495 203.026 168.663 206.218 168.663Z" fill="#02576C"/>
<path opacity="0.2" d="M205.782 166.349C207.937 166.349 209.683 164.087 209.683 161.296C209.683 158.506 207.937 156.244 205.782 156.244C203.627 156.244 201.88 158.506 201.88 161.296C201.88 164.087 203.627 166.349 205.782 166.349Z" fill="black"/>
<path d="M170.251 267.455C182.135 267.455 191.769 257.886 191.769 246.082C191.769 234.278 182.135 224.709 170.251 224.709C158.366 224.709 148.732 234.278 148.732 246.082C148.732 257.886 158.366 267.455 170.251 267.455Z" fill="#02576C"/>
<path d="M207.95 248.965C207.95 248.965 158.267 276.125 152.508 250.698C152.508 250.698 147.594 231.057 169.258 231.057C169.258 231.057 185.725 230.766 209.704 235.68L234.244 240.746C236.479 241.211 238.485 242.435 239.92 244.211L250.655 257.379C250.767 257.516 250.847 257.677 250.89 257.848C250.934 258.02 250.939 258.2 250.906 258.374C250.873 258.548 250.803 258.713 250.699 258.857C250.596 259.001 250.463 259.121 250.309 259.208C250.085 259.337 249.825 259.391 249.569 259.363C249.312 259.334 249.071 259.224 248.881 259.049L236.836 248.106L238.991 253.851C239.211 254.419 239.298 255.03 239.244 255.637C239.189 256.244 238.996 256.831 238.679 257.351C237.986 258.432 236.69 259.375 234.237 258.799C234.237 258.799 232.505 260.532 229.615 258.799C229.615 258.799 227.182 260.255 221.194 260.497C221.04 260.522 220.882 260.493 220.746 260.417C220.61 260.341 220.504 260.221 220.445 260.076C220.385 259.932 220.376 259.772 220.419 259.622C220.462 259.472 220.555 259.341 220.681 259.25C221.79 258.196 223.537 256.887 225.283 257.06L223.551 253.019C223.551 253.019 211.991 254.745 207.95 248.965Z" fill="#F9B499"/>
<path d="M229.324 244.058C229.324 244.058 235.679 243.476 236.837 248.099" stroke="#F7A48B" stroke-width="0.604782" stroke-miterlimit="10"/>
<path d="M226.726 245.216L230.246 246.9C231.198 247.352 232.014 248.047 232.612 248.914C233.211 249.781 233.571 250.791 233.656 251.841L234.238 258.772" stroke="#F7A48B" stroke-width="0.604782" stroke-miterlimit="10"/>
<path d="M229.615 258.792L229.393 254.204C229.365 253.467 229.179 252.744 228.848 252.084C228.516 251.424 228.048 250.843 227.473 250.379L224.701 248.099" stroke="#F7A48B" stroke-width="0.604782" stroke-miterlimit="10"/>
<path d="M342.482 181.083H264.648C259.339 181.083 255.035 185.386 255.035 190.695V238.202C255.035 243.511 259.339 247.815 264.648 247.815H342.482C347.791 247.815 352.094 243.511 352.094 238.202V190.695C352.094 185.386 347.791 181.083 342.482 181.083Z" fill="#2F2E41"/>
<path d="M321.913 187.729H321.906C320.551 187.729 319.453 188.827 319.453 190.182V200.009C319.453 201.364 320.551 202.463 321.906 202.463H321.913C323.268 202.463 324.366 201.364 324.366 200.009V190.182C324.366 188.827 323.268 187.729 321.913 187.729Z" fill="#02576C"/>
<path d="M329.426 187.729H329.419C328.064 187.729 326.965 188.827 326.965 190.182V200.009C326.965 201.364 328.064 202.463 329.419 202.463H329.426C330.781 202.463 331.879 201.364 331.879 200.009V190.182C331.879 188.827 330.781 187.729 329.426 187.729Z" fill="#02576C"/>
<path d="M337.222 187.729H337.215C335.86 187.729 334.762 188.827 334.762 190.182V200.009C334.762 201.364 335.86 202.463 337.215 202.463H337.222C338.577 202.463 339.675 201.364 339.675 200.009V190.182C339.675 188.827 338.577 187.729 337.222 187.729Z" fill="#02576C"/>
<path d="M293.152 214.307L304.13 261.675H270.642C270.413 261.675 270.185 261.719 269.973 261.807C269.761 261.894 269.568 262.023 269.405 262.185C269.243 262.347 269.115 262.54 269.027 262.752C268.94 262.965 268.895 263.192 268.896 263.422C268.896 263.883 269.079 264.326 269.406 264.652C269.732 264.978 270.174 265.161 270.636 265.161H319.487C320.116 265.164 320.738 265.026 321.307 264.758C321.876 264.49 322.378 264.098 322.776 263.612C323.175 263.125 323.459 262.556 323.61 261.945C323.76 261.334 323.772 260.697 323.646 260.081L314.29 214.591L293.152 214.307Z" fill="#02576C"/>
<path opacity="0.2" d="M293.166 214.307L292.93 247.704L300.817 247.94L293.166 214.307Z" fill="black"/>
<path d="M76.4268 357.154C69.136 342.178 56.3288 334.485 42.0107 338.727C27.6927 342.968 25.4126 363.024 36.1893 368.084C46.9659 373.143 57.6733 358.381 63.3146 355.332C68.9559 352.282 76.4268 357.154 76.4268 357.154Z" fill="#02576C"/>
<path d="M83.4813 397.108C83.4813 395.299 83.3635 393.49 83.3011 391.681C83.1764 388.078 83.047 384.476 82.913 380.877C82.6774 374.279 81.9636 367.813 79.24 361.729C76.82 356.225 72.7898 351.584 67.6802 348.415C65.7831 347.267 63.7383 346.384 61.6023 345.789C59.6692 343.826 57.2052 342.47 54.5126 341.887C51.184 341.204 47.7608 341.115 44.4012 341.624C44.2695 341.624 44.2834 341.839 44.4012 341.811C47.6012 341.402 50.8506 341.637 53.9581 342.504C55.2916 342.863 56.5833 343.362 57.8114 343.994C58.5866 344.399 59.3303 344.863 60.036 345.38C57.1351 344.773 54.1373 344.802 51.2484 345.463C50.2056 345.712 49.1856 346.048 48.199 346.468C47.4171 346.293 46.6156 346.22 45.815 346.253C44.7647 346.292 43.7216 346.443 42.7033 346.704C40.6213 347.284 38.6313 348.154 36.7917 349.289C36.6808 349.289 36.7917 349.503 36.8957 349.441C38.7037 348.436 40.6416 347.685 42.6548 347.21C43.634 346.994 44.6277 346.85 45.6279 346.78C46.175 346.752 46.7232 346.752 47.2704 346.78C43.1775 348.668 39.8869 351.946 37.9837 356.032C37.9837 356.143 38.0946 356.247 38.1501 356.129C39.2904 353.763 40.9462 351.683 42.9957 350.041C45.0453 348.4 47.4366 347.238 49.994 346.641C50.3197 346.572 50.6454 346.53 50.9642 346.468C50.888 346.946 50.8395 347.431 50.8118 347.909C50.7078 348.637 50.5831 349.365 50.4445 350.086C50.1469 351.57 49.7581 353.036 49.2802 354.473C48.7755 355.926 48.1759 357.346 47.4852 358.721C46.8385 360.189 46.0196 361.576 45.0457 362.851C45.0233 362.866 45.0073 362.888 45.0008 362.914C44.9944 362.939 44.998 362.967 45.0111 362.99C45.0307 363.006 45.0552 363.014 45.0804 363.014C45.1056 363.014 45.13 363.006 45.1497 362.99C45.1691 362.976 45.1837 362.957 45.1913 362.934C46.0576 361.548 47.0625 360.336 47.8525 358.929C48.6079 357.595 49.2589 356.205 49.7999 354.771C50.3429 353.311 50.7625 351.809 51.0543 350.28C51.2202 349.476 51.3451 348.664 51.4286 347.847C51.5323 347.355 51.5673 346.852 51.5325 346.35C53.2193 346.1 54.9312 346.067 56.6263 346.253C55.9887 349.829 55.3095 353.558 53.2998 356.649C53.2374 356.746 53.4176 356.85 53.4799 356.739C54.4293 355.094 55.2675 353.388 55.9887 351.631C56.6535 349.924 57.0758 348.133 57.2431 346.309C60.207 346.709 63.0686 347.666 65.6773 349.129C70.5897 351.991 74.5132 356.282 76.9252 361.431C79.4445 366.959 80.8571 372.928 81.0834 378.999C81.5616 386.622 81.6586 394.363 82.4279 401.994C82.4279 402.493 83.2665 402.687 83.3566 402.091C83.5425 400.437 83.5842 398.769 83.4813 397.108Z" fill="#2F2E41"/>
<path d="M66.6353 347.126C66.1495 346.558 65.5928 346.055 64.9789 345.629C64.376 345.144 63.7246 344.666 63.1216 344.243C61.8527 343.375 60.4471 342.726 58.9634 342.323C58.8387 342.323 58.7832 342.49 58.9634 342.511C60.4474 342.888 61.8356 343.573 63.0385 344.52C63.6575 344.955 64.2478 345.43 64.8057 345.941C65.3112 346.462 65.8712 346.926 66.4759 347.327C66.5729 347.362 66.7115 347.209 66.6353 347.126Z" fill="#2F2E41"/>
<path d="M43.3831 352.56C42.1759 353.944 41.0557 355.403 40.0288 356.926C39.0302 358.483 38.1898 360.136 37.52 361.86C37.52 361.86 37.5824 361.929 37.6101 361.86C39.2792 358.6 41.249 355.502 43.494 352.608C43.5979 352.594 43.4593 352.456 43.3831 352.56Z" fill="#2F2E41"/>
<path d="M59.0602 351.077C58.9035 352.008 58.6238 352.915 58.2285 353.772C57.8279 354.624 57.3598 355.442 56.8286 356.219C56.8286 356.219 56.8286 356.323 56.9048 356.219C58.1698 354.775 58.9778 352.987 59.2265 351.084C59.2612 351 59.0671 350.952 59.0602 351.077Z" fill="#2F2E41"/>
<path d="M82.4702 357.515C82.4702 357.515 92.7895 344.548 112.756 349.143C131.676 353.523 140.366 388.223 121.287 392.381C102.208 396.54 105.472 364.452 98.507 358.956C93.3924 354.965 86.0255 355.824 82.4702 357.515Z" fill="#02576C"/>
<path d="M128.072 368.104C126.775 366.967 125.404 365.915 123.969 364.958C122.617 364.035 121.146 363.301 119.596 362.775C118.819 361.596 117.953 360.48 117.004 359.435C115.243 357.546 113.211 355.929 110.975 354.639H111.578C112.637 354.583 113.699 354.583 114.759 354.639C116.879 354.771 118.958 355.29 120.892 356.17C121.003 356.17 121.093 356.046 120.982 355.997C119.012 355.147 116.952 354.524 114.842 354.14C113.815 353.958 112.773 353.87 111.73 353.876C111.171 353.86 110.613 353.893 110.06 353.973H109.734C107.901 353.06 105.969 352.362 103.975 351.894C104.164 351.86 104.349 351.809 104.529 351.742C105.501 351.522 106.484 351.358 107.475 351.25C109.457 351.023 111.46 351.054 113.435 351.34C113.567 351.34 113.587 351.174 113.435 351.167C111.438 350.918 109.424 350.833 107.412 350.91C105.722 350.96 104.041 351.18 102.395 351.569C101.193 351.347 99.9773 351.208 98.7564 351.153C91.8261 350.848 84.2443 353.447 79.9267 359.157C75.6091 364.868 74.8191 372.484 74.0706 379.387C72.9391 389.006 72.721 398.71 73.4191 408.37C73.4191 408.931 74.2577 408.834 74.2785 408.293C74.5419 400.109 74.8329 391.979 75.6091 383.767C75.9764 380.004 76.3784 376.241 76.9952 372.47C77.4608 369.249 78.3947 366.114 79.7673 363.163C81.2417 360.142 83.5787 357.627 86.4828 355.935C89.3981 354.257 92.6516 353.253 96.0051 352.996C99.0112 352.754 102.037 353.038 104.945 353.835C104.855 354.423 104.855 355.021 104.945 355.609C105.008 356.346 105.154 357.074 105.382 357.778C105.597 358.448 105.876 359.095 106.213 359.712C106.574 360.405 107.038 360.966 107.468 361.652C107.468 361.756 107.69 361.652 107.613 361.541C106.786 360.371 106.245 359.023 106.033 357.605C105.914 356.938 105.833 356.265 105.791 355.588V354.043C108.952 355.017 111.902 356.575 114.488 358.638C114.972 359.031 115.434 359.45 115.874 359.892C115.215 360.504 114.644 361.203 114.176 361.971C113.495 362.97 112.904 364.028 112.409 365.131C111.479 367.318 110.843 369.618 110.517 371.971C110.517 372.096 110.677 372.138 110.69 371.971C111.058 369.668 111.828 367.446 112.964 365.408C113.49 364.401 114.08 363.429 114.731 362.498C115.057 362.02 115.424 361.541 115.77 361.077C115.964 360.841 116.172 360.592 116.366 360.315C118.711 362.605 120.623 365.3 122.008 368.271C121.066 369.267 120.281 370.4 119.679 371.632C118.965 372.912 118.344 374.241 117.822 375.61C116.857 378.265 116.061 380.977 115.438 383.732C115.429 383.756 115.429 383.783 115.44 383.806C115.45 383.829 115.469 383.848 115.493 383.857C115.518 383.866 115.546 383.866 115.57 383.855C115.595 383.845 115.614 383.826 115.625 383.802C115.632 383.779 115.632 383.755 115.625 383.732C116.25 380.961 117.218 378.279 118.508 375.748C119.111 374.494 119.762 373.24 120.407 372.062C121.092 370.942 121.715 369.785 122.271 368.596C123.593 371.504 124.364 374.632 124.544 377.821C124.544 377.952 124.745 377.938 124.731 377.821C124.362 372.821 122.834 367.976 120.268 363.669C121.495 364.159 122.695 364.712 123.865 365.325C125.367 366.113 126.764 367.086 128.023 368.222C128.044 368.333 128.169 368.222 128.072 368.104Z" fill="#2F2E41"/>
<path d="M113.463 368.832C112.874 370.807 112.119 372.713 111.578 374.695C111.03 376.603 110.734 378.574 110.698 380.558H110.788C111.336 376.583 112.297 372.676 113.657 368.901C113.662 368.889 113.664 368.875 113.663 368.862C113.663 368.848 113.659 368.835 113.654 368.823C113.648 368.81 113.64 368.799 113.63 368.79C113.62 368.781 113.608 368.774 113.595 368.77C113.582 368.765 113.569 368.763 113.555 368.764C113.542 368.764 113.529 368.768 113.516 368.774C113.504 368.779 113.493 368.788 113.484 368.798C113.475 368.808 113.468 368.819 113.463 368.832Z" fill="#2F2E41"/>
<path d="M126.089 363.967C125.3 363.214 124.406 362.579 123.435 362.082C122.453 361.63 121.433 361.268 120.386 361.001C120.275 361.001 120.24 361.153 120.386 361.181C121.43 361.469 122.43 361.898 123.359 362.456C124.298 362.94 125.199 363.493 126.055 364.112C126.055 364.112 126.131 364.015 126.089 363.967Z" fill="#2F2E41"/>
<path d="M92.2622 340.196C92.2622 340.196 94.175 316.903 111.494 309.363C125.951 303.084 134.232 319.301 124.038 329.253C115.735 337.299 102.471 333.668 92.2622 340.196Z" fill="#02576C"/>
<path d="M120.802 313.868C118.165 314.936 115.592 316.155 113.095 317.52C111.022 318.713 109.026 320.037 107.122 321.484C107.413 320.895 107.662 320.23 107.953 319.703C108.398 318.801 108.888 317.922 109.422 317.069C110.472 315.304 111.736 313.674 113.186 312.218C113.276 312.149 113.186 312.01 113.047 312.093C111.59 313.544 110.249 315.106 109.034 316.764C108.439 317.613 107.888 318.492 107.385 319.398C106.877 320.238 106.486 321.142 106.221 322.087L106.033 322.226C103.01 324.638 100.237 327.35 97.7587 330.32C97.7754 330.083 97.8268 329.85 97.9111 329.627C98.2369 328.484 98.6042 327.368 98.9646 326.238C99.7077 323.848 100.758 321.565 102.09 319.447C102.096 319.436 102.1 319.425 102.102 319.413C102.103 319.401 102.102 319.388 102.099 319.377C102.096 319.365 102.09 319.354 102.083 319.345C102.075 319.335 102.066 319.328 102.055 319.322C102.045 319.316 102.034 319.312 102.022 319.31C102.01 319.309 101.997 319.309 101.986 319.313C101.974 319.316 101.963 319.321 101.954 319.329C101.944 319.336 101.937 319.346 101.931 319.356C100.565 321.479 99.3518 323.695 98.2992 325.989C97.7989 327.112 97.3797 328.27 97.0449 329.454C96.7951 330.216 96.6074 330.997 96.4835 331.789C95.7281 332.739 94.9727 333.709 94.2866 334.707C86.8434 345.29 83.1149 358.09 82.2278 370.904C81.9564 374.721 81.8893 378.55 82.0268 382.374C82.0554 386.236 82.3938 390.091 83.0387 393.899C83.0487 393.925 83.0638 393.95 83.0831 393.97C83.1025 393.991 83.1257 394.007 83.1514 394.019C83.1772 394.03 83.2049 394.037 83.2332 394.038C83.2614 394.039 83.2895 394.034 83.3159 394.024C83.3541 394.008 83.3872 393.983 83.4117 393.95C83.4362 393.917 83.451 393.878 83.4545 393.837C83.3783 390.469 83.0248 387.107 82.9624 383.795C82.8977 380.418 83.0065 377.041 83.2882 373.676C83.8342 366.956 85.0981 360.314 87.0583 353.863C89.0622 347.256 92.0204 340.978 95.839 335.227C96.5667 335.074 97.2943 334.873 98.0151 334.7L100.607 334.007C102.278 333.578 103.903 332.986 105.458 332.24C105.569 332.24 105.458 332.011 105.354 332.074C103.832 332.914 102.177 333.489 100.462 333.771C99.1101 334.035 97.6894 334.208 96.3449 334.52C97.6016 332.672 98.9438 330.907 100.371 329.225C103.663 329.528 106.981 329.282 110.192 328.498C111.895 328.081 113.571 327.557 115.209 326.931C116.942 326.238 118.584 325.4 120.296 324.686C120.421 324.686 120.296 324.443 120.22 324.506C117.107 326.208 113.708 327.326 110.192 327.804C107.104 328.298 103.983 328.552 100.857 328.567C102.111 327.181 103.365 325.795 104.71 324.492C109.23 319.941 114.662 316.398 120.65 314.096C120.982 314.006 120.913 313.819 120.802 313.868Z" fill="#2F2E41"/>
<path d="M106.727 313.944C105.944 314.923 105.236 315.959 104.606 317.042C103.955 318.184 103.441 319.398 103.074 320.659H103.144C103.726 319.516 104.211 318.331 104.793 317.194C105.371 316.072 106.068 315.015 106.872 314.041C106.921 313.979 106.782 313.84 106.727 313.944Z" fill="#2F2E41"/>
<path d="M122.785 321.699C121.659 322.319 120.469 322.813 119.236 323.175C118.051 323.571 116.843 323.895 115.619 324.145V324.242C116.901 324.111 118.166 323.839 119.389 323.432C120.573 322.974 121.73 322.449 122.854 321.858C123.027 321.782 122.923 321.637 122.785 321.699Z" fill="#2F2E41"/>
<path d="M78.8591 336.003C78.7621 337.022 76.2395 327.548 61.6026 319.149C48.2409 311.525 32.4259 291.663 45.3995 279.112C55.9336 269.077 83.6549 291.074 78.8591 336.003Z" fill="#02576C"/>
<path d="M88.9013 390.268C88.6927 380.418 87.9175 370.588 86.5797 360.828C85.4215 351.861 83.3478 343.036 80.3909 334.492C79.3028 331.408 78.0554 328.38 76.7178 325.393C76.8075 324.239 76.8075 323.081 76.7178 321.928C76.6416 320.431 76.503 318.941 76.3644 317.458C76.2258 315.974 76.0872 314.484 75.9 313.001C75.7129 311.518 75.408 310.042 75.3456 308.559C75.3457 308.536 75.3371 308.514 75.3217 308.498C75.3063 308.481 75.2851 308.471 75.2624 308.469C75.2386 308.469 75.2156 308.478 75.1987 308.495C75.1818 308.512 75.1724 308.535 75.1724 308.559C75.464 310.117 75.6355 311.695 75.6852 313.279C75.7961 314.713 75.8862 316.155 75.9208 317.596C75.9555 319.038 75.9208 320.472 75.9208 321.914V323.542C74.5348 320.632 73.0517 317.776 71.4716 314.977C72.4626 308.899 71.1666 302.564 69.94 296.625C69.94 296.5 69.7251 296.625 69.7528 296.625C70.3497 299.718 70.6629 302.859 70.6884 306.009C70.6884 308.517 70.6884 311.033 70.6122 313.542C70.2588 312.939 69.9192 312.35 69.5588 311.761C67.6599 308.647 65.6316 305.614 63.474 302.661C63.6465 301.223 63.5998 299.768 63.3354 298.344C63.0906 296.743 62.734 295.161 62.2681 293.61C61.8061 292.063 61.2655 290.54 60.6464 289.043C60.0227 287.498 59.1702 286.042 58.5673 284.497C58.5568 284.476 58.5387 284.46 58.5168 284.452C58.4948 284.445 58.4707 284.446 58.4495 284.455C58.4386 284.46 58.4286 284.467 58.4203 284.475C58.4119 284.483 58.4053 284.493 58.4008 284.504C58.3963 284.515 58.394 284.527 58.394 284.539C58.3941 284.551 58.3964 284.562 58.401 284.573C59.1433 286.034 59.7287 287.57 60.1474 289.154C60.6314 290.65 61.0294 292.173 61.3394 293.714C61.6536 295.253 61.9123 296.801 62.1156 298.358C62.2681 299.383 62.3582 300.437 62.5314 301.49C59.3987 297.277 55.9736 293.289 52.2815 289.556C52.1914 289.466 52.0666 289.556 52.1498 289.695C57.7272 295.985 62.7106 302.778 67.0362 309.987L67.5143 310.804C66.6966 310.305 65.7818 309.904 65.0056 309.474L60.7365 307.124C59.3504 306.39 57.9644 305.621 56.5783 304.858C55.8853 304.463 55.1922 304.054 54.4437 303.687C53.5706 303.295 52.7315 302.831 51.935 302.301C51.831 302.225 51.7063 302.391 51.831 302.453C53.2171 303.23 54.4784 304.387 55.8506 305.226C57.2228 306.064 58.6227 306.944 60.0088 307.734C62.6077 309.19 65.4283 310.243 67.9995 311.733C69.7736 314.838 71.4161 318.012 72.92 321.283C71.3676 320.294 69.7829 319.345 68.1658 318.435C67.1332 317.86 66.0867 317.284 65.0402 316.73C63.994 316.246 63.004 315.649 62.0879 314.949C61.9909 314.873 61.8661 314.949 61.9493 315.087C63.6596 316.619 65.552 317.934 67.5836 319.003C69.4687 320.105 71.3537 321.158 73.322 322.129C74.9359 325.561 76.3701 329.075 77.6188 332.656C83.7798 350.099 86.0391 368.638 87.1202 387.031C87.446 392.52 87.6123 398.002 87.6816 403.498C87.7509 408.993 87.4598 414.454 87.4737 419.943C87.4809 419.976 87.4989 420.004 87.5247 420.025C87.5505 420.046 87.5826 420.057 87.6158 420.057C87.6489 420.057 87.681 420.046 87.7068 420.025C87.7327 420.004 87.7506 419.976 87.7578 419.943C88.4509 415.092 88.541 410.123 88.7489 405.23C88.9568 400.337 88.9914 395.251 88.9013 390.268Z" fill="#2F2E41"/>
<path d="M62.2687 311.255C59.5959 310.075 56.9989 308.73 54.4929 307.228C51.9547 305.8 49.4955 304.237 47.126 302.543C47.126 302.543 47.0359 302.543 47.126 302.606C49.3655 304.449 51.7349 306.128 54.2157 307.63C56.8124 309.073 59.4948 310.355 62.248 311.47C62.2965 311.47 62.3727 311.303 62.2687 311.255Z" fill="#2F2E41"/>
<path d="M66.5312 291.524C66.3095 290.672 66.0461 289.847 65.755 289.015C65.7653 289.004 65.7709 288.989 65.7709 288.974C65.7709 288.958 65.7653 288.944 65.755 288.932C65.5679 288.454 65.3808 287.99 65.1798 287.546C65.1868 287.486 65.1868 287.426 65.1798 287.366L65.062 287.103L65.2145 287.581C65.2325 287.675 65.258 287.768 65.2907 287.858C66.2584 291.112 66.9835 294.434 67.4599 297.796C67.4599 297.82 67.4694 297.843 67.4863 297.86C67.5032 297.877 67.5261 297.886 67.55 297.886C67.5615 297.886 67.5729 297.884 67.5835 297.879C67.5941 297.875 67.6036 297.868 67.6114 297.859C67.6192 297.851 67.6252 297.841 67.6289 297.83C67.6327 297.819 67.6341 297.808 67.6332 297.796C67.4655 295.675 67.0965 293.575 66.5312 291.524Z" fill="#2F2E41"/>
<path d="M104.349 393.809L103.309 406.201L100.107 443.971H65.8439L62.649 406.201L61.6025 393.809H104.349Z" fill="#2F2E41"/>
<path opacity="0.2" d="M104.349 393.809L103.309 406.201H62.649L61.6025 393.809H104.349Z" fill="black"/>
<path d="M107.71 388.84H58.2412V400.725H107.71V388.84Z" fill="#2F2E41"/>
<path d="M186.578 113.997H162.384C160.444 113.997 158.871 115.57 158.871 117.51V127.857C158.871 129.798 160.444 131.371 162.384 131.371H186.578C188.519 131.371 190.092 129.798 190.092 127.857V117.51C190.092 115.57 188.519 113.997 186.578 113.997Z" fill="#02576C"/>
<path d="M177.256 130.054L189.017 139.3L181.726 129.389L177.256 130.054Z" fill="#02576C"/>
<path d="M181.456 122.667C181.456 122.533 181.483 122.4 181.534 122.277C181.585 122.153 181.66 122.041 181.755 121.946C181.849 121.852 181.962 121.777 182.085 121.725C182.209 121.674 182.341 121.648 182.475 121.648C182.678 121.649 182.876 121.711 183.044 121.825C183.212 121.939 183.342 122.1 183.418 122.288C183.495 122.475 183.514 122.682 183.473 122.881C183.432 123.079 183.333 123.261 183.188 123.404C183.044 123.546 182.861 123.643 182.661 123.681C182.462 123.719 182.256 123.697 182.069 123.619C181.882 123.54 181.723 123.407 181.611 123.238C181.5 123.068 181.441 122.87 181.442 122.667H181.456Z" fill="white"/>
<path d="M176.127 122.667C176.127 122.397 176.234 122.137 176.425 121.946C176.616 121.755 176.875 121.648 177.145 121.648C177.348 121.649 177.546 121.711 177.714 121.825C177.882 121.939 178.012 122.1 178.089 122.288C178.165 122.475 178.184 122.682 178.143 122.881C178.102 123.079 178.003 123.261 177.859 123.404C177.714 123.546 177.531 123.643 177.332 123.681C177.133 123.719 176.926 123.697 176.74 123.619C176.553 123.54 176.393 123.407 176.282 123.238C176.17 123.068 176.111 122.87 176.113 122.667H176.127Z" fill="white"/>
<path d="M170.797 122.667C170.797 122.397 170.904 122.137 171.095 121.946C171.287 121.755 171.546 121.648 171.816 121.648C172.019 121.649 172.217 121.711 172.385 121.825C172.552 121.939 172.683 122.1 172.759 122.288C172.836 122.475 172.854 122.682 172.814 122.881C172.773 123.079 172.674 123.261 172.529 123.404C172.385 123.546 172.201 123.643 172.002 123.681C171.803 123.719 171.597 123.697 171.41 123.619C171.223 123.54 171.064 123.407 170.952 123.238C170.841 123.068 170.782 122.87 170.783 122.667H170.797Z" fill="white"/>
<path d="M165.468 122.667C165.468 122.397 165.576 122.137 165.767 121.946C165.958 121.755 166.217 121.648 166.487 121.648C166.69 121.649 166.888 121.711 167.056 121.825C167.224 121.939 167.354 122.1 167.431 122.288C167.507 122.475 167.526 122.682 167.485 122.881C167.444 123.079 167.345 123.261 167.201 123.404C167.056 123.546 166.873 123.643 166.674 123.681C166.474 123.719 166.268 123.697 166.081 123.619C165.894 123.54 165.735 123.407 165.624 123.238C165.512 123.068 165.453 122.87 165.455 122.667H165.468Z" fill="white"/>
</svg>
