<svg width="120" height="30" viewBox="0 0 120 30" fill="none" xmlns="http://www.w3.org/2000/svg">
<path d="M9.56146 1.18713C17.2834 1.18713 21.1443 4.86627 21.1443 12.2246C21.1443 19.5828 17.2834 23.262 9.56146 23.262H0V1.18713H9.56146ZM7.09088 17.9679H9.43312C12.4064 17.9679 13.893 16.3743 13.893 13.1871V11.262C13.893 8.07483 12.4064 6.48125 9.43312 6.48125H7.09088V17.9679Z" fill="#FDFDFE"/>
<path d="M34.043 5.93591C37.1446 5.93591 39.5083 6.66318 41.1339 8.11773C42.781 9.57227 43.6045 11.7969 43.6045 14.7915V15.8824H30.8987C30.8987 17.1017 31.1661 18.0215 31.7008 18.6418C32.257 19.2621 33.1233 19.5723 34.2997 19.5723C35.3692 19.5723 36.15 19.3477 36.642 18.8985C37.1553 18.4493 37.412 17.8503 37.412 17.1017H43.6045C43.6045 19.1551 42.8238 20.7594 41.2623 21.9145C39.7008 23.0696 37.4227 23.6471 34.4281 23.6471C31.2837 23.6471 28.8452 22.9198 27.1126 21.4653C25.38 19.9894 24.5137 17.7648 24.5137 14.7915C24.5137 11.8824 25.3586 9.67922 27.0484 8.1819C28.7383 6.68458 31.0698 5.93591 34.043 5.93591ZM34.2997 10.0108C32.289 10.0108 31.1661 10.9626 30.9308 12.8664H37.1553C37.1553 11.9894 36.8987 11.2942 36.3853 10.7808C35.8933 10.2675 35.1981 10.0108 34.2997 10.0108Z" fill="#FDFDFE"/>
<path d="M58.162 5.93591C60.4507 5.93591 62.2154 6.68458 63.4561 8.1819C64.6967 9.67922 65.317 11.8931 65.317 14.8236C65.317 17.7327 64.6967 19.9359 63.4561 21.4332C62.2154 22.9092 60.4507 23.6471 58.162 23.6471C56.1941 23.6471 54.6112 23.0054 53.4133 21.722V29.5829H47.0283V6.32094H52.2262L52.7716 8.72735C54.0123 6.86639 55.809 5.93591 58.162 5.93591ZM56.1727 10.6525C55.2315 10.6525 54.5256 10.984 54.055 11.6471C53.5844 12.3102 53.3492 13.1765 53.3492 14.2461V15.3049C53.3492 16.3744 53.5844 17.2514 54.055 17.9359C54.5256 18.599 55.2315 18.9305 56.1727 18.9305C58.0122 18.9305 58.932 17.8289 58.932 15.6257V13.9252C58.932 11.7434 58.0122 10.6525 56.1727 10.6525Z" fill="#FDFDFE"/>
<path d="M68.9326 23.262V0H75.3176V23.262H68.9326Z" fill="#FDFDFE"/>
<path d="M88.7247 5.93591C91.6979 5.93591 94.0295 6.69527 95.7193 8.21399C97.4305 9.71131 98.2862 11.9038 98.2862 14.7915C98.2862 17.6792 97.4305 19.8824 95.7193 21.4011C94.0295 22.8985 91.6979 23.6471 88.7247 23.6471C85.7514 23.6471 83.4199 22.8985 81.7301 21.4011C80.0402 19.9038 79.1953 17.7006 79.1953 14.7915C79.1953 11.8824 80.0402 9.67922 81.7301 8.1819C83.4199 6.68458 85.7514 5.93591 88.7247 5.93591ZM88.7247 10.2675C86.6284 10.2675 85.5803 11.476 85.5803 13.8931V15.722C85.5803 18.1177 86.6284 19.3156 88.7247 19.3156C90.8423 19.3156 91.9011 18.1177 91.9011 15.722V13.8931C91.9011 11.476 90.8423 10.2675 88.7247 10.2675Z" fill="#FDFDFE"/>
<path d="M113.325 22.7487C112.448 25.123 111.368 26.9198 110.084 28.1391C108.822 29.3797 107.047 30 104.758 30C103.368 30 102.138 29.8075 101.068 29.4225V25.6043H103.635C105.24 25.6043 106.191 24.8236 106.491 23.2621L99.7529 6.32092H106.619L109.86 17.5829H110.084L113.068 6.32092H119.357L113.325 22.7487Z" fill="#FDFDFE"/>
</svg>
