<svg width="459" height="152" viewBox="0 0 459 152" fill="none" xmlns="http://www.w3.org/2000/svg">
<rect x="0.300781" width="458.4" height="152" rx="12.2828" fill="#02576C"/>
<path d="M125.369 47.2996C141.413 47.2996 149.436 54.9441 149.436 70.2332C149.436 85.5222 141.413 93.1668 125.369 93.1668H105.502V47.2996H125.369ZM120.235 82.1667H125.102C131.28 82.1667 134.369 78.8555 134.369 72.2332V68.2332C134.369 61.6109 131.28 58.2997 125.102 58.2997H120.235V82.1667Z" fill="#FDFEFE"/>
<path d="M176.236 57.1666C182.68 57.1666 187.591 58.6777 190.969 61.7C194.391 64.7222 196.103 69.3445 196.103 75.5668V77.8335H169.702C169.702 80.3668 170.258 82.278 171.369 83.5669C172.525 84.8558 174.325 85.5002 176.769 85.5002C178.991 85.5002 180.614 85.0336 181.636 84.1002C182.702 83.1669 183.236 81.9224 183.236 80.3668H196.103C196.103 84.6336 194.48 87.9669 191.236 90.3669C187.991 92.767 183.258 93.967 177.036 93.967C170.502 93.967 165.436 92.4559 161.836 89.4336C158.236 86.3669 156.436 81.7446 156.436 75.5668C156.436 69.5223 158.191 64.9445 161.702 61.8333C165.213 58.7222 170.058 57.1666 176.236 57.1666ZM176.769 65.6334C172.591 65.6334 170.258 67.6112 169.769 71.5667H182.702C182.702 69.7445 182.169 68.3 181.102 67.2334C180.08 66.1667 178.636 65.6334 176.769 65.6334Z" fill="#FDFEFE"/>
<path d="M226.348 57.1665C231.104 57.1665 234.771 58.722 237.348 61.8332C239.926 64.9443 241.215 69.5444 241.215 75.6333C241.215 81.6778 239.926 86.2557 237.348 89.3668C234.771 92.4335 231.104 93.9669 226.348 93.9669C222.259 93.9669 218.971 92.6335 216.482 89.9668V106.3H203.215V57.9665H214.015L215.148 62.9665C217.726 59.0998 221.459 57.1665 226.348 57.1665ZM222.215 66.9666C220.259 66.9666 218.793 67.6555 217.815 69.0333C216.837 70.4111 216.348 72.2111 216.348 74.4333V76.6333C216.348 78.8556 216.837 80.6778 217.815 82.1001C218.793 83.4779 220.259 84.1668 222.215 84.1668C226.037 84.1668 227.948 81.8778 227.948 77.3V73.7666C227.948 69.2333 226.037 66.9666 222.215 66.9666Z" fill="#FDFEFE"/>
<path d="M248.729 93.1668V44.8329H261.995V93.1668H248.729Z" fill="#FDFEFE"/>
<path d="M289.855 57.1666C296.033 57.1666 300.877 58.7444 304.388 61.9C307.944 65.0111 309.722 69.5667 309.722 75.5668C309.722 81.5669 307.944 86.1447 304.388 89.3003C300.877 92.4114 296.033 93.967 289.855 93.967C283.677 93.967 278.833 92.4114 275.321 89.3003C271.81 86.1891 270.055 81.6113 270.055 75.5668C270.055 69.5223 271.81 64.9445 275.321 61.8333C278.833 58.7222 283.677 57.1666 289.855 57.1666ZM289.855 66.1667C285.499 66.1667 283.321 68.6778 283.321 73.7001V77.5001C283.321 82.478 285.499 84.9669 289.855 84.9669C294.255 84.9669 296.455 82.478 296.455 77.5001V73.7001C296.455 68.6778 294.255 66.1667 289.855 66.1667Z" fill="#FDFEFE"/>
<path d="M340.968 92.1002C339.146 97.0336 336.901 100.767 334.234 103.3C331.612 105.878 327.923 107.167 323.168 107.167C320.279 107.167 317.723 106.767 315.501 105.967V98.0336H320.834C324.168 98.0336 326.145 96.4114 326.768 93.1669L312.768 57.9666H327.034L333.768 81.3668H334.234L340.434 57.9666H353.501L340.968 92.1002Z" fill="#FDFEFE"/>
</svg>
