<svg width="181" height="34" viewBox="0 0 181 34" fill="none" xmlns="http://www.w3.org/2000/svg">
<g clip-path="url(#clip0_328_1055)">
<path d="M7.44444 26.7957C6.09689 26.7957 4.85614 26.4243 3.72222 25.6814C2.59652 24.9385 1.69267 23.8112 1.01067 22.2995C0.33689 20.7879 0 18.8831 0 16.5854C0 14.1839 0.353324 12.2317 1.05997 10.7287C1.77483 9.22561 2.69512 8.12424 3.82082 7.42454C4.95475 6.72485 6.14619 6.375 7.39514 6.375C8.33186 6.375 9.15354 6.54776 9.86019 6.89329C10.5668 7.23018 11.1585 7.68369 11.635 8.25381C12.1116 8.81529 12.4731 9.43293 12.7196 10.1067H12.8182V0H19.6218V26.5366H12.8675V23.2713H12.7196C12.4567 23.9451 12.0787 24.5498 11.5857 25.0854C11.1009 25.6123 10.5093 26.0312 9.81089 26.3422C9.12068 26.6446 8.33186 26.7957 7.44444 26.7957ZM9.95879 21.3018C10.5833 21.3018 11.1174 21.1118 11.5611 20.7317C12.013 20.343 12.3581 19.7988 12.5964 19.0991C12.8429 18.3908 12.9662 17.5528 12.9662 16.5854C12.9662 15.6006 12.8429 14.7584 12.5964 14.0587C12.3581 13.3504 12.013 12.8105 11.5611 12.439C11.1174 12.0589 10.5833 11.8689 9.95879 11.8689C9.33431 11.8689 8.80022 12.0589 8.35651 12.439C7.92102 12.8105 7.58413 13.3504 7.34584 14.0587C7.11577 14.7584 7.00074 15.6006 7.00074 16.5854C7.00074 17.5701 7.11577 18.4167 7.34584 19.125C7.58413 19.8247 7.92102 20.3646 8.35651 20.7447C8.80022 21.1161 9.33431 21.3018 9.95879 21.3018Z" fill="#02576C"/>
<path d="M32.0333 26.8994C30.012 26.8994 28.27 26.4934 26.8074 25.6814C25.353 24.8608 24.2314 23.686 23.4426 22.157C22.662 20.6194 22.2717 18.7795 22.2717 16.6372C22.2717 14.5813 22.6661 12.7846 23.4549 11.247C24.2437 9.70935 25.3571 8.51296 26.7951 7.65777C28.233 6.80259 29.9298 6.375 31.8854 6.375C33.3151 6.375 34.6093 6.60823 35.7678 7.07469C36.9264 7.54116 37.9165 8.21926 38.7382 9.10899C39.5599 9.99009 40.1926 11.0612 40.6363 12.3224C41.08 13.5836 41.3019 15.0046 41.3019 16.5854V18.2439H24.3916V14.3049H35.0407C35.0324 13.7348 34.8928 13.2337 34.6216 12.8018C34.3587 12.3613 34.0012 12.0201 33.5493 11.7782C33.1056 11.5277 32.6003 11.4024 32.0333 11.4024C31.4828 11.4024 30.9774 11.5277 30.5173 11.7782C30.0572 12.0201 29.6874 12.357 29.408 12.7889C29.1369 13.2208 28.9931 13.7261 28.9766 14.3049V18.5549C28.9766 19.1941 29.104 19.7642 29.3587 20.2652C29.6134 20.7663 29.9791 21.1593 30.4557 21.4444C30.9322 21.7294 31.5074 21.872 32.1812 21.872C32.6496 21.872 33.0768 21.8028 33.463 21.6646C33.8574 21.5264 34.1943 21.3277 34.4737 21.0686C34.7531 20.8008 34.9585 20.4812 35.09 20.1098H41.3019C41.0882 21.4919 40.5829 22.6926 39.7859 23.7119C38.9888 24.7226 37.933 25.5086 36.6183 26.0701C35.3118 26.623 33.7835 26.8994 32.0333 26.8994Z" fill="#02576C"/>
<path d="M44.0781 34V6.63415H50.8324V10.1067H50.9803C51.2268 9.43293 51.5883 8.81529 52.0649 8.25381C52.5415 7.68369 53.1331 7.23018 53.8397 6.89329C54.5464 6.54776 55.3681 6.375 56.3048 6.375C57.5537 6.375 58.7411 6.72485 59.8668 7.42454C61.0007 8.12424 61.921 9.22561 62.6276 10.7287C63.3425 12.2317 63.6999 14.1839 63.6999 16.5854C63.6999 18.8831 63.3589 20.7879 62.6769 22.2995C62.0031 23.8112 61.0993 24.9385 59.9654 25.6814C58.8397 26.4243 57.603 26.7957 56.2555 26.7957C55.3681 26.7957 54.5751 26.6446 53.8767 26.3422C53.1865 26.0312 52.5949 25.6123 52.1019 25.0854C51.6171 24.5498 51.2432 23.9451 50.9803 23.2713H50.8817V34H44.0781ZM50.7338 16.5854C50.7338 17.5528 50.8529 18.3908 51.0912 19.0991C51.3377 19.7988 51.6828 20.343 52.1265 20.7317C52.5784 21.1118 53.1166 21.3018 53.7411 21.3018C54.3656 21.3018 54.8956 21.1161 55.3311 20.7447C55.7748 20.3646 56.1117 19.8247 56.3418 19.125C56.58 18.4167 56.6992 17.5701 56.6992 16.5854C56.6992 15.6006 56.58 14.7584 56.3418 14.0587C56.1117 13.3504 55.7748 12.8105 55.3311 12.439C54.8956 12.0589 54.3656 11.8689 53.7411 11.8689C53.1166 11.8689 52.5784 12.0589 52.1265 12.439C51.6828 12.8105 51.3377 13.3504 51.0912 14.0587C50.8529 14.7584 50.7338 15.6006 50.7338 16.5854Z" fill="#02576C"/>
<path d="M73.3536 0V26.5366H66.55V0H73.3536Z" fill="#02576C"/>
<path d="M85.9408 26.8994C83.8866 26.8994 82.1282 26.4718 80.6656 25.6166C79.203 24.7528 78.0814 23.5521 77.3008 22.0145C76.5202 20.4682 76.1299 18.6758 76.1299 16.6372C76.1299 14.5986 76.5202 12.8105 77.3008 11.2729C78.0814 9.72663 79.203 8.52591 80.6656 7.67073C82.1282 6.80691 83.8866 6.375 85.9408 6.375C87.995 6.375 89.7534 6.80691 91.216 7.67073C92.6786 8.52591 93.8002 9.72663 94.5808 11.2729C95.3614 12.8105 95.7517 14.5986 95.7517 16.6372C95.7517 18.6758 95.3614 20.4682 94.5808 22.0145C93.8002 23.5521 92.6786 24.7528 91.216 25.6166C89.7534 26.4718 87.995 26.8994 85.9408 26.8994ZM85.9901 21.6128C86.5653 21.6128 87.0624 21.4098 87.4815 21.0038C87.9005 20.5978 88.2251 20.0191 88.4552 19.2675C88.6852 18.516 88.8003 17.6219 88.8003 16.5854C88.8003 15.5401 88.6852 14.6461 88.4552 13.9032C88.2251 13.1517 87.9005 12.5729 87.4815 12.1669C87.0624 11.7609 86.5653 11.5579 85.9901 11.5579C85.3821 11.5579 84.8603 11.7609 84.4248 12.1669C83.9893 12.5729 83.6565 13.1517 83.4265 13.9032C83.1964 14.6461 83.0814 15.5401 83.0814 16.5854C83.0814 17.6219 83.1964 18.516 83.4265 19.2675C83.6565 20.0191 83.9893 20.5978 84.4248 21.0038C84.8603 21.4098 85.3821 21.6128 85.9901 21.6128Z" fill="#02576C"/>
<path d="M102.078 34C101.297 34 100.553 33.9352 99.8468 33.8056C99.1401 33.6847 98.5198 33.5163 97.9857 33.3003L99.4647 28.221C100.023 28.4284 100.533 28.5622 100.993 28.6227C101.461 28.6832 101.86 28.6486 102.189 28.5191C102.525 28.3895 102.768 28.1433 102.916 27.7805L103.064 27.4177L96.408 6.63416H103.507L106.564 20.4207H106.761L109.867 6.63416H117.016L110.114 28.1951C109.769 29.2922 109.267 30.2769 108.61 31.1494C107.961 32.0305 107.106 32.7259 106.046 33.2355C104.986 33.7452 103.663 34 102.078 34Z" fill="#02576C"/>
<path d="M122.648 26.9512C121.695 26.9512 120.878 26.6014 120.196 25.9017C119.522 25.1933 119.189 24.3338 119.197 23.3232C119.189 22.3384 119.522 21.4962 120.196 20.7965C120.878 20.0968 121.695 19.7469 122.648 19.7469C123.552 19.7469 124.349 20.0968 125.04 20.7965C125.738 21.4962 126.091 22.3384 126.1 23.3232C126.091 23.9969 125.923 24.6103 125.594 25.1631C125.274 25.7073 124.855 26.1435 124.337 26.4718C123.819 26.7914 123.257 26.9512 122.648 26.9512ZM122.648 13.5793C121.695 13.5793 120.878 13.2294 120.196 12.5297C119.522 11.8214 119.189 10.9619 119.197 9.95122C119.189 8.96646 119.522 8.12424 120.196 7.42454C120.878 6.72485 121.695 6.375 122.648 6.375C123.552 6.375 124.349 6.72485 125.04 7.42454C125.738 8.12424 126.091 8.96646 126.1 9.95122C126.091 10.625 125.923 11.2383 125.594 11.7912C125.274 12.3354 124.855 12.7716 124.337 13.0998C123.819 13.4195 123.257 13.5793 122.648 13.5793Z" fill="#02576C"/>
<path d="M141.697 25.4418L140.705 21.3474H136.311L135.336 25.4418H132.962L137.108 9.38611H140.014L144.125 25.4418H141.697ZM138.543 12.1464H138.455L136.878 18.7481H140.138L138.543 12.1464Z" fill="#02576C"/>
<path d="M146.267 15.7578H144.902V13.4345H146.267V11.7094C146.267 10.6512 146.479 9.83847 146.904 9.27107C147.341 8.70368 147.979 8.41998 148.818 8.41998H150.43V10.7663H148.535V13.4345H150.43V15.7578H148.535V25.4418H146.267V15.7578Z" fill="#02576C"/>
<path d="M152 25.4418V13.4345H154.269V15.9188H154.357C154.416 15.5968 154.505 15.2901 154.623 14.9987C154.753 14.692 154.918 14.4237 155.119 14.1936C155.32 13.9636 155.556 13.7796 155.828 13.6416C156.111 13.5036 156.436 13.4345 156.802 13.4345H157.298V16.2178H156.59C155.822 16.2178 155.243 16.3635 154.853 16.6549C154.463 16.9463 154.269 17.4216 154.269 18.081V25.4418H152Z" fill="#02576C"/>
<path d="M160.091 11.6864C159.618 11.6864 159.275 11.5483 159.063 11.2723C158.862 10.9963 158.762 10.6436 158.762 10.2142V9.75414C158.762 9.32476 158.862 8.97206 159.063 8.69603C159.275 8.42 159.618 8.28198 160.091 8.28198C160.551 8.28198 160.888 8.42 161.1 8.69603C161.313 8.97206 161.419 9.32476 161.419 9.75414V10.2142C161.419 10.6436 161.313 10.9963 161.1 11.2723C160.888 11.5483 160.551 11.6864 160.091 11.6864ZM158.957 13.4345H161.225V25.4418H158.957V13.4345Z" fill="#02576C"/>
<path d="M167.503 25.7179C166.818 25.7179 166.21 25.5722 165.678 25.2808C165.147 24.9895 164.698 24.5678 164.332 24.0157C163.977 23.4636 163.706 22.8042 163.517 22.0375C163.328 21.2554 163.233 20.3813 163.233 19.4152C163.233 18.4491 163.328 17.5827 163.517 16.8159C163.706 16.0492 163.977 15.3974 164.332 14.8607C164.698 14.3086 165.147 13.8869 165.678 13.5956C166.21 13.3042 166.818 13.1585 167.503 13.1585C168.437 13.1585 169.204 13.4269 169.807 13.9636C170.421 14.5003 170.864 15.2441 171.136 16.1948L169.275 17.276C169.169 16.7699 168.968 16.3559 168.673 16.0338C168.389 15.6965 168 15.5278 167.503 15.5278C166.866 15.5278 166.387 15.7885 166.068 16.3099C165.761 16.8312 165.608 17.5137 165.608 18.3571V20.5423C165.608 21.3857 165.761 22.0681 166.068 22.5895C166.387 23.0956 166.866 23.3486 167.503 23.3486C168.047 23.3486 168.466 23.1723 168.762 22.8196C169.057 22.4515 169.287 21.9991 169.453 21.4624L171.189 22.5435C170.882 23.6016 170.415 24.3991 169.789 24.9358C169.163 25.4572 168.401 25.7179 167.503 25.7179Z" fill="#02576C"/>
<path d="M179.742 25.4418C179.246 25.4418 178.85 25.2578 178.555 24.8898C178.271 24.5064 178.094 24.0004 178.023 23.3716H177.917C177.763 24.1537 177.45 24.7441 176.978 25.1428C176.505 25.5262 175.92 25.7179 175.223 25.7179C174.278 25.7179 173.552 25.3958 173.044 24.7518C172.536 24.1077 172.282 23.2489 172.282 22.1755C172.282 20.9334 172.625 20.0133 173.31 19.4152C173.995 18.8018 174.97 18.4951 176.233 18.4951H177.81V17.621C177.81 16.9463 177.675 16.4249 177.403 16.0568C177.131 15.6888 176.694 15.5048 176.092 15.5048C175.56 15.5048 175.129 15.6581 174.798 15.9648C174.479 16.2562 174.208 16.6089 173.983 17.0229L172.637 15.4588C172.979 14.7687 173.434 14.2166 174.001 13.8026C174.568 13.3732 175.318 13.1585 176.251 13.1585C177.503 13.1585 178.454 13.5266 179.104 14.2626C179.754 14.9987 180.078 16.0568 180.078 17.437V23.0956H181V25.4418H179.742ZM175.985 23.5786C176.493 23.5786 176.925 23.433 177.279 23.1416C177.633 22.8502 177.81 22.4209 177.81 21.8535V20.2663H176.357C175.176 20.2663 174.586 20.757 174.586 21.7384V22.1295C174.586 22.6202 174.704 22.9882 174.94 23.2336C175.188 23.4636 175.537 23.5786 175.985 23.5786Z" fill="#02576C"/>
</g>
<defs>
<clipPath id="clip0_328_1055">
<rect width="181" height="34" fill="white"/>
</clipPath>
</defs>
</svg>
