<svg width="459" height="152" viewBox="0 0 459 152" fill="none" xmlns="http://www.w3.org/2000/svg">
<rect x="0.300781" width="458.4" height="152" rx="12.2828" fill="#02576C"/>
<path d="M57.653 28.6364C84.1311 28.6364 97.3701 41.2521 97.3701 66.4833C97.3701 91.7145 84.1311 104.33 57.653 104.33H24.8672V28.6364H57.653ZM49.1815 86.1768H57.2129C67.4081 86.1768 72.5057 80.7125 72.5057 69.7839V63.1827C72.5057 52.254 67.4081 46.7897 57.2129 46.7897H49.1815V86.1768Z" fill="#FDFEFE"/>
<path d="M141.6 44.9196C152.235 44.9196 160.34 47.4134 165.914 52.4009C171.562 57.3885 174.385 65.0165 174.385 75.2851V79.0257H130.818C130.818 83.2065 131.735 86.3604 133.568 88.4874C135.475 90.6145 138.446 91.678 142.48 91.678C146.147 91.678 148.824 90.9079 150.511 89.3676C152.272 87.8273 153.152 85.7736 153.152 83.2065H174.385C174.385 90.2478 171.708 95.7488 166.354 99.7095C161 103.67 153.188 105.651 142.92 105.651C132.138 105.651 123.776 103.157 117.835 98.1692C111.894 93.1083 108.924 85.4802 108.924 75.2851C108.924 65.3099 111.821 57.7552 117.615 52.621C123.41 47.4867 131.404 44.9196 141.6 44.9196ZM142.48 58.8921C135.585 58.8921 131.735 62.156 130.928 68.6839H152.272C152.272 65.6767 151.391 63.2929 149.631 61.5326C147.944 59.7723 145.56 58.8921 142.48 58.8921Z" fill="#FDFEFE"/>
<path d="M224.298 44.9196C232.146 44.9196 238.197 47.4867 242.451 52.621C246.705 57.7552 248.832 65.3466 248.832 75.3951C248.832 85.3702 246.705 92.9249 242.451 98.0592C238.197 103.12 232.146 105.651 224.298 105.651C217.55 105.651 212.122 103.45 208.015 99.0493V126.004H186.121V46.2398H203.944L205.815 54.4913C210.069 48.1102 216.23 44.9196 224.298 44.9196ZM217.477 61.0925C214.249 61.0925 211.829 62.2294 210.215 64.5031C208.602 66.7769 207.795 69.7474 207.795 73.4147V77.0454C207.795 80.7127 208.602 83.7199 210.215 86.067C211.829 88.3407 214.249 89.4776 217.477 89.4776C223.784 89.4776 226.938 85.7003 226.938 78.1456V72.3145C226.938 64.8332 223.784 61.0925 217.477 61.0925Z" fill="#FDFEFE"/>
<path d="M261.23 104.33V24.5657H283.124V104.33H261.23Z" fill="#FDFEFE"/>
<path d="M329.1 44.9196C339.295 44.9196 347.29 47.5234 353.084 52.731C358.952 57.8653 361.885 65.3833 361.885 75.2851C361.885 85.1868 358.952 92.7415 353.084 97.9492C347.29 103.083 339.295 105.651 329.1 105.651C318.904 105.651 310.91 103.083 305.115 97.9492C299.321 92.8149 296.424 85.2602 296.424 75.2851C296.424 65.3099 299.321 57.7552 305.115 52.621C310.91 47.4867 318.904 44.9196 329.1 44.9196ZM329.1 59.7723C321.912 59.7723 318.318 63.9163 318.318 72.2045V78.4756C318.318 86.6905 321.912 90.7979 329.1 90.7979C336.361 90.7979 339.992 86.6905 339.992 78.4756V72.2045C339.992 63.9163 336.361 59.7723 329.1 59.7723Z" fill="#FDFEFE"/>
<path d="M413.452 102.57C410.445 110.711 406.741 116.872 402.34 121.053C398.013 125.307 391.925 127.434 384.077 127.434C379.31 127.434 375.092 126.774 371.425 125.454V112.362H380.226C385.727 112.362 388.991 109.684 390.018 104.33L366.914 46.2397H390.458L401.57 84.8567H402.34L412.572 46.2397H434.136L413.452 102.57Z" fill="#FDFEFE"/>
</svg>
