<svg width="120" height="30" viewBox="0 0 120 30" fill="none" xmlns="http://www.w3.org/2000/svg">
<path d="M9.56146 1.18718C17.2834 1.18718 21.1443 4.86632 21.1443 12.2246C21.1443 19.5829 17.2834 23.262 9.56146 23.262H0V1.18718H9.56146ZM7.09088 17.9679H9.43312C12.4064 17.9679 13.893 16.3743 13.893 13.1872V11.262C13.893 8.07487 12.4064 6.48129 9.43312 6.48129H7.09088V17.9679Z" fill="#FDFDFE"/>
<path d="M34.043 5.9359C37.1446 5.9359 39.5083 6.66317 41.1339 8.11771C42.781 9.57226 43.6045 11.7969 43.6045 14.7915V15.8824H30.8987C30.8987 17.1017 31.1661 18.0214 31.7008 18.6418C32.257 19.2621 33.1233 19.5722 34.2997 19.5722C35.3692 19.5722 36.15 19.3476 36.642 18.8984C37.1553 18.4493 37.412 17.8503 37.412 17.1017H43.6045C43.6045 19.1551 42.8238 20.7594 41.2623 21.9145C39.7008 23.0696 37.4227 23.6471 34.4281 23.6471C31.2837 23.6471 28.8452 22.9198 27.1126 21.4653C25.38 19.9894 24.5137 17.7648 24.5137 14.7915C24.5137 11.8824 25.3586 9.67921 27.0484 8.18188C28.7383 6.68456 31.0698 5.9359 34.043 5.9359ZM34.2997 10.0108C32.289 10.0108 31.1661 10.9626 30.9308 12.8664H37.1553C37.1553 11.9894 36.8987 11.2942 36.3853 10.7808C35.8933 10.2674 35.1981 10.0108 34.2997 10.0108Z" fill="#FDFDFE"/>
<path d="M58.162 5.9359C60.4507 5.9359 62.2154 6.68456 63.4561 8.18188C64.6967 9.67921 65.317 11.8931 65.317 14.8236C65.317 17.7327 64.6967 19.9359 63.4561 21.4332C62.2154 22.9091 60.4507 23.6471 58.162 23.6471C56.1941 23.6471 54.6112 23.0054 53.4133 21.722V29.5829H47.0283V6.32092H52.2262L52.7716 8.72734C54.0123 6.86638 55.809 5.9359 58.162 5.9359ZM56.1727 10.6525C55.2315 10.6525 54.5256 10.984 54.055 11.6471C53.5844 12.3102 53.3492 13.1765 53.3492 14.246V15.3049C53.3492 16.3744 53.5844 17.2514 54.055 17.9359C54.5256 18.599 55.2315 18.9305 56.1727 18.9305C58.0122 18.9305 58.932 17.8289 58.932 15.6257V13.9252C58.932 11.7434 58.0122 10.6525 56.1727 10.6525Z" fill="#FDFDFE"/>
<path d="M68.9326 23.262V0H75.3176V23.262H68.9326Z" fill="#FDFDFE"/>
<path d="M88.7247 5.9359C91.6979 5.9359 94.0295 6.69526 95.7193 8.21397C97.4305 9.71129 98.2862 11.9038 98.2862 14.7915C98.2862 17.6792 97.4305 19.8824 95.7193 21.4011C94.0295 22.8984 91.6979 23.6471 88.7247 23.6471C85.7514 23.6471 83.4199 22.8984 81.7301 21.4011C80.0402 19.9038 79.1953 17.7006 79.1953 14.7915C79.1953 11.8824 80.0402 9.67921 81.7301 8.18188C83.4199 6.68456 85.7514 5.9359 88.7247 5.9359ZM88.7247 10.2674C86.6284 10.2674 85.5803 11.476 85.5803 13.8931V15.722C85.5803 18.1177 86.6284 19.3156 88.7247 19.3156C90.8423 19.3156 91.9011 18.1177 91.9011 15.722V13.8931C91.9011 11.476 90.8423 10.2674 88.7247 10.2674Z" fill="#FDFDFE"/>
<path d="M113.325 22.7487C112.448 25.123 111.368 26.9198 110.084 28.139C108.822 29.3797 107.047 30 104.758 30C103.368 30 102.138 29.8075 101.068 29.4225V25.6043H103.635C105.24 25.6043 106.191 24.8235 106.491 23.262L99.7529 6.32089H106.619L109.86 17.5829H110.084L113.068 6.32089H119.357L113.325 22.7487Z" fill="#FDFDFE"/>
</svg>
