<svg width="120" height="30" viewBox="0 0 120 30" fill="none" xmlns="http://www.w3.org/2000/svg">
<path d="M9.56171 1.18719C17.2836 1.18719 21.1446 4.86633 21.1446 12.2246C21.1446 19.5829 17.2836 23.262 9.56171 23.262H0.000244141V1.18719H9.56171ZM7.09113 17.9679H9.43336C12.4066 17.9679 13.8932 16.3743 13.8932 13.1872V11.262C13.8932 8.07489 12.4066 6.48131 9.43336 6.48131H7.09113V17.9679Z" fill="#02576C"/>
<path d="M34.0428 5.93591C37.1444 5.93591 39.508 6.66318 41.1337 8.11773C42.7807 9.57227 43.6043 11.7969 43.6043 14.7915V15.8824H30.8984C30.8984 17.1017 31.1658 18.0215 31.7006 18.6418C32.2567 19.2621 33.123 19.5723 34.2995 19.5723C35.369 19.5723 36.1497 19.3477 36.6417 18.8985C37.1551 18.4493 37.4118 17.8503 37.4118 17.1017H43.6043C43.6043 19.1551 42.8235 20.7594 41.262 21.9145C39.7005 23.0696 37.4225 23.6471 34.4278 23.6471C31.2835 23.6471 28.845 22.9198 27.1123 21.4653C25.3797 19.9894 24.5134 17.7648 24.5134 14.7915C24.5134 11.8824 25.3583 9.67922 27.0482 8.1819C28.738 6.68458 31.0696 5.93591 34.0428 5.93591ZM34.2995 10.0108C32.2888 10.0108 31.1658 10.9626 30.9305 12.8664H37.1551C37.1551 11.9894 36.8984 11.2942 36.385 10.7808C35.8931 10.2675 35.1979 10.0108 34.2995 10.0108Z" fill="#02576C"/>
<path d="M58.1615 5.93591C60.4502 5.93591 62.2149 6.68458 63.4556 8.1819C64.6962 9.67922 65.3165 11.8931 65.3165 14.8236C65.3165 17.7327 64.6962 19.9359 63.4556 21.4332C62.2149 22.9092 60.4502 23.6471 58.1615 23.6471C56.1936 23.6471 54.6107 23.0054 53.4128 21.722V29.5829H47.0278V6.32094H52.2257L52.7711 8.72735C54.0118 6.86639 55.8085 5.93591 58.1615 5.93591ZM56.1722 10.6525C55.231 10.6525 54.5251 10.984 54.0545 11.6471C53.584 12.3102 53.3487 13.1765 53.3487 14.2461V15.3049C53.3487 16.3744 53.584 17.2514 54.0545 17.9359C54.5251 18.599 55.231 18.9305 56.1722 18.9305C58.0117 18.9305 58.9315 17.8289 58.9315 15.6257V13.9252C58.9315 11.7434 58.0117 10.6525 56.1722 10.6525Z" fill="#02576C"/>
<path d="M68.9321 23.262V0H75.3171V23.262H68.9321Z" fill="#02576C"/>
<path d="M88.7252 5.93591C91.6984 5.93591 94.03 6.69527 95.7198 8.21399C97.431 9.71131 98.2866 11.9038 98.2866 14.7915C98.2866 17.6792 97.431 19.8824 95.7198 21.4011C94.03 22.8985 91.6984 23.6471 88.7252 23.6471C85.7519 23.6471 83.4204 22.8985 81.7306 21.4011C80.0407 19.9038 79.1958 17.7006 79.1958 14.7915C79.1958 11.8824 80.0407 9.67922 81.7306 8.1819C83.4204 6.68458 85.7519 5.93591 88.7252 5.93591ZM88.7252 10.2675C86.6289 10.2675 85.5808 11.476 85.5808 13.8931V15.722C85.5808 18.1177 86.6289 19.3156 88.7252 19.3156C90.8428 19.3156 91.9016 18.1177 91.9016 15.722V13.8931C91.9016 11.476 90.8428 10.2675 88.7252 10.2675Z" fill="#02576C"/>
<path d="M113.325 22.7486C112.448 25.123 111.367 26.9198 110.084 28.139C108.822 29.3797 107.047 30 104.758 30C103.367 30 102.137 29.8075 101.068 29.4224V25.6043H103.635C105.239 25.6043 106.191 24.8235 106.49 23.262L99.7524 6.32086H106.619L109.859 17.5829H110.084L113.068 6.32086H119.357L113.325 22.7486Z" fill="#02576C"/>
</svg>
