<svg width="459" height="152" viewBox="0 0 459 152" fill="none" xmlns="http://www.w3.org/2000/svg">
<rect x="0.300781" width="458.4" height="152" rx="12.2828" fill="#02576C"/>
<path d="M190.411 100.203C183.647 100.203 178.348 98.3391 174.514 94.6111C170.679 90.883 168.762 85.7703 168.762 79.2729C168.762 75.0655 169.587 71.3907 171.238 68.2485C172.889 65.1063 175.179 62.6565 178.108 60.899C181.091 59.1415 184.553 58.2627 188.494 58.2627C192.382 58.2627 195.63 59.0882 198.24 60.7392C200.849 62.3902 202.82 64.7069 204.151 67.6893C205.536 70.6717 206.229 74.1601 206.229 78.1544V80.7907H176.83V75.5182H199.119L197.761 76.6366C197.761 72.9086 196.962 70.0593 195.364 68.0887C193.819 66.1182 191.556 65.1329 188.574 65.1329C185.272 65.1329 182.715 66.3046 180.904 68.6479C179.147 70.9913 178.268 74.2666 178.268 78.474V79.5125C178.268 83.8796 179.333 87.155 181.464 89.3385C183.647 91.4689 186.71 92.534 190.651 92.534C192.941 92.534 195.071 92.2411 197.042 91.6553C199.065 91.0162 200.983 90.0043 202.793 88.6196L205.749 95.33C203.832 96.8745 201.542 98.0728 198.879 98.9249C196.216 99.7771 193.393 100.203 190.411 100.203Z" fill="#FDFDFE"/>
<path d="M214.685 116.66V69.1273C214.685 67.4763 214.631 65.7987 214.525 64.0944C214.418 62.3902 214.259 60.7126 214.046 59.0616H223.712L224.591 67.5295H223.712C224.511 64.7069 226.188 62.4701 228.745 60.8191C231.354 59.1148 234.363 58.2627 237.772 58.2627C241.34 58.2627 244.456 59.1148 247.119 60.8191C249.781 62.4701 251.859 64.8667 253.35 68.0089C254.841 71.0978 255.587 74.8258 255.587 79.193C255.587 83.5601 254.841 87.3148 253.35 90.457C251.859 93.5992 249.781 96.0224 247.119 97.7266C244.456 99.3776 241.34 100.203 237.772 100.203C234.417 100.203 231.461 99.3776 228.904 97.7266C226.348 96.0756 224.644 93.8655 223.792 91.0961H224.67V116.66H214.685ZM234.976 92.534C238.171 92.534 240.728 91.4422 242.645 89.2587C244.562 87.0218 245.521 83.6666 245.521 79.193C245.521 74.7193 244.562 71.3907 242.645 69.2072C240.728 67.0236 238.171 65.9318 234.976 65.9318C231.834 65.9318 229.304 67.0236 227.387 69.2072C225.469 71.3907 224.511 74.7193 224.511 79.193C224.511 83.6666 225.469 87.0218 227.387 89.2587C229.304 91.4422 231.834 92.534 234.976 92.534Z" fill="#FDFDFE"/>
<path d="M264.224 99.4042V40.6078H274.21V99.4042H264.224Z" fill="#FDFDFE"/>
<path d="M303.268 100.203C299.114 100.203 295.519 99.351 292.483 97.6467C289.447 95.9425 287.077 93.5193 285.373 90.3771C283.722 87.2349 282.897 83.5068 282.897 79.193C282.897 74.8791 283.722 71.1777 285.373 68.0887C287.077 64.9465 289.447 62.5233 292.483 60.8191C295.519 59.1148 299.114 58.2627 303.268 58.2627C307.422 58.2627 311.017 59.1148 314.052 60.8191C317.141 62.5233 319.511 64.9465 321.162 68.0887C322.867 71.1777 323.719 74.8791 323.719 79.193C323.719 83.5068 322.867 87.2349 321.162 90.3771C319.511 93.5193 317.141 95.9425 314.052 97.6467C311.017 99.351 307.422 100.203 303.268 100.203ZM303.268 92.534C306.41 92.534 308.913 91.4422 310.777 89.2587C312.641 87.0218 313.573 83.6666 313.573 79.193C313.573 74.7193 312.641 71.3907 310.777 69.2072C308.913 67.0236 306.41 65.9318 303.268 65.9318C300.125 65.9318 297.622 67.0236 295.758 69.2072C293.894 71.3907 292.962 74.7193 292.962 79.193C292.962 83.6666 293.894 87.0218 295.758 89.2587C297.622 91.4422 300.125 92.534 303.268 92.534Z" fill="#FDFDFE"/>
<path d="M330.751 117.538L328.434 109.63C330.938 109.097 333.041 108.485 334.745 107.792C336.45 107.1 337.861 106.195 338.979 105.076C340.098 103.958 341.03 102.52 341.775 100.762L343.773 96.049L343.533 99.9635L325.958 59.0616H336.583L349.205 90.5368H346.888L359.59 59.0616H369.656L351.282 101.641C350.057 104.517 348.726 106.887 347.288 108.751C345.85 110.668 344.305 112.186 342.654 113.304C341.003 114.476 339.192 115.382 337.222 116.021C335.251 116.66 333.094 117.166 330.751 117.538Z" fill="#FDFDFE"/>
<g clip-path="url(#clip0_1170_11846)">
<path d="M122.02 82.7168L120.47 82.7082L120.285 82.7813L120.134 82.7684L119.914 82.8501L119.867 82.9663L120.125 83.3406L120.229 83.7407L120.384 84.3171L120.22 84.5538L120.194 84.6742L120.319 85.0313L120.453 85.3927L120.608 85.6078L120.633 85.9433L120.573 86.3864L120.401 86.6489L120.095 87.0404L119.97 87.2813L119.794 87.819L119.759 88.0729L119.574 88.6192L119.492 89.1441L119.535 89.5184L119.789 89.4022L120.099 89.3033L120.435 89.3205L120.741 89.5915L120.823 89.5485L122.924 89.5227L123.278 89.8066L124.531 89.8926L125.495 89.6474L125.168 89.2774L124.832 88.7913L124.901 86.8984L125.991 86.9027L125.947 86.7005L126.034 86.4768L125.947 86.1972L126.012 85.9089L125.96 85.7239L125.724 85.6895L125.396 85.7755L125.168 85.7626L125.039 85.8186L125.078 85.1087L124.91 84.8893L124.875 84.5236L124.957 84.1623L124.854 83.9343L124.849 83.56L124.212 83.5643L124.259 83.3492L123.992 83.3535L123.962 83.4567L123.635 83.4782L123.501 83.8267L123.42 83.973L123.131 83.8912L122.959 83.973L122.61 84.0203L122.412 83.7106L122.296 83.517L122.145 83.1599L122.02 82.7168ZM119.979 82.6006L119.996 82.3425L120.082 82.1919L120.276 82.0672L120.078 81.8607L119.919 81.9596L119.703 82.2177L119.845 82.6651L119.979 82.6006Z" fill="#FDFDFE" stroke="#FDFDFE" stroke-width="0.124823" stroke-linejoin="round"/>
<path d="M129.503 80.8884L129.477 80.6561L129.197 80.6174L129.034 80.9572L128.715 80.9099L128.844 81.1809L128.848 81.2842L129.034 81.8521V81.8779L129.085 81.8693L129.279 81.6542L129.49 81.3444L129.619 81.2197L129.615 81.0261L129.503 80.8884Z" fill="#FDFDFE" stroke="#FDFDFE" stroke-width="0.124823" stroke-linejoin="round"/>
<path d="M115.333 72.2799L114.933 71.9358L114.748 71.9401L114.571 72.1121L114.459 72.2928L114.201 72.3445L114.093 72.6069L113.917 72.6757L113.848 72.9855L114.007 73.1619L114.192 73.3727L114.209 73.6652L114.317 73.7857L114.296 75.1537L114.425 75.5624L114.86 75.4936L114.885 74.5342L114.873 74.1556L114.972 73.7814L115.131 73.5964L115.385 73.2307L115.329 73.0715L115.432 72.8306L115.312 72.4778L115.333 72.2799Z" fill="#FDFDFE" stroke="#FDFDFE" stroke-width="0.124823" stroke-linejoin="round"/>
<path d="M113.64 70.3354H113.304L113.175 70.2236L112.886 70.3053L112.4 70.5548L112.301 70.7398L111.896 71.0065L111.823 71.1614L111.603 71.2819L111.353 71.2001L111.207 71.3464L111.129 71.7551L110.712 72.2455L110.725 72.4477L110.578 72.7016L110.613 73.0457L110.849 73.1748L110.94 73.3727L111.172 73.4975L111.358 73.3512L111.603 73.3254L111.96 73.4802L111.892 73.0328L111.904 72.693L112.813 72.6672L113.046 72.7102L113.214 72.6155L113.455 72.6628L113.916 72.6758L114.092 72.6069L114.2 72.3445L114.458 72.2929L114.57 72.1122L114.583 71.7035L113.98 71.5701L113.963 71.2819L113.666 70.8947L113.597 70.6237L113.64 70.3354Z" fill="#FDFDFE" stroke="#FDFDFE" stroke-width="0.124823" stroke-linejoin="round"/>
<path d="M126.556 89.7765L126.462 89.7335L126.165 89.8668H126.01L125.669 90.0991L125.48 89.8539L124.675 90.0647L124.287 90.0819L124.205 92.2029L123.697 92.2244L123.637 93.9624L123.775 94.0484L124.054 94.6163L123.99 94.9777L124.098 95.1885L124.464 95.1283L124.731 94.8615L124.98 94.6808L125.118 94.3969L125.377 94.2592L125.588 94.3324L125.824 94.5002L126.238 94.526L126.574 94.3883L126.634 94.2033L126.737 93.9194L127.017 93.8721L127.185 93.6484L127.375 93.2483L127.857 92.8051L128.602 92.3663L128.288 92.0996L127.891 92.0093L127.758 91.6307L127.767 91.4199L127.547 91.3553L126.987 90.7014L126.836 90.3573L126.737 90.254L126.556 89.7765Z" fill="#FDFDFE" stroke="#FDFDFE" stroke-width="0.124823" stroke-linejoin="round"/>
<path d="M125.969 74.0911L125.926 74.061L125.746 73.8889L125.707 73.7039L125.789 73.4587L125.784 73.2135L125.474 72.8435L125.41 72.5897L125.078 72.6886L124.82 72.9296L124.449 73.5792L123.963 73.8545L123.455 73.8201L123.308 73.8717L123.36 74.0825L123.089 74.289L122.869 74.5213L122.21 74.7493L122.081 74.616L121.99 74.6031L121.896 74.7579L121.465 74.801L121.202 75.4033L121.077 75.5151L121.043 75.9754L121.095 76.2249L121.056 76.4013L121.306 76.7154L121.349 76.9262L121.547 77.2359L121.788 77.4252L121.814 77.6963L121.87 77.8683L122.141 77.3177L122.455 76.9993L122.809 77.1026L123.149 77.1327L123.192 76.7197L123.394 76.4142L123.674 76.2249L124.109 76.4271L124.445 76.6466L124.833 76.7068L125.224 76.8229L125.379 76.4616L125.448 76.4142L125.69 76.4745L126.271 76.1776L126.482 76.3067L126.65 76.2852L126.727 76.1432L126.921 76.0916L127.317 76.1518L127.658 76.169L127.83 76.1045L127.744 75.9152L127.348 75.6786L127.21 75.3215L126.986 75.0634L126.628 74.7536L126.624 74.56L126.331 74.3234L125.969 74.0911Z" fill="#FDFDFE" stroke="#FDFDFE" stroke-width="0.124823" stroke-linejoin="round"/>
<path d="M110.614 73.0457L110.399 73.1361L110.274 73.2092L110.196 72.9554L110.045 73.0242L109.955 73.0113L109.856 73.1834L109.451 73.1791L109.309 73.0887L109.24 73.1447L109.132 73.192L109.089 73.3942L109.21 73.6394L109.339 74.1169L109.141 74.1858L109.094 74.2675L109.132 74.3837L109.098 74.6461H109.016L108.99 74.8182L109.042 75.1064L108.926 75.3688L109.081 75.5323L109.244 75.571L109.468 75.8206L109.481 76.0572L109.434 76.1303L109.391 76.6208L109.49 76.638L110.011 76.4186L110.377 76.2465L111.001 76.1432L111.337 76.1346L111.703 76.2508L111.945 76.2465L111.966 76.0099L111.742 75.4979L111.88 74.8268L112.1 74.3277L111.962 73.4802L111.604 73.3254L111.359 73.3512L111.174 73.4974L110.941 73.3727L110.851 73.1748L110.614 73.0457Z" fill="#FDFDFE" stroke="#FDFDFE" stroke-width="0.124823" stroke-linejoin="round"/>
<path d="M121.256 72.736L121.273 72.3402L121.23 71.9487L121.019 71.5658L120.873 71.6002L120.856 71.7895L121.067 72.0261L121.011 72.1337L120.989 72.3316L120.55 72.7919L120.416 73.1705L120.348 73.4802L120.236 73.6136L120.132 74.0309L119.857 74.2761L119.775 74.5773L119.659 74.8182L119.611 75.0634L119.254 75.2656L118.957 75.0204L118.759 75.029L118.448 75.3774L118.293 75.3817L118.048 75.9582L117.914 76.3798L117.91 76.5433L118.044 76.6293L118.151 76.8961L118.392 76.995L118.599 77.3908L118.522 77.8597L119.379 77.8726L119.628 77.8339L119.947 77.9157L120.261 77.8382L120.326 77.8683L120.989 77.8942L121.416 78.049L121.833 78.191L121.872 77.8683L121.816 77.6963L121.79 77.4252L121.549 77.2359L121.351 76.9262L121.308 76.7154L121.058 76.4013L121.097 76.2249L121.045 75.9754L121.08 75.5151L121.205 75.4033L121.467 74.801L121.545 74.6418L121.377 74.2288L121.299 73.9836L121.071 73.8846L120.761 73.5361L120.869 73.2565L121.11 73.3124L121.256 73.2737L121.549 73.278L121.256 72.736Z" fill="#FDFDFE" stroke="#FDFDFE" stroke-width="0.124823" stroke-linejoin="round"/>
<path d="M127.319 76.1518L126.923 76.0916L126.729 76.1432L126.652 76.2851L126.484 76.3067L126.273 76.1776L125.691 76.4744L125.45 76.4142L125.381 76.4615L125.226 76.8229L124.834 76.7067L124.447 76.6465L124.111 76.4271L123.676 76.2249L123.396 76.4142L123.194 76.7197L123.151 77.1327L123.121 77.494L122.965 77.8124L122.862 78.1824L122.798 78.7115L122.828 79.0471L122.742 79.2536L122.729 79.473L122.668 79.6623L122.32 79.9505L122.078 80.256L121.85 80.8324L121.863 81.3229L121.73 81.5122L121.419 81.8047L121.109 82.179L120.916 82.0714L120.881 81.9037L120.597 81.8994L120.416 82.1274L120.278 82.0671L120.085 82.1919L119.998 82.3425L119.981 82.6006L119.848 82.6651L119.917 82.8501L120.136 82.7684L120.287 82.7813L120.472 82.7082L122.022 82.7168L122.147 83.1599L122.298 83.5169L122.414 83.7105L122.612 84.0203L122.961 83.973L123.133 83.8912L123.422 83.973L123.504 83.8267L123.637 83.4782L123.965 83.4567L123.995 83.3535L124.262 83.3492L124.214 83.5643L124.852 83.56L124.856 83.9342L124.959 84.1623L124.878 84.5236L124.912 84.8893L125.08 85.1087L125.041 85.8186L125.17 85.7626L125.399 85.7755L125.726 85.6895L125.963 85.7239L126.144 85.7368L126.169 85.9218L126.415 85.9089L126.746 85.9648L126.914 86.2316L127.332 86.3176L127.655 86.1283L127.767 86.4424L128.163 86.5241L128.348 86.7779L128.555 87.1049L128.956 87.1092L128.93 86.4682L128.783 86.5757L128.422 86.3434L128.284 86.2402L128.366 85.6422L128.473 84.9366L128.361 84.6742L128.516 84.2956L128.659 84.2225L129.365 84.1235L129.455 84.1493L129.481 84.0504L129.335 83.8912L129.27 83.5643L128.956 83.2373L128.779 82.8114L128.878 82.5619L128.74 82.2263L128.844 81.2756L128.848 81.2842L128.844 81.1809L128.715 80.9099L128.766 80.5829L128.839 80.5399L128.861 80.1828L129.012 80.0194L129.016 79.5676L129.141 79.3396L129.167 78.8621L129.279 78.5868L129.477 78.277L129.679 78.1178L129.847 77.907L129.636 77.8253L129.662 77.1327L129.193 76.7369L129.068 76.483L128.775 76.6078L128.529 76.5691L128.392 76.668L128.155 76.5949L127.832 76.1045L127.659 76.169L127.319 76.1518Z" fill="#FDFDFE" stroke="#FDFDFE" stroke-width="0.124823" stroke-linejoin="round"/>
<path d="M123.151 77.1327L122.811 77.1026L122.457 76.9993L122.143 77.3177L121.872 77.8683L121.833 78.191L121.415 78.049L120.989 77.8942L120.326 77.8683L120.287 78.1308L120.433 78.4362L120.825 78.3889L120.959 78.5051L120.731 79.1977L120.98 79.5505L121.036 80.0151L120.967 80.4109L120.808 80.6905L120.343 80.6647L120.063 80.3808L120.02 80.6432L119.663 80.7163L119.482 80.8669L119.68 81.2584L119.279 81.5896L119.706 82.2177L119.921 81.9596L120.08 81.8607L120.278 82.0672L120.416 82.1274L120.597 81.8994L120.881 81.9037L120.916 82.0715L121.11 82.179L121.42 81.8048L121.73 81.5122L121.863 81.3229L121.85 80.8325L122.078 80.256L122.32 79.9506L122.668 79.6623L122.729 79.473L122.742 79.2536L122.828 79.0471L122.798 78.7116L122.862 78.1824L122.966 77.8124L123.121 77.4941L123.151 77.1327Z" fill="#FDFDFE" stroke="#FDFDFE" stroke-width="0.124823" stroke-linejoin="round"/>
<path d="M136.02 72.3961L135.791 72.2326L136.084 72.0907L136.089 71.8455L135.959 71.6605L135.804 71.8067L135.58 71.7551L135.408 72.0175L135.24 72.2972L135.288 72.4606L135.301 72.6413L135.593 72.6499L135.718 72.6112L135.839 72.7145L136.02 72.3961Z" fill="#FDFDFE" stroke="#FDFDFE" stroke-width="0.124823" stroke-linejoin="round"/>
<path d="M117.589 57.2098L117.253 57.2442L117.046 57.1065L116.521 57.1108L116.064 57.3474L115.815 57.2571L115.001 57.3087L114.165 57.4163L113.692 57.6012L113.382 57.8508L112.848 57.954L112.37 58.2853L112.55 58.6725L112.581 59.0338L112.748 59.6662L112.882 59.791L112.787 60.0233L112.133 60.1223L111.9 60.3417L111.612 60.3933L111.586 60.8321L110.991 61.0644L110.793 61.3656L110.38 61.5247L109.872 61.6151L109.045 62.0539L109.036 62.7551V62.7982L109.023 62.9143L110.923 64.3555L112.645 65.6547L114.385 66.954L114.51 67.2293L114.833 67.4014L115.07 67.496L115.078 67.8746L115.651 67.8187L116.379 67.552L117.864 66.3861L119.609 65.2503L119.376 64.8761L118.963 64.6007L118.726 64.7083L118.541 64.377L118.515 64.1232L118.205 63.6887L118.403 63.4392L118.347 63.0649L118.407 62.7379L118.364 62.4669L118.442 61.9808L118.407 61.7054L118.23 61.1806L117.985 60.118L117.671 59.877L117.662 59.7351L117.244 59.378L117.188 58.9306L117.49 58.595L117.593 58.096L117.494 57.5195L117.589 57.2098Z" fill="#FDFDFE" stroke="#FDFDFE" stroke-width="0.124823" stroke-linejoin="round"/>
<path d="M127.769 60.7547L127.257 60.5826L126.762 60.4234L126.09 60.432L125.93 60.7159L126.025 60.9698L125.922 61.3354L126.103 61.8173L126.228 63.9339L126.322 66.1237H128.394H130.392H132.433L132.338 66.0032L131.705 65.4697L131.667 65.0826L131.761 64.9793L131.262 64.3211L131.072 63.9812L130.861 63.6586L130.409 62.7293L130.047 62.1313L129.785 61.5075L129.832 61.4516L130.267 62.3034L130.517 62.5701L130.702 62.7594L130.81 62.6562L130.926 62.3464L130.995 61.899L131.115 61.6581L131.051 61.5075L130.685 60.6428L130.452 60.7891L130.056 60.7547L129.643 60.617L129.544 60.8106L129.38 60.518L129.014 60.4406L128.575 60.4922L128.381 60.66L128.01 60.8493L127.769 60.7547Z" fill="#FDFDFE" stroke="#FDFDFE" stroke-width="0.124823" stroke-linejoin="round"/>
<path d="M134.179 70.0343L133.878 69.7417L133.706 69.1954L133.37 68.507L133.124 68.8469L132.745 68.9458L132.59 69.1265L132.56 69.5223L132.375 70.3956L132.44 70.6365L133.055 70.7613L133.198 70.3139L133.525 70.5849L133.826 70.4473L133.955 70.572L134.313 70.5763L134.778 70.8172L134.924 71.0237L135.161 71.213L135.394 71.5615L135.579 71.7551L135.803 71.8067L135.958 71.6604L135.691 71.4798L135.519 71.2776L135.222 70.9334L134.916 70.5935L134.179 70.0343Z" fill="#FDFDFE" stroke="#FDFDFE" stroke-width="0.124823" stroke-linejoin="round"/>
<path d="M133.197 70.3139L133.055 70.7613L132.439 70.6366L132.379 71.1485L132.185 71.7336L131.879 72.0261L131.673 72.4822L131.625 72.7274L131.384 72.8908L131.242 73.5147L131.246 73.5878L131.264 74.0524L131.186 74.2331L130.911 74.246L130.738 74.5859L131.061 74.6289L131.333 74.9171L131.427 75.158L131.673 75.2957L131.991 75.941L132.267 76.0443L132.271 76.3755L132.452 76.5734H132.818L133.494 77.0768L133.658 77.0854L133.783 77.0682L133.899 77.137L134.252 77.1843L134.403 76.9348L134.881 76.6853L135.092 76.8875H135.454L135.596 76.6982L135.932 76.6896L136.393 76.268L137.077 76.2422L138.52 74.4568L138.076 74.4611L136.341 73.7556L136.134 73.5405L135.936 73.2565L135.729 72.9253L135.837 72.7145L135.716 72.6112L135.592 72.6499L135.299 72.6413L135.286 72.4606L135.238 72.2972L135.406 72.0175L135.579 71.7551L135.393 71.5615L135.161 71.213L134.924 71.0237L134.778 70.8172L134.313 70.5763L133.955 70.572L133.826 70.4473L133.525 70.5849L133.197 70.3139Z" fill="#FDFDFE" stroke="#FDFDFE" stroke-width="0.124823" stroke-linejoin="round"/>
<path d="M120.326 77.8683L120.261 77.8382L119.947 77.9157L119.628 77.8339L119.379 77.8726L119.383 78.5911L118.621 78.5825L118.44 78.6169L118.337 79.06L118.207 79.4945L118.091 79.6838L118.078 79.8817L118.392 80.4969L118.741 80.9873L119.28 81.5896L119.68 81.2584L119.482 80.8669L119.663 80.7163L120.02 80.6432L120.063 80.3808L120.343 80.6647L120.808 80.6905L120.968 80.4109L121.037 80.0151L120.981 79.5505L120.731 79.1977L120.959 78.505L120.826 78.3889L120.434 78.4362L120.287 78.1308L120.326 77.8683Z" fill="#FDFDFE" stroke="#FDFDFE" stroke-width="0.124823" stroke-linejoin="round"/>
<path d="M113.456 72.6628L113.215 72.6155L113.047 72.7101L112.814 72.6671L111.906 72.6929L111.893 73.0328L111.962 73.4802L112.1 74.3277L111.88 74.8267L111.742 75.4979L111.966 76.0098L111.945 76.2464L112.414 76.4142L112.888 76.2421L113.176 76.0399L114.003 75.6915L113.882 75.4807L113.745 75.1021L113.702 74.8095L113.818 74.2718L113.689 74.0567L113.637 73.5877V73.1532L113.417 72.8478L113.456 72.6628Z" fill="#FDFDFE" stroke="#FDFDFE" stroke-width="0.124823" stroke-linejoin="round"/>
<path d="M107.425 71.8153L107.347 71.8454L107.063 71.7981L107.024 71.8669L106.908 71.8799L106.533 71.7336L106.284 71.7293L106.271 71.9315L106.215 71.9917L106.254 72.1896L106.172 72.267L106.055 72.2713L105.918 72.3703L105.758 72.3574L105.521 72.6499L105.677 72.7446L105.75 72.8779L105.806 73.1404L105.935 73.2565L106.068 73.334L106.271 73.5663L106.499 73.919L106.779 73.6566L106.844 73.4931L106.934 73.3641L107.076 73.3512L107.201 73.2393H107.619L107.761 73.4544L107.873 73.7039L107.856 73.876L107.937 74.0309L107.933 74.2503L108.075 74.2159L108.187 74.203L108.325 74.1341L108.545 74.4998L108.506 74.7407L108.609 74.8655L108.756 74.8698L108.868 74.6289L109.014 74.6461H109.096L109.13 74.3837L109.091 74.2675L109.139 74.1858L109.337 74.1169L109.208 73.6394L109.087 73.3942L109.13 73.192L109.238 73.1447L109.079 72.9726L109.109 72.7962L109.04 72.7274L108.928 72.7833L108.954 72.5897L109.061 72.4391L108.846 72.1896L108.786 72.0261L108.669 71.8928L108.566 71.8799L108.441 71.9616L108.269 72.039L108.127 72.1681L107.903 72.1208L107.761 71.9702L107.675 71.953L107.537 72.0304H107.451L107.425 71.8153Z" fill="#FDFDFE" stroke="#FDFDFE" stroke-width="0.124823" stroke-linejoin="round"/>
<path d="M104.648 71.3937L105.122 71.4023L105.251 71.3206L105.346 71.3163L105.54 71.1786L105.764 71.3034L105.988 71.3163L106.216 71.1829L106.113 71.0109L105.94 71.1098L105.777 71.1055L105.574 70.9592L105.411 70.9678L105.29 71.1098L104.722 71.127L104.648 71.3937Z" fill="#FDFDFE" stroke="#FDFDFE" stroke-width="0.124823" stroke-linejoin="round"/>
<path d="M106.285 71.7293L105.321 71.7035L105.179 71.7723L105.006 71.7508L104.727 71.8497L104.757 71.9745L104.916 72.1036L104.912 72.1939L105.028 72.3617L105.248 72.4004L105.523 72.6499L105.76 72.3574L105.919 72.3703L106.057 72.2713L106.174 72.267L106.255 72.1896L106.217 71.9917L106.273 71.9315L106.285 71.7293Z" fill="#FDFDFE" stroke="#FDFDFE" stroke-width="0.124823" stroke-linejoin="round"/>
<path d="M119.377 77.8726L118.52 77.8597L118.344 78.5266L118.438 78.6169L118.619 78.5825L119.382 78.5911L119.377 77.8726Z" fill="#FDFDFE" stroke="#FDFDFE" stroke-width="0.124823" stroke-linejoin="round"/>
<path d="M135.456 76.8874H135.094L134.883 76.6852L134.405 76.9348L134.254 77.1843L133.901 77.137L133.785 77.0681L133.66 77.0853L133.496 77.0767L132.82 76.5734H132.454L132.273 76.3755L132.269 76.0442L131.993 75.941L131.645 76.3325L131.326 76.6895L131.58 77.1025L131.645 77.4037L131.881 78.0834L131.692 78.5179L131.438 78.9137L131.287 79.1546V79.1847L131.412 79.4085L131.378 79.8516L133.277 81.0648L133.307 81.4089L134.052 82.0026L134.267 81.8047L134.375 81.4089L134.547 81.1723L134.629 80.7507L134.827 80.7077L134.96 80.4582L135.331 80.2215L135.021 79.7311L135.004 77.5629L135.456 76.8874Z" fill="#FDFDFE" stroke="#FDFDFE" stroke-width="0.124823" stroke-linejoin="round"/>
<path d="M109.018 74.6461L108.871 74.6289L108.759 74.8698L108.613 74.8655L108.509 74.7407L108.548 74.4998L108.329 74.1342L108.191 74.203L108.079 74.2159L107.833 74.4955L107.596 74.8182L107.566 74.9903L107.441 75.1796L107.79 75.5624L108.238 75.8894L108.712 76.3411L109.254 76.6251L109.392 76.6208L109.435 76.1303L109.483 76.0572L109.47 75.8206L109.246 75.571L109.082 75.5323L108.927 75.3689L109.043 75.1064L108.992 74.8182L109.018 74.6461Z" fill="#FDFDFE" stroke="#FDFDFE" stroke-width="0.124823" stroke-linejoin="round"/>
<path d="M126.092 60.432L125.959 60.2384L125.455 60.1696L125.287 60.0663H125.097L124.908 59.7996L124.223 59.6791L123.883 59.7566L123.543 60.0362L123.401 60.3244L123.547 60.7805L123.319 61.0515L123.082 61.2064L122.526 60.9095L121.807 60.6643L121.351 60.5482L121.088 60.019L120.412 59.7566L119.99 59.6576L119.783 59.7092L119.189 59.5027L119.176 59.9588L118.935 60.1308L118.788 60.3201L118.448 60.5482L118.513 60.7934L118.474 61.0429L118.233 61.1806L118.409 61.7054L118.444 61.9807L118.366 62.4669L118.409 62.7379L118.349 63.0649L118.405 63.4391L118.207 63.6887L118.517 64.1232L118.543 64.377L118.728 64.7083L118.965 64.6007L119.378 64.876L119.611 65.2503L120.429 65.5084L120.726 65.8311L121.084 65.6117L121.596 65.2847L123.68 66.4248L125.778 67.5648L125.773 67.3153H126.368L126.325 66.1236L126.23 63.9339L126.105 61.8173L125.924 61.3354L126.027 60.9698L125.933 60.7159L126.092 60.432Z" fill="#FDFDFE" stroke="#FDFDFE" stroke-width="0.124823" stroke-linejoin="round"/>
<path d="M127.62 97.3998L127.727 97.2105L128.016 97.1158L128.119 96.9222L128.296 96.634L128.132 96.4533L127.925 96.2726L127.68 96.3931L127.387 96.6254L127.09 96.9997L127.434 97.4557L127.62 97.3998Z" fill="#FDFDFE" stroke="#FDFDFE" stroke-width="0.124823" stroke-linejoin="round"/>
<path d="M112.372 58.2853L112.157 58.281L111.644 58.1476L111.171 58.1863L110.878 57.9325L110.512 57.9282L110.348 58.2982L110.004 58.922L109.629 59.1672L109.121 59.4426L108.789 59.8426L108.712 60.1567L108.505 60.6643L108.613 61.4043L108.178 61.899L107.919 62.0582L107.506 62.4626L107.032 62.5314L106.769 62.7595L106.761 62.7681L106.421 63.3747L106.072 63.5941L105.878 63.9597L105.857 64.2781L105.71 64.6266L105.538 64.7212L105.241 65.0998L105.051 65.5214L105.081 65.7193L104.905 66.0333L104.702 66.1925L104.668 66.4678L104.677 66.4722L105.839 66.4248L105.908 66.2097L106.124 65.943L106.313 65.1213L107.041 64.476L107.299 63.7274L107.459 63.6801L107.639 63.2155L108.07 63.1552L108.251 63.2327H108.483L108.651 63.095L108.966 63.0778L108.961 62.7552H109.039L109.048 62.0539L109.874 61.6151L110.383 61.5248L110.796 61.3656L110.994 61.0644L111.588 60.8321L111.614 60.3933L111.903 60.3417L112.135 60.1223L112.79 60.0233L112.885 59.791L112.751 59.6663L112.583 59.0339L112.553 58.6725L112.372 58.2853Z" fill="#FDFDFE" stroke="#FDFDFE" stroke-width="0.124823" stroke-linejoin="round"/>
<path d="M139.573 87.2856L139.465 86.8941L139.336 86.6403L139.168 86.3865L138.983 86.6532L138.952 87.0103L138.647 87.4233L138.427 87.3501L138.483 87.6083L138.311 87.9051L137.863 88.2708L137.549 88.6106L137.316 88.6193L137.118 88.7268L136.821 88.8473L136.562 88.8731L136.468 89.2474L136.265 89.5829L136.274 90.1293L136.347 90.5036L136.45 90.7875L136.377 91.1661L136.102 91.6178L136.089 91.8157L135.843 91.9189L135.723 92.3492L135.74 92.7751L135.886 93.2483L135.882 93.7774L135.994 94.0915L136.386 94.3066L136.666 94.4572L137.135 94.2077L137.561 94.0657L137.854 93.373L138.117 92.547L138.518 91.4199L138.832 90.5982L139.086 89.9056L139.155 89.4022L139.306 89.2646L139.37 89.0107L139.297 88.5719L139.409 88.3955L139.56 88.744L139.663 88.5676L139.736 88.2837L139.616 88.0041L139.573 87.2856Z" fill="#FDFDFE" stroke="#FDFDFE" stroke-width="0.124823" stroke-linejoin="round"/>
<path d="M115.65 67.8187L115.077 67.8746L115.069 67.496L114.832 67.4014L114.509 67.2293L114.384 66.954L112.644 65.6548L110.922 64.3555L110.138 64.3641L110.358 66.9325L110.59 69.5008L110.676 69.5783L110.56 69.9913L108.471 69.9999L108.39 70.1332L108.191 70.0945L107.894 70.2107L107.533 70.0472L107.369 70.0601L107.274 70.4129L107.098 70.5204L107.115 70.8904L107.214 71.2303L107.408 71.398L107.451 71.626L107.425 71.8153L107.451 72.0304H107.537L107.675 71.953L107.761 71.9702L107.903 72.1208L108.127 72.1681L108.269 72.039L108.441 71.9616L108.566 71.8799L108.669 71.8928L108.786 72.0261L108.846 72.1896L109.061 72.4391L108.954 72.5897L108.928 72.7833L109.04 72.7274L109.109 72.7962L109.079 72.9726L109.238 73.1447L109.307 73.0887L109.449 73.1791L109.854 73.1834L109.953 73.0113L110.043 73.0242L110.194 72.9554L110.271 73.2092L110.396 73.1361L110.612 73.0457L110.577 72.7016L110.724 72.4477L110.711 72.2455L111.128 71.7551L111.206 71.3464L111.352 71.2001L111.602 71.2819L111.822 71.1614L111.895 71.0065L112.3 70.7398L112.399 70.5548L112.885 70.3053L113.174 70.2236L113.303 70.3354H113.639L113.971 70.3096L114.164 70.0988L114.875 70.0472L115.336 69.9525L115.379 69.5869L115.663 69.1911L115.65 67.8187Z" fill="#FDFDFE" stroke="#FDFDFE" stroke-width="0.124823" stroke-linejoin="round"/>
<path d="M134.632 85.625L134.559 85.3583L134.129 85.7067L133.551 85.9348L133.237 85.9262L133.043 86.1068L132.682 86.1197L132.539 86.1972L131.919 86.0294L131.717 86.0509L131.575 86.6145L131.635 87.2942H131.665L131.846 87.4835L132.044 87.9137L132.057 88.6795L131.825 88.8085L131.648 89.2215L131.325 88.8516L131.304 88.4343L131.428 88.1546L131.407 87.918L131.204 87.7674L131.062 87.8191L130.77 87.5351L129.172 88.0256L129.206 88.4515L129.232 88.6709L129.663 88.658L129.9 88.787L130.007 88.9333L130.253 88.9763L130.515 89.1656L130.481 89.9185L130.36 90.3315L130.317 90.7789L130.391 90.9553L130.317 91.3038L130.236 91.3597L130.081 91.7856L129.503 92.461L129.706 93.2999L129.814 93.7258L129.684 94.3883L129.714 94.6034L129.77 94.8702L129.796 95.1326L130.184 95.1369L130.248 94.8229L130.124 94.7841L130.098 94.5346L130.335 94.3109L130.972 93.9882L131.407 93.7904L131.635 93.5752L131.726 93.33L131.609 93.2268L131.713 92.9514L131.76 92.3664L131.665 92.3965L131.67 92.2201L131.588 91.8716L131.364 91.4199L131.433 90.994L131.652 90.8563L132.036 90.4347L132.238 90.3272L132.858 89.6862L133.461 89.3979L133.948 89.1699L134.296 88.8042L134.52 88.3912L134.697 87.9653L134.619 87.6728L134.637 86.7435L134.594 86.2187L134.632 85.625Z" fill="#FDFDFE" stroke="#FDFDFE" stroke-width="0.124823" stroke-linejoin="round"/>
<path d="M110.924 64.3555L109.025 62.9143L109.003 63.8134L107.328 63.7833L107.311 65.3063L106.828 65.3622L106.695 65.6676L106.777 66.5281L104.757 66.5238L104.641 66.7216L104.903 66.9798L105.033 67.2594L104.972 67.5562L105.028 67.8531L105.071 68.4425L104.994 69.0017L104.843 69.2943L104.882 69.6169L105.063 69.4234L105.321 69.475L105.575 69.3459L105.868 69.3416L106.113 69.5137L106.454 69.6729L106.764 70.1117L107.1 70.5204L107.276 70.4128L107.371 70.0601L107.535 70.0472L107.896 70.2106L108.193 70.0945L108.391 70.1332L108.473 69.9998L110.562 69.9912L110.678 69.5782L110.592 69.5008L110.36 66.9324L110.14 64.3641L110.924 64.3555Z" fill="#FDFDFE" stroke="#FDFDFE" stroke-width="0.124823" stroke-linejoin="round"/>
<path d="M131.464 87.5824L131.477 87.3587L131.361 87.1823L131.378 86.9242L131.236 86.4854L131.395 86.1541L131.387 85.4357L131.21 85.0528L131.227 84.9883L131.128 84.8248L130.616 84.713L130.857 84.9797L130.978 85.483L130.883 85.6465L130.767 86.1283L130.853 86.6231L130.68 86.8296L130.504 87.3802L130.771 87.5351L131.064 87.8191L131.206 87.7674L131.408 87.918L131.43 88.1546L131.305 88.4342L131.326 88.8516L131.649 89.2215L131.826 88.8085L132.059 88.6795L132.046 87.9137L131.847 87.4835L131.667 87.2942H131.636L131.641 87.3759L131.74 87.3974L131.835 87.7158L131.817 87.7889L131.641 87.5609L131.546 87.7072L131.464 87.5824Z" fill="#FDFDFE" stroke="#FDFDFE" stroke-width="0.124823" stroke-linejoin="round"/>
<path d="M125.495 89.6474L124.531 89.8927L123.277 89.8066L122.924 89.5227L120.823 89.5485L120.741 89.5915L120.435 89.3205L120.099 89.3033L119.789 89.4022L119.535 89.5184L119.561 89.9744L119.97 90.5552L120.078 90.9295L120.336 91.6436L120.59 92.1341L120.788 92.3793L120.844 92.7062L120.84 93.4161L120.986 94.3324L121.098 94.7669L121.193 95.3434L121.378 95.7779L121.736 96.2296L121.994 95.9371L122.188 96.0963L122.261 96.3544L122.485 96.3974L122.799 96.5093L123.075 96.4662L123.54 96.1608L123.635 93.9624L123.695 92.2244L124.203 92.2029L124.285 90.082L124.673 90.0648L125.478 89.8539L125.667 90.0992L126.008 89.8669H126.163L126.46 89.7335V89.6819L126.257 89.5485L125.922 89.5141L125.495 89.6474Z" fill="#FDFDFE" stroke="#FDFDFE" stroke-width="0.124823" stroke-linejoin="round"/>
<path d="M120.428 65.5085L119.609 65.2503L117.865 66.3861L116.38 67.5519L115.652 67.8187L115.665 69.191L115.381 69.5868L115.337 69.9525L114.877 70.0472L114.166 70.0988L113.972 70.3096L113.641 70.3354L113.598 70.6236L113.667 70.8947L113.964 71.2818L113.981 71.5701L114.584 71.7035L114.571 72.1122L114.747 71.9401L114.933 71.9358L115.333 72.2799L115.368 71.7465L115.518 71.5099L115.587 71.1657L115.725 71.0366L116.285 70.9678L116.81 71.1872L117.008 71.4152L117.271 71.4238L117.521 71.2775L118.154 71.583L118.421 71.5701L118.727 71.3163L119.032 71.3335L119.183 71.2517L119.463 71.2862L119.868 71.4582L120.273 71.127L120.397 71.1528L120.759 71.8024L120.854 71.7895L120.871 71.6002L121.018 71.5658L121.065 71.2862L120.729 71.2732L120.725 70.8904L120.505 70.6667L120.716 69.8837L121.371 69.3244L121.379 68.55L121.552 67.3411L121.659 67.083L121.44 66.8808L121.427 66.6915L121.229 66.5367L121.082 65.6117L120.725 65.8311L120.428 65.5085Z" fill="#FDFDFE" stroke="#FDFDFE" stroke-width="0.124823" stroke-linejoin="round"/>
<path d="M120.854 71.7895L120.759 71.8024L120.397 71.1528L120.273 71.127L119.868 71.4582L119.463 71.2862L119.183 71.2517L119.032 71.3335L118.727 71.3163L118.421 71.5701L118.154 71.583L117.521 71.2776L117.271 71.4238L117.008 71.4152L116.81 71.1872L116.285 70.9678L115.725 71.0366L115.587 71.1657L115.518 71.5099L115.368 71.7465L115.333 72.2799L115.312 72.4778L115.432 72.8306L115.329 73.0715L115.385 73.2307L115.131 73.5964L114.971 73.7814L114.872 74.1556L114.885 74.5342L114.859 75.4936H115.32L115.716 75.4893L116.087 75.8808L116.263 76.311L116.543 76.681L116.965 76.6939L117.168 76.5605L117.366 76.5949L117.913 76.3798L118.046 75.9582L118.292 75.3817L118.447 75.3774L118.757 75.029L118.955 75.0204L119.252 75.2656L119.609 75.0634L119.657 74.8182L119.773 74.5772L119.855 74.2761L120.13 74.0309L120.234 73.6136L120.346 73.4802L120.415 73.1705L120.548 72.7919L120.987 72.3316L121.009 72.1337L121.065 72.0261L120.854 71.7895Z" fill="#FDFDFE" stroke="#FDFDFE" stroke-width="0.124823" stroke-linejoin="round"/>
<path d="M129.456 79.8946L129.137 80.0796L129.012 80.0194L128.861 80.1828L128.84 80.5399L128.767 80.5829L128.715 80.9099L129.034 80.9572L129.197 80.6173L129.477 80.6561L129.628 80.5786L129.662 80.2302L129.456 79.8946Z" fill="#FDFDFE" stroke="#FDFDFE" stroke-width="0.124823" stroke-linejoin="round"/>
<path d="M109.037 62.7552H108.96L108.964 63.0778L108.65 63.095L108.482 63.2327H108.249L108.069 63.1553L107.638 63.2155L107.457 63.6801L107.298 63.7274L107.039 64.476L106.312 65.1213L106.122 65.943L105.907 66.2097L105.838 66.4248L104.675 66.4722L104.666 66.4679L104.641 66.7217L104.757 66.5238L106.777 66.5281L106.695 65.6677L106.828 65.3622L107.311 65.3063L107.328 63.7834L109.003 63.8135L109.025 62.9143L109.037 62.7982V62.7552Z" fill="#FDFDFE" stroke="#FDFDFE" stroke-width="0.124823" stroke-linejoin="round"/>
<path d="M132.559 69.5223L132.589 69.1265L132.744 68.9458L133.123 68.8469L133.368 68.507L133.071 68.2876L132.864 68.1413L132.636 67.4315L132.529 66.8163L132.636 66.7087L132.434 66.1237H130.393H128.394H126.323L126.366 67.3153H125.772L125.776 67.5649L125.879 69.9267L125.427 69.888L125.203 70.3268L125.074 70.6925L125.186 70.8301L125.023 71.0151L125.087 71.2603L124.958 71.5099L124.906 71.725L125.091 71.6905L125.203 71.9229L125.216 72.267L125.414 72.4434L125.41 72.5897L125.475 72.8435L125.785 73.2135L125.789 73.4587L125.707 73.7039L125.746 73.8889L125.927 74.061L125.97 74.0911L126.134 74.0223L126.31 73.9104L126.435 73.3813L126.573 73.1059L126.952 73.0242L127.042 73.1877L127.322 73.5318L127.464 73.5835L127.654 73.4845L128.028 73.5017L128.106 73.6265H128.627L128.64 73.5017L128.911 73.3899L128.959 73.2178L129.157 73.093L129.605 73.4415L129.872 73.3813L130.121 72.9511L130.401 72.6241L130.345 72.267L130.216 72.0949L130.53 72.0605L130.561 71.9315L130.806 71.9702L130.754 72.409L130.828 72.8392L131.107 73.0758L131.172 73.278V73.5749L131.245 73.5878L131.241 73.5146L131.383 72.8908L131.624 72.7273L131.672 72.4821L131.878 72.0261L132.184 71.7336L132.378 71.1485L132.438 70.6365L132.374 70.3956L132.559 69.5223Z" fill="#FDFDFE" stroke="#FDFDFE" stroke-width="0.124823" stroke-linejoin="round"/>
<path d="M131.171 73.278L131.106 73.0758L130.826 72.8392L130.753 72.409L130.805 71.9702L130.559 71.9315L130.529 72.0605L130.215 72.0949L130.344 72.267L130.4 72.6241L130.12 72.9511L129.87 73.3813L129.603 73.4415L129.155 73.093L128.957 73.2178L128.91 73.3899L128.639 73.5017L128.626 73.6265H128.105L128.027 73.5017L127.653 73.4845L127.463 73.5835L127.321 73.5318L127.041 73.1877L126.951 73.0242L126.572 73.1059L126.434 73.3813L126.309 73.9104L126.132 74.0223L125.969 74.0911L126.33 74.3234L126.623 74.56L126.628 74.7536L126.985 75.0634L127.209 75.3215L127.347 75.6786L127.743 75.9152L127.829 76.1045L128.152 76.5949L128.389 76.668L128.527 76.5691L128.772 76.6078L129.065 76.4831L129.19 76.7369L129.659 77.1327L129.875 76.9692L130.211 77.1026L130.633 76.9606L131.003 76.9649L131.322 76.6896L131.64 76.3325L131.989 75.941L131.67 75.2957L131.425 75.158L131.33 74.9171L131.059 74.6289L130.736 74.5858L130.908 74.246L131.184 74.2331L131.261 74.0524L131.244 73.5878L131.171 73.5749V73.278Z" fill="#FDFDFE" stroke="#FDFDFE" stroke-width="0.124823" stroke-linejoin="round"/>
<path d="M107.1 70.5204L106.764 70.1117L106.454 69.6729L106.114 69.5137L105.868 69.3416L105.576 69.3459L105.321 69.475L105.063 69.4234L104.882 69.6169L104.753 69.9224L104.49 70.3397L104.258 70.4515L104.516 70.6624L104.723 71.127L105.291 71.1098L105.412 70.9678L105.576 70.9592L105.778 71.1055L105.942 71.1098L106.114 71.0108L106.217 71.1829L105.989 71.3163L105.765 71.3034L105.541 71.1786L105.347 71.3163L105.253 71.3206L105.123 71.4023L104.65 71.3937L104.727 71.8497L105.007 71.7508L105.179 71.7723L105.321 71.7035L106.286 71.7293L106.536 71.7336L106.911 71.8798L107.027 71.8669L107.066 71.7981L107.35 71.8454L107.427 71.8153L107.453 71.626L107.41 71.398L107.216 71.2302L107.117 70.8904L107.1 70.5204Z" fill="#FDFDFE" stroke="#FDFDFE" stroke-width="0.124823" stroke-linejoin="round"/>
<path d="M108.076 74.2159L107.934 74.2503L107.938 74.0309L107.857 73.876L107.874 73.7039L107.762 73.4544L107.62 73.2393H107.202L107.077 73.3512L106.935 73.3641L106.845 73.4931L106.78 73.6566L106.5 73.919L106.56 74.3622L106.651 74.5773L106.922 74.8956L107.297 75.1365L107.439 75.1796L107.564 74.9903L107.594 74.8182L107.831 74.4955L108.076 74.2159Z" fill="#FDFDFE" stroke="#FDFDFE" stroke-width="0.124823" stroke-linejoin="round"/>
<path d="M129.72 94.6034L129.47 94.4916L129.32 94.5346L129.259 94.7067L129.104 94.9304L129.096 95.1369L129.38 95.4595L129.681 95.395L129.802 95.1326L129.776 94.8702L129.72 94.6034Z" fill="#FDFDFE" stroke="#FDFDFE" stroke-width="0.124823" stroke-linejoin="round"/>
<path d="M125.775 67.5648L123.678 66.4248L121.593 65.2847L121.081 65.6117L121.227 66.5366L121.425 66.6915L121.438 66.8808L121.658 67.083L121.55 67.3411L121.378 68.55L121.369 69.3244L120.715 69.8837L120.504 70.6666L120.724 70.8903L120.728 71.2732L121.064 71.2861L121.016 71.5658L121.227 71.9486L121.27 72.3401L121.253 72.7359L121.546 73.278L121.253 73.2737L121.107 73.3124L120.866 73.2565L120.758 73.5361L121.068 73.8846L121.296 73.9835L121.374 74.2288L121.542 74.6418L121.464 74.8009L121.895 74.7579L121.99 74.603L122.08 74.6159L122.209 74.7493L122.868 74.5213L123.088 74.289L123.359 74.0825L123.307 73.8717L123.454 73.8201L123.962 73.8545L124.449 73.5791L124.819 72.9295L125.077 72.6886L125.409 72.5897L125.413 72.4434L125.215 72.267L125.202 71.9228L125.09 71.6905L124.905 71.7249L124.957 71.5098L125.086 71.2603L125.021 71.0151L125.185 70.8301L125.073 70.6924L125.202 70.3268L125.426 69.888L125.878 69.9267L125.775 67.5648Z" fill="#FDFDFE" stroke="#FDFDFE" stroke-width="0.124823" stroke-linejoin="round"/>
<path d="M113.918 72.6757L113.457 72.6628L113.418 72.8478L113.638 73.1533V73.5878L113.689 74.0567L113.818 74.2718L113.702 74.8096L113.745 75.1021L113.883 75.4807L114.004 75.6915L114.426 75.5624L114.296 75.1537L114.318 73.7857L114.21 73.6652L114.193 73.3727L114.008 73.1619L113.849 72.9855L113.918 72.6757Z" fill="#FDFDFE" stroke="#FDFDFE" stroke-width="0.124823" stroke-linejoin="round"/>
<path d="M119.186 59.5028L118.992 59.4081L118.854 59.1242L118.596 59.1156L118.492 58.7886L118.807 58.4875L118.854 57.9669L118.678 57.8164L118.669 57.5367L118.906 57.2356L118.867 57.1194L118.458 57.3431L118.462 57.0377L118.113 56.9645L117.588 57.2098L117.493 57.5195L117.592 58.096L117.489 58.595L117.188 58.9306L117.243 59.378L117.661 59.7351L117.67 59.877L117.984 60.118L118.23 61.1806L118.471 61.0429L118.51 60.7934L118.445 60.5482L118.785 60.3202L118.932 60.1309L119.173 59.9588L119.186 59.5028Z" fill="#FDFDFE" stroke="#FDFDFE" stroke-width="0.124823" stroke-linejoin="round"/>
<path d="M129.637 79.8215L129.452 79.8946L129.659 80.2302L129.624 80.5786L129.474 80.6561L129.5 80.8884L129.612 81.0261L129.616 81.2196L129.487 81.3444L129.276 81.6542L129.082 81.8693L129.03 81.8779L129 82.1317L129.099 82.2177L129.078 82.4716L129.177 82.7082L129.052 82.9362L129.469 83.3406L129.504 83.7062L129.758 84.3171L129.784 84.3344L129.99 84.4333L130.322 84.5366L130.615 84.7129L131.127 84.8248L131.226 84.9883L131.261 84.8721L131.528 85.1905L131.554 85.8143L131.722 86.0423L131.717 86.0509L131.92 86.0294L132.54 86.1972L132.682 86.1197L133.044 86.1068L133.237 85.9261L133.552 85.9347L134.129 85.7067L134.56 85.3582L134.37 85.2292L134.168 84.6441L133.995 84.2698L134.038 83.9859L134.013 83.8052L134.163 83.4438L134.15 83.2889L133.819 83.0738L133.793 82.7383L134.047 82.0026L133.302 81.4089L133.272 81.0648L131.373 79.8516L131.114 80.114L130.938 80.385L131.145 80.5872L130.843 80.7335L130.779 80.6647L130.473 80.7034L130.236 80.8368L130.094 80.6045L130.193 80.1871L130.214 79.8301L129.637 79.8215Z" fill="#FDFDFE" stroke="#FDFDFE" stroke-width="0.124823" stroke-linejoin="round"/>
<path d="M131.324 76.6896L131.006 76.9649L130.635 76.9606L130.213 77.1026L129.877 76.9692L129.662 77.1327L129.636 77.8253L129.847 77.9071L129.679 78.1179L129.477 78.277L129.279 78.5868L129.167 78.8621L129.141 79.3397L129.016 79.5677L129.012 80.0194L129.137 80.0796L129.455 79.8946L129.64 79.8215L130.218 79.8301L130.187 79.6021L130.433 79.2536L130.764 79.1676L130.988 79.0256L131.26 79.1418L131.285 79.1848V79.1547L131.436 78.9138L131.69 78.518L131.88 78.0834L131.643 77.4037L131.578 77.1026L131.324 76.6896Z" fill="#FDFDFE" stroke="#FDFDFE" stroke-width="0.124823" stroke-linejoin="round"/>
<path d="M123.185 99.9423L123.413 99.9294L123.736 99.7014L124.167 99.6067L124.697 99.3701L124.899 99.4002L125.209 99.3271L125.739 99.4433L125.993 99.3314L126.29 99.4174L126.368 99.254L126.626 99.2195L127.169 98.9915L127.569 98.7205L127.952 98.3634L128.573 97.7525L128.895 97.3266L129.063 97.0212L129.3 96.72L129.408 96.634L129.778 96.3328L129.929 96.0661L130.028 95.5714L130.187 95.1369L129.8 95.1326L129.679 95.395L129.378 95.4595L129.094 95.1369L129.102 94.9304L129.257 94.7067L129.318 94.5346L129.468 94.4916L129.718 94.6034L129.688 94.3883L129.817 93.7258L129.709 93.2999L129.507 92.461L129.236 92.4051L129.059 92.4739L128.814 92.3749L128.603 92.3663L127.858 92.8051L127.375 93.2483L127.186 93.6484L127.018 93.8721L126.738 93.9194L126.635 94.2033L126.574 94.3883L126.238 94.526L125.825 94.5002L125.588 94.3324L125.377 94.2592L125.119 94.3969L124.981 94.6809L124.731 94.8615L124.464 95.1283L124.098 95.1885L123.991 94.9777L124.055 94.6163L123.775 94.0484L123.637 93.9624L123.543 96.1608L123.078 96.4662L122.802 96.5092L122.488 96.3974L122.264 96.3544L122.19 96.0962L121.997 95.9371L121.738 96.2296L122.07 96.9997V97.004L122.302 97.5073L122.6 98.058L122.591 98.514L122.423 98.6216L122.561 99.0216L122.539 99.3701L122.595 99.5336L122.625 99.4519L122.823 99.7186L122.987 99.7272L123.185 99.9423ZM127.621 97.3998L127.436 97.4557L127.091 96.9997L127.388 96.6254L127.681 96.3931L127.927 96.2726L128.133 96.4533L128.297 96.634L128.12 96.9222L128.017 97.1158L127.728 97.2105L127.621 97.3998Z" fill="#FDFDFE" stroke="#FDFDFE" stroke-width="0.124823" stroke-linejoin="round"/>
<path d="M129.599 84.3257L129.423 84.2784L129.453 84.1493L129.362 84.1235L128.656 84.2225L128.514 84.2956L128.359 84.6742L128.471 84.9366L128.363 85.6422L128.281 86.2402L128.419 86.3434L128.781 86.5757L128.927 86.4682L128.953 87.1092L128.553 87.1049L128.346 86.7779L128.161 86.5241L127.765 86.4424L127.653 86.1283L127.33 86.3176L126.912 86.2316L126.744 85.9648L126.412 85.9089L126.167 85.9218L126.141 85.7368L125.96 85.7239L126.012 85.9089L125.947 86.1971L126.034 86.4768L125.947 86.7005L125.99 86.9027L124.901 86.8984L124.832 88.7913L125.168 89.2774L125.495 89.6474L125.922 89.514L126.257 89.5485L126.46 89.6818V89.7334L126.555 89.7765L127.132 89.841L127.295 89.9098L127.472 89.8969L127.773 89.5097L128.243 89.0193L128.432 88.9763L128.505 88.7698L128.807 88.5332L129.207 88.4514L129.173 88.0255L130.771 87.5351L130.504 87.3802L130.68 86.8295L130.852 86.623L130.766 86.1283L130.883 85.6465L130.977 85.483L130.857 84.9796L130.616 84.7129L130.323 84.5365L129.991 84.4333L129.784 84.3343L129.759 84.3171L129.797 84.4161L129.711 84.4505L129.599 84.3257Z" fill="#FDFDFE" stroke="#FDFDFE" stroke-width="0.124823" stroke-linejoin="round"/>
<path d="M129.505 92.461L130.082 91.7856L130.237 91.3597L130.318 91.3038L130.392 90.9553L130.318 90.7789L130.362 90.3315L130.482 89.9185L130.517 89.1656L130.254 88.9763L130.008 88.9333L129.901 88.787L129.664 88.658L129.233 88.6709L129.207 88.4515L128.807 88.5332L128.505 88.7698L128.432 88.9763L128.243 89.0193L127.773 89.5098L127.472 89.897L127.295 89.9099L127.132 89.841L126.555 89.7765L126.736 90.254L126.835 90.3573L126.985 90.7015L127.545 91.3554L127.765 91.4199L127.756 91.6307L127.89 92.0093L128.286 92.0996L128.6 92.3664L128.811 92.375L129.057 92.4739L129.233 92.4051L129.505 92.461Z" fill="#FDFDFE" stroke="#FDFDFE" stroke-width="0.124823" stroke-linejoin="round"/>
<path d="M136.548 73.0027L136.302 72.7532L136.195 72.508L136.018 72.3961L135.837 72.7145L135.73 72.9253L135.936 73.2565L136.135 73.5405L136.341 73.7556L138.077 74.4611L138.52 74.4568L137.078 76.2422L136.393 76.268L135.932 76.6896L135.596 76.6982L135.454 76.8875L135.002 77.5629L135.019 79.7312L135.329 80.2216L135.446 80.0796L135.57 79.7656L136.147 79.0471L136.638 78.5911L137.418 78.0017L137.939 77.5199L138.546 76.7068L138.981 76.04L139.412 75.171L139.713 74.4095L139.946 73.7427L140.071 73.1017L140.174 72.8865L140.157 72.5725L140.191 72.2283L140.17 72.0605L139.972 72.0648L139.735 72.267L139.459 72.3273L139.222 72.4176L139.054 72.4262L138.757 72.4477L138.576 72.5596L138.318 72.5983L137.866 72.7833L137.297 72.8521L136.811 73.0027H136.548Z" fill="#FDFDFE" stroke="#FDFDFE" stroke-width="0.124823" stroke-linejoin="round"/>
</g>
<path fill-rule="evenodd" clip-rule="evenodd" d="M89.4565 43.4862C89.4188 43.5205 89.3813 43.5548 89.3438 43.5893L89.4565 43.712V108.766H89.7353C96.0019 114.382 103.75 118.086 112.061 119.433C120.486 120.799 129.126 119.685 136.929 116.227C144.732 112.769 151.361 107.116 156.008 99.9572C160.655 92.7984 163.12 84.4426 163.102 75.9079C163.084 67.3731 160.584 59.0277 155.907 51.8885C151.23 44.7493 144.578 39.1243 136.761 35.699C128.943 32.2737 120.299 31.1959 111.879 32.5968C103.634 33.9688 95.9543 37.6603 89.7353 43.2341H89.4565V43.4862ZM98.8182 47.3459V104.654C103.17 107.735 108.184 109.795 113.484 110.654C120.206 111.744 127.1 110.855 133.326 108.096C139.552 105.337 144.841 100.827 148.548 95.1149C152.256 89.4031 154.223 82.7362 154.209 75.9265C154.194 69.1168 152.2 62.4582 148.468 56.7619C144.736 51.0657 139.429 46.5776 133.191 43.8447C126.954 41.1117 120.057 40.2517 113.339 41.3695C108.091 42.2428 103.13 44.294 98.8182 47.3459Z" fill="#FDFDFE"/>
<defs>
<clipPath id="clip0_1170_11846">
<rect width="43.0639" height="43.0638" fill="white" transform="translate(100.691 56.9645)"/>
</clipPath>
</defs>
</svg>
