<svg width="39" height="56" viewBox="0 0 39 56" fill="none" xmlns="http://www.w3.org/2000/svg">
<g clip-path="url(#clip0_338_2295)">
<path d="M19.3823 28C19.3823 22.8979 23.5184 18.7617 28.6206 18.7617C33.7227 18.7617 37.859 22.8979 37.859 28C37.859 33.1022 33.7227 37.2383 28.6206 37.2383C23.5184 37.2383 19.3823 33.1022 19.3823 28Z" fill="#5B5E5F"/>
<path d="M0.905762 46.4766C0.905762 41.3745 5.04189 37.2383 10.1441 37.2383H19.3824V46.4766C19.3824 51.5789 15.2463 55.7149 10.1441 55.7149C5.04189 55.7149 0.905762 51.5789 0.905762 46.4766Z" fill="#5B5E5F"/>
<path d="M19.3823 0.285118V18.7617H28.6206C33.7229 18.7617 37.859 14.6256 37.859 9.52343C37.859 4.42125 33.7229 0.285118 28.6206 0.285118H19.3823Z" fill="#5B5E5F"/>
<path d="M0.905762 9.52343C0.905762 14.6256 5.04189 18.7617 10.1441 18.7617H19.3824V0.285114H10.1441C5.04189 0.285114 0.905762 4.42124 0.905762 9.52343Z" fill="#373939"/>
<path d="M0.905762 28C0.905762 33.1022 5.04189 37.2383 10.1441 37.2383H19.3824V18.7617H10.1441C5.04189 18.7617 0.905762 22.8979 0.905762 28Z" fill="#5B5E5F"/>
</g>
<defs>
<clipPath id="clip0_338_2295">
<rect width="37.3333" height="56" fill="white" transform="translate(0.715576)"/>
</clipPath>
</defs>
</svg>
