<svg width="40" height="40" viewBox="0 0 40 40" fill="none" xmlns="http://www.w3.org/2000/svg">
<path d="M0 16C0 7.16344 7.16344 0 16 0H24C32.8366 0 40 7.16344 40 16V24C40 32.8366 32.8366 40 24 40H0V16Z" fill="#DDCFE4"/>
<path d="M13.3999 11.6C11.7431 11.6 10.3999 12.9431 10.3999 14.6V25.4C10.3999 27.0568 11.7431 28.4 13.3999 28.4H17.5999V27.2H13.3999C12.4058 27.2 11.5999 26.3941 11.5999 25.4V17H16.4856C16.9782 17 17.4493 16.7981 17.7891 16.4414L19.5428 14.6H26.5999C27.594 14.6 28.3999 15.4059 28.3999 16.4V21.2C28.8206 21.2 29.2245 21.2722 29.5999 21.4048V16.4C29.5999 14.7431 28.2567 13.4 26.5999 13.4H19.5999L17.6799 11.96C17.3683 11.7263 16.9894 11.6 16.5999 11.6H13.3999ZM11.5999 14.6C11.5999 13.6059 12.4058 12.8 13.3999 12.8H16.5999C16.7297 12.8 16.856 12.8421 16.9599 12.92L18.4332 14.025L16.9201 15.6138C16.8069 15.7327 16.6498 15.8 16.4856 15.8H11.5999V14.6Z" fill="#8E44AD"/>
<path d="M22.4 20.6C22.4 20.2687 22.6687 20 23 20H26.6C26.9314 20 27.2 20.2687 27.2 20.6V22.4H28.4C29.7256 22.4 30.8 23.4745 30.8 24.8V28.4C30.8 29.7255 29.7256 30.8 28.4 30.8H21.2C19.8746 30.8 18.8 29.7255 18.8 28.4V24.8C18.8 23.4745 19.8746 22.4 21.2 22.4H22.4V20.6ZM26 21.2H23.6V22.4H26V21.2Z" fill="#8E44AD"/>
</svg>
