<svg width="40" height="40" viewBox="0 0 40 40" fill="none" xmlns="http://www.w3.org/2000/svg">
<path d="M0 16C0 7.16344 7.16344 0 16 0H24C32.8366 0 40 7.16344 40 16V24C40 32.8366 32.8366 40 24 40H0V16Z" fill="#ECC6DC"/>
<path d="M15.94 22.5099C15.32 22.2799 14.77 21.8299 14.42 21.1899C13.62 19.7299 14.11 17.8299 15.53 16.9499L17.87 15.4999C19.28 14.6199 21.1 15.0999 21.9 16.5499C22.7 18.0099 22.21 19.9099 20.79 20.7899L20.48 21.0099" stroke="#D71887" stroke-width="1.5" stroke-linecap="round" stroke-linejoin="round"/>
<path d="M24.11 17.45C24.73 17.68 25.28 18.1299 25.63 18.7699C26.43 20.2299 25.94 22.1299 24.52 23.0099L22.1799 24.4599C20.7699 25.3399 18.9499 24.8599 18.1499 23.4099C17.35 21.9499 17.84 20.05 19.2599 19.17L19.57 18.95" stroke="#D71887" stroke-width="1.5" stroke-linecap="round" stroke-linejoin="round"/>
<path d="M20 30C25.5228 30 30 25.5228 30 20C30 14.4771 25.5228 10 20 10C14.4771 10 10 14.4771 10 20C10 25.5228 14.4771 30 20 30Z" stroke="#D71887" stroke-width="1.5" stroke-linecap="round" stroke-linejoin="round"/>
</svg>
