<svg width="141" height="44" viewBox="0 0 141 44" fill="none" xmlns="http://www.w3.org/2000/svg">
<path d="M50.5346 34.1016C47.1527 34.1016 44.5032 33.1695 42.5859 31.3055C40.6686 29.4415 39.71 26.8851 39.71 23.6364C39.71 21.5327 40.1227 19.6954 40.9482 18.1243C41.7737 16.5532 42.9187 15.3282 44.3833 14.4495C45.8745 13.5707 47.6054 13.1314 49.5759 13.1314C51.5198 13.1314 53.1442 13.5441 54.449 14.3696C55.7538 15.1951 56.7391 16.3534 57.4048 17.8447C58.0972 19.3359 58.4433 21.0801 58.4433 23.0772V24.3953H43.7442V21.7591H54.8884L54.2094 22.3183C54.2094 20.4543 53.8099 19.0296 53.0111 18.0444C52.2388 17.0591 51.1071 16.5665 49.6159 16.5665C47.9649 16.5665 46.6867 17.1523 45.7813 18.324C44.9026 19.4956 44.4632 21.1333 44.4632 23.237V23.7563C44.4632 25.9398 44.9958 27.5775 46.0609 28.6693C47.1527 29.7344 48.6839 30.267 50.6544 30.267C51.7994 30.267 52.8646 30.1205 53.8499 29.8276C54.8618 29.5081 55.8204 29.0021 56.7258 28.3098L58.2037 31.665C57.245 32.4373 56.1 33.0364 54.7686 33.4625C53.4371 33.8885 52.0258 34.1016 50.5346 34.1016Z" fill="#FDFDFE"/>
<path d="M62.6714 42.3299V18.5636C62.6714 17.7381 62.6448 16.8993 62.5915 16.0472C62.5383 15.1951 62.4584 14.3563 62.3519 13.5308H67.185L67.6244 17.7648H67.185C67.5844 16.3534 68.4232 15.235 69.7014 14.4095C71.0062 13.5574 72.5108 13.1314 74.215 13.1314C75.9991 13.1314 77.5569 13.5574 78.8884 14.4095C80.2198 15.235 81.2583 16.4333 82.0039 18.0044C82.7495 19.5489 83.1223 21.4129 83.1223 23.5965C83.1223 25.78 82.7495 27.6574 82.0039 29.2285C81.2583 30.7996 80.2198 32.0112 78.8884 32.8633C77.5569 33.6888 75.9991 34.1016 74.215 34.1016C72.5374 34.1016 71.0595 33.6888 69.7813 32.8633C68.5031 32.0378 67.651 30.9327 67.2249 29.548H67.6643V42.3299H62.6714ZM72.817 30.267C74.4147 30.267 75.6929 29.7211 76.6515 28.6293C77.6102 27.5109 78.0895 25.8333 78.0895 23.5965C78.0895 21.3597 77.6102 19.6954 76.6515 18.6036C75.6929 17.5118 74.4147 16.9659 72.817 16.9659C71.2459 16.9659 69.981 17.5118 69.0224 18.6036C68.0637 19.6954 67.5844 21.3597 67.5844 23.5965C67.5844 25.8333 68.0637 27.5109 69.0224 28.6293C69.981 29.7211 71.2459 30.267 72.817 30.267Z" fill="#FDFDFE"/>
<path d="M87.4409 33.7021V4.30389H92.4338V33.7021H87.4409Z" fill="#FDFDFE"/>
<path d="M106.963 34.1016C104.886 34.1016 103.088 33.6755 101.571 32.8234C100.053 31.9712 98.8677 30.7596 98.0156 29.1885C97.1901 27.6174 96.7773 25.7534 96.7773 23.5965C96.7773 21.4395 97.1901 19.5888 98.0156 18.0444C98.8677 16.4733 100.053 15.2617 101.571 14.4095C103.088 13.5574 104.886 13.1314 106.963 13.1314C109.04 13.1314 110.837 13.5574 112.355 14.4095C113.9 15.2617 115.085 16.4733 115.91 18.0444C116.762 19.5888 117.188 21.4395 117.188 23.5965C117.188 25.7534 116.762 27.6174 115.91 29.1885C115.085 30.7596 113.9 31.9712 112.355 32.8234C110.837 33.6755 109.04 34.1016 106.963 34.1016ZM106.963 30.267C108.534 30.267 109.785 29.7211 110.718 28.6293C111.65 27.5109 112.116 25.8333 112.116 23.5965C112.116 21.3597 111.65 19.6954 110.718 18.6036C109.785 17.5118 108.534 16.9659 106.963 16.9659C105.392 16.9659 104.14 17.5118 103.208 18.6036C102.276 19.6954 101.81 21.3597 101.81 23.5965C101.81 25.8333 102.276 27.5109 103.208 28.6293C104.14 29.7211 105.392 30.267 106.963 30.267Z" fill="#FDFDFE"/>
<path d="M120.705 42.7692L119.546 38.8149C120.798 38.5486 121.85 38.2423 122.702 37.8962C123.554 37.55 124.26 37.0973 124.819 36.5381C125.378 35.9789 125.844 35.2599 126.217 34.3812L127.215 32.0245L127.095 33.9817L118.308 13.5308H123.62L129.931 29.2684H128.773L135.124 13.5308H140.157L130.97 34.8205C130.358 36.2585 129.692 37.4435 128.973 38.3755C128.254 39.3341 127.482 40.093 126.656 40.6522C125.831 41.2381 124.925 41.6908 123.94 42.0103C122.955 42.3299 121.876 42.5828 120.705 42.7692Z" fill="#FDFDFE"/>
<g clip-path="url(#clip0_1304_16382)">
<path d="M16.3362 25.3584L15.561 25.3541L15.4685 25.3907L15.3931 25.3842L15.2833 25.4251L15.2596 25.4832L15.3888 25.6703L15.4405 25.8703L15.518 26.1586L15.4362 26.2769L15.4232 26.3371L15.4857 26.5157L15.5524 26.6963L15.6299 26.8039L15.6429 26.9717L15.6127 27.1932L15.5266 27.3245L15.3737 27.5202L15.3113 27.6407L15.223 27.9095L15.2058 28.0364L15.1132 28.3096L15.0723 28.5721L15.0938 28.7592L15.2208 28.7011L15.3759 28.6516L15.5438 28.6602L15.6967 28.7958L15.7376 28.7743L16.7884 28.7613L16.9649 28.9033L17.5915 28.9463L18.0738 28.8237L17.9102 28.6387L17.7422 28.3957L17.7767 27.4492L18.3214 27.4514L18.2999 27.3503L18.343 27.2384L18.2999 27.0986L18.3322 26.9545L18.3064 26.862L18.1879 26.8448L18.0243 26.8878L17.9102 26.8813L17.8456 26.9093L17.865 26.5544L17.781 26.4447L17.7638 26.2618L17.8047 26.0811L17.753 25.9671L17.7508 25.78L17.4322 25.7822L17.4558 25.6746L17.3223 25.6768L17.3073 25.7284L17.1436 25.7391L17.0769 25.9134L17.036 25.9865L16.8917 25.9456L16.8056 25.9865L16.6312 26.0102L16.5321 25.8553L16.474 25.7585L16.3986 25.58L16.3362 25.3584ZM15.3156 25.3003L15.3242 25.1713L15.3673 25.096L15.4641 25.0336L15.3651 24.9303L15.2854 24.9798L15.1778 25.1089L15.2488 25.3326L15.3156 25.3003Z" fill="#FDFDFE" stroke="#FDFDFE" stroke-width="0.0624113" stroke-linejoin="round"/>
<path d="M20.0776 24.4442L20.0647 24.328L19.9248 24.3087L19.8429 24.4786L19.6836 24.455L19.7482 24.5905L19.7503 24.6421L19.8429 24.926V24.9389L19.8688 24.9346L19.9657 24.8271L20.0712 24.6722L20.1358 24.6098L20.1336 24.513L20.0776 24.4442Z" fill="#FDFDFE" stroke="#FDFDFE" stroke-width="0.0624113" stroke-linejoin="round"/>
<path d="M12.9948 20.14L12.7946 19.9679L12.702 19.97L12.6137 20.0561L12.5577 20.1464L12.4285 20.1722L12.3747 20.3034L12.2864 20.3379L12.252 20.4927L12.3316 20.5809L12.4242 20.6863L12.4328 20.8326L12.4867 20.8928L12.4759 21.5769L12.5405 21.7812L12.758 21.7468L12.7709 21.2671L12.7644 21.0778L12.8139 20.8907L12.8936 20.7982L13.0206 20.6153L12.9927 20.5358L13.0443 20.4153L12.984 20.2389L12.9948 20.14Z" fill="#FDFDFE" stroke="#FDFDFE" stroke-width="0.0624113" stroke-linejoin="round"/>
<path d="M12.1481 19.1677H11.9802L11.9156 19.1118L11.7713 19.1526L11.528 19.2774L11.4785 19.3699L11.2761 19.5033L11.2395 19.5807L11.1296 19.6409L11.0048 19.6001L10.9316 19.6732L10.8928 19.8775L10.6839 20.1228L10.6904 20.2239L10.6172 20.3508L10.6344 20.5229L10.7528 20.5874L10.7981 20.6863L10.9143 20.7487L11.0069 20.6756L11.1296 20.6627L11.3084 20.7401L11.2739 20.5164L11.2804 20.3465L11.7347 20.3336L11.851 20.3551L11.9349 20.3077L12.0555 20.3314L12.2859 20.3379L12.3742 20.3034L12.428 20.1722L12.5572 20.1464L12.6132 20.0561L12.6197 19.8517L12.3182 19.785L12.3096 19.6409L12.161 19.4473L12.1266 19.3118L12.1481 19.1677Z" fill="#FDFDFE" stroke="#FDFDFE" stroke-width="0.0624113" stroke-linejoin="round"/>
<path d="M18.6063 28.8882L18.559 28.8667L18.4104 28.9334H18.3329L18.1628 29.0496L18.068 28.927L17.6654 29.0324L17.4716 29.041L17.4307 30.1014L17.1766 30.1122L17.1465 30.9812L17.2154 31.0242L17.3553 31.3082L17.323 31.4888L17.3769 31.5942L17.5599 31.5641L17.6934 31.4308L17.8183 31.3404L17.8872 31.1985L18.0164 31.1296L18.1219 31.1662L18.2403 31.2501L18.447 31.263L18.615 31.1942L18.6451 31.1017L18.6968 30.9597L18.8367 30.936L18.9207 30.8242L19.0155 30.6241L19.2566 30.4026L19.6291 30.1832L19.4719 30.0498L19.2738 30.0046L19.2071 29.8153L19.2114 29.7099L19.1016 29.6777L18.8217 29.3507L18.7463 29.1786L18.6968 29.127L18.6063 28.8882Z" fill="#FDFDFE" stroke="#FDFDFE" stroke-width="0.0624113" stroke-linejoin="round"/>
<path d="M18.3119 21.0456L18.2904 21.0305L18.1999 20.9445L18.1805 20.852L18.2214 20.7294L18.2193 20.6067L18.0643 20.4218L18.032 20.2948L17.8662 20.3443L17.737 20.4648L17.5518 20.7896L17.3085 20.9273L17.0544 20.91L16.9812 20.9359L17.007 21.0413L16.8714 21.1445L16.7616 21.2607L16.4321 21.3747L16.3676 21.308L16.3223 21.3015L16.275 21.379L16.0596 21.4005L15.9283 21.7016L15.8659 21.7576L15.8486 21.9877L15.8745 22.1125L15.8551 22.2007L15.98 22.3577L16.0015 22.4631L16.1006 22.618L16.2211 22.7126L16.2341 22.8481L16.262 22.9342L16.3977 22.6588L16.5549 22.4997L16.7314 22.5513L16.9015 22.5663L16.9231 22.3598L17.0243 22.2071L17.1642 22.1125L17.3817 22.2136L17.5497 22.3233L17.7434 22.3534L17.9394 22.4115L18.0169 22.2308L18.0513 22.2071L18.1719 22.2372L18.4626 22.0888L18.5681 22.1533L18.6521 22.1426L18.6908 22.0716L18.7877 22.0458L18.9858 22.0759L19.1559 22.0845L19.2421 22.0522L19.199 21.9576L19.0009 21.8393L18.932 21.6608L18.82 21.5317L18.6413 21.3768L18.6392 21.28L18.4928 21.1617L18.3119 21.0456Z" fill="#FDFDFE" stroke="#FDFDFE" stroke-width="0.0624113" stroke-linejoin="round"/>
<path d="M10.6331 20.5229L10.5255 20.568L10.463 20.6046L10.4243 20.4777L10.3489 20.5121L10.3037 20.5057L10.2542 20.5917L10.0518 20.5895L9.9807 20.5444L9.94625 20.5723L9.89242 20.596L9.87088 20.6971L9.93117 20.8197L9.99577 21.0585L9.89672 21.0929L9.87304 21.1338L9.89242 21.1918L9.87519 21.323H9.83428L9.82136 21.4091L9.8472 21.5532L9.78906 21.6844L9.86658 21.7662L9.9484 21.7855L10.0604 21.9103L10.0668 22.0286L10.0431 22.0652L10.0216 22.3104L10.0711 22.319L10.3317 22.2093L10.5147 22.1232L10.8269 22.0716L10.9948 22.0673L11.1779 22.1254L11.2984 22.1232L11.3092 22.0049L11.1972 21.749L11.2662 21.4134L11.376 21.1639L11.3071 20.7401L11.1283 20.6627L11.0056 20.6756L10.913 20.7487L10.7968 20.6863L10.7515 20.5874L10.6331 20.5229Z" fill="#FDFDFE" stroke="#FDFDFE" stroke-width="0.0624113" stroke-linejoin="round"/>
<path d="M15.9533 20.368L15.9619 20.1701L15.9404 19.9744L15.8349 19.7829L15.7617 19.8001L15.7531 19.8948L15.8586 20.0131L15.8306 20.0669L15.8198 20.1658L15.6002 20.396L15.5334 20.5853L15.499 20.7401L15.443 20.8068L15.3913 21.0155L15.2535 21.1381L15.2126 21.2886L15.1545 21.4091L15.1308 21.5317L14.9521 21.6328L14.8035 21.5102L14.7045 21.5145L14.5494 21.6887L14.4719 21.6909L14.3492 21.9791L14.2824 22.1899L14.2803 22.2717L14.347 22.3147L14.4009 22.4481L14.5214 22.4975L14.6248 22.6954L14.586 22.9299L15.0145 22.9363L15.1394 22.917L15.2987 22.9578L15.4559 22.9191L15.4882 22.9342L15.8198 22.9471L16.033 23.0245L16.2418 23.0955L16.2612 22.9342L16.2332 22.8481L16.2203 22.7126L16.0997 22.618L16.0007 22.4631L15.9791 22.3577L15.8543 22.2007L15.8736 22.1125L15.8478 21.9877L15.865 21.7576L15.9275 21.7016L16.0588 21.4005L16.0976 21.3209L16.0136 21.1144L15.9748 20.9918L15.8607 20.9423L15.7057 20.7681L15.7595 20.6283L15.8801 20.6562L15.9533 20.6369L16.0997 20.639L15.9533 20.368Z" fill="#FDFDFE" stroke="#FDFDFE" stroke-width="0.0624113" stroke-linejoin="round"/>
<path d="M18.9858 22.0759L18.7877 22.0458L18.6908 22.0716L18.652 22.1426L18.5681 22.1533L18.4626 22.0888L18.1719 22.2372L18.0513 22.2071L18.0168 22.2308L17.9393 22.4115L17.7434 22.3534L17.5496 22.3233L17.3817 22.2136L17.1642 22.1125L17.0242 22.2071L16.923 22.3598L16.9015 22.5663L16.8864 22.747L16.8089 22.9062L16.7572 23.0912L16.7249 23.3558L16.74 23.5236L16.6969 23.6268L16.6905 23.7365L16.6603 23.8312L16.4859 23.9753L16.3654 24.128L16.2512 24.4162L16.2577 24.6615L16.1909 24.7561L16.0359 24.9024L15.8809 25.0895L15.784 25.0357L15.7668 24.9518L15.6247 24.9497L15.5342 25.0637L15.4653 25.0336L15.3684 25.096L15.3254 25.1713L15.3167 25.3003L15.25 25.3326L15.2845 25.4251L15.3943 25.3842L15.4696 25.3907L15.5622 25.3541L16.3374 25.3584L16.3998 25.5799L16.4752 25.7585L16.5333 25.8553L16.6323 26.0102L16.8068 25.9865L16.8929 25.9456L17.0371 25.9865L17.0781 25.9134L17.1448 25.7391L17.3085 25.7284L17.3235 25.6767L17.457 25.6746L17.4333 25.7821L17.752 25.78L17.7542 25.9671L17.8058 26.0811L17.7649 26.2618L17.7822 26.4447L17.8661 26.5544L17.8467 26.9093L17.9113 26.8813L18.0255 26.8878L18.1891 26.8448L18.3075 26.862L18.398 26.8684L18.4109 26.9609L18.5336 26.9545L18.6994 26.9824L18.7834 27.1158L18.9922 27.1588L19.1537 27.0642L19.2097 27.2212L19.4078 27.2621L19.5004 27.389L19.6038 27.5525L19.804 27.5546L19.7911 27.2341L19.7179 27.2879L19.537 27.1717L19.4681 27.1201L19.509 26.8211L19.5628 26.4683L19.5069 26.3371L19.5844 26.1478L19.6554 26.1113L20.0086 26.0618L20.0538 26.0747L20.0667 26.0252L19.9935 25.9456L19.9612 25.7821L19.804 25.6187L19.7157 25.4057L19.7652 25.281L19.6963 25.1132L19.748 24.6378L19.7502 24.6421L19.748 24.5905L19.6834 24.455L19.7093 24.2915L19.7459 24.27L19.7566 24.0914L19.832 24.0097L19.8341 23.7838L19.8966 23.6698L19.9095 23.4311L19.9655 23.2934L20.0645 23.1385L20.1657 23.0589L20.2497 22.9535L20.1442 22.9127L20.1571 22.5663L19.9224 22.3684L19.86 22.2415L19.7136 22.3039L19.5908 22.2846L19.5219 22.334L19.4035 22.2975L19.242 22.0522L19.1559 22.0845L18.9858 22.0759Z" fill="#FDFDFE" stroke="#FDFDFE" stroke-width="0.0624113" stroke-linejoin="round"/>
<path d="M16.9006 22.5663L16.7305 22.5513L16.5539 22.4996L16.3967 22.6588L16.2611 22.9342L16.2417 23.0955L16.0328 23.0245L15.8197 22.9471L15.4881 22.9342L15.4687 23.0654L15.5419 23.2181L15.7378 23.1944L15.8046 23.2525L15.6905 23.5988L15.8154 23.7752L15.8433 24.0075L15.8089 24.2054L15.7292 24.3452L15.4967 24.3323L15.3567 24.1904L15.3352 24.3216L15.1565 24.3581L15.066 24.4334L15.1651 24.6292L14.9648 24.7948L15.178 25.1089L15.2857 24.9798L15.3653 24.9303L15.4644 25.0336L15.5333 25.0637L15.6237 24.9497L15.7658 24.9518L15.7831 25.0357L15.8799 25.0895L16.035 24.9024L16.19 24.7561L16.2568 24.6614L16.2503 24.4162L16.3644 24.128L16.485 23.9753L16.6594 23.8311L16.6895 23.7365L16.696 23.6268L16.7391 23.5235L16.724 23.3558L16.7563 23.0912L16.808 22.9062L16.8855 22.747L16.9006 22.5663Z" fill="#FDFDFE" stroke="#FDFDFE" stroke-width="0.0624113" stroke-linejoin="round"/>
<path d="M23.337 20.198L23.2229 20.1163L23.3693 20.0453L23.3714 19.9227L23.3068 19.8302L23.2293 19.9034L23.1174 19.8775L23.0312 20.0088L22.9473 20.1486L22.971 20.2303L22.9774 20.3207L23.1238 20.325L23.1863 20.3056L23.2466 20.3572L23.337 20.198Z" fill="#FDFDFE" stroke="#FDFDFE" stroke-width="0.0624113" stroke-linejoin="round"/>
<path d="M14.1216 12.6049L13.9536 12.6221L13.8503 12.5533L13.5876 12.5554L13.3593 12.6737L13.2344 12.6286L12.8275 12.6544L12.4098 12.7081L12.1729 12.8006L12.0179 12.9254L11.7509 12.977L11.5119 13.1427L11.6023 13.3362L11.6174 13.5169L11.7014 13.8331L11.7681 13.8955L11.7208 14.0117L11.3935 14.0611L11.2772 14.1708L11.1329 14.1967L11.12 14.4161L10.8229 14.5322L10.7238 14.6828L10.5171 14.7624L10.263 14.8076L9.84963 15.027L9.84533 15.3776V15.3991L9.83887 15.4572L10.7884 16.1778L11.6497 16.8274L12.5196 17.477L12.582 17.6147L12.7435 17.7007L12.8619 17.748L12.8663 17.9373L13.1526 17.9094L13.5165 17.776L14.2594 17.1931L15.1314 16.6252L15.0151 16.438L14.8084 16.3004L14.69 16.3542L14.5974 16.1885L14.5845 16.0616L14.4295 15.8444L14.5285 15.7196L14.5005 15.5325L14.5307 15.369L14.5091 15.2335L14.5479 14.9904L14.5307 14.8527L14.4424 14.5903L14.3197 14.059L14.1625 13.9385L14.1582 13.8676L13.9493 13.689L13.9213 13.4653L14.072 13.2975L14.1237 13.048L14.0742 12.7598L14.1216 12.6049Z" fill="#FDFDFE" stroke="#FDFDFE" stroke-width="0.0624113" stroke-linejoin="round"/>
<path d="M19.2128 14.3773L18.9566 14.2913L18.7089 14.2117L18.373 14.216L18.2934 14.358L18.3407 14.4849L18.2891 14.6677L18.3795 14.9086L18.4419 15.9669L18.4893 17.0618H19.525H20.5241H21.5447L21.4973 17.0016L21.1808 16.7349L21.1614 16.5413L21.2088 16.4897L20.959 16.1605L20.8643 15.9906L20.7588 15.8293L20.5327 15.3647L20.3518 15.0657L20.2205 14.7538L20.2442 14.7258L20.4616 15.1517L20.5865 15.2851L20.6791 15.3797L20.7329 15.3281L20.7911 15.1732L20.8255 14.9495L20.8858 14.829L20.8535 14.7538L20.6705 14.3214L20.5542 14.3945L20.3561 14.3773L20.1494 14.3085L20.0999 14.4053L20.0181 14.259L19.8351 14.2203L19.6154 14.2461L19.5185 14.33L19.3334 14.4247L19.2128 14.3773Z" fill="#FDFDFE" stroke="#FDFDFE" stroke-width="0.0624113" stroke-linejoin="round"/>
<path d="M22.4159 19.0171L22.2651 18.8709L22.179 18.5977L22.0111 18.2535L21.8883 18.4234L21.6988 18.4729L21.6213 18.5633L21.6063 18.7612L21.5137 19.1978L21.546 19.3183L21.8539 19.3807L21.9249 19.1569L22.0886 19.2925L22.2393 19.2236L22.3039 19.286L22.4826 19.2882L22.7152 19.4086L22.7884 19.5119L22.9068 19.6065L23.0231 19.7807L23.1156 19.8775L23.2276 19.9034L23.3051 19.8302L23.1716 19.7399L23.0855 19.6388L22.9369 19.4667L22.7841 19.2968L22.4159 19.0171Z" fill="#FDFDFE" stroke="#FDFDFE" stroke-width="0.0624113" stroke-linejoin="round"/>
<path d="M21.9267 19.157L21.8557 19.3807L21.5478 19.3183L21.5176 19.5743L21.4207 19.8668L21.2679 20.0131L21.1645 20.2411L21.1408 20.3637L21.0202 20.4454L20.9492 20.7573L20.9513 20.7939L20.96 21.0262L20.9212 21.1165L20.7834 21.123L20.6973 21.2929L20.8588 21.3144L20.9944 21.4586L21.0418 21.579L21.1645 21.6479L21.3238 21.9705L21.4616 22.0221L21.4638 22.1878L21.5542 22.2867H21.7373L22.0753 22.5384L22.1571 22.5427L22.2196 22.5341L22.2777 22.5685L22.4543 22.5922L22.5296 22.4674L22.7686 22.3426L22.8741 22.4437H23.055L23.1261 22.3491L23.294 22.3448L23.5244 22.134L23.8668 22.1211L24.5881 21.2284L24.3663 21.2306L23.4986 20.8778L23.3952 20.7702L23.2962 20.6283L23.1928 20.4626L23.2466 20.3572L23.1864 20.3056L23.1239 20.325L22.9775 20.3207L22.971 20.2303L22.9473 20.1486L23.0313 20.0088L23.1175 19.8776L23.0249 19.7808L22.9086 19.6065L22.7902 19.5119L22.717 19.4086L22.4844 19.2882L22.3057 19.286L22.2411 19.2236L22.0904 19.2925L21.9267 19.157Z" fill="#FDFDFE" stroke="#FDFDFE" stroke-width="0.0624113" stroke-linejoin="round"/>
<path d="M15.4892 22.9342L15.4569 22.9191L15.2997 22.9578L15.1404 22.917L15.0155 22.9363L15.0177 23.2955L14.6365 23.2912L14.5461 23.3085L14.4944 23.53L14.4298 23.7473L14.3717 23.8419L14.3652 23.9409L14.5224 24.2485L14.6968 24.4937L14.966 24.7948L15.1662 24.6292L15.0672 24.4334L15.1576 24.3582L15.3363 24.3216L15.3579 24.1904L15.4978 24.3323L15.7304 24.3453L15.81 24.2054L15.8445 24.0075L15.8165 23.7752L15.6916 23.5988L15.8057 23.2525L15.739 23.1944L15.543 23.2181L15.4698 23.0654L15.4892 22.9342Z" fill="#FDFDFE" stroke="#FDFDFE" stroke-width="0.0624113" stroke-linejoin="round"/>
<path d="M12.0562 20.3314L11.9356 20.3078L11.8516 20.3551L11.7354 20.3336L11.281 20.3465L11.2746 20.5164L11.309 20.7401L11.3779 21.1639L11.2681 21.4134L11.1992 21.749L11.3112 22.0049L11.3004 22.1232L11.5351 22.2071L11.772 22.1211L11.9162 22.02L12.3296 21.8457L12.2694 21.7403L12.2005 21.5511L12.1789 21.4048L12.2371 21.1359L12.1725 21.0284L12.1466 20.7939V20.5766L12.0368 20.4239L12.0562 20.3314Z" fill="#FDFDFE" stroke="#FDFDFE" stroke-width="0.0624113" stroke-linejoin="round"/>
<path d="M9.04155 19.9077L9.0028 19.9227L8.86069 19.8991L8.84131 19.9335L8.78317 19.9399L8.59584 19.8668L8.47096 19.8646L8.4645 19.9657L8.43651 19.9959L8.45589 20.0948L8.41498 20.1335L8.35684 20.1357L8.28794 20.1851L8.20827 20.1787L8.08984 20.325L8.16736 20.3723L8.20396 20.439L8.23195 20.5702L8.29655 20.6283L8.3633 20.667L8.4645 20.7831L8.57862 20.9595L8.71858 20.8283L8.75087 20.7466L8.79609 20.682L8.86715 20.6756L8.92959 20.6197H9.13845L9.2095 20.7272L9.26549 20.852L9.25687 20.938L9.29778 21.0154L9.29563 21.1251L9.36669 21.1079L9.42267 21.1015L9.49157 21.0671L9.60138 21.2499L9.582 21.3704L9.63368 21.4327L9.70689 21.4349L9.76287 21.3144L9.83608 21.323H9.87699L9.89422 21.1918L9.87484 21.1338L9.89852 21.0929L9.99757 21.0585L9.93298 20.8197L9.87269 20.6971L9.89422 20.596L9.94805 20.5723L9.86838 20.4863L9.88345 20.3981L9.849 20.3637L9.79302 20.3916L9.80594 20.2948L9.85977 20.2196L9.75211 20.0948L9.72196 20.0131L9.66383 19.9464L9.61215 19.9399L9.54971 19.9808L9.46358 20.0195L9.39252 20.084L9.28056 20.0604L9.2095 19.9851L9.16644 19.9765L9.09754 20.0152H9.05447L9.04155 19.9077Z" fill="#FDFDFE" stroke="#FDFDFE" stroke-width="0.0624113" stroke-linejoin="round"/>
<path d="M7.65234 19.6969L7.88919 19.7012L7.95379 19.6603L8.00116 19.6581L8.09805 19.5893L8.21002 19.6517L8.32199 19.6581L8.43611 19.5915L8.38443 19.5054L8.2983 19.5549L8.21648 19.5527L8.11528 19.4796L8.03346 19.4839L7.97317 19.5549L7.68895 19.5635L7.65234 19.6969Z" fill="#FDFDFE" stroke="#FDFDFE" stroke-width="0.0624113" stroke-linejoin="round"/>
<path d="M8.46988 19.8646L7.98757 19.8517L7.91651 19.8861L7.83039 19.8754L7.69043 19.9249L7.7055 19.9872L7.78517 20.0518L7.78302 20.0969L7.84115 20.1808L7.95097 20.2002L8.08877 20.325L8.2072 20.1787L8.28686 20.1851L8.35577 20.1357L8.4139 20.1335L8.45481 20.0948L8.43543 19.9958L8.46343 19.9657L8.46988 19.8646Z" fill="#FDFDFE" stroke="#FDFDFE" stroke-width="0.0624113" stroke-linejoin="round"/>
<path d="M15.0148 22.9363L14.5863 22.9299L14.498 23.2633L14.5454 23.3085L14.6359 23.2913L15.017 23.2956L15.0148 22.9363Z" fill="#FDFDFE" stroke="#FDFDFE" stroke-width="0.0624113" stroke-linejoin="round"/>
<path d="M23.055 22.4437H22.8741L22.7686 22.3426L22.5296 22.4674L22.4543 22.5922L22.2777 22.5685L22.2196 22.5341L22.1571 22.5427L22.0753 22.5384L21.7372 22.2867H21.5542L21.4638 22.1878L21.4616 22.0221L21.3238 21.9705L21.1494 22.1663L20.9901 22.3448L21.1171 22.5513L21.1494 22.7019L21.2678 23.0417L21.1731 23.259L21.0461 23.4569L20.9707 23.5773V23.5924L21.0331 23.7043L21.0159 23.9258L21.9655 24.5324L21.9805 24.7045L22.3531 25.0013L22.4607 24.9024L22.5145 24.7045L22.6007 24.5862L22.6416 24.3754L22.7406 24.3539L22.8074 24.2291L22.9925 24.1108L22.8375 23.8656L22.8289 22.7815L23.055 22.4437Z" fill="#FDFDFE" stroke="#FDFDFE" stroke-width="0.0624113" stroke-linejoin="round"/>
<path d="M9.83494 21.3231L9.76173 21.3144L9.70575 21.4349L9.63254 21.4328L9.58087 21.3704L9.60024 21.2499L9.49043 21.0671L9.42153 21.1015L9.36555 21.1079L9.24282 21.2478L9.12439 21.4091L9.10932 21.4951L9.04688 21.5898L9.22128 21.7812L9.44522 21.9447L9.68207 22.1706L9.95337 22.3125L10.0223 22.3104L10.0438 22.0652L10.0675 22.0286L10.061 21.9103L9.94906 21.7855L9.86724 21.7662L9.78973 21.6844L9.84786 21.5532L9.82202 21.4091L9.83494 21.3231Z" fill="#FDFDFE" stroke="#FDFDFE" stroke-width="0.0624113" stroke-linejoin="round"/>
<path d="M18.3722 14.216L18.3054 14.1192L18.0535 14.0848L17.9695 14.0332H17.8748L17.7801 13.8998L17.4377 13.8396L17.2676 13.8783L17.0975 14.0181L17.0264 14.1623L17.0996 14.3903L16.9855 14.5258L16.8671 14.6032L16.5893 14.4548L16.2298 14.3322L16.0015 14.2741L15.8702 14.0095L15.5321 13.8783L15.3211 13.8288L15.2178 13.8547L14.9206 13.7514L14.9142 13.9794L14.7936 14.0655L14.7204 14.1601L14.5503 14.2741L14.5826 14.3967L14.5632 14.5215L14.4426 14.5903L14.5309 14.8527L14.5481 14.9904L14.5094 15.2335L14.5309 15.369L14.5007 15.5325L14.5287 15.7196L14.4297 15.8444L14.5847 16.0616L14.5976 16.1885L14.6902 16.3542L14.8086 16.3004L15.0154 16.4381L15.1316 16.6252L15.5407 16.7543L15.6893 16.9156L15.868 16.8059L16.1242 16.6424L17.1664 17.2124L18.215 17.7825L18.2128 17.6577H18.51L18.4885 17.0619L18.4411 15.967L18.3786 14.9087L18.2882 14.6677L18.3399 14.4849L18.2925 14.358L18.3722 14.216Z" fill="#FDFDFE" stroke="#FDFDFE" stroke-width="0.0624113" stroke-linejoin="round"/>
<path d="M19.1359 32.6999L19.1898 32.6052L19.334 32.5579L19.3857 32.4611L19.474 32.317L19.3922 32.2267L19.2888 32.1363L19.1661 32.1966L19.0197 32.3127L18.8711 32.4998L19.0433 32.7279L19.1359 32.6999Z" fill="#FDFDFE" stroke="#FDFDFE" stroke-width="0.0624113" stroke-linejoin="round"/>
<path d="M11.5122 13.1426L11.4046 13.1405L11.1483 13.0738L10.9115 13.0932L10.7651 12.9663L10.582 12.9641L10.5002 13.1491L10.328 13.461L10.1406 13.5836L9.88656 13.7213L9.72076 13.9213L9.682 14.0783L9.57865 14.3322L9.63248 14.7022L9.41501 14.9495L9.28582 15.0291L9.07911 15.2313L8.84226 15.2657L8.71091 15.3797L8.70661 15.384L8.5365 15.6873L8.3621 15.797L8.2652 15.9799L8.25444 16.139L8.18123 16.3133L8.0951 16.3606L7.94653 16.5499L7.85179 16.7607L7.86686 16.8596L7.77858 17.0167L7.67738 17.0963L7.66016 17.2339L7.66446 17.2361L8.24582 17.2124L8.28028 17.1049L8.38793 16.9715L8.48268 16.5606L8.84656 16.238L8.97576 15.8637L9.05542 15.8401L9.14586 15.6077L9.36118 15.5776L9.45161 15.6163H9.56788L9.65186 15.5475L9.80904 15.5389L9.80689 15.3776H9.84564L9.84995 15.027L10.2634 14.8076L10.5174 14.7624L10.7241 14.6828L10.8232 14.5322L11.1203 14.4161L11.1333 14.1967L11.2775 14.1708L11.3938 14.0611L11.7211 14.0117L11.7684 13.8955L11.7017 13.8331L11.6177 13.5169L11.6026 13.3362L11.5122 13.1426Z" fill="#FDFDFE" stroke="#FDFDFE" stroke-width="0.0624113" stroke-linejoin="round"/>
<path d="M25.1144 27.6428L25.0606 27.4471L24.996 27.3201L24.912 27.1932L24.8194 27.3266L24.8043 27.5051L24.6515 27.7116L24.5417 27.6751L24.5696 27.8041L24.4835 27.9526L24.2596 28.1354L24.1024 28.3053L23.9861 28.3096L23.8871 28.3634L23.7385 28.4236L23.6093 28.4365L23.562 28.6237L23.4608 28.7915L23.4651 29.0646L23.5017 29.2518L23.5533 29.3937L23.5167 29.583L23.3789 29.8089L23.3725 29.9078L23.2497 29.9595L23.1895 30.1746L23.1981 30.3875L23.2713 30.6241L23.2691 30.8887L23.3251 31.0457L23.521 31.1533L23.661 31.2286L23.8957 31.1038L24.1089 31.0328L24.2553 30.6865L24.3866 30.2735L24.5869 29.71L24.7441 29.2991L24.8711 28.9528L24.9055 28.7011L24.9809 28.6323L25.0132 28.5054L24.9766 28.286L25.0326 28.1978L25.1079 28.372L25.1596 28.2838L25.1962 28.1418L25.1359 28.002L25.1144 27.6428Z" fill="#FDFDFE" stroke="#FDFDFE" stroke-width="0.0624113" stroke-linejoin="round"/>
<path d="M13.1532 17.9094L12.8668 17.9373L12.8625 17.748L12.7441 17.7007L12.5826 17.6147L12.5202 17.477L11.6503 16.8274L10.789 16.1778L10.3971 16.1821L10.5069 17.4662L10.6232 18.7504L10.6663 18.7891L10.6081 18.9956L9.56382 18.9999L9.52291 19.0666L9.42386 19.0473L9.27529 19.1053L9.09443 19.0236L9.0126 19.03L8.96523 19.2064L8.87695 19.2602L8.88557 19.4452L8.93509 19.6151L9.03198 19.699L9.05351 19.813L9.0406 19.9077L9.05351 20.0152H9.09658L9.16548 19.9765L9.20854 19.9851L9.2796 20.0604L9.39157 20.0841L9.46262 20.0195L9.54875 19.9808L9.61119 19.9399L9.66287 19.9464L9.721 20.0131L9.75115 20.0948L9.85881 20.2196L9.80498 20.2949L9.79206 20.3917L9.84804 20.3637L9.88249 20.3981L9.86742 20.4863L9.94709 20.5723L9.98154 20.5444L10.0526 20.5895L10.255 20.5917L10.3045 20.5057L10.3497 20.5121L10.4251 20.4777L10.4639 20.6046L10.5263 20.568L10.634 20.5229L10.6167 20.3508L10.6899 20.2239L10.6835 20.1228L10.8923 19.8776L10.9311 19.6732L11.0043 19.6001L11.1292 19.6409L11.239 19.5807L11.2756 19.5033L11.478 19.3699L11.5275 19.2774L11.7708 19.1527L11.9151 19.1118L11.9797 19.1677H12.1477L12.3134 19.1548L12.4103 19.0494L12.7656 19.0236L12.996 18.9763L13.0175 18.7934L13.1596 18.5955L13.1532 17.9094Z" fill="#FDFDFE" stroke="#FDFDFE" stroke-width="0.0624113" stroke-linejoin="round"/>
<path d="M22.6443 26.8125L22.6077 26.6791L22.3924 26.8534L22.1039 26.9674L21.9467 26.9631L21.8498 27.0534L21.6689 27.0599L21.5979 27.0986L21.2878 27.0147L21.1866 27.0254L21.1155 27.3072L21.1457 27.6471H21.1608L21.2512 27.7417L21.3502 27.9568L21.3567 28.3397L21.2404 28.4043L21.1521 28.6108L20.9907 28.4258L20.9799 28.2171L21.0423 28.0773L21.0316 27.959L20.9304 27.8837L20.8593 27.9095L20.7129 27.7675L19.9141 28.0128L19.9313 28.2257L19.9442 28.3354L20.1595 28.329L20.278 28.3935L20.3318 28.4666L20.4545 28.4881L20.5859 28.5828L20.5686 28.9592L20.5083 29.1657L20.4868 29.3894L20.5234 29.4776L20.4868 29.6519L20.4459 29.6798L20.3684 29.8928L20.0799 30.2305L20.1811 30.6499L20.2349 30.8629L20.1703 31.1942L20.1854 31.3017L20.2134 31.4351L20.2263 31.5663L20.4201 31.5684L20.4524 31.4114L20.3899 31.3921L20.377 31.2673L20.4954 31.1554L20.8141 30.9941L21.0316 30.8952L21.1457 30.7876L21.1909 30.665L21.1328 30.6134L21.1844 30.4757L21.2081 30.1832L21.1608 30.1982L21.1629 30.11L21.122 29.9358L21.01 29.7099L21.0445 29.497L21.1543 29.4282L21.3459 29.2173L21.4471 29.1636L21.7572 28.8431L22.0586 28.6989L22.3019 28.5849L22.4764 28.4021L22.5883 28.1956L22.6766 27.9827L22.6378 27.8364L22.6465 27.3718L22.6249 27.1093L22.6443 26.8125Z" fill="#FDFDFE" stroke="#FDFDFE" stroke-width="0.0624113" stroke-linejoin="round"/>
<path d="M10.789 16.1778L9.83941 15.4572L9.82864 15.9067L8.99105 15.8917L8.98244 16.6531L8.74128 16.6811L8.67453 16.8338L8.71544 17.264L7.7056 17.2619L7.64746 17.3608L7.77881 17.4899L7.8434 17.6297L7.81326 17.7781L7.84125 17.9266L7.86278 18.2213L7.82402 18.5009L7.74866 18.6472L7.76804 18.8085L7.85847 18.7117L7.98767 18.7375L8.1147 18.673L8.26112 18.6708L8.38385 18.7569L8.55395 18.8365L8.70898 19.0559L8.87693 19.2602L8.96521 19.2064L9.01258 19.03L9.09441 19.0236L9.27527 19.1053L9.42384 19.0473L9.52289 19.0666L9.5638 18.9999L10.6081 18.9956L10.6662 18.7891L10.6232 18.7504L10.5069 17.4662L10.3971 16.1821L10.789 16.1778Z" fill="#FDFDFE" stroke="#FDFDFE" stroke-width="0.0624113" stroke-linejoin="round"/>
<path d="M21.0583 27.7912L21.0647 27.6794L21.0066 27.5912L21.0152 27.4621L20.9442 27.2427L21.0238 27.0771L21.0195 26.7179L20.9312 26.5264L20.9399 26.4941L20.8903 26.4124L20.6341 26.3565L20.7547 26.4898L20.815 26.7415L20.7676 26.8233L20.7095 27.0642L20.7525 27.3115L20.6664 27.4148L20.5781 27.6901L20.7116 27.7676L20.858 27.9095L20.9291 27.8837L21.0303 27.959L21.0411 28.0773L20.9786 28.2171L20.9894 28.4258L21.1509 28.6108L21.2392 28.4043L21.3554 28.3397L21.349 27.9568L21.2499 27.7417L21.1595 27.6471H21.1444L21.1466 27.688L21.1961 27.6987L21.2435 27.8579L21.2348 27.8945L21.1466 27.7805L21.0992 27.8536L21.0583 27.7912Z" fill="#FDFDFE" stroke="#FDFDFE" stroke-width="0.0624113" stroke-linejoin="round"/>
<path d="M18.0757 28.8237L17.5934 28.9463L16.9668 28.9033L16.7903 28.7613L15.7395 28.7743L15.6986 28.7958L15.5457 28.6602L15.3778 28.6516L15.2227 28.7011L15.0957 28.7592L15.1086 28.9872L15.3132 29.2776L15.367 29.4647L15.4962 29.8218L15.6232 30.067L15.7223 30.1896L15.7503 30.3531L15.7481 30.708L15.8213 31.1662L15.8773 31.3835L15.9247 31.6717L16.0173 31.889L16.196 32.1148L16.3252 31.9685L16.4221 32.0481L16.4587 32.1772L16.5706 32.1987L16.7278 32.2546L16.8656 32.2331L17.0982 32.0804L17.1455 30.9812L17.1757 30.1122L17.4298 30.1014L17.4707 29.041L17.6645 29.0324L18.0671 28.927L18.1618 29.0496L18.3319 28.9334H18.4095L18.558 28.8667V28.8409L18.4568 28.7743L18.2889 28.757L18.0757 28.8237Z" fill="#FDFDFE" stroke="#FDFDFE" stroke-width="0.0624113" stroke-linejoin="round"/>
<path d="M15.54 16.7542L15.1309 16.6252L14.2588 17.1931L13.516 17.776L13.1521 17.9094L13.1585 18.5955L13.0164 18.7934L12.9949 18.9763L12.7645 19.0236L12.4092 19.0494L12.3123 19.1548L12.1465 19.1677L12.125 19.3118L12.1595 19.4473L12.308 19.6409L12.3166 19.7851L12.6181 19.8517L12.6116 20.0561L12.6999 19.97L12.7925 19.9679L12.9927 20.14L13.01 19.8733L13.0853 19.7549L13.1198 19.5829L13.1887 19.5183L13.4686 19.4839L13.7313 19.5936L13.8303 19.7076L13.9617 19.7119L14.0866 19.6388L14.4031 19.7915L14.5366 19.7851L14.6894 19.6581L14.8423 19.6668L14.9177 19.6259L15.0576 19.6431L15.26 19.7291L15.4624 19.5635L15.5249 19.5764L15.7058 19.9012L15.7531 19.8948L15.7617 19.8001L15.8349 19.7829L15.8586 19.6431L15.6907 19.6366L15.6885 19.4452L15.5787 19.3333L15.6842 18.9419L16.0115 18.6622L16.0158 18.275L16.1019 17.6706L16.1558 17.5415L16.046 17.4404L16.0395 17.3458L15.9405 17.2683L15.8672 16.8059L15.6885 16.9156L15.54 16.7542Z" fill="#FDFDFE" stroke="#FDFDFE" stroke-width="0.0624113" stroke-linejoin="round"/>
<path d="M15.7551 19.8948L15.7077 19.9012L15.5268 19.5764L15.4644 19.5635L15.262 19.7291L15.0596 19.6431L14.9196 19.6259L14.8443 19.6667L14.6914 19.6581L14.5385 19.785L14.405 19.7915L14.0885 19.6388L13.9636 19.7119L13.8323 19.7076L13.7332 19.5936L13.4705 19.4839L13.1906 19.5183L13.1217 19.5828L13.0873 19.7549L13.0119 19.8732L12.9947 20.14L12.9839 20.2389L13.0442 20.4153L12.9925 20.5358L13.0205 20.6153L12.8935 20.7982L12.8138 20.8907L12.7643 21.0778L12.7707 21.2671L12.7578 21.7468H12.9882L13.1863 21.7446L13.3715 21.9404L13.4598 22.1555L13.5997 22.3405L13.8107 22.3469L13.9119 22.2803L14.011 22.2975L14.2844 22.1899L14.3512 21.9791L14.4739 21.6909L14.5514 21.6887L14.7064 21.5145L14.8055 21.5102L14.9541 21.6328L15.1328 21.5317L15.1565 21.4091L15.2146 21.2886L15.2555 21.1381L15.3933 21.0154L15.445 20.8068L15.501 20.7401L15.5354 20.5852L15.6022 20.3959L15.8218 20.1658L15.8326 20.0668L15.8606 20.0131L15.7551 19.8948Z" fill="#FDFDFE" stroke="#FDFDFE" stroke-width="0.0624113" stroke-linejoin="round"/>
<path d="M20.0539 23.9473L19.8946 24.0398L19.8322 24.0097L19.7568 24.0914L19.746 24.27L19.7094 24.2915L19.6836 24.455L19.8429 24.4786L19.9248 24.3087L20.0647 24.3281L20.1401 24.2893L20.1573 24.1151L20.0539 23.9473Z" fill="#FDFDFE" stroke="#FDFDFE" stroke-width="0.0624113" stroke-linejoin="round"/>
<path d="M9.84587 15.3776H9.80711L9.80926 15.5389L9.65208 15.5475L9.56811 15.6163H9.45183L9.3614 15.5776L9.14608 15.6077L9.05565 15.84L8.97598 15.8637L8.84679 16.238L8.4829 16.5606L8.38816 16.9715L8.2805 17.1048L8.24605 17.2124L7.66469 17.2361L7.66038 17.2339L7.64746 17.3608L7.7056 17.2619L8.71544 17.264L8.67453 16.8338L8.74128 16.6811L8.98244 16.6531L8.99105 15.8917L9.82864 15.9067L9.83941 15.4572L9.84587 15.3991V15.3776Z" fill="#FDFDFE" stroke="#FDFDFE" stroke-width="0.0624113" stroke-linejoin="round"/>
<path d="M21.6055 18.7611L21.6206 18.5633L21.6981 18.4729L21.8876 18.4234L22.0103 18.2535L21.8617 18.1438L21.7584 18.0707L21.6443 17.7157L21.5904 17.4081L21.6443 17.3544L21.5431 17.0618H20.5225H19.5234H18.4877L18.5092 17.6577H18.2121L18.2142 17.7824L18.2659 18.9633L18.0398 18.944L17.9279 19.1634L17.8633 19.3462L17.9193 19.4151L17.8374 19.5076L17.8697 19.6302L17.8051 19.7549L17.7793 19.8625L17.8719 19.8453L17.9279 19.9614L17.9343 20.1335L18.0334 20.2217L18.0312 20.2948L18.0635 20.4218L18.2185 20.6067L18.2207 20.7294L18.1798 20.852L18.1992 20.9445L18.2896 21.0305L18.3111 21.0456L18.393 21.0111L18.4812 20.9552L18.5437 20.6906L18.6126 20.553L18.8021 20.5121L18.8473 20.5938L18.9872 20.7659L19.0583 20.7917L19.153 20.7423L19.3404 20.7509L19.3791 20.8132H19.6397L19.6461 20.7509L19.7818 20.6949L19.8054 20.6089L19.9045 20.5465L20.1284 20.7207L20.2619 20.6906L20.3868 20.4755L20.5268 20.312L20.4988 20.1335L20.4342 20.0475L20.5914 20.0303L20.6064 19.9657L20.7292 19.9851L20.7033 20.2045L20.7399 20.4196L20.8799 20.5379L20.9122 20.639V20.7874L20.9488 20.7939L20.9466 20.7573L21.0177 20.4454L21.1383 20.3637L21.162 20.2411L21.2653 20.0131L21.4182 19.8668L21.5151 19.5742L21.5452 19.3183L21.5129 19.1978L21.6055 18.7611Z" fill="#FDFDFE" stroke="#FDFDFE" stroke-width="0.0624113" stroke-linejoin="round"/>
<path d="M20.9136 20.639L20.8813 20.5379L20.7413 20.4196L20.7047 20.2045L20.7305 19.9851L20.6078 19.9657L20.5927 20.0303L20.4355 20.0475L20.5001 20.1335L20.5281 20.312L20.3882 20.4755L20.2633 20.6906L20.1298 20.7207L19.9059 20.5465L19.8068 20.6089L19.7831 20.6949L19.6475 20.7509L19.641 20.8132H19.3805L19.3417 20.7509L19.1544 20.7423L19.0597 20.7917L18.9886 20.7659L18.8486 20.5938L18.8034 20.5121L18.6139 20.553L18.545 20.6906L18.4826 20.9552L18.3943 21.0111L18.3125 21.0456L18.4934 21.1617L18.6398 21.28L18.6419 21.3768L18.8207 21.5317L18.9326 21.6607L19.0015 21.8393L19.1996 21.9576L19.2427 22.0522L19.4042 22.2975L19.5226 22.334L19.5915 22.2845L19.7142 22.3039L19.8606 22.2415L19.9231 22.3684L20.1578 22.5663L20.2654 22.4846L20.4334 22.5513L20.6444 22.4803L20.8296 22.4824L20.9889 22.3448L21.1483 22.1662L21.3227 21.9705L21.1633 21.6478L21.0406 21.579L20.9932 21.4585L20.8576 21.3144L20.6961 21.2929L20.7822 21.123L20.92 21.1165L20.9588 21.0262L20.9502 20.7939L20.9136 20.7874V20.639Z" fill="#FDFDFE" stroke="#FDFDFE" stroke-width="0.0624113" stroke-linejoin="round"/>
<path d="M8.87814 19.2602L8.71019 19.0558L8.55516 18.8364L8.38506 18.7568L8.26232 18.6708L8.11591 18.673L7.98887 18.7375L7.85968 18.7117L7.76924 18.8085L7.70465 18.9612L7.5733 19.1698L7.45703 19.2258L7.58622 19.3312L7.68958 19.5635L7.9738 19.5549L8.03409 19.4839L8.11591 19.4796L8.21711 19.5527L8.29893 19.5549L8.38506 19.5054L8.43673 19.5915L8.32261 19.6581L8.21065 19.6517L8.09868 19.5893L8.00179 19.6581L7.95442 19.6603L7.88982 19.7012L7.65297 19.6969L7.69173 19.9249L7.83169 19.8754L7.91781 19.8861L7.98887 19.8517L8.47118 19.8646L8.59607 19.8668L8.7834 19.9399L8.84153 19.9335L8.86091 19.899L9.00302 19.9227L9.04178 19.9077L9.0547 19.813L9.03317 19.699L8.93627 19.6151L8.88675 19.4452L8.87814 19.2602Z" fill="#FDFDFE" stroke="#FDFDFE" stroke-width="0.0624113" stroke-linejoin="round"/>
<path d="M9.36619 21.1079L9.29514 21.1252L9.29729 21.0155L9.25638 20.938L9.26499 20.852L9.20901 20.7272L9.13795 20.6197H8.9291L8.86665 20.6756L8.7956 20.682L8.75038 20.7466L8.71808 20.8283L8.57812 20.9595L8.60827 21.1811L8.65349 21.2886L8.78914 21.4478L8.97647 21.5683L9.04752 21.5898L9.10996 21.4951L9.12504 21.4091L9.24346 21.2478L9.36619 21.1079Z" fill="#FDFDFE" stroke="#FDFDFE" stroke-width="0.0624113" stroke-linejoin="round"/>
<path d="M20.1843 31.3017L20.0594 31.2458L19.984 31.2673L19.9539 31.3533L19.8764 31.4652L19.8721 31.5684L20.0142 31.7298L20.1649 31.6975L20.2252 31.5663L20.2123 31.4351L20.1843 31.3017Z" fill="#FDFDFE" stroke="#FDFDFE" stroke-width="0.0624113" stroke-linejoin="round"/>
<path d="M18.2156 17.7824L17.167 17.2124L16.1248 16.6424L15.8686 16.8059L15.9418 17.2683L16.0409 17.3458L16.0473 17.4404L16.1571 17.5415L16.1033 17.6706L16.0172 18.275L16.0129 18.6622L15.6856 18.9419L15.5801 19.3333L15.6899 19.4452L15.692 19.6366L15.86 19.6431L15.8363 19.7829L15.9418 19.9744L15.9633 20.1701L15.9547 20.368L16.1011 20.639L15.9547 20.6369L15.8815 20.6562L15.7609 20.6283L15.7071 20.7681L15.8621 20.9423L15.9763 20.9918L16.015 21.1144L16.099 21.3209L16.0602 21.4005L16.2756 21.379L16.3229 21.3015L16.3681 21.308L16.4327 21.3747L16.7622 21.2607L16.872 21.1445L17.0076 21.0413L16.9818 20.9359L17.055 20.9101L17.3091 20.9273L17.5524 20.7896L17.7376 20.4648L17.8668 20.3443L18.0326 20.2949L18.0347 20.2217L17.9357 20.1335L17.9292 19.9614L17.8732 19.8453L17.7806 19.8625L17.8065 19.7549L17.8711 19.6302L17.8388 19.5076L17.9206 19.4151L17.8646 19.3463L17.9292 19.1634L18.0412 18.944L18.2673 18.9634L18.2156 17.7824Z" fill="#FDFDFE" stroke="#FDFDFE" stroke-width="0.0624113" stroke-linejoin="round"/>
<path d="M12.2849 20.3379L12.0545 20.3314L12.0352 20.4239L12.145 20.5766V20.7939L12.1708 21.0283L12.2354 21.1359L12.1773 21.4048L12.1988 21.551L12.2677 21.7403L12.328 21.8457L12.539 21.7812L12.4744 21.5769L12.4852 20.8928L12.4313 20.8326L12.4227 20.6863L12.3301 20.5809L12.2505 20.4927L12.2849 20.3379Z" fill="#FDFDFE" stroke="#FDFDFE" stroke-width="0.0624113" stroke-linejoin="round"/>
<path d="M14.92 13.7514L14.8231 13.7041L14.7542 13.5621L14.625 13.5578L14.5733 13.3943L14.7305 13.2437L14.7542 12.9835L14.6659 12.9082L14.6616 12.7684L14.78 12.6178L14.7606 12.5597L14.5561 12.6716L14.5582 12.5188L14.3838 12.4823L14.1211 12.6049L14.0738 12.7598L14.1233 13.048L14.0716 13.2975L13.9209 13.4653L13.9489 13.689L14.1577 13.8675L14.1621 13.9385L14.3192 14.059L14.442 14.5903L14.5625 14.5215L14.5819 14.3967L14.5496 14.2741L14.7197 14.1601L14.7929 14.0654L14.9135 13.9794L14.92 13.7514Z" fill="#FDFDFE" stroke="#FDFDFE" stroke-width="0.0624113" stroke-linejoin="round"/>
<path d="M20.1468 23.9108L20.0542 23.9473L20.1576 24.1151L20.1403 24.2893L20.065 24.3281L20.0779 24.4442L20.1339 24.513L20.136 24.6098L20.0714 24.6722L19.9659 24.8271L19.869 24.9346L19.8432 24.9389L19.8281 25.0659L19.8776 25.1089L19.8669 25.2358L19.9164 25.3541L19.854 25.4681L20.0628 25.6703L20.08 25.8531L20.2071 26.1586L20.22 26.1672L20.3234 26.2167L20.4892 26.2683L20.6356 26.3565L20.8918 26.4124L20.9413 26.4941L20.9586 26.4361L21.092 26.5952L21.105 26.9071L21.1889 27.0212L21.1868 27.0255L21.288 27.0147L21.598 27.0986L21.6691 27.0599L21.85 27.0534L21.9469 26.9631L22.104 26.9674L22.3926 26.8534L22.6079 26.6791L22.5132 26.6146L22.412 26.3221L22.3258 26.1349L22.3474 25.993L22.3344 25.9026L22.4098 25.7219L22.4033 25.6445L22.2375 25.5369L22.2246 25.3692L22.3517 25.0013L21.9792 24.7045L21.9641 24.5324L21.0145 23.9258L20.8853 24.057L20.7971 24.1925L20.9004 24.2936L20.7497 24.3668L20.7174 24.3324L20.5645 24.3517L20.4461 24.4184L20.375 24.3022L20.4246 24.0936L20.4353 23.9151L20.1468 23.9108Z" fill="#FDFDFE" stroke="#FDFDFE" stroke-width="0.0624113" stroke-linejoin="round"/>
<path d="M20.9883 22.3448L20.829 22.4825L20.6438 22.4803L20.4328 22.5513L20.2648 22.4846L20.1572 22.5663L20.1442 22.9127L20.2498 22.9535L20.1658 23.0589L20.0646 23.1385L19.9655 23.2934L19.9095 23.4311L19.8966 23.6698L19.8342 23.7838L19.832 24.0097L19.8945 24.0398L20.0538 23.9473L20.1464 23.9107L20.4349 23.915L20.4199 23.801L20.5426 23.6268L20.7084 23.5838L20.8203 23.5128L20.956 23.5709L20.9689 23.5924V23.5773L21.0443 23.4569L21.1713 23.259L21.2661 23.0417L21.1476 22.7019L21.1153 22.5513L20.9883 22.3448Z" fill="#FDFDFE" stroke="#FDFDFE" stroke-width="0.0624113" stroke-linejoin="round"/>
<path d="M16.9188 33.9712L17.0329 33.9647L17.1944 33.8507L17.4097 33.8034L17.6746 33.6851L17.7758 33.7001L17.9308 33.6636L18.1956 33.7216L18.3227 33.6657L18.4712 33.7087L18.51 33.627L18.6392 33.6098L18.9105 33.4958L19.1107 33.3603L19.3024 33.1817L19.6124 32.8763L19.7739 32.6633L19.8579 32.5106L19.9763 32.36L20.0301 32.317L20.2153 32.1664L20.2907 32.0331L20.3402 31.7857L20.4199 31.5685L20.2261 31.5663L20.1658 31.6975L20.0151 31.7298L19.873 31.5685L19.8773 31.4652L19.9548 31.3533L19.9849 31.2673L20.0603 31.2458L20.1852 31.3017L20.1701 31.1942L20.2347 30.8629L20.1809 30.65L20.0797 30.2305L19.944 30.2025L19.8557 30.237L19.733 30.1875L19.6275 30.1832L19.255 30.4026L19.0138 30.6241L18.9191 30.8242L18.8351 30.936L18.6952 30.9597L18.6435 31.1017L18.6133 31.1942L18.4454 31.263L18.2387 31.2501L18.1203 31.1662L18.0148 31.1296L17.8856 31.1985L17.8167 31.3404L17.6918 31.4308L17.5583 31.5641L17.3753 31.5943L17.3214 31.4889L17.3537 31.3082L17.2138 31.0242L17.1449 30.9812L17.0975 32.0804L16.865 32.2331L16.7272 32.2546L16.57 32.1987L16.458 32.1772L16.4214 32.0481L16.3245 31.9685L16.1953 32.1148L16.3611 32.4999V32.502L16.4774 32.7537L16.626 33.029L16.6216 33.257L16.5377 33.3108L16.6066 33.5108L16.5958 33.6851L16.6238 33.7668L16.6389 33.7259L16.7379 33.8593L16.8197 33.8636L16.9188 33.9712ZM19.1366 32.6999L19.044 32.7279L18.8717 32.4999L19.0203 32.3127L19.1667 32.1966L19.2894 32.1363L19.3928 32.2267L19.4746 32.317L19.3863 32.4611L19.3347 32.5579L19.1904 32.6053L19.1366 32.6999Z" fill="#FDFDFE" stroke="#FDFDFE" stroke-width="0.0624113" stroke-linejoin="round"/>
<path d="M20.1277 26.1629L20.0394 26.1392L20.0545 26.0747L20.0093 26.0618L19.6562 26.1113L19.5851 26.1478L19.5076 26.3371L19.5636 26.4683L19.5098 26.8211L19.4688 27.1201L19.5377 27.1717L19.7186 27.2879L19.7918 27.2341L19.8047 27.5546L19.6045 27.5525L19.5011 27.389L19.4086 27.2621L19.2105 27.2212L19.1545 27.0642L18.993 27.1588L18.7841 27.1158L18.7002 26.9824L18.5344 26.9545L18.4116 26.9609L18.3987 26.8684L18.3083 26.862L18.3341 26.9545L18.3018 27.0986L18.3449 27.2384L18.3018 27.3503L18.3233 27.4514L17.7786 27.4492L17.7441 28.3957L17.9121 28.6387L18.0757 28.8237L18.2889 28.757L18.4568 28.7742L18.558 28.8409V28.8667L18.6054 28.8882L18.8939 28.9205L18.9758 28.9549L19.064 28.9485L19.2148 28.7549L19.4495 28.5097L19.5442 28.4882L19.5808 28.3849L19.7315 28.2666L19.9318 28.2257L19.9146 28.0128L20.7134 27.7676L20.5799 27.6901L20.6682 27.4148L20.7543 27.3115L20.7112 27.0642L20.7694 26.8233L20.8167 26.7415L20.7565 26.4898L20.6359 26.3565L20.4895 26.2683L20.3237 26.2167L20.2203 26.1672L20.2074 26.1586L20.2268 26.2081L20.1837 26.2253L20.1277 26.1629Z" fill="#FDFDFE" stroke="#FDFDFE" stroke-width="0.0624113" stroke-linejoin="round"/>
<path d="M20.0794 30.2305L20.368 29.8928L20.4455 29.6798L20.4864 29.6519L20.523 29.4776L20.4864 29.3895L20.5079 29.1657L20.5682 28.9592L20.5854 28.5828L20.4541 28.4882L20.3314 28.4667L20.2775 28.3935L20.1591 28.329L19.9438 28.3354L19.9309 28.2257L19.7306 28.2666L19.5799 28.3849L19.5433 28.4882L19.4485 28.5097L19.2138 28.7549L19.0631 28.9485L18.9748 28.9549L18.893 28.9205L18.6045 28.8883L18.6949 29.127L18.7444 29.1786L18.8198 29.3507L19.0997 29.6777L19.2095 29.71L19.2052 29.8154L19.272 30.0046L19.4701 30.0498L19.6273 30.1832L19.7328 30.1875L19.8555 30.237L19.9438 30.2025L20.0794 30.2305Z" fill="#FDFDFE" stroke="#FDFDFE" stroke-width="0.0624113" stroke-linejoin="round"/>
<path d="M23.6011 20.5014L23.4784 20.3766L23.4246 20.254L23.3363 20.1981L23.2458 20.3572L23.192 20.4626L23.2954 20.6283L23.3944 20.7702L23.4978 20.8778L24.3655 21.2306L24.5873 21.2284L23.866 22.1211L23.5236 22.134L23.2932 22.3448L23.1253 22.3491L23.0542 22.4437L22.8281 22.7815L22.8367 23.8656L22.9918 24.1108L23.0499 24.0398L23.1123 23.8828L23.4009 23.5236L23.6463 23.2956L24.0361 23.0009L24.2966 22.7599L24.6002 22.3534L24.8177 22.02L25.033 21.5855L25.1837 21.2047L25.3 20.8713L25.3624 20.5508L25.4141 20.4433L25.4055 20.2862L25.4227 20.1142L25.412 20.0303L25.3129 20.0324L25.1945 20.1335L25.0567 20.1636L24.9383 20.2088L24.8543 20.2131L24.7057 20.2239L24.6153 20.2798L24.4861 20.2992L24.26 20.3916L23.9758 20.4261L23.7325 20.5014H23.6011Z" fill="#FDFDFE" stroke="#FDFDFE" stroke-width="0.0624113" stroke-linejoin="round"/>
</g>
<path fill-rule="evenodd" clip-rule="evenodd" d="M0.0563516 5.74308C0.0375403 5.76023 0.0187564 5.77742 0 5.79464L0.0563516 5.85602V38.383H0.195791C3.32908 41.1912 7.20304 43.0429 11.3588 43.7165C15.5712 44.3994 19.8913 43.8423 23.7927 42.1133C27.6941 40.3843 31.0085 37.558 33.332 33.9786C35.6556 30.3992 36.8879 26.2213 36.879 21.9539C36.87 17.6865 35.6202 13.5139 33.2817 9.94424C30.9432 6.37463 27.617 3.56217 23.7084 1.84952C19.7997 0.136862 15.4774 -0.402057 11.2679 0.298415C7.14529 0.984417 3.30527 2.83013 0.19579 5.61703H0.0563516V5.74308ZM4.7372 7.67297V36.327C6.91327 37.8674 9.41996 38.8976 12.0703 39.3272C15.4313 39.872 18.8782 39.4276 21.9911 38.048C25.104 36.6685 27.7484 34.4134 29.6023 31.5575C31.4562 28.7016 32.4395 25.3681 32.4324 21.9632C32.4252 18.5584 31.428 15.2291 29.5622 12.381C27.6963 9.53283 25.0424 7.28882 21.9238 5.92233C18.8052 4.55584 15.3564 4.12584 11.9977 4.68474C9.37358 5.1214 6.8929 6.14699 4.7372 7.67297Z" fill="#FDFDFE"/>
<defs>
<clipPath id="clip0_1304_16382">
<rect width="21.5319" height="21.5319" fill="white" transform="translate(5.67285 12.4823)"/>
</clipPath>
</defs>
</svg>
