<svg width="141" height="44" viewBox="0 0 141 44" fill="none" xmlns="http://www.w3.org/2000/svg">
<path d="M50.5332 34.1015C47.1513 34.1015 44.5018 33.1695 42.5845 31.3055C40.6672 29.4415 39.7086 26.8851 39.7086 23.6364C39.7086 21.5327 40.1213 19.6953 40.9468 18.1242C41.7723 16.5531 42.9174 15.3282 44.3819 14.4494C45.8732 13.5707 47.604 13.1313 49.5746 13.1313C51.5185 13.1313 53.1428 13.5441 54.4476 14.3696C55.7525 15.1951 56.7377 16.3534 57.4034 17.8446C58.0958 19.3358 58.442 21.08 58.442 23.0772V24.3953H43.7429V21.7591H54.887L54.208 22.3183C54.208 20.4542 53.8086 19.0296 53.0097 18.0443C52.2375 17.0591 51.1057 16.5664 49.6145 16.5664C47.9635 16.5664 46.6853 17.1523 45.78 18.3239C44.9012 19.4956 44.4618 21.1333 44.4618 23.237V23.7562C44.4618 25.9398 44.9944 27.5775 46.0596 28.6692C47.1513 29.7344 48.6825 30.267 50.653 30.267C51.7981 30.267 52.8632 30.1205 53.8485 29.8276C54.8604 29.5081 55.819 29.0021 56.7244 28.3098L58.2023 31.665C57.2437 32.4372 56.0986 33.0364 54.7672 33.4624C53.4358 33.8885 52.0244 34.1015 50.5332 34.1015Z" fill="#02576C"/>
<path d="M62.67 42.3298V18.5636C62.67 17.7381 62.6434 16.8993 62.5901 16.0472C62.5369 15.1951 62.457 14.3562 62.3505 13.5308H67.1836L67.623 17.7647H67.1836C67.583 16.3534 68.4219 15.235 69.7 14.4095C71.0048 13.5574 72.5094 13.1313 74.2136 13.1313C75.9978 13.1313 77.5555 13.5574 78.887 14.4095C80.2184 15.235 81.257 16.4333 82.0026 18.0044C82.7482 19.5489 83.121 21.4129 83.121 23.5965C83.121 25.78 82.7482 27.6573 82.0026 29.2284C81.257 30.7995 80.2184 32.0112 78.887 32.8633C77.5555 33.6888 75.9978 34.1015 74.2136 34.1015C72.536 34.1015 71.0581 33.6888 69.7799 32.8633C68.5017 32.0378 67.6496 30.9327 67.2236 29.548H67.6629V42.3298H62.67ZM72.8156 30.267C74.4133 30.267 75.6915 29.7211 76.6502 28.6293C77.6088 27.5109 78.0881 25.8333 78.0881 23.5965C78.0881 21.3596 77.6088 19.6953 76.6502 18.6035C75.6915 17.5118 74.4133 16.9659 72.8156 16.9659C71.2445 16.9659 69.9796 17.5118 69.021 18.6035C68.0624 19.6953 67.583 21.3596 67.583 23.5965C67.583 25.8333 68.0624 27.5109 69.021 28.6293C69.9796 29.7211 71.2445 30.267 72.8156 30.267Z" fill="#02576C"/>
<path d="M87.4395 33.7021V4.30386H92.4324V33.7021H87.4395Z" fill="#02576C"/>
<path d="M106.961 34.1015C104.884 34.1015 103.087 33.6755 101.569 32.8233C100.051 31.9712 98.8663 30.7596 98.0142 29.1885C97.1887 27.6174 96.7759 25.7534 96.7759 23.5965C96.7759 21.4395 97.1887 19.5888 98.0142 18.0443C98.8663 16.4732 100.051 15.2616 101.569 14.4095C103.087 13.5574 104.884 13.1313 106.961 13.1313C109.039 13.1313 110.836 13.5574 112.354 14.4095C113.898 15.2616 115.083 16.4732 115.909 18.0443C116.761 19.5888 117.187 21.4395 117.187 23.5965C117.187 25.7534 116.761 27.6174 115.909 29.1885C115.083 30.7596 113.898 31.9712 112.354 32.8233C110.836 33.6755 109.039 34.1015 106.961 34.1015ZM106.961 30.267C108.533 30.267 109.784 29.7211 110.716 28.6293C111.648 27.5109 112.114 25.8333 112.114 23.5965C112.114 21.3596 111.648 19.6953 110.716 18.6035C109.784 17.5118 108.533 16.9659 106.961 16.9659C105.39 16.9659 104.139 17.5118 103.207 18.6035C102.275 19.6953 101.809 21.3596 101.809 23.5965C101.809 25.8333 102.275 27.5109 103.207 28.6293C104.139 29.7211 105.39 30.267 106.961 30.267Z" fill="#02576C"/>
<path d="M120.703 42.7692L119.545 38.8148C120.796 38.5485 121.848 38.2423 122.7 37.8961C123.552 37.55 124.258 37.0973 124.817 36.5381C125.377 35.9789 125.843 35.2599 126.215 34.3811L127.214 32.0245L127.094 33.9817L118.307 13.5308H123.619L129.93 29.2684H128.772L135.123 13.5308H140.156L130.969 34.8205C130.356 36.2585 129.69 37.4434 128.971 38.3755C128.252 39.3341 127.48 40.093 126.655 40.6522C125.829 41.2381 124.924 41.6907 123.939 42.0103C122.953 42.3298 121.875 42.5828 120.703 42.7692Z" fill="#02576C"/>
<g clip-path="url(#clip0_1304_14943)">
<path d="M16.3382 25.3584L15.5631 25.3541L15.4705 25.3907L15.3951 25.3842L15.2853 25.4251L15.2616 25.4831L15.3908 25.6703L15.4425 25.8703L15.52 26.1586L15.4382 26.2769L15.4253 26.3371L15.4877 26.5156L15.5545 26.6963L15.632 26.8039L15.6449 26.9717L15.6148 27.1932L15.5286 27.3244L15.3758 27.5202L15.3133 27.6406L15.225 27.9095L15.2078 28.0364L15.1152 28.3096L15.0743 28.572L15.0958 28.7592L15.2229 28.7011L15.3779 28.6516L15.5459 28.6602L15.6987 28.7957L15.7396 28.7742L16.7904 28.7613L16.967 28.9033L17.5935 28.9463L18.0759 28.8237L17.9122 28.6387L17.7443 28.3957L17.7787 27.4492L18.3235 27.4513L18.3019 27.3502L18.345 27.2384L18.3019 27.0986L18.3342 26.9545L18.3084 26.862L18.19 26.8448L18.0263 26.8878L17.9122 26.8813L17.8476 26.9093L17.867 26.5544L17.783 26.4447L17.7658 26.2618L17.8067 26.0811L17.755 25.9671L17.7529 25.78L17.4342 25.7821L17.4579 25.6746L17.3244 25.6767L17.3093 25.7284L17.1457 25.7391L17.0789 25.9134L17.038 25.9865L16.8938 25.9456L16.8076 25.9865L16.6332 26.0102L16.5342 25.8553L16.476 25.7585L16.4007 25.5799L16.3382 25.3584ZM15.3176 25.3003L15.3262 25.1712L15.3693 25.096L15.4662 25.0336L15.3671 24.9303L15.2875 24.9798L15.1798 25.1089L15.2509 25.3326L15.3176 25.3003Z" fill="#02576C" stroke="#02576C" stroke-width="0.0624113" stroke-linejoin="round"/>
<path d="M20.0784 24.4442L20.0654 24.3281L19.9255 24.3087L19.8437 24.4786L19.6843 24.455L19.7489 24.5905L19.7511 24.6421L19.8437 24.9261V24.939L19.8695 24.9347L19.9664 24.8271L20.0719 24.6722L20.1365 24.6099L20.1343 24.5131L20.0784 24.4442Z" fill="#02576C" stroke="#02576C" stroke-width="0.0624113" stroke-linejoin="round"/>
<path d="M12.9943 20.14L12.794 19.9679L12.7015 19.97L12.6132 20.0561L12.5572 20.1464L12.428 20.1722L12.3742 20.3035L12.2859 20.3379L12.2514 20.4927L12.3311 20.5809L12.4237 20.6863L12.4323 20.8326L12.4861 20.8928L12.4754 21.5769L12.54 21.7812L12.7574 21.7468L12.7704 21.2671L12.7639 21.0778L12.8134 20.8907L12.8931 20.7982L13.0201 20.6154L12.9921 20.5358L13.0438 20.4153L12.9835 20.2389L12.9943 20.14Z" fill="#02576C" stroke="#02576C" stroke-width="0.0624113" stroke-linejoin="round"/>
<path d="M12.1481 19.1677H11.9802L11.9156 19.1118L11.7713 19.1527L11.528 19.2774L11.4785 19.3699L11.2761 19.5033L11.2395 19.5807L11.1296 19.6409L11.0048 19.6001L10.9316 19.6732L10.8928 19.8776L10.6839 20.1228L10.6904 20.2239L10.6172 20.3508L10.6344 20.5229L10.7528 20.5874L10.7981 20.6863L10.9143 20.7487L11.0069 20.6756L11.1296 20.6627L11.3084 20.7401L11.2739 20.5164L11.2804 20.3465L11.7347 20.3336L11.851 20.3551L11.9349 20.3078L12.0555 20.3314L12.2859 20.3379L12.3742 20.3035L12.428 20.1722L12.5572 20.1464L12.6132 20.0561L12.6197 19.8517L12.3182 19.7851L12.3096 19.6409L12.161 19.4473L12.1266 19.3118L12.1481 19.1677Z" fill="#02576C" stroke="#02576C" stroke-width="0.0624113" stroke-linejoin="round"/>
<path d="M18.6055 28.8883L18.5581 28.8668L18.4095 28.9334H18.332L18.1619 29.0496L18.0672 28.927L17.6645 29.0324L17.4707 29.041L17.4298 30.1015L17.1757 30.1122L17.1456 30.9812L17.2145 31.0243L17.3545 31.3082L17.3222 31.4889L17.376 31.5943L17.559 31.5642L17.6925 31.4308L17.8174 31.3405L17.8863 31.1985L18.0155 31.1297L18.121 31.1662L18.2394 31.2501L18.4461 31.263L18.6141 31.1942L18.6442 31.1017L18.6959 30.9597L18.8359 30.9361L18.9198 30.8242L19.0146 30.6242L19.2557 30.4026L19.6282 30.1832L19.471 30.0498L19.273 30.0047L19.2062 29.8154L19.2105 29.71L19.1007 29.6777L18.8208 29.3507L18.7454 29.1787L18.6959 29.127L18.6055 28.8883Z" fill="#02576C" stroke="#02576C" stroke-width="0.0624113" stroke-linejoin="round"/>
<path d="M18.3126 21.0456L18.2911 21.0305L18.2006 20.9445L18.1813 20.852L18.2222 20.7294L18.22 20.6068L18.065 20.4218L18.0327 20.2949L17.8669 20.3443L17.7377 20.4648L17.5525 20.7896L17.3092 20.9273L17.0552 20.9101L16.9819 20.9359L17.0078 21.0413L16.8721 21.1445L16.7623 21.2607L16.4329 21.3747L16.3683 21.308L16.3231 21.3015L16.2757 21.379L16.0604 21.4005L15.929 21.7016L15.8666 21.7576L15.8494 21.9877L15.8752 22.1125L15.8558 22.2007L15.9807 22.3577L16.0022 22.4631L16.1013 22.618L16.2219 22.7126L16.2348 22.8481L16.2628 22.9342L16.3984 22.6589L16.5556 22.4997L16.7322 22.5513L16.9023 22.5664L16.9238 22.3599L17.025 22.2071L17.165 22.1125L17.3824 22.2136L17.5504 22.3233L17.7442 22.3534L17.9401 22.4115L18.0176 22.2308L18.0521 22.2071L18.1727 22.2372L18.4633 22.0888L18.5688 22.1534L18.6528 22.1426L18.6916 22.0716L18.7885 22.0458L18.9866 22.0759L19.1567 22.0845L19.2428 22.0523L19.1997 21.9576L19.0016 21.8393L18.9327 21.6608L18.8208 21.5317L18.6421 21.3768L18.6399 21.28L18.4935 21.1617L18.3126 21.0456Z" fill="#02576C" stroke="#02576C" stroke-width="0.0624113" stroke-linejoin="round"/>
<path d="M10.6345 20.5229L10.5268 20.568L10.4644 20.6046L10.4256 20.4777L10.3502 20.5121L10.305 20.5057L10.2555 20.5917L10.0531 20.5895L9.98204 20.5444L9.94759 20.5723L9.89376 20.596L9.87223 20.6971L9.93252 20.8197L9.99711 21.0585L9.89806 21.0929L9.87438 21.1338L9.89376 21.1918L9.87653 21.323H9.83562L9.8227 21.4091L9.84854 21.5532L9.79041 21.6844L9.86792 21.7662L9.94974 21.7855L10.0617 21.9103L10.0682 22.0286L10.0445 22.0652L10.0229 22.3104L10.0725 22.319L10.333 22.2093L10.516 22.1232L10.8282 22.0716L10.9962 22.0673L11.1792 22.1254L11.2998 22.1232L11.3106 22.0049L11.1986 21.749L11.2675 21.4134L11.3773 21.1639L11.3084 20.7401L11.1297 20.6627L11.007 20.6756L10.9144 20.7487L10.7981 20.6863L10.7529 20.5874L10.6345 20.5229Z" fill="#02576C" stroke="#02576C" stroke-width="0.0624113" stroke-linejoin="round"/>
<path d="M15.9549 20.368L15.9635 20.1701L15.942 19.9743L15.8365 19.7829L15.7633 19.8001L15.7547 19.8948L15.8602 20.0131L15.8322 20.0668L15.8214 20.1658L15.6018 20.3959L15.535 20.5852L15.5006 20.7401L15.4446 20.8068L15.3929 21.0154L15.2551 21.1381L15.2142 21.2886L15.1561 21.4091L15.1324 21.5317L14.9537 21.6328L14.8051 21.5102L14.7061 21.5145L14.551 21.6887L14.4735 21.6909L14.3508 21.9791L14.284 22.1899L14.2819 22.2717L14.3486 22.3147L14.4025 22.448L14.523 22.4975L14.6264 22.6954L14.5876 22.9299L15.0161 22.9363L15.141 22.917L15.3004 22.9578L15.4575 22.9191L15.4898 22.9342L15.8214 22.9471L16.0346 23.0245L16.2434 23.0955L16.2628 22.9342L16.2348 22.8481L16.2219 22.7126L16.1013 22.618L16.0023 22.4631L15.9808 22.3577L15.8559 22.2007L15.8753 22.1125L15.8494 21.9877L15.8666 21.7576L15.9291 21.7016L16.0604 21.4005L16.0992 21.3209L16.0152 21.1144L15.9765 20.9918L15.8623 20.9423L15.7073 20.7681L15.7611 20.6283L15.8817 20.6562L15.9549 20.6369L16.1013 20.639L15.9549 20.368Z" fill="#02576C" stroke="#02576C" stroke-width="0.0624113" stroke-linejoin="round"/>
<path d="M18.9866 22.0759L18.7885 22.0458L18.6917 22.0716L18.6529 22.1426L18.5689 22.1534L18.4634 22.0888L18.1727 22.2372L18.0522 22.2071L18.0177 22.2308L17.9402 22.4115L17.7442 22.3534L17.5505 22.3233L17.3825 22.2136L17.165 22.1125L17.0251 22.2071L16.9239 22.3599L16.9024 22.5664L16.8873 22.747L16.8098 22.9062L16.7581 23.0912L16.7258 23.3558L16.7409 23.5236L16.6978 23.6268L16.6913 23.7365L16.6612 23.8312L16.4868 23.9753L16.3662 24.128L16.2521 24.4163L16.2585 24.6615L16.1918 24.7561L16.0368 24.9024L15.8817 25.0895L15.7848 25.0358L15.7676 24.9519L15.6255 24.9497L15.5351 25.0637L15.4662 25.0336L15.3693 25.096L15.3262 25.1713L15.3176 25.3003L15.2509 25.3326L15.2853 25.4251L15.3951 25.3842L15.4705 25.3907L15.5631 25.3541L16.3382 25.3584L16.4007 25.58L16.476 25.7585L16.5342 25.8553L16.6332 26.0102L16.8076 25.9865L16.8937 25.9456L17.038 25.9865L17.0789 25.9134L17.1457 25.7391L17.3093 25.7284L17.3244 25.6768L17.4579 25.6746L17.4342 25.7822L17.7529 25.78L17.755 25.9672L17.8067 26.0812L17.7658 26.2618L17.783 26.4447L17.867 26.5544L17.8476 26.9093L17.9122 26.8813L18.0263 26.8878L18.19 26.8448L18.3084 26.862L18.3988 26.8684L18.4117 26.9609L18.5345 26.9545L18.7003 26.9824L18.7842 27.1158L18.9931 27.1588L19.1546 27.0642L19.2106 27.2212L19.4087 27.2621L19.5013 27.389L19.6046 27.5525L19.8049 27.5546L19.7919 27.2341L19.7187 27.2879L19.5379 27.1717L19.469 27.1201L19.5099 26.8211L19.5637 26.4683L19.5077 26.3371L19.5852 26.1478L19.6563 26.1113L20.0094 26.0618L20.0546 26.0747L20.0675 26.0252L19.9943 25.9456L19.962 25.7822L19.8049 25.6187L19.7166 25.4057L19.7661 25.281L19.6972 25.1132L19.7489 24.6378L19.751 24.6421L19.7489 24.5905L19.6843 24.455L19.7101 24.2915L19.7467 24.27L19.7575 24.0914L19.8328 24.0097L19.835 23.7838L19.8974 23.6698L19.9104 23.4311L19.9663 23.2934L20.0654 23.1385L20.1666 23.0589L20.2506 22.9535L20.1451 22.9127L20.158 22.5664L19.9233 22.3685L19.8608 22.2416L19.7144 22.3039L19.5917 22.2846L19.5228 22.334L19.4044 22.2975L19.2429 22.0523L19.1567 22.0845L18.9866 22.0759Z" fill="#02576C" stroke="#02576C" stroke-width="0.0624113" stroke-linejoin="round"/>
<path d="M16.9024 22.5664L16.7323 22.5513L16.5558 22.4997L16.3986 22.6589L16.2629 22.9342L16.2435 23.0955L16.0347 23.0245L15.8215 22.9471L15.4899 22.9342L15.4706 23.0654L15.5438 23.2181L15.7397 23.1945L15.8064 23.2526L15.6923 23.5989L15.8172 23.7753L15.8452 24.0076L15.8108 24.2055L15.7311 24.3453L15.4985 24.3324L15.3586 24.1904L15.3371 24.3216L15.1583 24.3582L15.0679 24.4335L15.167 24.6292L14.9667 24.7949L15.1799 25.1089L15.2875 24.9798L15.3672 24.9304L15.4662 25.0336L15.5351 25.0637L15.6256 24.9497L15.7677 24.9519L15.7849 25.0358L15.8818 25.0895L16.0368 24.9024L16.1919 24.7561L16.2586 24.6615L16.2522 24.4163L16.3663 24.128L16.4869 23.9753L16.6613 23.8312L16.6914 23.7365L16.6979 23.6268L16.7409 23.5236L16.7259 23.3558L16.7582 23.0912L16.8098 22.9062L16.8874 22.7471L16.9024 22.5664Z" fill="#02576C" stroke="#02576C" stroke-width="0.0624113" stroke-linejoin="round"/>
<path d="M23.3361 20.1981L23.222 20.1163L23.3684 20.0454L23.3706 19.9228L23.306 19.8303L23.2284 19.9034L23.1165 19.8776L23.0304 20.0088L22.9464 20.1486L22.9701 20.2304L22.9765 20.3207L23.1229 20.325L23.1854 20.3056L23.2457 20.3573L23.3361 20.1981Z" fill="#02576C" stroke="#02576C" stroke-width="0.0624113" stroke-linejoin="round"/>
<path d="M14.1225 12.6049L13.9546 12.6221L13.8512 12.5533L13.5885 12.5554L13.3603 12.6737L13.2354 12.6286L12.8284 12.6544L12.4107 12.7082L12.1739 12.8007L12.0188 12.9254L11.7518 12.977L11.5128 13.1427L11.6033 13.3363L11.6183 13.5169L11.7023 13.8332L11.7691 13.8955L11.7217 14.0117L11.3944 14.0612L11.2781 14.1709L11.1339 14.1967L11.121 14.4161L10.8238 14.5322L10.7248 14.6828L10.5181 14.7624L10.264 14.8076L9.85058 15.027L9.84627 15.3776V15.3991L9.83981 15.4572L10.7894 16.1778L11.6506 16.8274L12.5205 17.477L12.583 17.6147L12.7445 17.7007L12.8629 17.748L12.8672 17.9373L13.1536 17.9094L13.5175 17.776L14.2603 17.1931L15.1324 16.6252L15.0161 16.4381L14.8094 16.3004L14.691 16.3542L14.5984 16.1885L14.5854 16.0616L14.4304 15.8444L14.5295 15.7196L14.5015 15.5325L14.5316 15.369L14.5101 15.2335L14.5488 14.9904L14.5316 14.8527L14.4433 14.5903L14.3206 14.059L14.1634 13.9386L14.1591 13.8676L13.9503 13.689L13.9223 13.4653L14.073 13.2975L14.1247 13.048L14.0751 12.7598L14.1225 12.6049Z" fill="#02576C" stroke="#02576C" stroke-width="0.0624113" stroke-linejoin="round"/>
<path d="M19.2128 14.3774L18.9566 14.2913L18.709 14.2117L18.3731 14.216L18.2934 14.358L18.3408 14.4849L18.2891 14.6678L18.3795 14.9087L18.442 15.967L18.4893 17.0619H19.525H20.5241H21.5447L21.4973 17.0016L21.1808 16.7349L21.1614 16.5413L21.2088 16.4897L20.959 16.1606L20.8643 15.9906L20.7588 15.8293L20.5327 15.3647L20.3518 15.0657L20.2205 14.7538L20.2442 14.7258L20.4617 15.1517L20.5865 15.2851L20.6791 15.3797L20.733 15.3281L20.7911 15.1732L20.8256 14.9495L20.8858 14.8291L20.8535 14.7538L20.6705 14.3214L20.5542 14.3946L20.3562 14.3774L20.1494 14.3085L20.0999 14.4053L20.0181 14.2591L19.8351 14.2203L19.6155 14.2461L19.5186 14.33L19.3334 14.4247L19.2128 14.3774Z" fill="#02576C" stroke="#02576C" stroke-width="0.0624113" stroke-linejoin="round"/>
<path d="M22.4166 19.0172L22.2659 18.8709L22.1798 18.5977L22.0118 18.2535L21.8891 18.4235L21.6996 18.4729L21.6221 18.5633L21.607 18.7612L21.5144 19.1978L21.5467 19.3183L21.8546 19.3807L21.9257 19.157L22.0893 19.2925L22.2401 19.2237L22.3047 19.286L22.4834 19.2882L22.7159 19.4086L22.7891 19.5119L22.9075 19.6065L23.0238 19.7808L23.1164 19.8776L23.2284 19.9034L23.3059 19.8303L23.1724 19.7399L23.0863 19.6388L22.9377 19.4667L22.7848 19.2968L22.4166 19.0172Z" fill="#02576C" stroke="#02576C" stroke-width="0.0624113" stroke-linejoin="round"/>
<path d="M21.9257 19.157L21.8546 19.3807L21.5467 19.3183L21.5166 19.5743L21.4197 19.8668L21.2668 20.0131L21.1635 20.2411L21.1398 20.3637L21.0192 20.4454L20.9482 20.7573L20.9503 20.7939L20.9589 21.0262L20.9202 21.1165L20.7824 21.123L20.6962 21.2929L20.8577 21.3144L20.9934 21.4586L21.0407 21.579L21.1635 21.6479L21.3228 21.9705L21.4606 22.0221L21.4628 22.1878L21.5532 22.2867H21.7362L22.0743 22.5384L22.1561 22.5427L22.2185 22.5341L22.2767 22.5685L22.4532 22.5922L22.5286 22.4674L22.7676 22.3426L22.8731 22.4437H23.054L23.125 22.3491L23.293 22.3448L23.5234 22.134L23.8657 22.1211L24.587 21.2284L24.3653 21.2306L23.4975 20.8778L23.3942 20.7702L23.2951 20.6283L23.1918 20.4626L23.2456 20.3572L23.1853 20.3056L23.1229 20.325L22.9765 20.3207L22.97 20.2303L22.9463 20.1486L23.0303 20.0088L23.1164 19.8776L23.0238 19.7808L22.9076 19.6065L22.7891 19.5119L22.7159 19.4086L22.4834 19.2882L22.3047 19.286L22.2401 19.2236L22.0893 19.2925L21.9257 19.157Z" fill="#02576C" stroke="#02576C" stroke-width="0.0624113" stroke-linejoin="round"/>
<path d="M15.4898 22.9342L15.4575 22.9191L15.3004 22.9579L15.141 22.917L15.0161 22.9364L15.0183 23.2956L14.6372 23.2913L14.5467 23.3085L14.4951 23.53L14.4305 23.7473L14.3723 23.8419L14.3659 23.9409L14.5231 24.2485L14.6975 24.4937L14.9666 24.7949L15.1669 24.6292L15.0678 24.4335L15.1582 24.3582L15.337 24.3216L15.3585 24.1904L15.4985 24.3324L15.731 24.3453L15.8107 24.2055L15.8451 24.0076L15.8171 23.7753L15.6922 23.5989L15.8064 23.2526L15.7396 23.1945L15.5437 23.2181L15.4705 23.0654L15.4898 22.9342Z" fill="#02576C" stroke="#02576C" stroke-width="0.0624113" stroke-linejoin="round"/>
<path d="M12.0555 20.3314L11.9349 20.3077L11.8509 20.3551L11.7347 20.3336L11.2803 20.3465L11.2739 20.5164L11.3083 20.7401L11.3772 21.1639L11.2674 21.4134L11.1985 21.7489L11.3105 22.0049L11.2997 22.1232L11.5344 22.2071L11.7713 22.1211L11.9155 22.02L12.3289 21.8457L12.2687 21.7403L12.1998 21.551L12.1782 21.4048L12.2364 21.1359L12.1718 21.0283L12.1459 20.7939V20.5766L12.0361 20.4239L12.0555 20.3314Z" fill="#02576C" stroke="#02576C" stroke-width="0.0624113" stroke-linejoin="round"/>
<path d="M9.0411 19.9076L9.00234 19.9227L8.86023 19.899L8.84085 19.9335L8.78271 19.9399L8.59539 19.8668L8.4705 19.8646L8.46404 19.9657L8.43605 19.9958L8.45543 20.0948L8.41452 20.1335L8.35638 20.1357L8.28748 20.1851L8.20781 20.1787L8.08939 20.3249L8.1669 20.3723L8.20351 20.439L8.2315 20.5702L8.29609 20.6282L8.36284 20.667L8.46404 20.7831L8.57816 20.9595L8.71812 20.8283L8.75042 20.7466L8.79563 20.682L8.86669 20.6756L8.92913 20.6196H9.13799L9.20905 20.7272L9.26503 20.852L9.25642 20.938L9.29733 21.0154L9.29517 21.1251L9.36623 21.1079L9.42221 21.1015L9.49111 21.0671L9.60093 21.2499L9.58155 21.3704L9.63322 21.4327L9.70643 21.4349L9.76242 21.3144L9.83562 21.323H9.87653L9.89376 21.1918L9.87438 21.1337L9.89807 21.0929L9.99711 21.0585L9.93252 20.8197L9.87223 20.6971L9.89376 20.596L9.94759 20.5723L9.86792 20.4863L9.88299 20.3981L9.84854 20.3637L9.79256 20.3916L9.80548 20.2948L9.85931 20.2195L9.75165 20.0948L9.7215 20.013L9.66337 19.9464L9.61169 19.9399L9.54925 19.9808L9.46312 20.0195L9.39207 20.084L9.2801 20.0604L9.20905 19.9851L9.16598 19.9765L9.09708 20.0152H9.05402L9.0411 19.9076Z" fill="#02576C" stroke="#02576C" stroke-width="0.0624113" stroke-linejoin="round"/>
<path d="M7.65219 19.6969L7.88904 19.7012L7.95364 19.6603L8.00101 19.6582L8.0979 19.5893L8.20987 19.6517L8.32183 19.6582L8.43595 19.5915L8.38428 19.5054L8.29815 19.5549L8.21633 19.5528L8.11513 19.4796L8.03331 19.4839L7.97302 19.5549L7.6888 19.5635L7.65219 19.6969Z" fill="#02576C" stroke="#02576C" stroke-width="0.0624113" stroke-linejoin="round"/>
<path d="M8.4705 19.8647L7.98818 19.8517L7.91713 19.8862L7.831 19.8754L7.69104 19.9249L7.70611 19.9873L7.78578 20.0518L7.78363 20.097L7.84176 20.1809L7.95158 20.2002L8.08938 20.325L8.20781 20.1787L8.28747 20.1852L8.35638 20.1357L8.41451 20.1335L8.45542 20.0948L8.43604 19.9959L8.46404 19.9658L8.4705 19.8647Z" fill="#02576C" stroke="#02576C" stroke-width="0.0624113" stroke-linejoin="round"/>
<path d="M15.0162 22.9363L14.5877 22.9299L14.4994 23.2633L14.5468 23.3085L14.6372 23.2912L15.0183 23.2955L15.0162 22.9363Z" fill="#02576C" stroke="#02576C" stroke-width="0.0624113" stroke-linejoin="round"/>
<path d="M23.0541 22.4437H22.8732L22.7677 22.3426L22.5287 22.4674L22.4534 22.5922L22.2768 22.5685L22.2187 22.5341L22.1562 22.5427L22.0744 22.5384L21.7364 22.2867H21.5533L21.4629 22.1878L21.4607 22.0221L21.3229 21.9705L21.1485 22.1663L20.9892 22.3448L21.1162 22.5513L21.1485 22.7019L21.267 23.0417L21.1722 23.259L21.0452 23.4569L20.9698 23.5773V23.5924L21.0323 23.7043L21.015 23.9258L21.9646 24.5324L21.9797 24.7045L22.3522 25.0013L22.4598 24.9024L22.5137 24.7045L22.5998 24.5862L22.6407 24.3754L22.7397 24.3539L22.8065 24.2291L22.9917 24.1108L22.8366 23.8656L22.828 22.7815L23.0541 22.4437Z" fill="#02576C" stroke="#02576C" stroke-width="0.0624113" stroke-linejoin="round"/>
<path d="M9.83564 21.3231L9.76244 21.3144L9.70645 21.4349L9.63324 21.4328L9.58157 21.3704L9.60095 21.2499L9.49113 21.0671L9.42223 21.1015L9.36625 21.1079L9.24352 21.2478L9.12509 21.4091L9.11002 21.4951L9.04758 21.5898L9.22199 21.7812L9.44592 21.9447L9.68277 22.1706L9.95407 22.3125L10.023 22.3104L10.0445 22.0652L10.0682 22.0286L10.0617 21.9103L9.94976 21.7855L9.86794 21.7662L9.79043 21.6844L9.84856 21.5532L9.82273 21.4091L9.83564 21.3231Z" fill="#02576C" stroke="#02576C" stroke-width="0.0624113" stroke-linejoin="round"/>
<path d="M18.373 14.216L18.3063 14.1192L18.0543 14.0848L17.9704 14.0332H17.8756L17.7809 13.8998L17.4385 13.8396L17.2684 13.8783L17.0983 14.0181L17.0273 14.1623L17.1005 14.3903L16.9863 14.5258L16.8679 14.6032L16.5902 14.4548L16.2306 14.3322L16.0023 14.2741L15.871 14.0095L15.5329 13.8783L15.3219 13.8288L15.2186 13.8547L14.9214 13.7514L14.915 13.9794L14.7944 14.0655L14.7212 14.1601L14.5511 14.2741L14.5834 14.3967L14.564 14.5215L14.4434 14.5903L14.5317 14.8527L14.5489 14.9904L14.5102 15.2335L14.5317 15.369L14.5016 15.5325L14.5296 15.7196L14.4305 15.8444L14.5855 16.0616L14.5985 16.1885L14.691 16.3542L14.8095 16.3004L15.0162 16.4381L15.1325 16.6252L15.5416 16.7543L15.6901 16.9156L15.8688 16.8059L16.1251 16.6424L17.1672 17.2124L18.2158 17.7825L18.2137 17.6577H18.5108L18.4893 17.0619L18.4419 15.967L18.3795 14.9087L18.289 14.6677L18.3407 14.4849L18.2933 14.358L18.373 14.216Z" fill="#02576C" stroke="#02576C" stroke-width="0.0624113" stroke-linejoin="round"/>
<path d="M19.1374 32.6999L19.1912 32.6052L19.3355 32.5579L19.3872 32.4611L19.4755 32.317L19.3936 32.2267L19.2903 32.1363L19.1675 32.1966L19.0211 32.3127L18.8726 32.4998L19.0448 32.7279L19.1374 32.6999Z" fill="#02576C" stroke="#02576C" stroke-width="0.0624113" stroke-linejoin="round"/>
<path d="M11.5128 13.1426L11.4052 13.1405L11.1489 13.0738L10.9121 13.0932L10.7657 12.9663L10.5826 12.9641L10.5008 13.1491L10.3286 13.461L10.1412 13.5836L9.88717 13.7213L9.72137 13.9213L9.68261 14.0783L9.57926 14.3322L9.63309 14.7022L9.41562 14.9495L9.28643 15.0291L9.07972 15.2313L8.84287 15.2657L8.71152 15.3797L8.70722 15.384L8.53712 15.6873L8.36271 15.797L8.26581 15.9799L8.25505 16.139L8.18184 16.3133L8.09571 16.3606L7.94714 16.5499L7.8524 16.7607L7.86747 16.8596L7.77919 17.0167L7.67799 17.0963L7.66077 17.2339L7.66507 17.2361L8.24643 17.2124L8.28089 17.1049L8.38854 16.9715L8.48329 16.5606L8.84717 16.238L8.97637 15.8637L9.05603 15.8401L9.14647 15.6077L9.36179 15.5776L9.45222 15.6163H9.56849L9.65247 15.5475L9.80965 15.5389L9.8075 15.3776H9.84626L9.85056 15.027L10.264 14.8076L10.5181 14.7624L10.7248 14.6828L10.8238 14.5322L11.1209 14.4161L11.1339 14.1967L11.2781 14.1708L11.3944 14.0611L11.7217 14.0117L11.7691 13.8955L11.7023 13.8331L11.6183 13.5169L11.6033 13.3362L11.5128 13.1426Z" fill="#02576C" stroke="#02576C" stroke-width="0.0624113" stroke-linejoin="round"/>
<path d="M25.1146 27.6428L25.0608 27.4471L24.9962 27.3202L24.9122 27.1933L24.8196 27.3266L24.8046 27.5052L24.6517 27.7117L24.5419 27.6751L24.5699 27.8042L24.4837 27.9526L24.2598 28.1354L24.1026 28.3054L23.9863 28.3097L23.8873 28.3634L23.7387 28.4237L23.6095 28.4366L23.5622 28.6237L23.461 28.7915L23.4653 29.0647L23.5019 29.2518L23.5536 29.3938L23.517 29.5831L23.3791 29.8089L23.3727 29.9079L23.25 29.9595L23.1897 30.1746L23.1983 30.3876L23.2715 30.6242L23.2693 30.8888L23.3253 31.0458L23.5213 31.1533L23.6612 31.2286L23.8959 31.1039L24.1091 31.0329L24.2555 30.6866L24.3868 30.2736L24.5871 29.71L24.7443 29.2991L24.8713 28.9528L24.9058 28.7011L24.9811 28.6323L25.0134 28.5054L24.9768 28.286L25.0328 28.1978L25.1082 28.372L25.1598 28.2838L25.1964 28.1419L25.1362 28.0021L25.1146 27.6428Z" fill="#02576C" stroke="#02576C" stroke-width="0.0624113" stroke-linejoin="round"/>
<path d="M13.1536 17.9094L12.8672 17.9373L12.8629 17.7481L12.7444 17.7007L12.583 17.6147L12.5205 17.477L11.6506 16.8274L10.7894 16.1778L10.3975 16.1821L10.5073 17.4663L10.6236 18.7504L10.6666 18.7892L10.6085 18.9957L9.56419 19L9.52328 19.0666L9.42423 19.0473L9.27566 19.1054L9.09479 19.0236L9.01297 19.0301L8.9656 19.2065L8.87732 19.2602L8.88593 19.4452L8.93546 19.6152L9.03235 19.699L9.05388 19.8131L9.04096 19.9077L9.05388 20.0152H9.09694L9.16585 19.9765L9.20891 19.9851L9.27997 20.0604L9.39193 20.0841L9.46299 20.0196L9.54911 19.9808L9.61156 19.94L9.66323 19.9464L9.72137 20.0131L9.75151 20.0948L9.85917 20.2196L9.80534 20.2949L9.79243 20.3917L9.84841 20.3637L9.88286 20.3981L9.86779 20.4863L9.94746 20.5724L9.98191 20.5444L10.053 20.5896L10.2554 20.5917L10.3049 20.5057L10.3501 20.5121L10.4255 20.4777L10.4642 20.6046L10.5267 20.5681L10.6343 20.5229L10.6171 20.3508L10.6903 20.2239L10.6838 20.1228L10.8927 19.8776L10.9315 19.6732L11.0047 19.6001L11.1296 19.641L11.2394 19.5807L11.276 19.5033L11.4784 19.3699L11.5279 19.2774L11.7712 19.1527L11.9155 19.1118L11.9801 19.1677H12.148L12.3138 19.1548L12.4107 19.0494L12.766 19.0236L12.9964 18.9763L13.0179 18.7935L13.16 18.5956L13.1536 17.9094Z" fill="#02576C" stroke="#02576C" stroke-width="0.0624113" stroke-linejoin="round"/>
<path d="M22.645 26.8125L22.6084 26.6792L22.3931 26.8534L22.1045 26.9674L21.9473 26.9631L21.8505 27.0535L21.6696 27.0599L21.5985 27.0986L21.2885 27.0147L21.1873 27.0255L21.1162 27.3073L21.1464 27.6471H21.1614L21.2519 27.7418L21.3509 27.9569L21.3574 28.3398L21.2411 28.4043L21.1528 28.6108L20.9913 28.4258L20.9806 28.2172L21.043 28.0773L21.0322 27.959L20.931 27.8838L20.86 27.9096L20.7136 27.7676L19.9147 28.0128L19.932 28.2258L19.9449 28.3355L20.1602 28.329L20.2786 28.3935L20.3325 28.4667L20.4552 28.4882L20.5865 28.5828L20.5693 28.9593L20.509 29.1658L20.4875 29.3895L20.5241 29.4777L20.4875 29.6519L20.4466 29.6799L20.3691 29.8928L20.0805 30.2305L20.1817 30.65L20.2356 30.8629L20.171 31.1942L20.186 31.3018L20.214 31.4351L20.2269 31.5663L20.4207 31.5685L20.453 31.4115L20.3906 31.3921L20.3777 31.2673L20.4961 31.1555L20.8148 30.9942L21.0322 30.8952L21.1464 30.7877L21.1916 30.665L21.1334 30.6134L21.1851 30.4758L21.2088 30.1832L21.1614 30.1983L21.1636 30.1101L21.1227 29.9358L21.0107 29.71L21.0452 29.497L21.155 29.4282L21.3466 29.2174L21.4478 29.1636L21.7579 28.8431L22.0593 28.699L22.3026 28.585L22.477 28.4022L22.589 28.1957L22.6773 27.9827L22.6385 27.8364L22.6471 27.3718L22.6256 27.1094L22.645 26.8125Z" fill="#02576C" stroke="#02576C" stroke-width="0.0624113" stroke-linejoin="round"/>
<path d="M10.7894 16.1778L9.83984 15.4572L9.82907 15.9067L8.99148 15.8917L8.98287 16.6531L8.74171 16.6811L8.67496 16.8338L8.71587 17.264L7.70602 17.2619L7.64789 17.3608L7.77923 17.4899L7.84383 17.6297L7.81368 17.7781L7.84168 17.9265L7.86321 18.2212L7.82445 18.5009L7.74909 18.6471L7.76847 18.8085L7.8589 18.7117L7.98809 18.7375L8.11513 18.673L8.26155 18.6708L8.38428 18.7568L8.55438 18.8364L8.70941 19.0558L8.87736 19.2602L8.96564 19.2064L9.01301 19.03L9.09483 19.0236L9.2757 19.1053L9.42427 19.0472L9.52332 19.0666L9.56423 18.9999L10.6085 18.9956L10.6667 18.7891L10.6236 18.7504L10.5073 17.4662L10.3975 16.1821L10.7894 16.1778Z" fill="#02576C" stroke="#02576C" stroke-width="0.0624113" stroke-linejoin="round"/>
<path d="M21.0602 27.7912L21.0667 27.6794L21.0085 27.5912L21.0171 27.4621L20.9461 27.2427L21.0258 27.0771L21.0215 26.7179L20.9332 26.5264L20.9418 26.4942L20.8923 26.4124L20.636 26.3565L20.7566 26.4899L20.8169 26.7415L20.7695 26.8233L20.7114 27.0642L20.7545 27.3116L20.6683 27.4148L20.58 27.6902L20.7135 27.7676L20.86 27.9096L20.931 27.8837L21.0322 27.959L21.043 28.0773L20.9805 28.2172L20.9913 28.4258L21.1528 28.6108L21.2411 28.4043L21.3574 28.3398L21.3509 27.9569L21.2518 27.7418L21.1614 27.6471H21.1463L21.1485 27.688L21.198 27.6988L21.2454 27.8579L21.2368 27.8945L21.1485 27.7805L21.1011 27.8536L21.0602 27.7912Z" fill="#02576C" stroke="#02576C" stroke-width="0.0624113" stroke-linejoin="round"/>
<path d="M18.0758 28.8238L17.5935 28.9464L16.9669 28.9033L16.7904 28.7614L15.7396 28.7743L15.6987 28.7958L15.5458 28.6603L15.3779 28.6517L15.2228 28.7011L15.0958 28.7592L15.1087 28.9872L15.3133 29.2776L15.3671 29.4648L15.4963 29.8218L15.6233 30.0671L15.7224 30.1897L15.7504 30.3531L15.7482 30.7081L15.8214 31.1662L15.8774 31.3835L15.9248 31.6717L16.0174 31.889L16.1961 32.1148L16.3253 31.9686L16.4222 32.0482L16.4588 32.1772L16.5707 32.1987L16.7279 32.2547L16.8657 32.2332L17.0983 32.0804L17.1456 30.9812L17.1758 30.1122L17.4299 30.1015L17.4708 29.041L17.6646 29.0324L18.0672 28.927L18.1619 29.0496L18.332 28.9335H18.4096L18.5581 28.8668V28.841L18.4569 28.7743L18.289 28.7571L18.0758 28.8238Z" fill="#02576C" stroke="#02576C" stroke-width="0.0624113" stroke-linejoin="round"/>
<path d="M15.5416 16.7542L15.1325 16.6252L14.2605 17.1931L13.5176 17.776L13.1537 17.9094L13.1602 18.5955L13.0181 18.7934L12.9965 18.9763L12.7661 19.0236L12.4109 19.0494L12.314 19.1548L12.1482 19.1677L12.1266 19.3118L12.1611 19.4473L12.3097 19.6409L12.3183 19.7851L12.6197 19.8517L12.6133 20.0561L12.7015 19.97L12.7941 19.9679L12.9944 20.14L13.0116 19.8733L13.087 19.7549L13.1214 19.5829L13.1903 19.5183L13.4702 19.4839L13.7329 19.5936L13.832 19.7076L13.9633 19.7119L14.0882 19.6388L14.4047 19.7915L14.5382 19.7851L14.6911 19.6581L14.844 19.6668L14.9193 19.6259L15.0593 19.6431L15.2617 19.7291L15.4641 19.5635L15.5265 19.5764L15.7074 19.9012L15.7548 19.8948L15.7634 19.8001L15.8366 19.7829L15.8603 19.6431L15.6923 19.6366L15.6902 19.4452L15.5804 19.3333L15.6859 18.9419L16.0132 18.6622L16.0175 18.275L16.1036 17.6706L16.1574 17.5415L16.0476 17.4404L16.0411 17.3458L15.9421 17.2683L15.8689 16.8059L15.6902 16.9156L15.5416 16.7542Z" fill="#02576C" stroke="#02576C" stroke-width="0.0624113" stroke-linejoin="round"/>
<path d="M15.7547 19.8948L15.7073 19.9012L15.5264 19.5764L15.464 19.5635L15.2616 19.7291L15.0592 19.6431L14.9192 19.6259L14.8439 19.6668L14.691 19.6582L14.5381 19.7851L14.4046 19.7915L14.0881 19.6388L13.9632 19.7119L13.8319 19.7076L13.7328 19.5936L13.4701 19.4839L13.1902 19.5183L13.1213 19.5829L13.0869 19.7549L13.0115 19.8733L12.9943 20.14L12.9835 20.2389L13.0438 20.4153L12.9921 20.5358L13.0201 20.6154L12.8931 20.7982L12.8134 20.8907L12.7639 21.0778L12.7703 21.2671L12.7574 21.7468H12.9878L13.1859 21.7447L13.3711 21.9404L13.4594 22.1555L13.5993 22.3405L13.8103 22.347L13.9115 22.2803L14.0106 22.2975L14.284 22.1899L14.3508 21.9791L14.4735 21.6909L14.551 21.6887L14.7061 21.5145L14.8051 21.5102L14.9537 21.6328L15.1324 21.5317L15.1561 21.4091L15.2142 21.2886L15.2551 21.1381L15.3929 21.0155L15.4446 20.8068L15.5006 20.7401L15.535 20.5852L15.6018 20.396L15.8214 20.1658L15.8322 20.0668L15.8602 20.0131L15.7547 19.8948Z" fill="#02576C" stroke="#02576C" stroke-width="0.0624113" stroke-linejoin="round"/>
<path d="M20.0547 23.9473L19.8953 24.0398L19.8329 24.0097L19.7575 24.0914L19.7468 24.27L19.7102 24.2915L19.6843 24.455L19.8437 24.4786L19.9255 24.3087L20.0654 24.3281L20.1408 24.2893L20.158 24.1151L20.0547 23.9473Z" fill="#02576C" stroke="#02576C" stroke-width="0.0624113" stroke-linejoin="round"/>
<path d="M9.8463 15.3776H9.80754L9.80969 15.5389L9.65251 15.5475L9.56853 15.6164H9.45226L9.36183 15.5776L9.14651 15.6078L9.05608 15.8401L8.97641 15.8637L8.84722 16.238L8.48333 16.5607L8.38859 16.9715L8.28093 17.1049L8.24648 17.2124L7.66511 17.2361L7.66081 17.2339L7.64789 17.3609L7.70602 17.2619L8.71587 17.2641L8.67496 16.8338L8.74171 16.6811L8.98287 16.6532L8.99148 15.8917L9.82907 15.9067L9.83984 15.4572L9.8463 15.3991V15.3776Z" fill="#02576C" stroke="#02576C" stroke-width="0.0624113" stroke-linejoin="round"/>
<path d="M21.607 18.7612L21.6221 18.5633L21.6996 18.4729L21.8891 18.4235L22.0118 18.2535L21.8632 18.1438L21.7599 18.0707L21.6458 17.7158L21.5919 17.4082L21.6458 17.3544L21.5446 17.0619H20.524H19.5249H18.4892L18.5107 17.6577H18.2136L18.2157 17.7825L18.2674 18.9634L18.0413 18.944L17.9294 19.1634L17.8648 19.3463L17.9207 19.4151L17.8389 19.5076L17.8712 19.6302L17.8066 19.755L17.7808 19.8625L17.8734 19.8453L17.9294 19.9615L17.9358 20.1335L18.0349 20.2217L18.0327 20.2949L18.065 20.4218L18.22 20.6068L18.2222 20.7294L18.1813 20.852L18.2007 20.9445L18.2911 21.0305L18.3126 21.0456L18.3945 21.0112L18.4827 20.9552L18.5452 20.6907L18.6141 20.553L18.8036 20.5121L18.8488 20.5939L18.9887 20.7659L19.0598 20.7918L19.1545 20.7423L19.3419 20.7509L19.3806 20.8133H19.6411L19.6476 20.7509L19.7833 20.695L19.8069 20.6089L19.906 20.5465L20.1299 20.7208L20.2634 20.6907L20.3883 20.4756L20.5283 20.3121L20.5003 20.1335L20.4357 20.0475L20.5929 20.0303L20.6079 19.9658L20.7307 19.9851L20.7048 20.2045L20.7414 20.4196L20.8814 20.5379L20.9137 20.639V20.7875L20.9503 20.7939L20.9481 20.7573L21.0192 20.4454L21.1398 20.3637L21.1635 20.2411L21.2668 20.0131L21.4197 19.8668L21.5166 19.5743L21.5467 19.3183L21.5144 19.1978L21.607 18.7612Z" fill="#02576C" stroke="#02576C" stroke-width="0.0624113" stroke-linejoin="round"/>
<path d="M20.9138 20.639L20.8815 20.5379L20.7415 20.4196L20.7049 20.2045L20.7307 19.9851L20.608 19.9658L20.5929 20.0303L20.4358 20.0475L20.5004 20.1335L20.5283 20.3121L20.3884 20.4756L20.2635 20.6907L20.13 20.7208L19.9061 20.5465L19.807 20.6089L19.7833 20.695L19.6477 20.7509L19.6412 20.8133H19.3807L19.3419 20.7509L19.1546 20.7423L19.0599 20.7918L18.9888 20.7659L18.8489 20.5939L18.8036 20.5121L18.6142 20.553L18.5453 20.6907L18.4828 20.9552L18.3945 21.0112L18.3127 21.0456L18.4936 21.1617L18.64 21.28L18.6422 21.3768L18.8209 21.5317L18.9328 21.6608L19.0017 21.8393L19.1998 21.9576L19.2429 22.0523L19.4044 22.2975L19.5228 22.3341L19.5917 22.2846L19.7144 22.3039L19.8609 22.2416L19.9233 22.3685L20.158 22.5664L20.2657 22.4846L20.4336 22.5513L20.6446 22.4803L20.8298 22.4825L20.9891 22.3448L21.1485 22.1663L21.3229 21.9705L21.1635 21.6479L21.0408 21.579L20.9934 21.4586L20.8578 21.3145L20.6963 21.293L20.7824 21.123L20.9202 21.1166L20.959 21.0262L20.9504 20.7939L20.9138 20.7875V20.639Z" fill="#02576C" stroke="#02576C" stroke-width="0.0624113" stroke-linejoin="round"/>
<path d="M8.8774 19.2602L8.70946 19.0559L8.55443 18.8365L8.38432 18.7569L8.26159 18.6708L8.11518 18.673L7.98814 18.7375L7.85895 18.7117L7.76851 18.8085L7.70392 18.9612L7.57257 19.1699L7.4563 19.2258L7.58549 19.3312L7.68884 19.5635L7.97306 19.5549L8.03335 19.4839L8.11518 19.4796L8.21637 19.5528L8.2982 19.5549L8.38432 19.5054L8.436 19.5915L8.32188 19.6582L8.20992 19.6517L8.09795 19.5893L8.00106 19.6582L7.95369 19.6603L7.88909 19.7012L7.65224 19.6969L7.691 19.9249L7.83095 19.8754L7.91708 19.8862L7.98814 19.8518L8.47045 19.8647L8.59534 19.8668L8.78266 19.94L8.8408 19.9335L8.86018 19.8991L9.00229 19.9227L9.04105 19.9077L9.05397 19.813L9.03243 19.699L8.93554 19.6151L8.88602 19.4452L8.8774 19.2602Z" fill="#02576C" stroke="#02576C" stroke-width="0.0624113" stroke-linejoin="round"/>
<path d="M9.36622 21.108L9.29517 21.1252L9.29732 21.0155L9.25641 20.938L9.26502 20.852L9.20904 20.7272L9.13798 20.6197H8.92913L8.86668 20.6756L8.79563 20.6821L8.75041 20.7466L8.71811 20.8283L8.57816 20.9596L8.6083 21.1811L8.65352 21.2887L8.78917 21.4478L8.9765 21.5683L9.04755 21.5898L9.10999 21.4952L9.12507 21.4091L9.24349 21.2478L9.36622 21.108Z" fill="#02576C" stroke="#02576C" stroke-width="0.0624113" stroke-linejoin="round"/>
<path d="M20.186 31.3017L20.0611 31.2458L19.9857 31.2673L19.9556 31.3534L19.8781 31.4652L19.8737 31.5685L20.0159 31.7298L20.1666 31.6975L20.2269 31.5663L20.214 31.4351L20.186 31.3017Z" fill="#02576C" stroke="#02576C" stroke-width="0.0624113" stroke-linejoin="round"/>
<path d="M18.2158 17.7824L17.1672 17.2124L16.125 16.6424L15.8688 16.8059L15.942 17.2683L16.041 17.3458L16.0475 17.4404L16.1573 17.5415L16.1035 17.6706L16.0174 18.275L16.0131 18.6622L15.6858 18.9419L15.5803 19.3333L15.6901 19.4452L15.6922 19.6366L15.8602 19.6431L15.8365 19.7829L15.942 19.9744L15.9635 20.1701L15.9549 20.368L16.1013 20.639L15.9549 20.6369L15.8817 20.6562L15.7611 20.6283L15.7073 20.7681L15.8623 20.9423L15.9764 20.9918L16.0152 21.1144L16.0992 21.3209L16.0604 21.4005L16.2757 21.379L16.3231 21.3015L16.3683 21.308L16.4329 21.3747L16.7624 21.2607L16.8722 21.1445L17.0078 21.0413L16.982 20.9359L17.0552 20.9101L17.3093 20.9273L17.5526 20.7896L17.7378 20.4648L17.8669 20.3443L18.0327 20.2949L18.0349 20.2217L17.9359 20.1335L17.9294 19.9614L17.8734 19.8453L17.7808 19.8625L17.8067 19.7549L17.8713 19.6302L17.839 19.5076L17.9208 19.4151L17.8648 19.3463L17.9294 19.1634L18.0414 18.944L18.2674 18.9634L18.2158 17.7824Z" fill="#02576C" stroke="#02576C" stroke-width="0.0624113" stroke-linejoin="round"/>
<path d="M12.2858 20.3379L12.0555 20.3314L12.0361 20.4239L12.1459 20.5766V20.7939L12.1717 21.0284L12.2363 21.1359L12.1782 21.4048L12.1997 21.5511L12.2686 21.7404L12.3289 21.8458L12.5399 21.7812L12.4753 21.5769L12.4861 20.8928L12.4323 20.8326L12.4236 20.6863L12.3311 20.5809L12.2514 20.4927L12.2858 20.3379Z" fill="#02576C" stroke="#02576C" stroke-width="0.0624113" stroke-linejoin="round"/>
<path d="M14.9215 13.7514L14.8246 13.7041L14.7557 13.5621L14.6265 13.5578L14.5748 13.3943L14.732 13.2438L14.7557 12.9835L14.6674 12.9082L14.6631 12.7684L14.7815 12.6178L14.7621 12.5597L14.5576 12.6716L14.5597 12.5189L14.3853 12.4823L14.1226 12.6049L14.0753 12.7598L14.1248 13.048L14.0731 13.2975L13.9224 13.4653L13.9504 13.689L14.1592 13.8676L14.1636 13.9386L14.3207 14.059L14.4435 14.5903L14.564 14.5215L14.5834 14.3967L14.5511 14.2741L14.7212 14.1601L14.7944 14.0655L14.915 13.9794L14.9215 13.7514Z" fill="#02576C" stroke="#02576C" stroke-width="0.0624113" stroke-linejoin="round"/>
<path d="M20.1473 23.9108L20.0547 23.9473L20.1581 24.1151L20.1408 24.2894L20.0655 24.3281L20.0784 24.4442L20.1344 24.5131L20.1365 24.6099L20.0719 24.6722L19.9664 24.8271L19.8695 24.9347L19.8437 24.939L19.8286 25.0659L19.8781 25.1089L19.8674 25.2358L19.9169 25.3541L19.8545 25.4681L20.0633 25.6703L20.0805 25.8532L20.2076 26.1586L20.2205 26.1672L20.3238 26.2167L20.4896 26.2683L20.6361 26.3565L20.8923 26.4124L20.9418 26.4942L20.959 26.4361L21.0925 26.5953L21.1055 26.9072L21.1894 27.0212L21.1873 27.0255L21.2885 27.0147L21.5985 27.0986L21.6696 27.0599L21.8505 27.0534L21.9474 26.9631L22.1045 26.9674L22.3931 26.8534L22.6084 26.6792L22.5136 26.6146L22.4124 26.3221L22.3263 26.1349L22.3478 25.993L22.3349 25.9026L22.4103 25.7219L22.4038 25.6445L22.238 25.537L22.2251 25.3692L22.3522 25.0013L21.9797 24.7045L21.9646 24.5324L21.015 23.9258L20.8858 24.057L20.7975 24.1926L20.9009 24.2937L20.7502 24.3668L20.7179 24.3324L20.565 24.3517L20.4466 24.4184L20.3755 24.3023L20.425 24.0936L20.4358 23.9151L20.1473 23.9108Z" fill="#02576C" stroke="#02576C" stroke-width="0.0624113" stroke-linejoin="round"/>
<path d="M20.9892 22.3448L20.8298 22.4825L20.6447 22.4803L20.4337 22.5513L20.2657 22.4846L20.158 22.5664L20.1451 22.9127L20.2506 22.9536L20.1667 23.059L20.0655 23.1386L19.9664 23.2934L19.9104 23.4311L19.8975 23.6699L19.8351 23.7839L19.8329 24.0097L19.8954 24.0398L20.0547 23.9473L20.1473 23.9108L20.4358 23.9151L20.4207 23.8011L20.5435 23.6268L20.7093 23.5838L20.8212 23.5128L20.9569 23.5709L20.9698 23.5924V23.5774L21.0452 23.4569L21.1722 23.259L21.2669 23.0418L21.1485 22.7019L21.1162 22.5513L20.9892 22.3448Z" fill="#02576C" stroke="#02576C" stroke-width="0.0624113" stroke-linejoin="round"/>
<path d="M16.9196 33.9711L17.0338 33.9647L17.1952 33.8507L17.4106 33.8034L17.6754 33.6851L17.7766 33.7001L17.9316 33.6635L18.1965 33.7216L18.3235 33.6657L18.4721 33.7087L18.5108 33.627L18.64 33.6098L18.9113 33.4958L19.1116 33.3603L19.3032 33.1817L19.6133 32.8763L19.7748 32.6633L19.8587 32.5106L19.9772 32.36L20.031 32.317L20.2162 32.1664L20.2915 32.0331L20.3411 31.7857L20.4207 31.5684L20.2269 31.5663L20.1666 31.6975L20.0159 31.7298L19.8738 31.5684L19.8781 31.4652L19.9556 31.3533L19.9858 31.2673L20.0611 31.2458L20.186 31.3017L20.171 31.1942L20.2356 30.8629L20.1817 30.6499L20.0805 30.2305L19.9449 30.2025L19.8566 30.2369L19.7339 30.1875L19.6284 30.1832L19.2559 30.4026L19.0147 30.6241L18.92 30.8242L18.836 30.936L18.696 30.9597L18.6443 31.1017L18.6142 31.1942L18.4463 31.263L18.2395 31.2501L18.1211 31.1662L18.0156 31.1296L17.8864 31.1985L17.8175 31.3404L17.6926 31.4308L17.5591 31.5641L17.3761 31.5942L17.3223 31.4888L17.3546 31.3082L17.2146 31.0242L17.1457 30.9812L17.0984 32.0804L16.8658 32.2331L16.728 32.2546L16.5708 32.1987L16.4589 32.1772L16.4223 32.0481L16.3254 31.9685L16.1962 32.1148L16.362 32.4998V32.502L16.4782 32.7537L16.6268 33.029L16.6225 33.257L16.5385 33.3108L16.6074 33.5108L16.5967 33.6851L16.6247 33.7668L16.6397 33.7259L16.7388 33.8593L16.8206 33.8636L16.9196 33.9711ZM19.1374 32.6999L19.0448 32.7278L18.8726 32.4998L19.0212 32.3127L19.1676 32.1965L19.2903 32.1363L19.3937 32.2267L19.4755 32.317L19.3872 32.4611L19.3355 32.5579L19.1913 32.6052L19.1374 32.6999Z" fill="#02576C" stroke="#02576C" stroke-width="0.0624113" stroke-linejoin="round"/>
<path d="M20.1279 26.1629L20.0396 26.1392L20.0547 26.0747L20.0095 26.0618L19.6563 26.1113L19.5853 26.1478L19.5078 26.3371L19.5637 26.4683L19.5099 26.8211L19.469 27.1201L19.5379 27.1717L19.7188 27.2879L19.792 27.2341L19.8049 27.5546L19.6047 27.5525L19.5013 27.389L19.4087 27.2621L19.2106 27.2212L19.1546 27.0642L18.9931 27.1588L18.7843 27.1158L18.7003 26.9824L18.5345 26.9545L18.4118 26.9609L18.3989 26.8684L18.3084 26.862L18.3343 26.9545L18.302 27.0986L18.345 27.2384L18.302 27.3503L18.3235 27.4514L17.7787 27.4492L17.7443 28.3957L17.9122 28.6387L18.0759 28.8237L18.2891 28.7571L18.457 28.7743L18.5582 28.8409V28.8668L18.6056 28.8883L18.8941 28.9205L18.9759 28.9549L19.0642 28.9485L19.2149 28.7549L19.4496 28.5097L19.5444 28.4882L19.581 28.3849L19.7317 28.2666L19.9319 28.2257L19.9147 28.0128L20.7135 27.7676L20.58 27.6901L20.6683 27.4148L20.7545 27.3116L20.7114 27.0642L20.7695 26.8233L20.8169 26.7415L20.7566 26.4899L20.636 26.3565L20.4896 26.2683L20.3238 26.2167L20.2205 26.1672L20.2075 26.1586L20.2269 26.2081L20.1839 26.2253L20.1279 26.1629Z" fill="#02576C" stroke="#02576C" stroke-width="0.0624113" stroke-linejoin="round"/>
<path d="M20.0804 30.2305L20.3689 29.8928L20.4464 29.6798L20.4873 29.6519L20.5239 29.4776L20.4873 29.3895L20.5089 29.1657L20.5691 28.9592L20.5864 28.5828L20.455 28.4882L20.3323 28.4667L20.2785 28.3935L20.16 28.329L19.9447 28.3354L19.9318 28.2257L19.7316 28.2666L19.5808 28.3849L19.5442 28.4882L19.4495 28.5097L19.2148 28.7549L19.0641 28.9485L18.9758 28.9549L18.894 28.9205L18.6054 28.8883L18.6959 29.127L18.7454 29.1786L18.8208 29.3507L19.1007 29.6777L19.2105 29.71L19.2062 29.8154L19.2729 30.0046L19.471 30.0498L19.6282 30.1832L19.7337 30.1875L19.8564 30.237L19.9447 30.2025L20.0804 30.2305Z" fill="#02576C" stroke="#02576C" stroke-width="0.0624113" stroke-linejoin="round"/>
<path d="M23.6008 20.5014L23.4781 20.3766L23.4243 20.254L23.336 20.1981L23.2456 20.3573L23.1917 20.4627L23.2951 20.6283L23.3941 20.7703L23.4975 20.8778L24.3652 21.2306L24.587 21.2284L23.8657 22.1211L23.5233 22.134L23.2929 22.3448L23.125 22.3491L23.0539 22.4438L22.8279 22.7815L22.8365 23.8656L22.9915 24.1108L23.0496 24.0398L23.1121 23.8828L23.4006 23.5236L23.6461 23.2956L24.0358 23.0009L24.2963 22.76L24.5999 22.3534L24.8174 22.02L25.0327 21.5855L25.1834 21.2048L25.2997 20.8714L25.3622 20.5509L25.4138 20.4433L25.4052 20.2863L25.4224 20.1142L25.4117 20.0303L25.3126 20.0325L25.1942 20.1336L25.0564 20.1637L24.938 20.2088L24.854 20.2131L24.7054 20.2239L24.615 20.2798L24.4858 20.2992L24.2597 20.3917L23.9755 20.4261L23.7322 20.5014H23.6008Z" fill="#02576C" stroke="#02576C" stroke-width="0.0624113" stroke-linejoin="round"/>
</g>
<path fill-rule="evenodd" clip-rule="evenodd" d="M0.0563516 5.74308C0.0375403 5.76023 0.0187564 5.77742 0 5.79464L0.0563516 5.85602V38.383H0.195791C3.32908 41.1912 7.20304 43.0429 11.3588 43.7165C15.5712 44.3994 19.8913 43.8423 23.7927 42.1133C27.6941 40.3843 31.0085 37.558 33.332 33.9786C35.6556 30.3992 36.8879 26.2213 36.879 21.9539C36.87 17.6865 35.6202 13.5139 33.2817 9.94424C30.9432 6.37463 27.617 3.56217 23.7084 1.84952C19.7997 0.136862 15.4774 -0.402057 11.2679 0.298415C7.14529 0.984417 3.30527 2.83013 0.19579 5.61703H0.0563516V5.74308ZM4.7372 7.67297V36.327C6.91327 37.8674 9.41996 38.8976 12.0703 39.3272C15.4313 39.872 18.8782 39.4276 21.9911 38.048C25.104 36.6685 27.7484 34.4134 29.6023 31.5575C31.4562 28.7016 32.4395 25.3681 32.4324 21.9632C32.4252 18.5584 31.428 15.2291 29.5622 12.381C27.6963 9.53283 25.0424 7.28882 21.9238 5.92233C18.8052 4.55584 15.3564 4.12584 11.9977 4.68474C9.37358 5.1214 6.8929 6.14699 4.7372 7.67297Z" fill="#02576C"/>
<defs>
<clipPath id="clip0_1304_14943">
<rect width="21.5319" height="21.5319" fill="white" transform="translate(5.6734 12.4823)"/>
</clipPath>
</defs>
</svg>
