<svg width="40" height="40" viewBox="0 0 40 40" fill="none" xmlns="http://www.w3.org/2000/svg">
<path d="M0 16C0 7.16344 7.16344 0 16 0H24C32.8366 0 40 7.16344 40 16V24C40 32.8366 32.8366 40 24 40H0V16Z" fill="#C6D6E9"/>
<g clip-path="url(#clip0_304_1301)">
<path d="M20.0005 8C13.3795 8 8.00049 13.379 8.00049 20C8.00049 26.621 13.3795 32 20.0005 32C26.6215 32 32.0005 26.621 32.0005 20C32.0005 13.379 26.6215 8 20.0005 8ZM19.9405 9.503L19.9105 10.4285L21.283 10.634L22.21 9.737C23.1138 9.93258 23.9875 10.2479 24.808 10.6745L24.4855 11.1935L25.4005 12.0035L24.4855 12.7685L24.8425 13.6835L26.8765 12.7175L28.1485 13.6835L28.2145 13.475C28.4905 13.823 28.7395 14.1905 28.9705 14.57L27.688 14.8025L26.926 13.988L24.589 14.141L23.164 16.379L24.1315 18.767L27.283 19.733L27.8935 23.4455L28.654 25.376L29.191 25.0715C28.284 26.7151 26.9531 28.0856 25.3367 29.0403C23.7204 29.995 21.8777 30.4991 20.0005 30.5C14.2075 30.5 9.50049 25.793 9.50049 20C9.50049 18.782 9.71799 17.6165 10.1005 16.529L10.1515 16.733L11.7775 17.1905L13.912 18.7655L13.963 21.0545L15.337 22.9355L16.147 28.0205L17.6215 28.9355L17.2165 27.0545L19.7065 23.597L20.7745 21.26L18.2845 18.92L15.589 17.651L14.4715 18.3095L13.1485 16.3265L12.3865 16.6835L11.7265 15.5645L12.8965 14.9555L14.0125 15.6155L15.946 13.226L18.7405 11.498L17.9785 10.073L15.691 10.889L15.406 10.5725C16.8179 9.87813 18.3671 9.51249 19.9405 9.503Z" fill="#196BC6"/>
</g>
<defs>
<clipPath id="clip0_304_1301">
<rect width="24" height="24" fill="white" transform="translate(8 8)"/>
</clipPath>
</defs>
</svg>
