<svg width="40" height="40" viewBox="0 0 40 40" fill="none" xmlns="http://www.w3.org/2000/svg">
<path d="M0 16C0 7.16344 7.16344 0 16 0H24C32.8366 0 40 7.16344 40 16V24C40 32.8366 32.8366 40 24 40H0V16Z" fill="#CEC2E0"/>
<g clip-path="url(#clip0_335_2284)">
<path d="M8.47998 26.7761H22.4V31.4638L25.28 29.7358L28.16 31.4638V26.7761H31.52V8.53613H8.47998V26.7761ZM27.3272 23.5189C27.284 23.5625 27.2379 23.6029 27.1923 23.6437C27.1664 23.6667 27.1424 23.6912 27.1155 23.7133C27.0857 23.7382 27.0541 23.7593 27.0233 23.7829C26.6187 24.0925 26.131 24.2984 25.5987 24.3574C25.5901 24.3584 25.5814 24.3603 25.5723 24.3613C25.4758 24.3709 25.3779 24.3761 25.279 24.3761C25.1801 24.3761 25.0822 24.3709 24.9857 24.3613C24.9771 24.3603 24.9685 24.3584 24.9593 24.3574C24.427 24.2984 23.9398 24.0925 23.5347 23.7829C23.504 23.7593 23.4723 23.7377 23.4425 23.7133C23.4161 23.6912 23.3917 23.6667 23.3657 23.6437C23.3201 23.6029 23.2745 23.5625 23.2309 23.5189C22.7168 22.9985 22.3981 22.2843 22.3981 21.4961C22.3981 19.9078 23.6897 18.6161 25.2781 18.6161C26.8664 18.6161 28.1581 19.9078 28.1581 21.4961C28.16 22.2838 27.8417 22.9981 27.3272 23.5189ZM27.2 29.7685L25.28 28.6165L23.36 29.7685V26.7761V24.8225C23.3763 24.8321 23.3945 24.8384 23.4113 24.8475C23.5385 24.9185 23.6696 24.9838 23.8049 25.0405C23.8107 25.0429 23.8169 25.0448 23.8232 25.0472C24.2729 25.2325 24.7645 25.3361 25.2805 25.3361C25.7965 25.3361 26.288 25.2325 26.7377 25.0472C26.7435 25.0448 26.7497 25.0429 26.756 25.0405C26.8913 24.9838 27.0224 24.919 27.1496 24.8475C27.1664 24.8384 27.1846 24.8321 27.2009 24.8225V26.7761V29.7685H27.2ZM9.43998 9.49613H30.56V25.8161H28.16V24.0277C28.7557 23.3509 29.12 22.4662 29.12 21.4961C29.12 19.3789 27.3973 17.6561 25.28 17.6561C23.1627 17.6561 21.44 19.3789 21.44 21.4961C21.44 22.4662 21.8043 23.3509 22.4 24.0277V25.8161H9.43998V9.49613Z" fill="#40079B"/>
<path d="M26.24 11.4161H13.76V12.3761H26.24V11.4161Z" fill="#40079B"/>
<path d="M23.8399 14.2961H16.1599V15.2561H23.8399V14.2961Z" fill="#40079B"/>
<path d="M16.6399 22.936H11.3599V23.896H16.6399V22.936Z" fill="#40079B"/>
</g>
<defs>
<clipPath id="clip0_335_2284">
<rect width="24" height="24" fill="white" transform="translate(8 8)"/>
</clipPath>
</defs>
</svg>
