<svg width="40" height="40" viewBox="0 0 40 40" fill="none" xmlns="http://www.w3.org/2000/svg">
<path d="M0 16C0 7.16344 7.16344 0 16 0H24C32.8366 0 40 7.16344 40 16V24C40 32.8366 32.8366 40 24 40H0V16Z" fill="#EBD2C1"/>
<g clip-path="url(#clip0_310_1007)">
<path d="M27.125 8C26.8266 8 26.5405 8.11853 26.3295 8.3295C26.1185 8.54048 26 8.82663 26 9.125C26 9.42337 26.1185 9.70952 26.3295 9.9205C26.5405 10.1315 26.8266 10.25 27.125 10.25H28.16L25.205 13.205C25.0063 13.4183 24.8981 13.7003 24.9033 13.9918C24.9084 14.2832 25.0265 14.5613 25.2326 14.7674C25.4387 14.9736 25.7168 15.0916 26.0082 15.0968C26.2997 15.1019 26.5818 14.9937 26.795 14.795L29.75 11.84V12.875C29.75 13.1734 29.8685 13.4595 30.0795 13.6705C30.2905 13.8815 30.5766 14 30.875 14C31.1734 14 31.4595 13.8815 31.6705 13.6705C31.8815 13.4595 32 13.1734 32 12.875V9.125C32 8.82663 31.8815 8.54048 31.6705 8.3295C31.4595 8.11853 31.1734 8 30.875 8H27.125Z" fill="#D35400"/>
<path fill-rule="evenodd" clip-rule="evenodd" d="M20.1125 14.111C19.9604 14.0379 19.7938 13.9999 19.625 13.9999C19.4562 13.9999 19.2896 14.0379 19.1375 14.111L9.01249 18.986C8.82147 19.0778 8.66027 19.2217 8.54744 19.4011C8.43462 19.5804 8.37476 19.7881 8.37476 20C8.37476 20.2119 8.43462 20.4195 8.54744 20.5989C8.66027 20.7783 8.82147 20.9222 9.01249 21.014L11 21.971V27.2375C11.0002 27.3935 11.0329 27.5478 11.096 27.6905L12.125 27.2375C11.096 27.6905 11.096 27.6935 11.096 27.6935L11.099 27.6995L11.1035 27.7085L11.1125 27.728C11.1456 27.7998 11.1832 27.8694 11.225 27.9365C11.2955 28.0565 11.399 28.2125 11.54 28.391C11.825 28.748 12.2645 29.1905 12.9155 29.621C14.222 30.4835 16.313 31.25 19.5905 31.25C22.856 31.25 24.821 30.488 25.997 29.567C26.582 29.1095 26.945 28.6325 27.167 28.241C27.2865 28.0287 27.3821 27.8038 27.452 27.5705L27.467 27.509L27.473 27.4835L27.4745 27.473L27.476 27.4685V27.467C27.476 27.467 27.476 27.464 26.375 27.2375L27.4775 27.464C27.4925 27.389 27.5 27.314 27.5 27.2375V22.3325L30.2375 21.0125C30.4277 20.9204 30.5881 20.7765 30.7003 20.5975C30.8126 20.4184 30.8721 20.2113 30.8721 20C30.8721 19.7887 30.8126 19.5816 30.7003 19.4025C30.5881 19.2234 30.4277 19.0796 30.2375 18.9875L20.1125 14.111ZM25.25 23.4155L20.1125 25.889C19.9604 25.9621 19.7938 26.0001 19.625 26.0001C19.4562 26.0001 19.2896 25.9621 19.1375 25.889L13.25 23.054V26.9225L13.2995 26.987C13.4465 27.1715 13.7135 27.4505 14.1545 27.743C15.032 28.322 16.673 29 19.589 29C22.514 29 23.942 28.319 24.611 27.7955C24.9485 27.5315 25.121 27.2855 25.205 27.1355C25.221 27.1076 25.236 27.079 25.25 27.05V23.4155ZM19.625 23.6255L12.0935 20L19.625 16.373L27.1565 20L19.625 23.627V23.6255Z" fill="#D35400"/>
</g>
<defs>
<clipPath id="clip0_310_1007">
<rect width="24" height="24" fill="white" transform="translate(8 8)"/>
</clipPath>
</defs>
</svg>
