<svg width="40" height="40" viewBox="0 0 40 40" fill="none" xmlns="http://www.w3.org/2000/svg">
<path d="M0 16C0 7.16344 7.16344 0 16 0H24C32.8366 0 40 7.16344 40 16V24C40 32.8366 32.8366 40 24 40H0V16Z" fill="#C9E4D4"/>
<path fill-rule="evenodd" clip-rule="evenodd" d="M30.5883 29.8498C30.5883 30.6079 30.2001 31.2249 29.7201 31.2249H10.2801C9.8001 31.2249 9.41187 30.6079 9.41187 29.8498C9.41187 29.0889 9.8001 28.4719 10.2801 28.4719H29.7201C30.2001 28.4719 30.5883 29.0889 30.5883 29.8498Z" fill="#27AE60"/>
<path fill-rule="evenodd" clip-rule="evenodd" d="M14.984 26.0112C14.984 26.5435 14.4673 26.9797 13.832 26.9797H12.1054C11.4687 26.9797 10.9548 26.5435 10.9548 26.0112V21.1547C10.9548 20.6211 11.4687 20.1863 12.1054 20.1863H13.832C14.4673 20.1863 14.984 20.6211 14.984 21.1547V26.0112Z" fill="#27AE60"/>
<path fill-rule="evenodd" clip-rule="evenodd" d="M21.9921 26.0127C21.9921 26.5464 21.4768 26.9798 20.8415 26.9798H19.1135C18.4782 26.9798 17.9629 26.5464 17.9629 26.0127V19.688C17.9629 19.1544 18.4782 18.7209 19.1135 18.7209H20.8415C21.4768 18.7209 21.9921 19.1544 21.9921 19.688V26.0127Z" fill="#27AE60"/>
<path fill-rule="evenodd" clip-rule="evenodd" d="M29.0891 25.9746C29.0891 26.504 28.571 26.9346 27.9258 26.9346H26.1809C25.5371 26.9346 25.0176 26.504 25.0176 25.9746V16.7911C25.0176 16.2616 25.5371 15.8311 26.1809 15.8311H27.9258C28.571 15.8311 29.0891 16.2616 29.0891 16.7911V25.9746Z" fill="#27AE60"/>
<path fill-rule="evenodd" clip-rule="evenodd" d="M10.4481 18.4767C9.91304 18.4753 9.47257 18.0574 9.4528 17.5266C9.43304 16.983 9.86363 16.5298 10.4156 16.5115C17.4801 16.2616 24.2057 13.5397 28.873 9.03902C29.2669 8.66067 29.8966 8.66491 30.2848 9.05597C30.6702 9.44279 30.6632 10.0682 30.2693 10.4466C25.1784 15.3553 18.1521 18.207 10.4848 18.4753C10.4735 18.4767 10.4594 18.4767 10.4481 18.4767Z" fill="#27AE60"/>
</svg>
