<svg width="58" height="56" viewBox="0 0 58 56" fill="none" xmlns="http://www.w3.org/2000/svg">
<path d="M28.8902 3.8147e-06C14.6028 3.8147e-06 15.5881 6.24046 15.5881 6.24046V12.6451H29.2186V14.6158H10.1688C10.1688 14.6158 0.97229 13.6305 0.97229 27.9179C0.97229 42.2053 9.01922 41.8769 9.01922 41.8769H13.7817V35.1437C13.7817 35.1437 13.4532 27.0968 21.6644 27.0968H35.1307C35.1307 27.0968 42.6849 27.261 42.6849 19.7068V7.39004C42.6849 7.55426 43.8345 3.8147e-06 28.8902 3.8147e-06ZM19.0368 6.89734C19.0368 5.58356 20.1864 4.43399 21.5002 4.43399C22.8139 4.43399 23.9635 5.58356 23.9635 6.89734C23.9635 8.21112 22.8139 9.36068 21.5002 9.36068C20.1864 9.36068 19.0368 8.21112 19.0368 6.89734Z" fill="#47494A"/>
<path d="M49.2538 14.1231H44.4913V20.8563C44.4913 20.8563 44.8197 28.9032 36.6086 28.9032H23.1423C23.1423 28.9032 15.5881 28.739 15.5881 36.2932V48.61C15.5881 48.61 14.4385 56 29.3828 56C43.6702 56 42.6848 49.7595 42.6848 49.7595V43.3549H29.0543V41.3842H48.1042C48.1042 41.3842 57.3007 42.3695 57.3007 28.0821C57.3007 14.6158 50.2391 14.1231 49.2538 14.1231ZM34.4737 49.2669C34.4737 47.9531 35.6233 46.8036 36.937 46.8036C38.2508 46.8036 39.4004 47.9531 39.4004 49.2669C39.4004 50.5807 38.2508 51.7302 36.937 51.7302C35.6233 51.7302 34.4737 50.5807 34.4737 49.2669Z" fill="#47494A"/>
</svg>
