<svg width="31" height="56" viewBox="0 0 31 56" fill="none" xmlns="http://www.w3.org/2000/svg">
<path d="M29.2595 44.0161V44.1281H29.4835V44.6881H29.5956V44.1281H29.8195V44.0161H29.2595ZM30.6035 44.0161L30.3795 44.4641L30.1556 44.0161H29.9316V44.6881H30.0435V44.1281L30.2675 44.6881H30.3795L30.6035 44.1281V44.6881H30.7156V44.0161H30.6035Z" fill="#373939"/>
<path d="M9.7713 25.5361C9.7713 25.5361 8.09129 26.7681 10.6673 26.9921C13.9153 27.3281 16.4913 27.3281 20.8593 26.5441C20.8593 26.5441 21.4193 27.2161 22.4273 27.5521C13.3553 30.1281 3.2753 27.6641 9.7713 25.5361ZM10.6673 29.6801C10.6673 29.6801 9.21131 30.5761 11.6753 30.8001C14.6993 31.1361 16.2673 31.1361 19.6273 30.4641C19.6273 30.4641 20.5233 31.0241 21.7553 31.4721C14.2513 34.7201 4.73129 31.3601 10.6673 29.6801Z" fill="#373939"/>
<path d="M17.499 18.368C19.403 20.496 17.0511 22.4 17.0511 22.4C17.0511 22.4 21.755 19.936 19.627 16.912C17.611 14.112 16.043 12.656 24.443 7.84003C24.331 7.84003 11.227 11.2 17.499 18.368Z" fill="#373939"/>
<path d="M23.8832 28.1121C31.0512 24.4161 27.8033 20.8321 25.4513 21.2801C24.8913 21.3921 24.6673 21.5041 24.6673 21.5041C24.6673 21.5041 24.8913 21.1681 25.2273 21.0561C29.8193 19.4881 33.4033 25.8721 23.7713 28.3361C23.6593 28.3361 23.7712 28.2241 23.8832 28.1121ZM11.3392 21.1681C11.3392 21.1681 4.39529 22.8481 8.87529 23.4081C10.7793 23.6321 14.5872 23.6321 18.0592 23.2961C20.9712 23.0721 23.8832 22.5121 23.8832 22.5121C23.8832 22.5121 22.8753 22.9601 22.0913 23.4081C15.0353 25.3121 1.37128 24.4161 5.29128 22.5121C8.65128 20.9441 11.3392 21.1681 11.3392 21.1681ZM27.3553 32.8161C27.3553 32.8161 28.4752 33.7121 26.1232 34.3841C21.7552 35.7281 8.09125 36.0641 4.28325 34.3841C2.93925 33.8241 5.51524 32.9281 6.29924 32.8161C7.19524 32.5921 7.64325 32.7041 7.64325 32.7041C6.07525 31.5841 -2.21273 34.8321 3.38726 35.7281C18.7313 38.1921 31.3873 34.6081 27.3553 32.8161Z" fill="#373939"/>
<path d="M19.5149 2.67029e-05C19.5149 2.67029e-05 23.5469 4.03203 15.7069 10.08C9.43489 15.008 14.2509 17.808 15.7069 21.056C12.1229 17.808 9.43489 14.896 11.2269 12.208C13.8029 8.28802 21.0829 6.38403 19.5149 2.67029e-05Z" fill="#373939"/>
<path d="M12.0115 38.304C18.9555 38.752 29.4834 38.08 29.8194 34.832C29.8194 34.832 29.3715 36.064 24.1075 37.072C18.1715 38.192 10.8915 38.08 6.6355 37.296C6.6355 37.296 7.53148 37.968 12.0115 38.304Z" fill="#373939"/>
<path d="M3.8352 54.32C3.2752 55.104 2.4912 55.664 1.5952 56L0.699219 54.992C1.37122 54.656 1.93121 54.096 2.26721 53.536C2.49121 53.088 2.6032 52.416 2.6032 50.96V40.88H4.50721V50.736C4.50721 52.752 4.3952 53.536 3.8352 54.32ZM29.1472 52.752V46.48C29.1472 44.912 28.2512 43.792 26.0112 43.792C24.6672 43.792 23.5472 44.128 22.6512 44.464L22.8752 45.584C23.5472 45.36 24.5552 45.024 25.4512 45.024C26.6832 45.024 27.2432 45.584 27.2432 46.592V47.376H26.5712C23.4352 47.376 22.0912 48.608 22.0912 50.4C22.0912 51.968 22.9872 52.864 24.7792 52.864C25.8992 52.864 26.6832 52.416 27.4672 51.744L27.5792 52.752C27.6912 52.752 29.1472 52.752 29.1472 52.752ZM27.3552 50.736C26.6832 51.296 26.0112 51.632 25.4512 51.632C24.5552 51.632 24.1072 51.072 24.1072 50.288C24.1072 49.392 24.6672 48.72 26.6832 48.72H27.4672L27.3552 50.736ZM18.7312 52.752H16.4912L13.8032 44.016H15.7072L17.3872 49.392L17.7232 50.96C18.6192 48.608 19.1792 46.256 19.5152 43.904H21.4192C20.9712 46.928 19.9632 50.064 18.7312 52.752ZM12.6832 52.752V46.48C12.6832 44.912 11.7872 43.792 9.54721 43.792C8.31521 43.792 7.08321 44.128 6.18721 44.464L6.41122 45.584C7.08322 45.36 8.09121 45.024 8.98721 45.024C10.2192 45.024 10.7792 45.584 10.7792 46.592V47.376H10.1072C6.97121 47.376 5.62721 48.608 5.62721 50.4C5.62721 51.968 6.52324 52.864 8.31524 52.864C9.43524 52.864 10.2192 52.416 11.0032 51.744L11.1152 52.752H12.6832ZM10.8912 50.736C10.2192 51.296 9.54721 51.632 8.98721 51.632C8.09121 51.632 7.6432 51.072 7.6432 50.288C7.6432 49.392 8.20318 48.72 10.2192 48.72H11.0032V50.736" fill="#373939"/>
</svg>
