<svg width="112" height="56" viewBox="0 0 112 56" fill="none" xmlns="http://www.w3.org/2000/svg">
<path d="M32.4397 20.0666H28.473L26.1396 31.4999H29.4064C31.973 31.4999 33.8396 31.0333 35.0063 30.1C36.173 29.1667 36.873 27.5333 37.3396 25.4333C37.8063 23.3333 37.5731 21.9333 36.8731 21.2333C36.4064 20.5333 34.773 20.0666 32.4397 20.0666Z" fill="#47494A"/>
<path d="M84.0064 20.0666H80.0399L77.7065 31.4999H80.9731C83.5398 31.4999 85.4065 31.0333 86.5732 30.1C87.7398 29.1667 88.4398 27.5333 88.9065 25.4333C89.3732 23.3333 89.1398 21.9333 88.4398 21.2333C87.7398 20.5333 86.3398 20.0666 84.0064 20.0666Z" fill="#47494A"/>
<path d="M97.0732 26.1334C96.8399 27.7667 96.3732 29.1667 95.4398 30.3333C94.7398 31.5 93.8065 32.9 92.6398 33.8333C91.2398 35.2333 89.6065 36.1667 87.9731 36.6334C86.3398 37.1 84.2398 37.5667 81.6731 37.5667H76.5399L75.1398 45.0333C75.1398 45.2666 74.9065 45.5 74.4398 45.5H67.9065C67.6732 45.5 67.4398 45.5001 67.4398 45.2667C67.4398 45.0334 67.2066 45.0334 67.2066 44.8L73.0399 14.4667C73.0399 14.2334 73.2732 14 73.7399 14H86.3398C90.3064 14 93.3399 15.1667 95.2066 17.2667C97.0732 19.3667 97.7732 22.4 97.0732 26.1334ZM60.2066 37.3333C59.9732 37.1 59.9731 37.1 59.9731 36.8666L62.5399 23.5667C62.7732 22.4 62.7731 21.4667 62.3065 21C62.0731 20.7667 61.3731 20.3 59.5064 20.3H54.8398L51.5732 37.1001C51.5732 37.3334 51.3399 37.5667 50.8732 37.5667H44.3398C44.1064 37.5667 43.8732 37.5667 43.8732 37.3333C43.6399 37.1 43.6398 37.1 43.6398 36.8666L49.4731 6.53338C49.4731 6.30005 49.7064 6.06668 50.1731 6.06668H56.7066C56.9399 6.06668 57.1731 6.0667 57.1731 6.30003C57.1731 6.53336 57.4065 6.53339 57.4065 6.76673L56.0064 14H61.1398C65.1065 14 67.6732 14.7001 69.0732 16.1001C70.7065 17.5001 71.1731 19.8334 70.4731 22.8667L67.6731 36.8666C67.6731 37.1 67.4398 37.3333 66.9731 37.3333H60.4398C60.4398 37.5667 60.2066 37.5667 60.2066 37.3333ZM41.3065 34.0667C39.9065 35.4667 38.2731 36.4 36.6398 36.8666C35.0065 37.3333 32.9065 37.8 30.3398 37.8H25.2065L23.8065 45.2667C23.8065 45.5001 23.5732 45.7334 23.1065 45.7334H16.5732C16.3399 45.7334 16.1065 45.7333 16.1065 45.5C15.8732 45.2667 15.8732 45.2666 15.8732 45.0333L21.7065 14.7C21.7065 14.4667 21.9399 14.2333 22.4065 14.2333H35.0064C38.9731 14.2333 42.0066 15.4 43.8732 17.5C45.7399 19.6 46.4398 22.6334 45.5064 26.3667C45.2731 28 44.8066 29.4 43.8732 30.5667C43.1732 31.7333 42.2398 32.9 41.3065 34.0667ZM55.7732 3.8147e-06C25.2065 3.8147e-06 0.473145 12.6 0.473145 28C0.473145 43.4 25.2065 56 55.7732 56C86.3398 56 111.073 43.4 111.073 28C110.84 12.6 86.3398 3.8147e-06 55.7732 3.8147e-06Z" fill="#47494A"/>
</svg>
