<svg width="57" height="56" viewBox="0 0 57 56" fill="none" xmlns="http://www.w3.org/2000/svg">
<path d="M48.2601 10.9776L44.6549 51.3658L28.449 55.8585L12.2878 51.372L8.68628 10.9776H48.2601Z" fill="#47494A"/>
<path d="M28.4731 52.4244L41.5683 48.794L44.6491 14.2803H28.4731V52.4244Z" fill="#47494A"/>
<path d="M21.4649 24.1889H28.4734V19.2347H16.0505L16.1691 20.5638L17.3868 34.2163H28.4734V29.2621H21.9177L21.4649 24.1889ZM22.5814 36.6935H17.6081L18.3022 44.4724L28.4506 47.2894L28.4734 47.2832V42.1288L28.4517 42.1345L22.9342 40.6447L22.5814 36.6935Z" fill="#FDFEFE"/>
<path d="M12.3682 3.8147e-06H14.8858V2.48743H17.189V3.8147e-06H19.7068V7.53255H17.1891V5.01022H14.886V7.53255H12.3683L12.3682 3.8147e-06ZM23.0175 2.49798H20.8014V3.8147e-06H27.7531V2.49798H25.5356V7.53255H23.0179V2.49798H23.0175ZM28.8564 3.8147e-06H31.4815L33.0964 2.64674L34.7097 3.8147e-06H37.3359V7.53255H34.8285V3.79901L33.0964 6.47723H33.0529L31.3197 3.79901V7.53255H28.8564V3.8147e-06ZM38.5889 3.8147e-06H41.1073V5.0428H44.6479V7.53255H38.5887V3.8147e-06H38.5889Z" fill="#373939"/>
<path d="M28.456 34.2163H34.5566L33.9814 40.6416L28.4558 42.1329V47.2871L38.6123 44.4724L38.6867 43.6353L39.8511 30.5925L39.972 29.2621H28.456V34.2163ZM28.456 24.1768V24.1889H40.4227L40.522 23.0754L40.7479 20.5638L40.8662 19.2347H28.456V24.1768Z" fill="#FDFEFE"/>
</svg>
