<svg width="156" height="156" viewBox="0 0 156 156" fill="none" xmlns="http://www.w3.org/2000/svg">
<g clip-path="url(#clip0_328_1052)">
<path d="M19.657 142.221C17.3964 141.103 15.313 138.099 15.2979 135.937C15.2979 135.029 15.2132 134.966 13.8452 134.761C13.05 134.642 11.8946 134.287 11.2777 133.972C8.95745 132.788 7.03141 129.59 7.03141 126.922C7.03141 125.776 7.0314 125.774 5.33024 125.421C3.22813 124.985 1.7008 123.721 0.714381 121.603L0.000976562 120.071V69.441C0.000976562 27.9383 0.0856659 18.6039 0.421085 17.6629C1.04668 15.9096 2.25508 14.5254 3.78954 13.8041L5.17846 13.1512H69.2825C139.015 13.1512 134.504 13.0422 136.386 14.7719C137.313 15.6245 138.561 18.243 138.565 19.3461C138.565 20.1478 138.638 20.1874 140.052 20.1874C143.878 20.1874 146.919 22.7878 147.745 26.7654L148.079 28.3722L149.587 28.517C152.109 28.7593 154.604 30.8677 155.569 33.5709C155.904 34.5117 155.98 43.8808 155.992 85.5238C156.014 141.811 156.15 137.839 154.008 140.342C153.433 141.014 152.341 141.856 151.581 142.213L150.199 142.862L85.5696 142.862L20.9403 142.862L19.6465 142.221L19.657 142.221ZM151.417 139.612C151.942 139.17 152.641 138.281 152.97 137.635C153.557 136.485 153.568 135.479 153.568 85.6572C153.568 43.6786 153.497 34.6802 153.155 33.8628C152.674 32.7113 150.725 30.8966 149.963 30.8905C149.674 30.8883 149.131 30.804 148.755 30.7033L148.073 30.5203L147.99 79.6004L147.908 128.68L146.987 130.481C145.864 132.676 144.093 134.113 141.94 134.574C140.843 134.81 122.185 134.908 78.8829 134.908H17.3833L17.5928 135.903C17.9155 137.426 18.9815 139.144 20.016 139.807C20.9343 140.395 21.9771 140.405 85.7047 140.41L150.46 140.414L151.417 139.612ZM142.372 132.035C143.523 131.554 144.747 130.064 145.266 128.515C145.747 127.08 145.761 28.2253 145.288 26.4966C145.108 25.8444 144.437 24.7506 143.798 24.0661C142.705 22.8947 142.518 22.814 140.611 22.6926L138.585 22.5635V71.4036C138.585 125.33 138.732 121.377 136.657 123.539C136.119 124.1 135.266 124.788 134.761 125.068C133.914 125.538 128.994 125.584 71.5083 125.658L9.17363 125.739L9.35639 127.035C9.65124 129.118 10.7406 130.996 12.103 131.768L13.3088 132.451L77.333 132.455C131.393 132.46 141.516 132.394 142.378 132.034L142.372 132.035ZM75.3662 106.899C80.9097 105.929 85.856 103.938 90.5659 100.781C107.008 89.7588 112.756 67.5888 103.678 50.207C98.0044 39.3449 88.2802 32.0087 76.1699 29.4546C72.5271 28.6863 64.4804 28.6907 60.8737 29.4635C53.2002 31.1065 46.5199 34.6477 41.1989 39.8932C35.5661 45.446 32.283 51.2008 30.2861 59.0217C28.9616 64.2097 28.9542 71.7243 30.2638 77.2588C33.7368 91.8856 45.6153 103.494 60.2574 106.57C63.649 107.282 63.7233 107.289 68.3643 107.333C71.0474 107.359 73.6615 107.197 75.362 106.899L75.3662 106.899ZM64.0859 100.521C62.2693 99.9445 60.0283 98.7329 58.0064 97.2346C56.3119 95.9791 53.1164 92.3318 51.9181 90.286L51.3752 89.3594L54.2125 88.4518C57.7773 87.3115 60.9267 86.6586 64.1623 86.389L66.6861 86.1786V93.5648V100.951L65.9979 100.931C65.6192 100.92 64.7589 100.735 64.0859 100.521ZM70.3572 93.7913C70.3572 87.4491 70.4174 86.5303 70.8451 86.3662C71.5429 86.0985 77.0092 86.8091 79.7815 87.528C82.7156 88.2887 85.6534 89.3379 85.6534 89.6249C85.6534 89.7443 84.979 90.7926 84.1546 91.9548C80.7305 96.7819 75.9905 100.128 71.5779 100.834L70.3572 101.029V93.7913ZM51.2619 97.716C49.282 96.5222 46.2362 94.2496 45.6182 93.505C45.2864 93.105 45.4154 92.9107 46.4796 92.2062C47.1683 91.7506 47.7751 91.4324 47.8284 91.4991C47.8819 91.5657 48.4264 92.3865 49.0384 93.323C49.6504 94.2595 50.8429 95.8163 51.6883 96.7825C53.8125 99.2099 53.7966 99.2445 51.2619 97.716ZM85.464 96.8505C86.4382 95.7021 87.7096 94.0212 88.2893 93.115C88.869 92.2088 89.4447 91.4674 89.5688 91.4674C89.6936 91.4674 90.3321 91.8329 90.9894 92.2795L92.1846 93.0917L91.29 93.8316C89.1469 95.6037 87.2104 96.9751 85.5144 97.9218L83.6929 98.9385L85.464 96.8505ZM41.0469 88.462C37.5 83.678 34.8879 76.9244 34.5186 71.5824L34.4228 70.2058H38.2388H42.055L42.4392 73.7239C42.8787 77.7479 44.0155 82.5976 45.3033 85.9419C45.7903 87.2065 46.1888 88.3281 46.1888 88.4343C46.1888 88.5407 45.4319 89.13 44.5068 89.7442L42.825 90.8608L41.0469 88.462ZM92.6034 89.8092C91.7989 89.2523 91.0763 88.7324 90.9979 88.6539C90.9199 88.5754 91.2163 87.6275 91.6564 86.5476C93.2558 82.6294 94.4345 77.4393 95.0033 71.8119L95.1816 70.0528H99.019H102.856L102.649 71.8119C102.112 76.3601 100.444 81.4997 98.3203 85.1486C97.1731 87.1192 94.4836 90.8469 94.2203 90.831C94.1357 90.8266 93.408 90.3661 92.6034 89.8092ZM49.1496 84.6343C47.865 81.4252 46.7738 76.5613 46.3414 72.1177L46.1408 70.0528H56.4136H66.6863V76.6301C66.6863 82.6893 66.644 83.2076 66.151 83.2099C63.0379 83.2255 56.4818 84.4479 52.9315 85.6766C51.5075 86.1694 50.2488 86.5726 50.1342 86.5726C50.0206 86.5726 49.5764 85.7004 49.1496 84.6343ZM85.3515 86.086C82.6171 84.9002 78.6337 84.0389 72.3457 83.274L70.5103 83.0507V76.6283V70.2058L80.7276 70.1251L90.945 70.0444L90.7489 72.5725C90.4119 76.908 89.2853 81.7193 87.7901 85.2078C87.1514 86.6978 86.9385 86.7744 85.3515 86.086ZM34.4645 66.1615C34.1832 65.706 35.1761 60.0973 35.9688 57.663C36.4072 56.3169 37.2871 54.1646 37.9241 52.8801C39.3986 49.9067 42.3797 45.579 42.9534 45.579C43.3935 45.579 46.179 47.6014 46.1839 47.9245C46.1839 48.1208 45.8981 48.9469 45.542 49.7601C44.0104 53.2582 42.3995 60.404 42.1399 64.8521L42.0596 66.2288L38.3359 66.3145C36.2878 66.3618 34.5456 66.2921 34.4645 66.1615ZM46.3332 64.1638C46.6031 61.255 47.2998 57.4376 48.0027 55.0173C48.4988 53.3088 49.7763 49.8445 49.9887 49.6319C50.031 49.5896 51.2238 49.9537 52.6397 50.441C55.9973 51.5965 59.129 52.273 63.2174 52.7258L66.5332 53.0932L66.6157 59.7375L66.6981 66.3817H56.4127H46.1273L46.3332 64.1638ZM70.4941 65.9911C70.4116 65.7762 70.3804 62.782 70.4272 59.3373L70.5097 53.0741L73.1099 52.8436C77.6774 52.4389 82.6886 51.2773 86.6316 49.7091C87.0301 49.5507 87.2679 49.7769 87.6483 50.6764C89.2916 54.5618 90.8534 61.4207 90.8534 64.7526V66.3817H80.7483C72.8326 66.3817 70.6115 66.297 70.4941 65.9911ZM94.9975 64.1638C94.5464 59.2001 93.354 54.0124 91.7122 49.8699C91.1913 48.5558 90.9379 47.5396 91.1162 47.4802C91.2878 47.4233 91.9847 46.9723 92.6672 46.4779C93.3496 45.9835 94.0458 45.579 94.2143 45.579C94.7151 45.579 97.774 49.9211 99.0956 52.5076C101.125 56.4796 102.785 62.2558 102.785 65.3448V66.3817H98.992H95.1992L94.9975 64.1638ZM70.4983 49.901C70.1909 49.5937 70.3623 35.5164 70.6766 35.3227C71.2166 34.989 74.9971 36.3114 77.0012 37.5349C78.0471 38.1734 79.6302 39.3297 80.5194 40.1044C82.4158 41.757 85.8661 46.4158 85.468 46.7863C85.0044 47.2176 80.7331 48.5659 78.159 49.0935C75.5514 49.628 70.7332 50.1358 70.4983 49.901ZM61.3325 49.5187C58.4635 49.0032 55.5225 48.2461 53.475 47.4959L51.4302 46.7467L52.3248 45.2926C53.5548 43.2938 56.6652 39.9567 58.6987 38.4545C60.511 37.1157 63.6756 35.6804 65.539 35.352L66.6861 35.1499V42.5059V49.8619L64.7741 49.8276C63.7226 49.8098 62.1739 49.6699 61.3325 49.5187ZM88.5911 43.6167C88.1485 42.8611 86.9604 41.2039 85.9512 39.934C84.942 38.664 84.1852 37.625 84.269 37.625C84.7557 37.625 89.0163 40.4519 90.4336 41.7151C92.266 43.3483 92.2838 43.1352 90.2018 44.473L89.3963 44.9905L88.5911 43.6167ZM46.2699 43.9539C45.7252 43.5857 45.2779 43.1932 45.2757 43.0815C45.2757 42.5539 52.2704 37.625 53.0306 37.625C53.1688 37.625 52.6451 38.3338 51.8664 39.2C51.0874 40.0662 49.8755 41.6494 49.1728 42.7181C48.47 43.7868 47.7522 44.6527 47.5777 44.6422C47.4038 44.631 46.8146 44.322 46.2699 43.9539Z" fill="#0D628C"/>
</g>
<defs>
<clipPath id="clip0_328_1052">
<rect width="156" height="156" fill="white"/>
</clipPath>
</defs>
</svg>
